<svg viewBox="0 0 362 334" fill="none" xmlns="http://www.w3.org/2000/svg">
<path d="M1.9375 48.1451L69.6443 49.8684L58.3419 59.1312L59.4183 70.0097L50.0535 64.732L39.5046 72.2715L1.9375 48.1451Z" fill="white"/>
<path d="M3.76747 48.6837L68.1374 50.2993L58.2343 58.5927L57.8038 58.9158L57.9114 59.4544L58.8802 68.9326L50.5917 64.5166L49.9459 64.1935L49.5153 64.5166L39.5046 71.6253L3.76747 48.6837ZM0 47.4989L39.5046 72.9178L50.0535 65.3783L59.9566 70.8713L58.8802 59.3467L71.0437 49.2222L0 47.4989Z" fill="#333333"/>
<path d="M58.9876 59.3466L1.07617 47.6066L53.0672 63.3318L60.064 70.979L58.9876 59.3466Z" fill="#E3CCFF" stroke="#333333" stroke-miterlimit="10" stroke-linecap="round" stroke-linejoin="round"/>
<path d="M53.0675 63.3318L50.1611 65.3783L60.0642 70.979L53.0675 63.3318Z" fill="#E3CCFF" stroke="#333333" stroke-miterlimit="10" stroke-linecap="round" stroke-linejoin="round"/>
<path d="M289.231 197.7L248.061 213.898L258.971 241.662L300.141 225.465L289.231 197.7Z" fill="#B2EEDF" stroke="#333333" stroke-miterlimit="10" stroke-linecap="round" stroke-linejoin="round"/>
<path d="M248.222 214.23C248.652 214.337 249.513 214.768 250.159 214.984C251.559 215.414 253.496 216.168 255.864 216.922C260.708 218.538 267.382 220.8 274.809 223.277H274.917L275.025 223.169C275.132 223.062 275.132 222.954 275.24 222.846C279.115 215.953 282.667 209.814 285.251 205.29C286.542 203.028 287.511 201.197 288.264 199.905C288.587 199.258 288.91 198.827 289.018 198.397" fill="#B2EEDF"/>
<path d="M248.222 214.23C248.652 214.337 249.513 214.768 250.159 214.984C251.559 215.414 253.496 216.168 255.864 216.922C260.708 218.538 267.382 220.8 274.809 223.277H274.917L275.025 223.169C275.132 223.062 275.132 222.954 275.24 222.846C279.115 215.953 282.667 209.814 285.251 205.29C286.542 203.028 287.511 201.197 288.264 199.905C288.587 199.258 288.91 198.827 289.018 198.397" stroke="#333333" stroke-miterlimit="10" stroke-linecap="round" stroke-linejoin="round"/>
<path d="M279.761 214.768C279.761 214.876 284.066 217.245 289.771 220.369C295.476 223.492 300.213 225.862 300.213 225.754" fill="#B2EEDF"/>
<path d="M279.761 214.768C279.761 214.876 284.066 217.245 289.771 220.369C295.476 223.492 300.213 225.862 300.213 225.754" stroke="#333333" stroke-miterlimit="10" stroke-linecap="round" stroke-linejoin="round"/>
<path d="M265.445 220.153C264.906 221.554 263.615 225.754 262.108 230.817C260.708 235.663 259.524 239.756 259.094 241.372" fill="#B2EEDF"/>
<path d="M265.445 220.153C264.906 221.554 263.615 225.754 262.108 230.817C260.708 235.663 259.524 239.756 259.094 241.372" stroke="#333333" stroke-miterlimit="10" stroke-linecap="round" stroke-linejoin="round"/>
<path d="M320.912 146.27L317.334 161.693L340.192 167.002L343.77 151.579L320.912 146.27Z" fill="#FFDFA6" stroke="#333333" stroke-miterlimit="10" stroke-linecap="round" stroke-linejoin="round"/>
<path d="M320.881 146.482C320.989 146.697 321.311 147.128 321.527 147.451C321.957 148.097 322.603 148.959 323.464 150.036C325.079 152.19 327.339 155.206 329.815 158.545V158.653H329.923C330.03 158.653 330.03 158.545 330.138 158.545C333.906 156.714 337.35 155.098 339.826 153.914C341.01 153.267 342.086 152.837 342.732 152.513C343.055 152.298 343.27 152.19 343.486 152.083" fill="#FFDFA6"/>
<path d="M320.881 146.482C320.989 146.697 321.311 147.128 321.527 147.451C321.957 148.097 322.603 148.959 323.464 150.036C325.079 152.19 327.339 155.206 329.815 158.545V158.653H329.923C330.03 158.653 330.03 158.545 330.138 158.545C333.906 156.714 337.35 155.098 339.826 153.914C341.01 153.267 342.086 152.837 342.732 152.513C343.055 152.298 343.27 152.19 343.486 152.083" stroke="#333333" stroke-miterlimit="10" stroke-linecap="round" stroke-linejoin="round"/>
<path d="M334.551 156.283C334.551 156.283 335.627 158.653 337.242 161.776C338.856 164.9 340.148 167.377 340.148 167.269" fill="#FFDFA6"/>
<path d="M334.551 156.283C334.551 156.283 335.627 158.653 337.242 161.776C338.856 164.9 340.148 167.377 340.148 167.269" stroke="#333333" stroke-miterlimit="10" stroke-linecap="round" stroke-linejoin="round"/>
<path d="M326.694 154.237C326.048 154.668 324.218 156.175 322.065 157.899C320.02 159.622 318.297 161.022 317.544 161.561" fill="#FFDFA6"/>
<path d="M326.694 154.237C326.048 154.668 324.218 156.175 322.065 157.899C320.02 159.622 318.297 161.022 317.544 161.561" stroke="#333333" stroke-miterlimit="10" stroke-linecap="round" stroke-linejoin="round"/>
<path d="M258.295 29.2628L253.179 59.6389L298.185 67.2289L303.301 36.8528L258.295 29.2628Z" fill="#E3CCFF" stroke="#333333" stroke-miterlimit="10"/>
<path d="M258.233 29.6195C258.556 29.9426 259.095 30.8043 259.525 31.3428C260.494 32.5276 261.893 34.1432 263.508 36.0819C266.952 40.1748 271.581 45.6678 276.855 51.8072L276.963 51.9149L277.071 51.8072C277.178 51.6995 277.286 51.6995 277.394 51.5917C284.498 47.6066 290.957 44.0522 295.585 41.3596C297.846 40.0671 299.783 38.99 301.075 38.2361C301.721 37.9129 302.151 37.5898 302.582 37.3744" fill="#E3CCFF"/>
<path d="M258.233 29.6195C258.556 29.9426 259.095 30.8043 259.525 31.3428C260.494 32.5276 261.893 34.1432 263.508 36.0819C266.952 40.1748 271.581 45.6678 276.855 51.8072L276.963 51.9149L277.071 51.8072C277.178 51.6995 277.286 51.6995 277.394 51.5917C284.498 47.6066 290.957 44.0522 295.585 41.3596C297.846 40.0671 299.783 38.99 301.075 38.2361C301.721 37.9129 302.151 37.5898 302.582 37.3744" stroke="#333333" stroke-miterlimit="10"/>
<path d="M285.897 46.9603C285.789 47.068 288.373 51.3763 291.709 57.1925C295.154 63.0087 297.953 67.6401 298.06 67.5324" fill="#E3CCFF"/>
<path d="M285.897 46.9603C285.789 47.068 288.373 51.3763 291.709 57.1925C295.154 63.0087 297.953 67.6401 298.06 67.5324" stroke="#333333" stroke-miterlimit="10"/>
<path d="M270.397 43.9445C269.213 44.9139 265.768 47.9297 261.785 51.5917C258.018 55.0384 254.789 58.0542 253.497 59.3467" fill="#E3CCFF"/>
<path d="M270.397 43.9445C269.213 44.9139 265.768 47.9297 261.785 51.5917C258.018 55.0384 254.789 58.0542 253.497 59.3466" stroke="#333333" stroke-miterlimit="10"/>
<path d="M252.959 316.982C263.938 283.27 279.546 259.79 290.633 245.572C304.089 228.339 318.836 215.091 337.888 210.244C343.916 208.737 352.851 206.582 357.91 211.645C363.077 216.922 362.323 228.124 356.941 232.648C350.375 238.033 338.427 232.54 332.614 229.739C290.956 210.46 261.032 128.064 285.359 103.614C292.894 96.0748 307.21 92.4128 315.929 97.9058C324.11 103.076 327.124 116.539 323.572 125.587C316.36 144.005 282.022 146.051 264.907 147.128C192.141 151.436 108.826 103.291 61.5713 71.6253" stroke="#333333" stroke-miterlimit="10" stroke-linecap="round" stroke-linejoin="round" stroke-dasharray="4 4"/>
<path d="M233.906 334L120.666 333.461C106.996 333.354 96.0162 322.26 96.1238 308.689L97.3079 24.665C97.4155 10.9861 108.503 1.16378e-05 122.066 0.107719L235.305 0.646255C248.975 0.753962 259.955 11.8478 259.847 25.4189L258.663 309.443C258.663 323.014 247.576 334 233.906 334Z" fill="#333333"/>
<path d="M120.882 321.075C111.625 321.075 104.197 313.536 104.197 304.273L105.381 27.0345C105.381 17.8794 112.916 10.3399 122.066 10.3399L141.334 10.4476H143.702C146.393 10.4476 148.438 12.7095 148.438 15.5098V19.495C148.438 22.8339 151.022 25.6343 154.251 25.6343L207.856 25.8497C211.086 25.8497 213.777 23.1571 213.777 19.7104V15.7253C213.777 12.9249 215.93 10.663 218.621 10.663L235.198 10.7707C244.455 10.7707 251.882 18.3102 251.882 27.5731L250.698 304.811C250.698 313.966 243.163 321.506 234.013 321.506C234.013 321.614 120.882 321.075 120.882 321.075Z" fill="white"/>
<path d="M122.173 10.8784L141.441 10.9861H143.809C146.178 10.9861 148.007 13.0326 148.007 15.5098V19.495C148.007 23.1571 150.806 26.1729 154.358 26.1729L207.964 26.3883C211.516 26.3883 214.315 23.3725 214.423 19.7104V15.7253C214.423 13.248 216.36 11.2016 218.728 11.2016L235.305 11.3093C244.239 11.3093 251.451 18.6333 251.451 27.573L250.267 304.811C250.267 313.751 242.948 320.967 234.121 320.967H234.013L120.989 320.429C112.055 320.429 104.843 313.105 104.843 304.165L106.027 26.9268C105.919 18.0948 113.239 10.8784 122.173 10.8784ZM122.173 9.80136C112.701 9.80136 104.951 17.4486 104.951 27.0345L103.767 304.273C103.767 313.859 111.409 321.614 120.989 321.614L234.013 322.152H234.121C243.594 322.152 251.344 314.505 251.344 304.919L252.528 27.6808C252.528 18.0948 244.885 10.3399 235.305 10.3399L218.728 10.2322C215.822 10.2322 213.454 12.7095 213.346 15.833V19.8181C213.346 22.9416 210.978 25.4189 207.964 25.4189L154.358 25.2035C151.452 25.2035 149.084 22.7262 149.084 19.6027V15.6175C149.084 12.494 146.716 10.0168 143.809 10.0168H141.441L122.173 9.80136Z" fill="#333333"/>
<path d="M171.043 299.965C171.043 301.257 169.966 302.334 168.675 302.334C167.383 302.334 166.307 301.257 166.307 299.965C166.307 298.672 167.383 297.595 168.675 297.595C169.966 297.595 171.043 298.672 171.043 299.965Z" fill="#E3CCFF" stroke="#333333" stroke-miterlimit="10"/>
<path d="M180.407 299.965C180.407 301.257 179.331 302.334 178.039 302.334C176.747 302.334 175.671 301.257 175.671 299.965C175.671 298.672 176.747 297.595 178.039 297.595C179.331 297.595 180.407 298.672 180.407 299.965Z" fill="#E3CCFF" stroke="#333333" stroke-miterlimit="10"/>
<path d="M189.772 299.965C189.772 301.257 188.696 302.334 187.404 302.334C186.113 302.334 185.036 301.257 185.036 299.965C185.036 298.672 186.113 297.595 187.404 297.595C188.696 297.595 189.772 298.672 189.772 299.965Z" fill="#E3CCFF" stroke="#333333" stroke-miterlimit="10"/>
<path d="M243.056 25.4189C243.056 26.6037 242.087 27.5731 240.903 27.5731C239.719 27.5731 238.75 26.6037 238.75 25.4189C238.75 24.2341 239.719 23.2648 240.903 23.2648C242.087 23.3725 243.056 24.2341 243.056 25.4189Z" fill="#B2EEDF" stroke="#333333" stroke-miterlimit="10" stroke-linecap="round" stroke-linejoin="round"/>
<path d="M243.056 33.0661C243.056 34.2509 242.087 35.2203 240.903 35.2203C239.719 35.2203 238.75 34.2509 238.75 33.0661C238.75 31.8814 239.719 30.912 240.903 30.912C242.087 30.912 243.056 31.8814 243.056 33.0661Z" fill="#B2EEDF" stroke="#333333" stroke-miterlimit="10" stroke-linecap="round" stroke-linejoin="round"/>
<path d="M243.056 40.6056C243.056 41.7904 242.087 42.7598 240.903 42.7598C239.719 42.7598 238.75 41.7904 238.75 40.6056C238.75 39.4208 239.719 38.4515 240.903 38.4515C242.087 38.4515 243.056 39.4208 243.056 40.6056Z" fill="#B2EEDF" stroke="#333333" stroke-miterlimit="10" stroke-linecap="round" stroke-linejoin="round"/>
<path d="M122.927 32.2045C122.927 33.8201 122.927 35.4357 122.927 36.9436V37.159H123.143C124.865 37.159 126.587 37.159 128.202 37.159H128.417V36.9436C128.417 34.0355 128.417 31.3428 128.417 28.9732V28.8655L128.31 28.7578C126.157 26.8191 124.434 25.3112 123.143 24.2341C122.712 23.911 122.389 23.5879 122.066 23.3725C121.851 23.1571 121.528 23.0493 121.205 23.0493C120.882 23.0493 120.559 23.1571 120.344 23.3725C120.021 23.5879 119.698 23.911 119.268 24.2341C117.976 25.3112 116.254 26.9268 114.101 28.7578L113.993 28.8655V28.9732C113.993 31.3428 113.993 34.0355 113.993 36.9436V37.159H114.208C115.931 37.159 117.761 37.159 119.591 37.159H119.806V36.9436C119.806 35.4357 119.806 33.8201 119.806 32.2045H122.927Z" fill="#B2EEDF" stroke="#333333" stroke-miterlimit="10" stroke-linecap="round" stroke-linejoin="round"/>
<path d="M118.406 264.098C118.406 263.99 144.025 263.883 175.779 263.883C207.426 263.883 233.045 263.99 233.045 264.098" stroke="#333333" stroke-miterlimit="10" stroke-linecap="round" stroke-linejoin="round"/>
<path d="M118.406 275.515C118.406 275.407 144.025 275.3 175.779 275.3C207.426 275.3 233.045 275.407 233.045 275.515" stroke="#333333" stroke-miterlimit="10" stroke-linecap="round" stroke-linejoin="round"/>
<path d="M150.807 286.932C150.807 286.824 162.001 286.717 175.672 286.717C189.45 286.717 200.537 286.824 200.537 286.932" stroke="#333333" stroke-miterlimit="10" stroke-linecap="round" stroke-linejoin="round"/>
<path d="M176.21 206.152C210.155 206.152 237.673 178.617 237.673 144.651C237.673 110.685 210.155 83.1499 176.21 83.1499C142.264 83.1499 114.746 110.685 114.746 144.651C114.746 178.617 142.264 206.152 176.21 206.152Z" fill="white"/>
<path d="M176.21 83.7962C209.794 83.7962 237.135 111.154 237.135 144.758C237.135 178.363 209.794 205.721 176.21 205.721C142.625 205.721 115.284 178.363 115.284 144.758C115.284 111.154 142.625 83.7962 176.21 83.7962ZM176.21 82.7191C141.98 82.7191 114.208 110.508 114.208 144.758C114.208 179.009 141.98 206.798 176.21 206.798C210.44 206.798 238.212 179.009 238.212 144.758C238.212 110.4 210.44 82.7191 176.21 82.7191Z" fill="#333333"/>
<path d="M176.103 58.2696C175.349 53.9613 182.13 47.4989 187.943 48.0374C192.464 48.4682 192.464 52.9919 199.784 57.3002C206.458 61.2854 209.472 59.239 212.486 62.901C216.145 67.317 212.27 71.1945 215.607 77.98C219.052 84.981 225.08 84.5501 226.048 90.1509C226.91 95.2132 222.281 96.8288 222.927 102.322C223.68 107.923 228.632 108.353 230.462 114.277C232.076 119.663 231 127.956 225.618 130.541C219.913 133.341 208.395 134.203 203.444 130.003C194.617 122.571 199.891 112.877 194.186 92.9513C191.172 82.6114 194.94 70.0097 184.068 64.0858C179.978 62.1471 176.641 61.1777 176.103 58.2696Z" fill="#333333"/>
<path d="M161.463 63.4395C159.31 69.3634 158.342 74.1026 156.189 78.734C155.005 81.4266 153.39 84.0116 153.498 86.9197C153.605 88.8584 154.574 90.7972 154.467 92.8436C154.359 96.3979 151.345 98.9829 148.762 101.352C146.071 103.614 143.379 106.738 143.918 110.184C144.133 111.692 144.994 113.093 145.102 114.6C145.209 116.431 144.348 118.263 143.164 119.663C141.98 121.171 140.688 122.463 139.72 124.079L139.289 126.879L172.335 116.431" fill="#263238"/>
<path d="M180.408 56.654C179.224 55.2538 172.335 47.1758 162.862 48.2528C155.65 49.0068 149.084 55.1461 147.792 61.2854C146.393 67.9632 154.897 71.3022 153.39 77.4415C152.313 81.7498 148.008 81.3189 145.855 86.7043C143.702 92.0897 147.254 94.1361 145.855 100.168C144.025 108.246 136.921 108.461 136.167 115.247C135.521 121.278 141.011 123.756 140.15 129.356C139.289 134.419 133.261 133.772 131.216 139.05C128.632 145.512 133.584 155.098 137.889 155.314C141.011 155.529 141.549 150.359 148.115 143.466C155.327 136.034 159.848 136.896 167.276 130.218C173.196 124.94 175.887 119.34 178.578 113.954C179.547 111.692 196.77 75.6105 180.408 56.654Z" fill="#333333"/>
<path d="M241.549 117.293C241.441 111.692 242.41 103.937 242.41 101.029C242.517 95.644 242.194 95.644 241.764 95.7517C240.58 96.0748 241.226 105.23 240.364 103.399C239.396 101.568 240.472 91.9819 239.288 92.3051C237.673 92.7359 238.535 102.322 238.535 103.183C238.535 103.937 237.781 104.153 237.781 103.399C237.781 102.322 237.673 91.1203 236.059 91.5511C235.198 91.7665 235.628 94.0284 235.628 94.0284C235.628 94.0284 236.274 104.476 235.521 104.691C234.767 104.907 234.229 98.7675 234.121 96.6133C234.014 94.5669 233.368 93.813 232.722 94.6746C232.291 95.2132 232.507 101.676 232.614 103.722C232.722 105.768 233.152 111.369 231.323 108.892C229.6 106.415 227.555 105.553 226.909 105.768C226.263 106.092 226.263 107.492 227.017 107.923C227.555 108.246 228.416 109.107 229.062 109.861C229.6 110.508 229.923 111.262 230.354 112.015C230.784 112.877 232.291 116.108 232.507 119.447L240.687 118.37" fill="white"/>
<path d="M241.549 117.293C241.441 111.692 242.41 103.937 242.41 101.029C242.517 95.644 242.194 95.644 241.764 95.7517C240.58 96.0748 241.226 105.23 240.364 103.399C239.396 101.568 240.472 91.9819 239.288 92.3051C237.673 92.7359 238.535 102.322 238.535 103.183C238.535 103.937 237.781 104.153 237.781 103.399C237.781 102.322 237.673 91.1203 236.059 91.5511C235.198 91.7665 235.628 94.0284 235.628 94.0284C235.628 94.0284 236.274 104.476 235.521 104.691C234.767 104.907 234.229 98.7675 234.121 96.6133C234.014 94.5669 233.368 93.813 232.722 94.6746C232.291 95.2132 232.507 101.676 232.614 103.722C232.722 105.768 233.152 111.369 231.323 108.892C229.6 106.415 227.555 105.553 226.909 105.768C226.263 106.092 226.263 107.492 227.017 107.923C227.555 108.246 228.416 109.107 229.062 109.861C229.6 110.508 229.923 111.262 230.354 112.015C230.784 112.877 232.291 116.108 232.507 119.447L240.687 118.37" stroke="#333333" stroke-miterlimit="10"/>
<path d="M239.396 112.123C239.396 112.123 239.181 112.231 238.75 112.554C238.427 112.877 237.889 113.416 237.674 114.385L237.566 114.816L237.459 114.385C237.243 113.846 237.028 113.308 236.705 112.877C235.952 111.908 235.09 111.369 234.445 111.262C233.799 111.154 233.368 111.262 233.368 111.154" stroke="#333333" stroke-miterlimit="10" stroke-linecap="round" stroke-linejoin="round"/>
<path d="M206.027 147.02L201.506 171.039C200.215 177.286 200.86 183.748 203.336 189.672L207.104 197.858C198.062 203.136 187.405 206.044 176.103 206.044C165.661 206.044 155.974 203.567 147.362 198.935L151.13 188.38C152.744 182.779 152.744 176.747 151.022 171.147L149.192 154.452L134.338 189.672C127.664 182.564 128.417 183.425 123.466 176.209C129.063 164.792 137.675 128.495 140.043 125.802C149.192 115.354 165.123 115.139 165.123 115.139L190.204 117.078C190.204 117.078 209.257 112.985 224.219 138.727L229.816 145.943L232.83 150.467V118.586L241.872 116.001C241.872 116.001 254.036 158.653 246.178 175.563C243.594 181.056 236.275 182.348 231.969 178.04C226.802 173.193 217.868 163.5 206.027 147.02Z" fill="#FFDFA6" stroke="#333333" stroke-miterlimit="10" stroke-linecap="round" stroke-linejoin="round"/>
<path d="M157.05 141.42C157.05 141.958 156.619 142.389 156.081 142.389C155.543 142.389 155.112 141.958 155.112 141.42C155.112 140.881 155.543 140.45 156.081 140.45C156.727 140.45 157.05 140.881 157.05 141.42Z" fill="#333333"/>
<path d="M150.484 151.005C150.484 151.544 150.054 151.975 149.516 151.975C148.977 151.975 148.547 151.544 148.547 151.005C148.547 150.467 148.977 150.036 149.516 150.036C150.054 150.036 150.484 150.467 150.484 151.005Z" fill="#333333"/>
<path d="M171.366 141.42C171.366 141.958 170.936 142.389 170.397 142.389C169.859 142.389 169.429 141.958 169.429 141.42C169.429 140.881 169.859 140.45 170.397 140.45C171.043 140.45 171.366 140.881 171.366 141.42Z" fill="#333333"/>
<path d="M182.453 135.173C182.453 135.711 182.023 136.142 181.484 136.142C180.946 136.142 180.516 135.711 180.516 135.173C180.516 134.634 180.946 134.203 181.484 134.203C182.023 134.203 182.453 134.634 182.453 135.173Z" fill="#333333"/>
<path d="M174.165 127.956C174.165 128.495 173.735 128.925 173.196 128.925C172.658 128.925 172.228 128.495 172.228 127.956C172.228 127.418 172.658 126.987 173.196 126.987C173.735 126.987 174.165 127.418 174.165 127.956Z" fill="#333333"/>
<path d="M150.161 122.14C150.161 122.678 149.731 123.109 149.192 123.109C148.654 123.109 148.224 122.678 148.224 122.14C148.224 121.601 148.654 121.171 149.192 121.171C149.731 121.278 150.161 121.601 150.161 122.14Z" fill="#333333"/>
<path d="M178.04 152.406C178.04 152.944 177.61 153.375 177.071 153.375C176.533 153.375 176.103 152.944 176.103 152.406C176.103 151.867 176.533 151.436 177.071 151.436C177.61 151.436 178.04 151.867 178.04 152.406Z" fill="#333333"/>
<path d="M189.45 148.528C189.45 149.067 189.02 149.498 188.481 149.498C187.943 149.498 187.513 149.067 187.513 148.528C187.513 147.99 187.943 147.559 188.481 147.559C189.02 147.559 189.45 147.99 189.45 148.528Z" fill="#333333"/>
<path d="M207.749 139.265C207.749 139.804 207.319 140.235 206.78 140.235C206.242 140.235 205.812 139.804 205.812 139.265C205.812 138.727 206.242 138.296 206.78 138.296C207.319 138.404 207.749 138.835 207.749 139.265Z" fill="#333333"/>
<path d="M224.757 154.452C224.757 154.991 224.326 155.421 223.788 155.421C223.25 155.421 222.819 154.991 222.819 154.452C222.819 153.914 223.25 153.483 223.788 153.483C224.326 153.483 224.757 153.914 224.757 154.452Z" fill="#333333"/>
<path d="M233.691 159.622C233.691 160.161 233.261 160.591 232.723 160.591C232.184 160.591 231.754 160.161 231.754 159.622C231.754 159.084 232.184 158.653 232.723 158.653C233.261 158.653 233.691 159.084 233.691 159.622Z" fill="#333333"/>
<path d="M236.274 172.547C236.274 173.085 235.844 173.516 235.306 173.516C234.767 173.516 234.337 173.085 234.337 172.547C234.337 172.008 234.767 171.578 235.306 171.578C235.844 171.685 236.274 172.116 236.274 172.547Z" fill="#333333"/>
<path d="M244.993 163.284C244.993 163.823 244.563 164.253 244.024 164.253C243.486 164.253 243.056 163.823 243.056 163.284C243.056 162.746 243.486 162.315 244.024 162.315C244.563 162.422 244.993 162.853 244.993 163.284Z" fill="#333333"/>
<path d="M239.073 151.005C239.073 151.544 238.643 151.975 238.105 151.975C237.566 151.975 237.136 151.544 237.136 151.005C237.136 150.467 237.566 150.036 238.105 150.036C238.643 150.036 239.073 150.467 239.073 151.005Z" fill="#333333"/>
<path d="M244.993 140.45C244.993 140.989 244.563 141.42 244.024 141.42C243.486 141.42 243.056 140.989 243.056 140.45C243.056 139.912 243.486 139.481 244.024 139.481C244.563 139.589 244.993 140.019 244.993 140.45Z" fill="#333333"/>
<path d="M237.674 131.295C237.674 131.834 237.243 132.264 236.705 132.264C236.167 132.264 235.736 131.834 235.736 131.295C235.736 130.757 236.167 130.326 236.705 130.326C237.243 130.326 237.674 130.757 237.674 131.295Z" fill="#333333"/>
<path d="M242.841 121.278C242.841 121.817 242.41 122.248 241.872 122.248C241.334 122.248 240.903 121.817 240.903 121.278C240.903 120.74 241.334 120.309 241.872 120.309C242.41 120.309 242.841 120.74 242.841 121.278Z" fill="#333333"/>
<path d="M226.264 165.331C226.264 165.869 225.833 166.3 225.295 166.3C224.757 166.3 224.326 165.869 224.326 165.331C224.326 164.792 224.757 164.361 225.295 164.361C225.833 164.361 226.264 164.792 226.264 165.331Z" fill="#333333"/>
<path d="M214.746 150.359C214.746 150.898 214.316 151.329 213.777 151.329C213.239 151.329 212.809 150.898 212.809 150.359C212.809 149.821 213.239 149.39 213.777 149.39C214.316 149.39 214.746 149.821 214.746 150.359Z" fill="#333333"/>
<path d="M224.757 143.574C224.757 144.112 224.326 144.543 223.788 144.543C223.25 144.543 222.819 144.112 222.819 143.574C222.819 143.035 223.25 142.604 223.788 142.604C224.326 142.604 224.757 143.035 224.757 143.574Z" fill="#333333"/>
<path d="M216.899 137.327C216.899 137.865 216.469 138.296 215.931 138.296C215.392 138.296 214.962 137.865 214.962 137.327C214.962 136.788 215.392 136.357 215.931 136.357C216.469 136.465 216.899 136.896 216.899 137.327Z" fill="#333333"/>
<path d="M161.141 130.433C161.676 130.433 162.109 129.999 162.109 129.464C162.109 128.929 161.676 128.495 161.141 128.495C160.606 128.495 160.172 128.929 160.172 129.464C160.172 129.999 160.606 130.433 161.141 130.433Z" fill="#333333"/>
<path d="M137.244 150.036C137.244 150.575 136.814 151.005 136.275 151.005C135.737 151.005 135.307 150.575 135.307 150.036C135.307 149.498 135.737 149.067 136.275 149.067C136.814 149.174 137.244 149.605 137.244 150.036Z" fill="#333333"/>
<path d="M136.275 174.378C136.275 174.916 135.845 175.347 135.307 175.347C134.768 175.347 134.338 174.916 134.338 174.378C134.338 173.839 134.768 173.409 135.307 173.409C135.845 173.409 136.275 173.947 136.275 174.378Z" fill="#333333"/>
<path d="M127.448 180.625C127.983 180.625 128.417 180.191 128.417 179.656C128.417 179.12 127.983 178.686 127.448 178.686C126.913 178.686 126.479 179.12 126.479 179.656C126.479 180.191 126.913 180.625 127.448 180.625Z" fill="#333333"/>
<path d="M158.88 154.452C158.88 154.991 158.449 155.421 157.911 155.421C157.373 155.421 156.942 154.991 156.942 154.452C156.942 153.914 157.373 153.483 157.911 153.483C158.557 153.483 158.88 153.914 158.88 154.452Z" fill="#333333"/>
<path d="M171.69 160.484C171.69 161.022 171.259 161.453 170.721 161.453C170.183 161.453 169.752 161.022 169.752 160.484C169.752 159.945 170.183 159.514 170.721 159.514C171.367 159.622 171.69 159.945 171.69 160.484Z" fill="#333333"/>
<path d="M194.617 161.453C194.617 161.992 194.187 162.422 193.648 162.422C193.11 162.422 192.68 161.992 192.68 161.453C192.68 160.915 193.11 160.484 193.648 160.484C194.294 160.484 194.617 160.915 194.617 161.453Z" fill="#333333"/>
<path d="M200.646 149.174C200.646 149.713 200.215 150.144 199.677 150.144C199.139 150.144 198.708 149.713 198.708 149.174C198.708 148.636 199.139 148.205 199.677 148.205C200.215 148.205 200.646 148.636 200.646 149.174Z" fill="#333333"/>
<path d="M196.124 192.257C196.124 192.796 195.694 193.227 195.155 193.227C194.617 193.227 194.187 192.796 194.187 192.257C194.187 191.719 194.617 191.288 195.155 191.288C195.694 191.288 196.124 191.719 196.124 192.257Z" fill="#333333"/>
<path d="M196.124 201.843C196.124 202.382 195.694 202.813 195.155 202.813C194.617 202.813 194.187 202.382 194.187 201.843C194.187 201.305 194.617 200.874 195.155 200.874C195.694 200.874 196.124 201.305 196.124 201.843Z" fill="#333333"/>
<path d="M199.677 176.209C199.677 176.747 199.246 177.178 198.708 177.178C198.17 177.178 197.739 176.747 197.739 176.209C197.739 175.67 198.17 175.24 198.708 175.24C199.246 175.347 199.677 175.778 199.677 176.209Z" fill="#333333"/>
<path d="M183.853 168.777C183.853 169.316 183.422 169.747 182.884 169.747C182.346 169.747 181.915 169.316 181.915 168.777C181.915 168.239 182.346 167.808 182.884 167.808C183.422 167.916 183.853 168.346 183.853 168.777Z" fill="#333333"/>
<path d="M187.513 180.625C187.513 181.163 187.082 181.594 186.544 181.594C186.006 181.594 185.575 181.163 185.575 180.625C185.575 180.086 186.006 179.656 186.544 179.656C187.082 179.656 187.513 180.086 187.513 180.625Z" fill="#333333"/>
<path d="M169.859 175.347C169.859 175.886 169.429 176.317 168.891 176.317C168.352 176.317 167.922 175.886 167.922 175.347C167.922 174.809 168.352 174.378 168.891 174.378C169.429 174.378 169.859 174.809 169.859 175.347Z" fill="#333333"/>
<path d="M165.984 196.996C165.984 197.535 165.554 197.966 165.016 197.966C164.477 197.966 164.047 197.535 164.047 196.996C164.047 196.458 164.477 196.027 165.016 196.027C165.554 196.135 165.984 196.566 165.984 196.996Z" fill="#333333"/>
<path d="M174.703 188.38C174.703 188.918 174.273 189.349 173.734 189.349C173.196 189.349 172.766 188.918 172.766 188.38C172.766 187.841 173.196 187.41 173.734 187.41C174.273 187.41 174.703 187.841 174.703 188.38Z" fill="#333333"/>
<path d="M156.297 200.012C156.297 200.551 155.866 200.982 155.328 200.982C154.79 200.982 154.359 200.551 154.359 200.012C154.359 199.474 154.79 199.043 155.328 199.043C155.866 199.043 156.297 199.474 156.297 200.012Z" fill="#333333"/>
<path d="M174.703 206.259C175.238 206.259 175.672 205.825 175.672 205.29C175.672 204.755 175.238 204.321 174.703 204.321C174.168 204.321 173.734 204.755 173.734 205.29C173.734 205.825 174.168 206.259 174.703 206.259Z" fill="#333333"/>
<path d="M184.714 197.966C184.714 198.504 184.283 198.935 183.745 198.935C183.207 198.935 182.776 198.504 182.776 197.966C182.776 197.427 183.207 196.996 183.745 196.996C184.283 196.996 184.714 197.427 184.714 197.966Z" fill="#333333"/>
<path d="M158.019 168.777C158.019 169.316 157.588 169.747 157.05 169.747C156.512 169.747 156.081 169.316 156.081 168.777C156.081 168.239 156.512 167.808 157.05 167.808C157.588 167.808 158.019 168.346 158.019 168.777Z" fill="#333333"/>
<path d="M157.588 187.518C158.123 187.518 158.557 187.084 158.557 186.549C158.557 186.013 158.123 185.579 157.588 185.579C157.053 185.579 156.619 186.013 156.619 186.549C156.619 187.084 157.053 187.518 157.588 187.518Z" fill="#333333"/>
<path d="M135.629 158.222C135.629 158.76 135.198 159.191 134.66 159.191C134.122 159.191 133.691 158.76 133.691 158.222C133.691 157.683 134.122 157.253 134.66 157.253C135.306 157.36 135.629 157.683 135.629 158.222Z" fill="#333333"/>
<path d="M140.365 163.284C140.365 163.823 139.935 164.253 139.396 164.253C138.858 164.253 138.428 163.823 138.428 163.284C138.428 162.746 138.858 162.315 139.396 162.315C139.935 162.422 140.365 162.853 140.365 163.284Z" fill="#333333"/>
<path d="M144.779 134.634C144.779 135.173 144.349 135.603 143.811 135.603C143.272 135.603 142.842 135.173 142.842 134.634C142.842 134.095 143.272 133.665 143.811 133.665C144.349 133.772 144.779 134.203 144.779 134.634Z" fill="#333333"/>
<path d="M234.875 163.284C234.768 163.284 234.122 160.376 233.476 156.822C232.83 153.267 232.292 150.359 232.4 150.359" stroke="#333333" stroke-miterlimit="10" stroke-linecap="round" stroke-linejoin="round"/>
<path d="M237.997 161.884C237.997 161.884 237.566 161.345 236.92 160.376C236.274 159.407 235.521 158.006 234.875 156.391C234.122 154.775 233.691 153.267 233.368 152.19C233.045 151.113 232.938 150.359 232.938 150.359" stroke="#333333" stroke-miterlimit="10" stroke-linecap="round" stroke-linejoin="round"/>
<path d="M142.411 123.54C142.411 123.54 142.519 123.54 142.734 123.648C142.949 123.756 143.165 123.863 143.488 124.079C144.133 124.509 145.102 125.156 146.071 126.125C148.116 128.064 150.269 131.51 151.13 135.711C152.099 140.235 151.884 141.743 151.561 144.651" stroke="#333333" stroke-miterlimit="10" stroke-linecap="round" stroke-linejoin="round"/>
<path d="M168.029 114.493C172.981 113.093 175.887 112.015 175.134 105.661C173.304 91.3357 172.55 76.7952 173.088 62.3625" fill="#263238"/>
<path d="M179.547 126.771C172.12 126.771 165.554 122.894 162.001 116.431C161.894 116.216 161.786 116.108 161.786 116.001C163.401 115.678 166.199 115.354 168.46 115.031C169.752 114.816 170.936 114.708 171.581 114.6L172.012 114.493V114.062C172.443 109.646 172.658 106.092 172.658 106.092V105.553H172.227C171.797 105.445 161.678 104.045 161.248 93.4899C160.71 84.227 162.54 65.486 162.862 62.6856C166.199 61.7162 169.536 61.1777 172.766 61.1777C181.162 61.1777 188.051 64.6243 192.787 71.0868L189.881 115.139L190.311 115.247C193.648 116.108 195.909 117.078 196.985 117.509L194.509 120.201C190.634 124.402 185.36 126.771 179.547 126.771Z" fill="white"/>
<path d="M172.658 61.7162C180.731 61.7162 187.513 65.0552 192.141 71.1945L189.343 114.6L189.235 115.462L190.096 115.678C192.787 116.324 194.832 117.078 195.909 117.616L193.971 119.77C190.204 123.863 185.037 126.125 179.439 126.125C172.335 126.125 165.984 122.463 162.54 116.324C164.154 116.001 166.522 115.785 168.46 115.462C169.752 115.247 170.936 115.139 171.689 115.031L172.55 114.924L172.658 114.062C173.089 109.754 173.304 106.199 173.304 106.092L173.412 105.122L172.443 105.015C172.012 104.907 162.324 103.507 161.894 93.3821C161.356 84.5502 163.078 66.7785 163.401 63.0087C166.522 62.1471 169.752 61.7162 172.658 61.7162ZM172.658 60.6392C169.321 60.6392 165.769 61.1777 162.324 62.2548C162.324 62.2548 160.064 83.4731 160.71 93.4899C161.14 104.691 172.12 106.092 172.12 106.092C172.12 106.092 171.797 109.646 171.474 114.062C169.429 114.385 163.293 115.031 161.14 115.57C161.033 115.57 161.248 116.001 161.571 116.647C165.338 123.54 172.443 127.202 179.547 127.202C185.037 127.202 190.634 125.048 194.832 120.524L197.739 117.293C197.739 117.293 195.263 115.785 190.419 114.6L193.325 70.7636C188.159 63.7627 180.839 60.6392 172.658 60.6392Z" fill="#333333"/>
<path d="M164.262 78.9494C164.154 79.7033 164.692 80.3496 165.446 80.4573C166.199 80.565 166.845 80.1341 166.953 79.3802C167.06 78.6262 166.522 77.98 165.769 77.8723C165.015 77.7646 164.262 78.1954 164.262 78.9494Z" fill="#333333"/>
<path d="M176.748 79.4879C176.64 80.2418 177.179 80.8881 177.932 80.9958C178.686 81.1035 179.331 80.6727 179.439 79.9187C179.547 79.1648 179.009 78.5185 178.255 78.4108C177.502 78.3031 176.856 78.8417 176.748 79.4879Z" fill="#333333"/>
<path d="M168.675 74.2103C168.567 74.5334 167.383 74.4257 165.876 74.5334C164.369 74.6411 163.185 75.0719 163.078 74.8565C162.97 74.6411 164.046 73.7794 165.769 73.564C167.491 73.3486 168.783 73.9948 168.675 74.2103Z" fill="#333333"/>
<path d="M181.592 76.6875C181.592 76.6875 181.592 76.5798 181.592 76.3644V76.6875C181.161 76.4721 180.3 75.8259 179.008 75.5028C177.394 75.0719 175.994 75.395 175.887 75.0719C175.887 74.9642 176.102 74.6411 176.748 74.5334C177.394 74.318 178.255 74.318 179.224 74.5334C180.731 74.8565 181.592 75.9336 181.807 76.3644L181.915 76.5798H181.807C181.807 76.6875 181.699 76.6875 181.592 76.6875Z" fill="#333333"/>
<path d="M177.286 55.7923C172.981 53.9613 167.706 54.8229 164.262 57.9465C161.463 60.4237 159.956 63.9781 158.88 67.5324C157.803 71.0867 157.48 74.5334 156.188 78.8416C161.14 77.98 164.907 74.7488 168.352 70.979C171.689 67.2093 173.842 62.3624 174.272 57.4079L177.286 55.7923Z" fill="#333333"/>
<path d="M183.745 134.526C183.637 135.603 183.529 137.327 184.283 139.373C185.036 141.527 186.436 142.927 187.297 143.681C189.019 144.651 192.033 146.051 196.016 146.159C203.766 146.374 210.87 141.204 213.777 134.849C214.1 134.095 217.114 126.879 213.992 122.355C212.162 119.77 209.794 119.986 206.995 116.431C205.165 114.17 204.519 112.015 203.874 110.184C201.721 103.722 204.089 101.783 202.367 94.6746C201.506 91.4434 200.214 88.2122 198.814 85.0887C197.953 83.1499 194.939 77.3338 194.078 75.395C194.616 71.8407 197.2 72.0561 196.662 68.5018C196.016 64.1935 194.078 59.8852 190.418 57.5156C188.158 56.0077 185.359 55.4692 182.668 55.1461C180.838 54.9307 178.901 54.9307 177.071 55.3615C175.241 55.9 173.519 56.9771 172.55 58.5927L173.519 57.731C173.088 59.7775 173.196 61.8239 173.734 63.7626C173.949 64.4089 174.487 66.3476 176.64 69.148C179.116 72.3792 182.345 73.3486 185.144 76.4721C185.682 77.1183 188.266 80.1341 189.019 84.1193C190.203 90.3663 185.79 92.7359 185.252 99.7368C184.713 107.169 189.45 106.953 189.234 114.385C188.804 121.171 184.39 127.094 183.745 134.526Z" fill="#333333"/>
<path d="M131.754 245.68V219.4H137.028V230.063H147.9V219.4H153.175V245.68H147.9V234.802H137.028V245.68H131.754Z" fill="#333333"/>
<path d="M156.727 235.879C156.727 232.863 157.588 230.386 159.418 228.447C161.248 226.508 163.508 225.539 166.307 225.539C169.321 225.539 171.689 226.508 173.303 228.339C175.026 230.17 175.779 232.755 175.779 235.986C175.779 236.525 175.779 236.848 175.779 237.064H162.001C162.001 238.356 162.539 239.433 163.508 240.295C164.477 241.156 165.661 241.587 167.06 241.587C169.105 241.587 170.72 240.833 171.796 239.218L175.241 241.803C174.703 242.772 173.734 243.741 172.335 244.711C170.935 245.68 169.213 246.111 167.06 246.111C163.939 246.111 161.463 245.142 159.633 243.203C157.588 241.372 156.727 238.895 156.727 235.879ZM162.109 233.832H170.505C170.505 232.648 170.074 231.678 169.321 230.924C168.567 230.17 167.598 229.847 166.414 229.847C165.23 229.847 164.261 230.17 163.508 230.924C162.647 231.678 162.216 232.648 162.109 233.832Z" fill="#333333"/>
<path d="M178.686 245.68V218.538H183.852V245.68H178.686Z" fill="#333333"/>
<path d="M187.943 245.68V218.538H193.11V245.68H187.943Z" fill="#333333"/>
<path d="M199.031 243.311C197.093 241.372 196.017 238.895 196.017 235.986C196.017 232.971 196.985 230.493 199.031 228.555C201.076 226.616 203.552 225.647 206.566 225.647C209.579 225.647 212.055 226.616 214.1 228.662C216.146 230.601 217.114 233.078 217.114 236.094C217.114 239.11 216.146 241.48 214.1 243.418C212.163 245.357 209.579 246.326 206.458 246.326C203.552 246.111 201.076 245.249 199.031 243.311ZM201.291 235.879C201.291 237.494 201.829 238.895 202.798 239.972C203.767 241.049 205.059 241.587 206.673 241.587C208.288 241.587 209.579 241.049 210.548 239.972C211.517 238.895 212.055 237.602 212.055 235.879C212.055 234.155 211.517 232.863 210.548 231.786C209.472 230.709 208.288 230.17 206.673 230.17C205.166 230.17 203.874 230.709 202.798 231.786C201.722 232.863 201.291 234.263 201.291 235.879Z" fill="#333333"/>
<path d="M225.833 245.249C225.187 245.896 224.433 246.219 223.572 246.219C222.711 246.219 221.957 245.896 221.312 245.249C220.666 244.603 220.343 243.849 220.343 242.987C220.343 242.126 220.666 241.372 221.312 240.726C221.957 240.079 222.711 239.756 223.572 239.756C224.433 239.756 225.187 240.079 225.833 240.726C226.478 241.372 226.801 242.126 226.801 242.987C226.801 243.849 226.478 244.603 225.833 245.249ZM221.312 238.248L220.881 219.507H226.371L225.94 238.248H221.312Z" fill="#333333"/>
<path d="M170.613 80.0264C170.613 80.0264 168.89 84.5501 167.599 87.1351C166.307 89.7201 171.259 88.7507 171.259 88.7507" stroke="#333333" stroke-miterlimit="10" stroke-linecap="round" stroke-linejoin="round"/>
<path d="M174.811 92.6282C171.797 93.7052 168.89 93.9207 166.307 92.7359C166.307 92.7359 165.984 97.9058 169.644 98.3367C172.981 98.6598 174.38 95.3209 174.811 92.6282Z" stroke="#333333" stroke-miterlimit="10" stroke-linecap="round" stroke-linejoin="round"/>
<path d="M305.273 282.301C295.908 282.301 288.266 289.948 288.266 299.318C288.266 310.951 303.443 327.968 304.089 328.722C304.735 329.369 305.811 329.369 306.35 328.722C306.995 327.968 322.173 310.951 322.173 299.318C322.28 289.948 314.638 282.301 305.273 282.301ZM305.273 307.827C300.537 307.827 296.769 303.95 296.769 299.318C296.769 294.687 300.644 290.809 305.273 290.809C309.902 290.809 313.777 294.687 313.777 299.318C313.777 303.95 310.009 307.827 305.273 307.827Z" fill="#E3CCFF" stroke="#333333" stroke-miterlimit="10"/>
</svg>
