<svg width="478" height="365" viewBox="0 0 478 365" fill="none" xmlns="http://www.w3.org/2000/svg">
<g clip-path="url(#clip0)">
<path d="M232.616 355.52H0.47998" stroke="#333333" stroke-miterlimit="10" stroke-linecap="round" stroke-linejoin="round"/>
<path d="M119.724 18.7919L114.901 10.396L110.079 2L105.256 10.396L100.356 18.7142H107.045L106.967 51.0541H112.957L113.034 18.7919H119.724Z" fill="#FFDFA6"/>
<path d="M100.667 40.0149L97.7894 34.9618L94.8337 29.9087L91.8779 34.9618L89 40.0149H93.0447L92.9669 59.5278L96.6227 59.6055V40.0149H100.667Z" fill="#FFDFA6"/>
<path d="M469.168 31.1843V14.8725C469.168 12.3778 467.152 10.3628 464.752 10.3628H143.237C140.741 10.3628 138.821 12.3778 138.821 14.8725V31.856H138.917C138.917 124.737 138.917 212.533 138.917 289.486V289.774H139.205C335.051 289.582 466.96 289.486 469.168 289.486C468.88 289.486 466.96 289.486 463.504 289.486C466.576 289.486 469.072 286.991 469.072 283.825C469.072 287.279 469.072 289.198 469.072 289.486C469.072 287.567 469.168 187.202 469.264 31.5681V31.3762H469.168V31.1843ZM139.493 289.102C139.493 287.855 139.493 286.608 139.493 285.264C140.069 287.087 141.509 288.527 143.237 289.102C141.989 289.102 140.741 289.102 139.493 289.102Z" fill="#F0F0F0"/>
<path d="M135.653 270.776C133.06 270.776 130.852 268.665 130.852 265.978V35.9819H432.974V265.978C432.974 268.569 430.862 270.776 428.174 270.776H135.653Z" fill="white"/>
<path d="M432.591 36.4624V265.979C432.591 268.378 430.671 270.297 428.271 270.297H135.653C133.253 270.297 131.333 268.378 131.333 265.979V36.4624H432.591ZM433.551 35.5029H130.469V265.979C130.469 268.857 132.773 271.256 135.749 271.256H428.367C431.247 271.256 433.647 268.953 433.647 265.979V35.5029H433.551Z" fill="#333333"/>
<path d="M433.551 271.255C433.551 269.528 433.454 177.798 433.358 35.5021L433.551 35.694C347.34 35.694 242.888 35.694 130.468 35.694L130.756 35.4061C130.756 120.419 130.756 200.731 130.756 271.159L130.564 270.967C310.378 271.159 431.534 271.255 433.551 271.255C431.534 271.255 310.378 271.351 130.468 271.447H130.276V271.255C130.276 200.827 130.276 120.515 130.276 35.5021V35.2142H130.564C242.984 35.2142 347.436 35.2142 433.646 35.2142H433.839V35.4061C433.646 177.798 433.551 269.528 433.551 271.255Z" fill="#333333"/>
<path d="M213.799 251.489C213.703 251.489 213.511 225.87 213.511 194.302C213.511 162.734 213.607 137.115 213.799 137.115" stroke="#333333" stroke-miterlimit="10" stroke-linecap="round" stroke-linejoin="round"/>
<path d="M345.324 251.489C345.228 251.489 345.036 225.87 345.036 194.302C345.036 162.734 345.132 137.115 345.324 137.115" stroke="#333333" stroke-miterlimit="10" stroke-linecap="round" stroke-linejoin="round"/>
<path d="M258.729 251.489C258.633 251.489 258.441 218.77 258.441 178.374C258.441 137.978 258.537 105.163 258.729 105.163" stroke="#333333" stroke-miterlimit="10" stroke-linecap="round" stroke-linejoin="round"/>
<path d="M167.718 251.489C167.622 251.489 167.43 218.77 167.43 178.374C167.43 137.978 167.526 105.163 167.718 105.163" stroke="#333333" stroke-miterlimit="10" stroke-linecap="round" stroke-linejoin="round"/>
<path d="M396.973 251.489C396.877 251.489 396.685 218.77 396.685 178.374C396.685 137.978 396.781 105.163 396.973 105.163" stroke="#333333" stroke-miterlimit="10" stroke-linecap="round" stroke-linejoin="round"/>
<path d="M298.09 251.489C297.994 251.489 297.802 213.684 297.802 167.052C297.802 120.419 297.898 82.6144 298.09 82.6144" stroke="#333333" stroke-miterlimit="10" stroke-linecap="round" stroke-linejoin="round"/>
<path d="M214.855 137.019C214.855 137.595 214.375 138.074 213.799 138.074C213.223 138.074 212.743 137.595 212.743 137.019C212.743 136.443 213.223 135.964 213.799 135.964C214.375 135.964 214.855 136.443 214.855 137.019Z" fill="#333333"/>
<path d="M258.729 106.218C259.312 106.218 259.785 105.746 259.785 105.163C259.785 104.58 259.312 104.108 258.729 104.108C258.145 104.108 257.673 104.58 257.673 105.163C257.673 105.746 258.145 106.218 258.729 106.218Z" fill="#333333"/>
<path d="M258.729 108.905C256.617 108.905 254.985 107.178 254.985 105.163C254.985 103.052 256.713 101.421 258.729 101.421C260.841 101.421 262.473 103.148 262.473 105.163C262.473 107.178 260.745 108.905 258.729 108.905ZM258.729 101.613C256.809 101.613 255.177 103.148 255.177 105.163C255.177 107.082 256.713 108.713 258.729 108.713C260.649 108.713 262.281 107.178 262.281 105.163C262.185 103.244 260.649 101.613 258.729 101.613Z" fill="#333333"/>
<path d="M298.09 83.5738C298.673 83.5738 299.146 83.1013 299.146 82.5184C299.146 81.9354 298.673 81.4629 298.09 81.4629C297.507 81.4629 297.034 81.9354 297.034 82.5184C297.034 83.1013 297.507 83.5738 298.09 83.5738Z" fill="#333333"/>
<path d="M345.324 139.13C345.907 139.13 346.38 138.657 346.38 138.074C346.38 137.491 345.907 137.019 345.324 137.019C344.74 137.019 344.268 137.491 344.268 138.074C344.268 138.657 344.74 139.13 345.324 139.13Z" fill="#333333"/>
<path d="M396.973 106.218C397.557 106.218 398.029 105.746 398.029 105.163C398.029 104.58 397.557 104.108 396.973 104.108C396.39 104.108 395.917 104.58 395.917 105.163C395.917 105.746 396.39 106.218 396.973 106.218Z" fill="#333333"/>
<path d="M168.774 106.218C168.774 106.794 168.294 107.274 167.718 107.274C167.142 107.274 166.662 106.794 166.662 106.218C166.662 105.643 167.142 105.163 167.718 105.163C168.294 105.163 168.774 105.643 168.774 106.218Z" fill="#333333"/>
<path d="M147.653 184.803C147.653 184.803 147.749 184.515 148.133 184.035C148.421 183.555 148.997 182.788 149.573 181.828C149.861 181.349 150.341 180.869 150.725 180.293C151.205 179.717 151.685 179.142 152.261 178.566C153.509 177.415 154.853 176.071 156.677 174.824C157.541 174.152 158.597 173.672 159.653 173.097C160.133 172.809 160.805 172.617 161.381 172.329C161.957 172.137 162.533 171.849 163.205 171.657C165.798 170.89 168.774 170.698 171.846 170.986C174.918 171.274 178.278 172.137 181.446 173.577C184.71 175.016 187.878 177.031 191.046 179.238C194.215 181.445 197.479 183.939 200.935 186.338C204.391 188.641 208.231 190.944 212.455 192.287C214.567 192.959 216.775 193.343 219.079 193.439C219.655 193.439 220.231 193.439 220.807 193.439C221.383 193.439 221.959 193.439 222.535 193.343C223.688 193.151 224.84 193.055 225.992 192.671C230.6 191.519 234.824 188.833 238.664 185.475C242.504 182.116 245.768 178.086 248.84 173.768C251.912 169.355 254.697 164.749 257.385 159.855C260.073 154.962 262.953 149.972 266.409 145.271C269.865 140.569 274.089 136.155 279.369 133.181C282.057 131.742 284.842 130.59 287.818 130.014C290.794 129.439 293.77 129.247 296.746 129.535C299.722 129.823 302.602 130.686 305.194 132.029C307.786 133.373 310.09 135.1 312.202 137.019C316.331 140.953 319.499 145.559 322.379 150.164C325.259 154.77 327.755 159.376 330.443 163.694C333.227 168.011 335.723 172.425 338.027 176.647C340.427 180.869 342.732 185.091 346.284 187.585C348.012 188.833 350.028 189.696 352.14 190.176C354.252 190.752 356.364 190.848 358.476 191.04C362.604 191.232 366.636 190.56 370.188 189.217C371.916 188.545 373.549 187.585 375.085 186.626C376.525 185.57 377.965 184.515 379.213 183.268C381.709 180.869 383.821 178.374 385.645 175.975C389.389 171.082 392.365 166.668 395.437 163.502C398.413 160.335 401.389 158.512 403.598 157.649C404.654 157.265 405.518 156.977 406.094 156.977C406.67 156.881 406.958 156.785 406.958 156.881" stroke="#333333" stroke-miterlimit="10" stroke-linecap="round" stroke-linejoin="round"/>
<path d="M219.463 61.9847H166.566V64.9592H219.463V61.9847Z" fill="#333333"/>
<path d="M192.678 68.8933H166.566V71.8678H192.678V68.8933Z" fill="#333333"/>
<path d="M429.23 16.3118H134.404C132.004 16.3118 130.084 18.2308 130.084 20.6296V37.1333H433.551V20.6296C433.551 18.2308 431.63 16.3118 429.23 16.3118Z" fill="#DAC0FF"/>
<path d="M163.013 26.6746C163.013 24.6596 164.741 23.0284 166.758 23.0284C167.718 23.0284 168.582 23.4122 169.254 23.988C170.022 24.6596 170.502 25.6191 170.502 26.7706C170.502 28.7855 168.774 30.4167 166.758 30.4167C164.741 30.4167 163.013 28.6896 163.013 26.6746Z" fill="white" stroke="#333333" stroke-miterlimit="10"/>
<path d="M150.917 26.6746C150.917 24.6596 152.645 23.0284 154.661 23.0284C156.773 23.0284 158.405 24.6596 158.405 26.6746C158.405 28.6896 156.677 30.3208 154.661 30.3208C152.645 30.3208 150.917 28.6896 150.917 26.6746Z" fill="white" stroke="#333333" stroke-miterlimit="10"/>
<path d="M138.917 26.6746C138.917 24.6596 140.645 23.0284 142.661 23.0284C144.677 23.0284 146.405 24.6596 146.405 26.6746C146.405 28.6896 144.677 30.3208 142.661 30.3208C140.645 30.3208 138.917 28.6896 138.917 26.6746Z" fill="white" stroke="#333333" stroke-miterlimit="10"/>
<path d="M145.157 23.892L140.261 29.4572" stroke="#333333" stroke-miterlimit="10"/>
<path d="M145.445 29.0733L139.877 24.2758" stroke="#333333" stroke-miterlimit="10"/>
<path d="M80.3547 117.445C79.2027 117.445 78.3386 116.581 78.3386 115.43V87.0282C78.3386 85.8767 79.2027 85.0132 80.3547 85.0132H155.909C157.061 85.0132 157.925 85.8767 157.925 87.0282V115.43C157.925 116.581 157.061 117.445 155.909 117.445H80.3547Z" fill="white"/>
<path d="M155.909 85.493C156.773 85.493 157.445 86.1646 157.445 87.0282V115.43C157.445 116.293 156.773 116.965 155.909 116.965H80.3547C79.4907 116.965 78.8186 116.293 78.8186 115.43V87.0282C78.8186 86.1646 79.4907 85.493 80.3547 85.493H155.909ZM155.909 84.5334H80.3547C79.0106 84.5334 77.8586 85.6849 77.8586 87.0282V115.43C77.8586 116.773 79.0106 117.925 80.3547 117.925H155.909C157.253 117.925 158.405 116.773 158.405 115.43V87.0282C158.405 85.6849 157.253 84.5334 155.909 84.5334Z" fill="#333333"/>
<path d="M90.819 98.3504C92.6218 98.3504 94.0831 96.8898 94.0831 95.088C94.0831 93.2863 92.6218 91.8257 90.819 91.8257C89.0163 91.8257 87.5549 93.2863 87.5549 95.088C87.5549 96.8898 89.0163 98.3504 90.819 98.3504Z" fill="white"/>
<path d="M90.819 92.3055C92.3551 92.3055 93.6031 93.5528 93.6031 95.0881C93.6031 96.6233 92.3551 97.8707 90.819 97.8707C89.283 97.8707 88.035 96.6233 88.035 95.0881C88.035 93.5528 89.283 92.3055 90.819 92.3055ZM90.819 91.3459C88.707 91.3459 87.0749 93.0731 87.0749 95.0881C87.0749 97.199 88.803 98.8302 90.819 98.8302C92.9311 98.8302 94.5632 97.103 94.5632 95.0881C94.5632 92.9771 92.9311 91.3459 90.819 91.3459Z" fill="#333333"/>
<path d="M123.748 93.9366H99.0753C98.6913 93.9366 98.3073 93.6487 98.3073 93.169C98.3073 92.7852 98.5953 92.4014 99.0753 92.4014H123.748C124.132 92.4014 124.516 92.6892 124.516 93.169C124.516 93.6487 124.228 93.9366 123.748 93.9366Z" fill="#FFDFA6"/>
<path d="M148.517 97.1991H99.0753C98.6913 97.1991 98.3073 96.9112 98.3073 96.4314C98.3073 96.0476 98.5953 95.6638 99.0753 95.6638H148.517C148.901 95.6638 149.285 95.9517 149.285 96.4314C149.285 96.9112 148.901 97.1991 148.517 97.1991Z" fill="#FFDFA6"/>
<path d="M90.819 109.865C92.6218 109.865 94.0831 108.404 94.0831 106.602C94.0831 104.801 92.6218 103.34 90.819 103.34C89.0163 103.34 87.5549 104.801 87.5549 106.602C87.5549 108.404 89.0163 109.865 90.819 109.865Z" fill="white"/>
<path d="M90.819 103.82C92.3551 103.82 93.6031 105.067 93.6031 106.602C93.6031 108.138 92.3551 109.385 90.819 109.385C89.283 109.385 88.035 108.138 88.035 106.602C88.035 105.067 89.283 103.82 90.819 103.82ZM90.819 102.86C88.707 102.86 87.0749 104.587 87.0749 106.602C87.0749 108.713 88.803 110.344 90.819 110.344C92.9311 110.344 94.5632 108.617 94.5632 106.602C94.5632 104.587 92.9311 102.86 90.819 102.86Z" fill="#333333"/>
<path d="M110.98 105.451H99.0753C98.6913 105.451 98.3073 105.163 98.3073 104.683C98.3073 104.299 98.5953 103.916 99.0753 103.916H110.98C111.364 103.916 111.748 104.203 111.748 104.683C111.748 105.163 111.364 105.451 110.98 105.451Z" fill="#FFDFA6"/>
<path d="M148.517 108.809H99.0753C98.6913 108.809 98.3073 108.521 98.3073 108.042C98.3073 107.658 98.5953 107.274 99.0753 107.274H148.517C148.901 107.274 149.285 107.562 149.285 108.042C149.285 108.425 148.901 108.809 148.517 108.809Z" fill="#FFDFA6"/>
<path d="M279.273 180.773C278.409 180.773 277.737 180.101 277.737 179.238V148.437C277.737 147.574 278.409 146.902 279.273 146.902H357.324C358.188 146.902 358.86 147.574 358.86 148.437V179.238C358.86 180.101 358.188 180.773 357.324 180.773H279.273Z" fill="white"/>
<path d="M357.324 147.286C357.9 147.286 358.38 147.765 358.38 148.341V179.142C358.38 179.717 357.9 180.197 357.324 180.197H279.273C278.697 180.197 278.217 179.717 278.217 179.142V148.341C278.217 147.765 278.697 147.286 279.273 147.286H357.324ZM357.324 146.326H279.273C278.121 146.326 277.257 147.19 277.257 148.341V179.142C277.257 180.293 278.121 181.157 279.273 181.157H357.324C358.476 181.157 359.34 180.293 359.34 179.142V148.341C359.34 147.286 358.476 146.326 357.324 146.326Z" fill="#333333"/>
<path d="M293.098 163.214L295.882 156.689C293.962 155.825 291.658 155.729 289.642 156.401C287.242 157.169 285.034 158.992 284.17 161.966C284.074 162.254 283.978 162.638 283.882 163.022L292.426 164.653L293.098 163.214Z" fill="#E3CCFF"/>
<path d="M302.026 164.749C301.93 161.966 300.586 159.184 297.61 157.553C297.514 157.553 297.418 157.457 297.418 157.457C297.322 157.457 297.322 157.361 297.226 157.361C297.034 157.265 296.938 157.169 296.746 157.169L293.962 163.693L293.29 165.229L300.394 170.314C300.778 169.834 301.066 169.259 301.258 168.683C301.834 167.436 302.122 166.092 302.026 164.749Z" fill="#E8505B"/>
<path d="M302.026 164.749C301.93 161.966 300.586 159.184 297.61 157.553C297.514 157.553 297.418 157.457 297.418 157.457C297.322 157.457 297.322 157.361 297.226 157.361C297.034 157.265 296.938 157.169 296.746 157.169L293.962 163.693L293.29 165.229L300.394 170.314C300.778 169.834 301.066 169.259 301.258 168.683C301.834 167.436 302.122 166.092 302.026 164.749Z" fill="#B2EEDF"/>
<path d="M292.522 165.708L283.978 164.077C283.209 168.011 285.226 172.041 289.066 173.768C292.906 175.4 297.322 174.152 299.626 170.89L292.522 165.708Z" fill="#E8505B"/>
<path d="M292.522 165.708L283.978 164.077C283.209 168.011 285.226 172.041 289.066 173.768C292.906 175.4 297.322 174.152 299.626 170.89L292.522 165.708Z" fill="#FFDFA6"/>
<path d="M350.028 160.239H308.65C308.074 160.239 307.69 159.759 307.69 159.28C307.69 158.704 308.17 158.32 308.65 158.32H350.028C350.604 158.32 350.988 158.8 350.988 159.28C350.988 159.759 350.604 160.239 350.028 160.239Z" fill="#FFDFA6"/>
<path d="M350.028 165.421H308.65C308.074 165.421 307.69 164.941 307.69 164.461C307.69 163.885 308.17 163.501 308.65 163.501H350.028C350.604 163.501 350.988 163.981 350.988 164.461C350.988 164.941 350.604 165.421 350.028 165.421Z" fill="#FFDFA6"/>
<path d="M330.059 171.082H308.554C307.978 171.082 307.594 170.602 307.594 170.122C307.594 169.546 308.074 169.163 308.554 169.163H330.059C330.635 169.163 331.019 169.642 331.019 170.122C331.115 170.698 330.635 171.082 330.059 171.082Z" fill="#FFDFA6"/>
<path d="M457.935 321.726H342.731C338.315 321.726 334.667 318.08 334.667 313.666V203.417C334.667 199.004 338.315 195.358 342.731 195.358H457.935C462.351 195.358 466 199.004 466 203.417V313.666C466 318.176 462.351 321.726 457.935 321.726Z" fill="white" stroke="#333333" stroke-miterlimit="10" stroke-linecap="round" stroke-linejoin="round"/>
<path d="M348.108 282.002H343.788V283.249H348.108V282.002Z" fill="#333333"/>
<path d="M359.052 288.623H353.58V289.87H359.052V288.623Z" fill="#333333"/>
<path d="M378.253 288.623H372.78V289.87H378.253V288.623Z" fill="#333333"/>
<path d="M397.453 288.623H391.981V289.87H397.453V288.623Z" fill="#333333"/>
<path d="M416.558 288.623H411.086V289.87H416.558V288.623Z" fill="#333333"/>
<path d="M435.759 288.623H430.286V289.87H435.759V288.623Z" fill="#333333"/>
<path d="M454.959 288.623H449.487V289.87H454.959V288.623Z" fill="#333333"/>
<path d="M348.108 265.402H343.788V266.65H348.108V265.402Z" fill="#333333"/>
<path d="M348.108 234.218H343.788V235.465H348.108V234.218Z" fill="#333333"/>
<path d="M348.108 218.482H343.788V219.729H348.108V218.482Z" fill="#333333"/>
<path d="M348.396 249.762H344.076V251.009H348.396V249.762Z" fill="#333333"/>
<path d="M454.863 283.153C454.863 283.153 454.671 283.153 454.383 283.153C454.095 283.153 453.615 283.153 453.039 283.153C451.791 283.153 450.063 283.153 447.855 283.153C443.343 283.153 436.719 283.153 428.654 283.249C412.43 283.249 390.061 283.249 365.388 283.345C360.204 283.345 355.212 283.345 350.412 283.345H350.22V283.153C350.22 262.044 350.316 243.429 350.316 230.092C350.316 223.471 350.316 218.098 350.412 214.452C350.412 212.629 350.412 211.19 350.412 210.23C350.412 209.75 350.412 209.366 350.412 209.175C350.412 208.887 350.412 208.791 350.412 208.791C350.412 208.791 350.412 208.887 350.412 209.175C350.412 209.462 350.412 209.75 350.412 210.23" stroke="#333333" stroke-miterlimit="10" stroke-linecap="round" stroke-linejoin="round"/>
<path d="M354.54 250.434C354.54 250.338 377.293 250.242 405.326 250.242C433.359 250.242 456.111 250.338 456.111 250.434" stroke="#333333" stroke-miterlimit="10" stroke-linecap="round" stroke-linejoin="round"/>
<path d="M354.54 234.794C354.54 234.698 377.293 234.602 405.326 234.602C433.359 234.602 456.111 234.698 456.111 234.794" stroke="#333333" stroke-miterlimit="10" stroke-linecap="round" stroke-linejoin="round"/>
<path d="M354.54 219.154C354.54 219.058 377.293 218.962 405.326 218.962C433.359 218.962 456.111 219.058 456.111 219.154" stroke="#333333" stroke-miterlimit="10" stroke-linecap="round" stroke-linejoin="round"/>
<path d="M354.54 265.978C354.54 265.882 377.293 265.786 405.326 265.786C433.359 265.786 456.111 265.882 456.111 265.978" stroke="#333333" stroke-miterlimit="10" stroke-linecap="round" stroke-linejoin="round"/>
<path d="M355.596 279.795C355.596 277.204 355.596 265.978 355.596 265.978L364.236 252.545L370.092 257.054L382.093 238.344L389.197 243.333L399.085 226.158L407.054 232.683L419.054 209.846L432.014 235.369L442.575 222.608L454.863 219.058V279.795H355.596Z" fill="#B2EEDF"/>
<path d="M355.596 270.584C355.596 270.584 355.692 270.392 355.884 270.104C356.076 269.72 356.364 269.24 356.748 268.665C357.516 267.417 358.668 265.594 360.204 263.195C363.18 258.494 367.5 251.777 372.588 243.621L372.685 243.429L372.876 243.621C377.005 249.282 381.613 255.615 386.701 262.524H386.413C389.773 256.959 393.229 251.105 396.877 245.06C400.621 238.824 404.174 232.875 407.534 227.309L407.63 227.213H407.726C417.134 227.213 425.774 227.213 433.071 227.213L432.975 227.309C436.911 222.128 440.367 217.714 443.151 214.164H443.247C447.279 214.164 450.543 214.164 452.751 214.26C453.807 214.26 454.671 214.26 455.247 214.26C455.535 214.26 455.727 214.26 455.919 214.26C456.111 214.26 456.111 214.26 456.111 214.26" stroke="#333333" stroke-miterlimit="10" stroke-linecap="round" stroke-linejoin="round"/>
<path d="M376.909 248.131C376.909 248.611 376.429 249.09 375.949 249.09C375.373 249.09 374.989 248.707 374.989 248.131C374.989 247.651 375.469 247.171 375.949 247.171C376.525 247.171 376.909 247.651 376.909 248.131Z" fill="#333333"/>
<path d="M406.19 231.531C406.19 232.011 405.71 232.491 405.23 232.491C404.654 232.491 404.27 232.107 404.27 231.531C404.27 231.052 404.75 230.572 405.23 230.572C405.806 230.572 406.19 230.956 406.19 231.531Z" fill="#333333"/>
<path d="M428.942 227.405C428.942 227.885 428.462 228.365 427.982 228.365C427.502 228.365 427.022 227.981 427.022 227.405C427.022 226.926 427.502 226.446 427.982 226.446C428.462 226.446 428.942 226.926 428.942 227.405Z" fill="#333333"/>
<path d="M359.916 311.267C363.415 311.267 366.252 308.561 366.252 305.222C366.252 301.884 363.415 299.177 359.916 299.177C356.417 299.177 353.58 301.884 353.58 305.222C353.58 308.561 356.417 311.267 359.916 311.267Z" fill="white"/>
<path d="M449.487 301.096H375.469V303.399H449.487V301.096Z" fill="white"/>
<path d="M406.19 306.757H375.469V309.06H406.19V306.757Z" fill="white"/>
<path d="M373.165 143.448C370.86 143.448 368.94 141.529 368.94 139.226V57.7629C368.94 55.46 370.86 53.541 373.165 53.541H473.296C475.6 53.541 477.52 55.46 477.52 57.7629V139.13C477.52 141.433 475.6 143.352 473.296 143.352H373.165V143.448Z" fill="white"/>
<path d="M473.296 54.0208C475.408 54.0208 477.04 55.7479 477.04 57.7629V139.13C477.04 141.241 475.312 142.872 473.296 142.872H373.165C371.052 142.872 369.42 141.145 369.42 139.13V57.7629C369.42 55.652 371.148 54.0208 373.165 54.0208H473.296ZM473.296 53.0613H373.165C370.572 53.0613 368.46 55.1722 368.46 57.7629V139.13C368.46 141.721 370.572 143.832 373.165 143.832H473.296C475.888 143.832 478 141.721 478 139.13V57.7629C478 55.1722 475.888 53.0613 473.296 53.0613Z" fill="#333333"/>
<path d="M393.517 89.427H387.565V134.045H393.517V89.427Z" fill="#FFDFA6"/>
<path d="M420.302 85.8768H414.35V134.045H420.302V85.8768Z" fill="#FFDFA6"/>
<path d="M448.143 79.7358H442.191V134.044H448.143V79.7358Z" fill="#FFDFA6"/>
<path d="M435.087 112.359H429.134V134.045H435.087V112.359Z" fill="#E8505B"/>
<path d="M435.087 112.359H429.134V134.045H435.087V112.359Z" fill="#FFDFA6"/>
<path d="M400.333 84.6294H394.381V133.949H400.333V84.6294Z" fill="#E8505B"/>
<path d="M400.333 84.6294H394.381V133.949H400.333V84.6294Z" fill="#FFDFA6"/>
<path d="M427.694 74.3625H421.742V134.044H427.694V74.3625Z" fill="#E8505B"/>
<path d="M427.694 74.3625H421.742V134.044H427.694V74.3625Z" fill="#FFDFA6"/>
<path d="M463.408 74.3625H457.455V134.044H463.408V74.3625Z" fill="#E8505B"/>
<path d="M463.408 74.3625H457.455V134.044H463.408V74.3625Z" fill="#FFDFA6"/>
<path d="M455.631 62.5605H449.679V134.045H455.631V62.5605Z" fill="#E8505B"/>
<path d="M455.631 62.5605H449.679V134.045H455.631V62.5605Z" fill="#FFDFA6"/>
<path d="M407.63 102.668H401.677V133.949H407.63V102.668Z" fill="#E8505B"/>
<path d="M407.63 102.668H401.677V133.949H407.63V102.668Z" fill="#FFDFA6"/>
<path d="M377.581 136.731C377.581 136.635 398.701 136.443 424.622 136.443C450.639 136.443 471.664 136.539 471.664 136.731" stroke="#333333" stroke-miterlimit="10" stroke-linecap="round" stroke-linejoin="round"/>
<path d="M378.541 126.081H374.893V127.232H378.541V126.081Z" fill="#333333"/>
<path d="M378.541 110.249H374.893V111.4H378.541V110.249Z" fill="#333333"/>
<path d="M378.541 80.4076H374.893V81.559H378.541V80.4076Z" fill="#333333"/>
<path d="M378.541 65.3431H374.893V66.4946H378.541V65.3431Z" fill="#333333"/>
<path d="M378.733 95.28H375.085V96.4314H378.733V95.28Z" fill="#333333"/>
<path d="M351.468 77.1451H245.384C243.656 77.1451 242.216 75.7058 242.216 73.9787V48.8394C242.216 47.1123 243.656 45.673 245.384 45.673H351.468C353.196 45.673 354.636 47.1123 354.636 48.8394V73.9787C354.636 75.8018 353.196 77.1451 351.468 77.1451Z" fill="#B2EEDF"/>
<path d="M267.369 67.9338C264.297 71.7719 258.825 72.3476 254.985 69.2771C251.144 66.2067 250.568 60.7374 253.641 56.8994C256.713 53.0613 262.185 52.4856 266.025 55.556C269.865 58.6265 270.441 64.0957 267.369 67.9338Z" fill="white"/>
<path d="M265.449 59.3941C265.353 59.682 265.065 59.9698 264.873 60.1617C263.145 62.1767 261.225 63.9998 259.305 65.8229C258.441 64.9593 257.577 63.9998 256.713 63.1362C256.137 62.5605 255.657 61.9848 255.369 61.2172C255.273 60.9293 255.273 60.7374 255.273 60.4496C255.369 60.1617 255.465 59.9698 255.753 59.8739C256.137 59.682 256.617 60.0658 256.905 60.3536C257.769 61.1212 258.633 61.8889 259.497 62.7524C260.841 61.3131 262.185 59.8739 263.529 58.5305C263.817 58.2427 264.105 57.9548 264.489 57.8589C265.449 57.667 265.737 58.7225 265.449 59.3941Z" fill="#E3CCFF" stroke="#333333" stroke-miterlimit="10" stroke-linecap="round" stroke-linejoin="round"/>
<path d="M279.849 59.1062C279.849 59.0103 294.154 58.8184 311.722 58.8184C329.387 58.8184 343.595 58.9143 343.595 59.1062" stroke="#333333" stroke-miterlimit="10" stroke-linecap="round" stroke-linejoin="round"/>
<path d="M280.521 65.343C280.521 65.2471 288.778 65.0552 298.954 65.0552C309.13 65.0552 317.387 65.1511 317.387 65.343" stroke="#333333" stroke-miterlimit="10" stroke-linecap="round" stroke-linejoin="round"/>
<path d="M83.399 198.072C83.399 198.072 85.1519 208.171 87.2141 210.439C87.2141 210.439 87.0079 211.675 87.7297 212.397L88.2452 216.725C88.2452 216.725 86.5955 218.683 86.4924 219.507C86.3892 220.332 87.111 221.156 87.111 221.156L88.3483 220.95C88.3483 220.95 87.4203 222.702 87.4203 223.217C87.4203 223.733 87.8328 224.145 89.2763 224.145C89.2763 224.145 89.0701 224.66 90.6168 225.072C92.1634 225.485 99.0718 219.714 99.4842 217.034C99.8967 214.355 99.4842 208.068 99.0718 207.038C98.6593 206.11 89.9981 195.187 89.9981 195.187L83.399 198.072Z" fill="white" stroke="#333333" stroke-miterlimit="10" stroke-linecap="round" stroke-linejoin="round"/>
<path d="M86.6987 200.648C86.6987 200.648 86.8018 203.946 89.3796 205.388C91.0294 206.316 92.576 209.098 92.576 209.098C92.576 209.098 91.4418 215.797 93.7102 215.797C95.9786 215.797 97.1129 208.171 97.1129 207.14C97.1129 206.11 95.5662 201.575 94.9475 199.823C94.3289 198.175 90.1014 194.98 90.1014 194.98L86.6987 196.938V200.648Z" fill="white" stroke="#333333" stroke-miterlimit="10" stroke-linecap="round" stroke-linejoin="round"/>
<path d="M92.4726 195.392C92.4726 195.392 93.6068 196.938 93.4006 197.453C93.0912 198.381 90.8228 200.339 88.2451 201.885C85.6673 203.43 82.9865 203.533 82.4709 203.43C81.9553 203.224 81.2336 201.678 81.2336 201.678L92.4726 195.392Z" fill="white" stroke="#333333" stroke-miterlimit="10" stroke-linecap="round" stroke-linejoin="round"/>
<path d="M52.8783 90.9978C52.8783 90.9978 68.551 88.8336 71.8505 103.158C74.4283 114.185 76.5936 150.151 76.5936 150.151L93.0912 195.186C94.4316 197.659 81.646 204.358 80.4087 201.885C80.4087 201.885 59.4773 160.56 57.5182 154.995C55.6623 149.533 39.1646 98.4177 52.8783 90.9978Z" fill="#B2EEDF" stroke="#333333" stroke-miterlimit="10" stroke-linecap="round" stroke-linejoin="round"/>
<path d="M204.863 100.685C203.316 112.33 180.013 144.277 173.414 150.357C170.012 153.552 146.606 165.918 134.645 169.216C131.345 170.144 124.849 157.88 127.943 156.231C127.943 156.231 161.763 136.239 164.031 134.178C166.3 132.117 178.054 98.7268 183.519 93.9863C192.49 86.1541 206.513 89.0397 204.863 100.685Z" fill="#E3CCFF" stroke="#333333" stroke-miterlimit="10" stroke-linecap="round" stroke-linejoin="round"/>
<path d="M134.336 161.281C135.985 164.579 136.295 167.773 135.16 168.289C134.026 168.804 131.758 166.64 130.108 163.239C128.458 159.941 128.149 156.747 129.283 156.231C130.52 155.613 132.789 157.88 134.336 161.281Z" fill="#333333"/>
<path d="M166.713 132.426C168.26 133.353 169.703 134.281 171.147 135.414C172.59 136.445 173.724 137.785 175.065 139.021C175.168 139.124 175.271 139.124 175.374 139.021C175.477 138.918 175.477 138.815 175.374 138.712C174.549 137.063 173.312 135.62 171.868 134.487C170.425 133.353 168.775 132.426 166.919 132.014C166.816 132.014 166.61 132.014 166.61 132.22C166.61 132.22 166.713 132.323 166.713 132.426Z" fill="#E3CCFF" stroke="#333333" stroke-miterlimit="10" stroke-linecap="round" stroke-linejoin="round"/>
<path d="M166.196 133.456C166.815 135.105 167.743 136.754 168.568 138.3C169.496 139.846 170.424 141.391 171.558 142.731C171.661 142.834 171.764 142.834 171.867 142.731C171.97 142.628 171.97 142.525 171.97 142.422C171.352 140.773 170.424 139.124 169.599 137.578C168.671 136.033 167.743 134.487 166.609 133.147C166.506 133.044 166.403 133.044 166.299 133.147C166.196 133.25 166.093 133.353 166.196 133.456Z" fill="#E3CCFF" stroke="#333333" stroke-miterlimit="10" stroke-linecap="round" stroke-linejoin="round"/>
<path d="M197.129 338.844C197.026 338.638 190.633 339.36 190.633 339.36C190.633 339.36 187.952 342.245 185.065 344.1C181.869 346.264 177.744 346.47 177.126 348.944C176.507 351.417 177.744 351.314 177.744 351.314C177.744 351.314 182.384 351.829 185.065 350.902C187.746 349.974 191.458 348.738 191.458 348.738L191.767 349.768C194.036 350.18 196.304 349.665 198.573 348.531C198.469 348.531 199.604 345.852 197.129 338.844Z" fill="#E3CCFF" stroke="#333333" stroke-miterlimit="10" stroke-linecap="round" stroke-linejoin="round"/>
<path d="M187.334 341.008C188.468 343.688 197.954 341.524 198.263 338.741C198.263 338.741 201.769 305.248 203.831 287.935C204.863 279.588 203.316 265.16 204.244 254.958C205.172 244.755 212.596 197.762 212.596 197.762C212.596 197.762 210.534 178.8 197.542 176.224C184.447 173.545 176.404 186.22 176.404 186.22C176.404 186.22 180.322 230.431 181.147 250.423L187.334 341.008Z" fill="#1E1E1E"/>
<path d="M226.825 343.482C226.825 343.482 224.969 345.955 219.092 344.821C219.092 344.821 217.236 350.18 214.658 351.417C212.08 352.757 205.069 355.333 204.76 357.6C204.45 359.867 208.884 360.589 214.143 360.177C219.298 359.764 223.113 355.951 223.113 355.951L223.629 356.57C223.629 356.57 227.134 355.745 228.578 354.199C230.022 352.86 226.825 343.482 226.825 343.482Z" fill="#E3CCFF" stroke="#333333" stroke-miterlimit="10" stroke-linecap="round" stroke-linejoin="round"/>
<path d="M226.413 205.079C226.413 206.213 222.598 255.782 225.279 271.446C227.959 287.111 230.125 292.573 229.506 335.856L228.887 345.234C229.815 349.768 217.855 352.344 217.03 347.81C217.03 347.81 217.236 331.321 212.39 311.226C207.544 291.13 189.912 236.511 188.159 204.049C186.2 172.308 226.928 176.533 226.413 205.079Z" fill="#333333"/>
<path d="M206.409 81.4137C206.409 81.4137 226.825 87.0817 230.64 92.0283C234.558 96.975 237.239 109.548 234.971 121.193C232.702 132.838 225.485 160.972 225.485 160.972C225.485 160.972 231.774 188.488 230.846 193.64C229.403 201.782 173.105 208.686 173.62 197.659C174.239 186.633 179.085 158.911 179.085 158.911C179.085 158.911 176.198 128.819 176.507 122.017C176.817 115.319 180.632 99.7574 184.344 95.12C188.056 90.6886 206.409 81.4137 206.409 81.4137Z" fill="white" stroke="#333333" stroke-miterlimit="10" stroke-linecap="round" stroke-linejoin="round"/>
<path d="M194.449 97.7993C191.149 95.1199 191.768 92.1313 195.995 86.7725C200.223 81.4136 206.306 79.2495 209.709 81.8259C213.008 84.5053 214.658 86.3603 210.431 91.7191C206.203 97.078 197.851 100.479 194.449 97.7993Z" fill="#FFDFA6" stroke="#333333" stroke-miterlimit="10"/>
<path d="M209.709 78.6312C209.709 78.6312 214.039 73.6846 218.061 65.028C222.082 56.3714 220.432 44.1079 209.296 38.4399C198.16 32.7719 187.334 37.5124 184.034 46.5812C180.735 55.65 188.159 68.1196 209.709 78.6312Z" fill="#333333"/>
<path d="M208.987 69.5624C208.987 69.9746 211.565 80.4862 211.771 83.7839C212.081 92.2344 195.171 99.7574 194.346 92.7497C194.139 90.5855 193.624 80.2801 193.624 80.2801L208.987 69.5624Z" fill="white" stroke="#333333" stroke-miterlimit="10" stroke-linecap="round" stroke-linejoin="round"/>
<path d="M202.594 41.1193C202.594 41.1193 192.077 38.9551 186.612 46.5812C181.148 54.2072 183.416 59.2569 183.313 61.421C183.21 63.6883 179.807 80.8984 187.747 82.2381C196.511 83.6809 204.76 78.219 207.131 72.4479C207.131 72.4479 213.318 73.2723 215.174 68.4288C216.927 63.6883 212.493 59.1538 209.193 63.9974C209.09 63.9974 216.721 45.3445 202.594 41.1193Z" fill="white" stroke="#333333" stroke-miterlimit="10" stroke-linecap="round" stroke-linejoin="round"/>
<path d="M209.09 63.9975C209.09 63.9975 208.472 66.1616 208.369 66.883C208.265 67.6044 206.513 66.9861 207.441 62.5547C208.369 58.1234 203.625 56.2684 203.419 53.7951C203.213 51.3218 207.441 48.024 206.719 46.9935C206.719 46.9935 207.75 44.211 200.12 44.7263C192.49 45.2415 188.262 45.8599 186.819 43.6957C185.375 41.5316 183.931 34.3177 198.573 34.833C213.318 35.4513 217.03 51.837 209.09 63.9975Z" fill="#333333"/>
<path d="M202.904 35.6574C202.697 36.791 207.44 37.3063 209.606 40.8101C211.152 43.3865 211.049 47.4056 209.193 48.7453C207.44 50.085 205.378 47.9209 200.016 47.1995C192.696 46.169 190.53 49.3637 185.066 47.3026C182.282 46.272 179.085 44.1079 179.188 42.0468C179.291 40.0887 182.385 39.7796 182.694 37.4093C183.003 35.1421 180.322 34.4207 180.426 32.0505C180.529 29.0619 185.066 25.7641 187.849 26.6916C189.809 27.31 190.221 29.5772 191.355 29.3711C192.696 29.1649 192.18 25.8672 194.552 23.8061C196.305 22.2603 199.295 21.642 200.532 22.7756C202.079 24.1153 200.429 27.31 201.769 28.2375C202.904 28.9588 204.45 27.1039 206.1 27.8252C207.75 28.5466 208.781 31.6383 207.75 33.2871C206.616 35.2452 203.11 34.6268 202.904 35.6574Z" fill="#333333"/>
<path d="M190.84 61.421C190.737 62.3485 191.149 63.1729 191.768 63.276C192.386 63.379 193.005 62.5546 193.108 61.6271C193.211 60.6996 192.799 59.8751 192.18 59.7721C191.458 59.7721 190.943 60.4935 190.84 61.421Z" fill="#333333"/>
<path d="M196.201 59.1538C196.201 59.1538 194.449 57.5049 192.902 57.1958C191.355 56.8866 190.53 57.1958 190.53 57.1958L189.809 55.2377C189.809 55.2377 191.871 54.9286 193.83 55.65C195.789 56.3713 196.614 57.8141 196.614 57.8141L196.201 59.1538Z" fill="#333333"/>
<path d="M183.519 61.1119C183.416 62.0394 183.828 62.7608 184.344 62.8638C184.859 62.8638 185.375 62.2455 185.478 61.318C185.581 60.3905 185.169 59.6691 184.653 59.5661C184.137 59.463 183.622 60.1844 183.519 61.1119Z" fill="#333333"/>
<path d="M186.818 55.0317L186.406 56.9897C186.406 56.9897 185.581 56.7836 184.137 57.2989C183.725 57.4019 183.313 57.7111 182.9 58.0203C182.591 58.0203 182.591 56.5775 182.9 55.9592C184.756 54.9286 186.818 55.0317 186.818 55.0317Z" fill="#333333"/>
<path d="M64.6333 343.275C64.6333 343.069 73.707 342.966 73.707 342.966C73.707 342.966 75.1505 345.749 78.45 347.707C82.9869 350.489 88.6579 351.52 89.4828 352.757C90.1015 353.684 89.5859 354.921 89.5859 354.921C89.5859 354.921 84.4304 356.157 79.1718 355.436C75.1505 354.818 71.9541 353.478 71.9541 353.478L71.6448 354.612C69.1701 355.333 66.5924 355.024 64.0146 353.993C64.1177 353.993 62.6742 351.211 64.6333 343.275Z" fill="#B2EEDF" stroke="#333333" stroke-miterlimit="10" stroke-linecap="round" stroke-linejoin="round"/>
<path d="M41.6394 209.408C41.6394 209.408 51.6411 261.656 53.7033 271.859C55.7655 281.958 55.8686 293.088 56.1779 301.538C56.4873 309.989 62.8801 341.421 62.8801 341.421C62.3645 346.161 74.8408 347.192 75.3564 342.348C75.3564 342.348 74.4284 318.955 74.5315 313.802C74.7377 286.286 74.3253 274.641 75.4595 256.091C76.5937 237.541 72.9849 195.186 72.9849 195.186C72.9849 195.186 67.2107 182.098 54.4251 186.22C41.6394 190.239 41.6394 209.408 41.6394 209.408Z" fill="#1E1E1E"/>
<path d="M21.8426 344.203C21.8426 344.203 24.0079 346.779 30.4007 345.337C30.4007 345.337 32.8753 350.799 35.6593 352.447C44.8361 357.806 46.589 357.291 46.7952 358.734C47.1045 360.383 41.6397 362.135 35.8655 361.928C30.0914 361.722 26.4825 357.806 26.4825 357.806L25.967 358.528C25.967 358.528 22.1519 357.703 20.399 356.157C18.6462 354.612 21.8426 344.203 21.8426 344.203Z" fill="#B2EEDF" stroke="#333333" stroke-miterlimit="10" stroke-linecap="round" stroke-linejoin="round"/>
<path d="M22.358 203.74C22.358 204.873 27.101 254.545 24.6264 270.416C22.1518 286.183 18.2336 288.657 19.6771 332.043L19.8833 345.234C19.0585 349.768 31.6379 351.52 32.4628 346.882C32.4628 346.882 32.9783 328.023 37.5152 307.825C42.1551 287.626 53.9097 233.935 57.7247 202.4C61.4367 170.762 21.3269 175.09 22.358 203.74Z" fill="#333333"/>
<path d="M42.4641 85.5358C42.4641 85.5358 26.2759 91.7191 22.3577 96.6657C18.4395 101.612 16.5835 112.742 18.8519 124.387C21.1203 136.033 25.8634 165.197 25.8634 165.197C25.8634 165.197 20.3986 177.976 19.6768 190.239C19.0581 200.751 74.1189 210.026 75.9749 200.648C77.6247 192.3 70.6132 163.445 69.6852 163.033C69.6852 163.033 73.3972 133.044 73.0878 126.242C72.7785 119.544 68.1385 103.88 64.5297 99.242C60.8177 94.7076 42.4641 85.5358 42.4641 85.5358Z" fill="white" stroke="#333333" stroke-miterlimit="10" stroke-linecap="round" stroke-linejoin="round"/>
<path d="M57.5186 101.097C55.3533 103.88 49.2698 102.643 43.9081 98.4177C38.5463 94.1924 35.9686 88.5244 38.1339 85.845C40.2992 83.0625 46.3827 84.2992 51.7444 88.5244C57.1062 92.7496 59.6839 98.4176 57.5186 101.097Z" fill="#FFDFA6" stroke="#333333" stroke-miterlimit="10"/>
<path d="M37.2057 87.7C37.2057 87.7 49.3727 96.0474 54.5282 113.051C61.1273 134.693 60.0962 153.552 59.89 163.651C59.5806 176.018 54.6313 214.972 51.1256 217.549C48.651 219.404 15.6557 210.747 15.5526 207.14C15.4495 204.77 24.5232 161.59 23.5952 159.117C22.6672 156.644 15.2433 113.361 16.9962 103.055C18.1304 95.6352 26.3792 90.0702 37.2057 87.7Z" fill="#B2EEDF" stroke="#333333" stroke-miterlimit="10" stroke-linecap="round" stroke-linejoin="round"/>
<path d="M32.6687 179.934L52.5689 178.388L52.4658 177.048L32.4624 178.594L32.6687 179.934Z" fill="#B2EEDF" stroke="#333333" stroke-miterlimit="10" stroke-linecap="round" stroke-linejoin="round"/>
<path d="M50.3008 89.9672C50.3008 89.9672 60.715 100.685 64.53 115.112C68.4482 129.54 66.5922 149.945 67.0047 158.499C67.4171 167.052 71.2322 212.293 72.3664 212.705C73.5006 213.117 80.2028 209.511 79.8934 207.553C79.481 205.595 72.0571 160.869 72.0571 156.54C72.0571 152.212 74.7379 128.51 74.4286 121.502C73.8099 109.238 70.2011 101.715 66.2829 96.1504C62.8803 91.513 50.3008 89.9672 50.3008 89.9672Z" fill="#B2EEDF" stroke="#333333" stroke-miterlimit="10" stroke-linecap="round" stroke-linejoin="round"/>
<path d="M39.8868 72.9631C39.8868 73.2723 37.5152 85.6389 37.2059 87.6999C39.4743 89.4519 40.093 90.0702 42.877 92.8527C46.8982 96.0474 52.1569 99.2421 55.6626 97.7993L56.075 80.3831L39.8868 72.9631Z" fill="white" stroke="#333333" stroke-miterlimit="10" stroke-linecap="round" stroke-linejoin="round"/>
<path d="M44.9386 78.2189C42.0515 79.8678 38.3395 78.9403 36.5866 76.1578C35.1431 73.8906 33.3902 70.902 31.6374 67.1921C27.6161 58.5355 29.2658 46.272 40.4017 40.604C51.5376 34.9359 62.3642 39.6765 65.6637 48.7453C68.6539 57.0927 62.6735 68.2226 44.9386 78.2189Z" fill="#333333"/>
<path d="M47.1038 43.2835C47.1038 43.2835 57.6211 41.1193 63.0859 48.7454C68.5507 56.3714 66.2823 61.4211 66.3854 63.5852C66.4885 65.8524 69.8912 83.0626 61.9517 84.4023C53.1873 85.845 44.9385 80.3831 42.567 74.6121C42.567 74.6121 36.3804 75.4365 34.5244 70.5929C32.7715 65.8524 37.2053 61.318 40.5048 66.1616C40.5048 66.1616 32.9777 47.5087 47.1038 43.2835Z" fill="white" stroke="#333333" stroke-miterlimit="10" stroke-linecap="round" stroke-linejoin="round"/>
<path d="M63.4986 71.8296C63.4986 71.8296 62.5706 81.0015 63.9111 80.7954C65.2515 80.5892 68.4479 79.0434 68.8604 79.4556C69.2728 79.8679 68.4479 72.9632 68.4479 72.3449C68.4479 71.7265 68.7572 69.0471 63.4986 71.8296Z" fill="#333333"/>
<path d="M63.4985 71.8301C63.4985 71.8301 58.6523 71.0057 55.9714 70.7996C53.5999 70.5935 51.6408 71.3149 50.4035 75.8493C49.2693 80.3837 51.7439 76.7768 51.7439 76.7768C51.7439 76.7768 53.0844 81.8265 54.631 81.2081C56.1777 80.5898 62.158 80.3837 63.6016 79.6623C65.1482 78.9409 63.4985 71.8301 63.4985 71.8301Z" fill="#333333"/>
<path d="M40.5047 66.1615C40.5047 66.1615 41.1234 68.3257 41.2265 69.0471C41.3296 69.7685 43.0825 69.1501 42.1545 64.7188C41.2265 60.2874 44.2167 56.7836 44.4229 54.3103C44.6291 51.8369 42.7731 50.3942 42.5669 49.1575C42.5669 49.1575 41.8451 46.3751 49.4753 46.8903C57.1054 47.4056 61.3329 48.0239 62.7765 45.8598C64.22 43.6956 65.6636 36.4818 51.0219 36.9971C36.3803 37.6154 32.6683 54.0011 40.5047 66.1615Z" fill="#333333"/>
<path d="M58.8587 63.5852C58.9618 64.5126 58.5494 65.3371 57.9307 65.4401C57.3121 65.5432 56.6934 64.7188 56.5903 63.7913C56.4872 62.8638 56.8996 62.0393 57.5183 61.9363C58.137 61.9363 58.7556 62.6577 58.8587 63.5852Z" fill="#333333"/>
<path d="M53.4969 61.3184C53.4969 61.3184 55.2498 59.6695 56.7964 59.3603C58.3431 59.0512 59.1679 59.3603 59.1679 59.3603L59.8897 57.4023C59.8897 57.4023 57.8275 57.0931 55.8684 57.8145C53.9093 58.5359 53.0844 59.9786 53.0844 59.9786L53.4969 61.3184Z" fill="#333333"/>
<path d="M66.1793 63.276C66.2824 64.2035 65.87 64.9249 65.3544 65.0279C64.8389 65.0279 64.3233 64.4096 64.2202 63.4821C64.1171 62.5546 64.5295 61.8332 65.0451 61.7302C65.5606 61.6271 66.0762 62.3485 66.1793 63.276Z" fill="#333333"/>
<path d="M62.8797 57.1958L63.2921 59.1538C63.2921 59.1538 64.117 58.9477 65.5606 59.463C65.973 59.5661 66.3854 59.8752 66.7979 60.1844C67.1072 60.1844 67.1072 58.7416 66.7979 58.1233C64.9419 57.1958 62.8797 57.1958 62.8797 57.1958Z" fill="#333333"/>
<path d="M41.3298 69.0471C41.3298 69.0471 39.7831 88.7305 61.5393 87.4939C65.973 87.1847 69.9943 84.4022 70.0975 78.7342C70.3037 72.0357 67.3135 71.6234 67.3135 71.6234L67.2104 75.4365C67.2104 75.4365 67.7259 77.2914 63.2922 78.1159C58.8585 78.9403 46.3821 77.0853 42.3609 68.3257L41.3298 69.0471Z" fill="#333333"/>
<path d="M38.6489 44.3146C38.6489 48.2307 35.4525 51.4254 31.5343 51.4254C27.6162 51.4254 24.4197 48.2307 24.4197 44.3146C24.4197 40.3986 27.6162 37.2039 31.5343 37.2039C35.4525 37.2039 38.6489 40.3986 38.6489 44.3146Z" fill="#333333"/>
<path d="M106.496 161.796C106.496 161.796 102.062 166.743 103.196 172.823C103.196 172.823 113.817 180.449 115.26 181.171C116.704 181.892 117.632 181.995 118.25 181.789C118.869 181.583 118.972 180.861 119.694 180.449C120.416 180.037 121.447 180.964 122.066 180.552C122.684 180.14 122.581 179.109 123.2 178.8C123.818 178.491 125.468 179.109 126.293 178.697C127.015 178.285 126.912 176.121 127.221 175.709C127.53 175.296 128.458 176.224 129.902 174.678C131.345 173.132 119.694 162.312 119.694 162.312L121.756 159.735C121.756 159.735 126.293 161.281 127.221 160.457C128.149 159.632 127.943 157.571 127.943 157.571C127.943 157.571 119.797 153.655 117.426 155.407C114.848 157.159 112.786 157.777 106.496 161.796Z" fill="white" stroke="#333333" stroke-miterlimit="10" stroke-linecap="round" stroke-linejoin="round"/>
<path d="M122.169 155.407C120.519 155.51 116.807 156.747 116.085 157.056C115.054 157.674 110.62 162.312 110.93 162.827C111.239 163.342 113.611 164.476 116.498 162.724C119.282 160.972 118.251 161.281 118.251 161.281L129.593 172.72C131.346 171.689 132.686 169.628 133.923 166.949C136.604 165.712 131.758 156.128 129.077 157.468C129.077 157.468 122.891 155.407 122.169 155.407Z" fill="white" stroke="#333333" stroke-miterlimit="10" stroke-linecap="round" stroke-linejoin="round"/>
<path d="M103.918 159.838C103.918 159.838 106.084 160.044 106.393 160.663C106.908 161.59 107.012 164.991 106.29 168.392C105.671 171.793 103.815 174.163 103.3 174.472C102.784 174.781 100.825 174.163 100.825 174.163L103.918 159.838Z" fill="white" stroke="#333333" stroke-miterlimit="10" stroke-linecap="round" stroke-linejoin="round"/>
<path d="M29.3694 94.2954C28.2352 94.0893 15.4496 93.574 15.862 106.971C16.3776 120.368 41.7427 162.002 46.6919 164.063C61.2305 170.247 100.103 175.09 100.103 175.09C103.918 175.915 107.527 159.735 103.609 158.808C103.609 158.808 62.1584 149.224 59.7869 146.647C57.4154 144.071 42.98 105.322 40.196 102.025C40.196 102.025 34.1125 95.0168 29.3694 94.2954Z" fill="#B2EEDF" stroke="#333333" stroke-miterlimit="10" stroke-linecap="round" stroke-linejoin="round"/>
<path d="M58.9622 146.956C57.5186 148.09 56.0751 149.12 54.9409 150.357C53.6004 151.594 52.5693 152.933 51.4351 154.376C51.332 154.479 51.2289 154.479 51.1258 154.376C51.0227 154.273 51.0227 154.17 51.0227 154.067C51.6413 152.315 52.7755 150.769 54.116 149.43C55.4564 148.193 57.0031 147.059 58.7559 146.441C58.859 146.441 59.0653 146.441 59.0653 146.544C59.1684 146.75 59.0653 146.956 58.9622 146.956Z" fill="#B2EEDF" stroke="#333333" stroke-miterlimit="10" stroke-linecap="round" stroke-linejoin="round"/>
<path d="M59.6841 147.884C59.1685 149.636 58.4467 151.285 57.8281 152.934C57.0032 154.582 56.2814 156.128 55.2503 157.674C55.1472 157.777 55.0441 157.777 54.941 157.777C54.8379 157.674 54.8379 157.571 54.8379 157.468C55.3534 155.716 56.0752 154.067 56.6939 152.418C57.5188 150.769 58.2405 149.224 59.2716 147.678C59.3747 147.575 59.4778 147.575 59.581 147.575C59.6841 147.678 59.6841 147.781 59.6841 147.884Z" fill="#B2EEDF" stroke="#333333" stroke-miterlimit="10" stroke-linecap="round" stroke-linejoin="round"/>
<path d="M227.753 154.995C228.681 151.182 242.188 111.609 240.126 101.303C238.064 90.8946 213.833 83.7838 213.833 83.7838C213.833 83.7838 195.686 122.738 189.809 136.754C188.674 128.097 194.345 90.0701 194.345 90.0701L193.933 86.5663C193.933 86.5663 186.715 90.7915 184.241 92.9557C181.147 95.7381 176.301 114.7 176.301 119.75C176.301 124.697 176.507 144.277 176.507 150.666C176.507 157.056 169.805 198.071 170.115 199.514C170.424 200.854 182.9 209.923 185.169 207.965C185.89 207.346 186.818 201.163 187.746 192.713C188.881 202.297 190.53 207.862 191.458 208.892C193.521 211.262 231.568 203.121 232.805 200.442C233.94 197.659 226.825 158.808 227.753 154.995Z" fill="#E3CCFF" stroke="#333333" stroke-miterlimit="10" stroke-linecap="round" stroke-linejoin="round"/>
<path d="M195.273 177.667L215.277 175.915L215.07 174.575L195.17 176.327L195.273 177.667Z" fill="#E3CCFF" stroke="#333333" stroke-miterlimit="10" stroke-linecap="round" stroke-linejoin="round"/>
<path d="M172.589 174.472L181.972 176.945L182.282 175.606L173.311 173.235L172.589 174.472Z" fill="#E3CCFF" stroke="#333333" stroke-miterlimit="10" stroke-linecap="round" stroke-linejoin="round"/>
<path d="M220.329 86.1541L211.152 79.8678L211.874 82.9594L189.809 136.342L192.386 101.818L194.346 89.761L193.727 85.0205L189.706 88.6274L184.55 100.891L189.293 101.303L184.653 103.88L188.674 146.956C188.674 146.956 188.881 147.059 188.984 147.059L211.359 105.219L207.647 101.921L213.627 102.643C215.277 94.7077 218.267 88.5244 220.329 86.1541Z" fill="#E3CCFF" stroke="#333333" stroke-miterlimit="10" stroke-linecap="round" stroke-linejoin="round"/>
<path d="M187.643 192.507C187.437 188.694 186.922 185.602 186.922 181.892C186.922 178.079 187.025 174.266 187.025 170.556C187.334 163.033 187.953 154.685 188.674 147.163C188.674 147.059 188.777 147.059 188.881 147.059C188.984 147.059 188.984 147.163 188.984 147.163" fill="#E3CCFF"/>
<path d="M187.643 192.507C187.437 188.694 186.922 185.602 186.922 181.892C186.922 178.079 187.025 174.266 187.025 170.556C187.334 163.033 187.953 154.685 188.674 147.163C188.674 147.059 188.777 147.059 188.881 147.059C188.984 147.059 188.984 147.163 188.984 147.163" stroke="#333333" stroke-miterlimit="10" stroke-linecap="round" stroke-linejoin="round"/>
<path d="M191.562 149.842C191.562 150.975 190.943 151.903 190.221 151.903C189.499 151.903 188.881 150.975 188.881 149.842C188.881 148.708 189.499 147.781 190.221 147.781C190.943 147.884 191.562 148.811 191.562 149.842Z" fill="#E3CCFF" stroke="#333333" stroke-miterlimit="10" stroke-linecap="round" stroke-linejoin="round"/>
<path d="M189.602 170.35C190.343 170.35 190.943 169.427 190.943 168.289C190.943 167.15 190.343 166.228 189.602 166.228C188.862 166.228 188.262 167.15 188.262 168.289C188.262 169.427 188.862 170.35 189.602 170.35Z" fill="#E3CCFF" stroke="#333333" stroke-miterlimit="10" stroke-linecap="round" stroke-linejoin="round"/>
<path d="M188.984 189.003C189.724 189.003 190.324 188.08 190.324 186.942C190.324 185.803 189.724 184.88 188.984 184.88C188.243 184.88 187.643 185.803 187.643 186.942C187.643 188.08 188.243 189.003 188.984 189.003Z" fill="#E3CCFF" stroke="#333333" stroke-miterlimit="10" stroke-linecap="round" stroke-linejoin="round"/>
<path d="M107.527 176.018C107.011 177.048 106.083 177.048 105.258 176.533C104.433 176.121 104.021 175.296 104.536 174.369C105.052 173.338 106.495 172.514 107.32 172.926C108.145 173.441 108.145 175.09 107.527 176.018Z" fill="white" stroke="#333333" stroke-miterlimit="10" stroke-linecap="round" stroke-linejoin="round"/>
<path d="M109.899 177.976C109.383 179.006 108.455 179.006 107.63 178.491C106.805 178.079 106.393 177.255 106.908 176.327C107.424 175.297 108.867 174.472 109.692 174.884C110.517 175.297 110.414 176.945 109.899 177.976Z" fill="white" stroke="#333333" stroke-miterlimit="10" stroke-linecap="round" stroke-linejoin="round"/>
<path d="M112.476 179.625C111.961 180.655 111.033 180.655 110.208 180.14C109.383 179.728 108.97 178.903 109.486 177.976C110.001 176.945 111.445 176.121 112.27 176.533C113.095 177.048 113.095 178.697 112.476 179.625Z" fill="white" stroke="#333333" stroke-miterlimit="10" stroke-linecap="round" stroke-linejoin="round"/>
<path d="M115.569 181.067C115.054 182.098 114.126 182.098 113.301 181.583C112.476 181.171 112.063 180.346 112.579 179.419C113.095 178.388 114.538 177.564 115.363 177.976C116.188 178.388 116.085 180.037 115.569 181.067Z" fill="white" stroke="#333333" stroke-miterlimit="10" stroke-linecap="round" stroke-linejoin="round"/>
<path d="M218.577 220.228C218.577 220.228 219.505 224.041 220.536 224.35C221.567 224.66 222.598 222.805 222.392 220.537C222.289 218.579 218.577 220.228 218.577 220.228Z" fill="white" stroke="#333333" stroke-miterlimit="10" stroke-linecap="round" stroke-linejoin="round"/>
<path d="M265.904 279.794L195.274 289.275C193.521 289.378 188.984 281.34 188.984 279.588L187.231 233.007C187.128 231.255 188.572 229.812 190.324 229.709L263.945 226.927C265.698 226.824 270.338 229.915 270.338 231.667L268.997 276.496C268.997 278.248 267.657 279.794 265.904 279.794Z" fill="#91E2C7" stroke="#333333" stroke-miterlimit="10" stroke-linecap="round" stroke-linejoin="round"/>
<path d="M270.854 286.699L195.789 289.584C194.655 289.584 193.727 288.76 193.727 287.729L191.768 237.026C191.768 235.893 192.593 234.965 193.624 234.965L268.688 232.08C269.822 232.08 270.75 232.904 270.75 233.935L272.71 284.637C272.813 285.771 271.988 286.699 270.854 286.699Z" fill="#B2EEDF" stroke="#333333" stroke-miterlimit="10" stroke-linecap="round" stroke-linejoin="round"/>
<path d="M215.483 230.018L215.38 222.495C215.38 220.022 217.236 218.064 219.711 217.961L238.271 217.034C240.024 216.93 241.467 218.27 241.467 220.022L241.673 229.091C241.673 230.018 238.374 230.018 238.374 229.194L238.271 221.671C238.271 220.95 237.652 220.434 236.93 220.434L220.948 221.156C219.711 221.259 218.68 222.289 218.68 223.526L218.783 230.018C218.783 230.946 215.483 231.049 215.483 230.018Z" fill="#B2EEDF" stroke="#333333" stroke-miterlimit="10" stroke-linecap="round" stroke-linejoin="round"/>
<path d="M228.063 206.007C228.063 206.007 223.732 210.232 222.392 211.159C221.051 212.087 220.02 214.457 219.711 215.488C219.608 216.003 218.886 217.961 218.886 217.961C218.886 217.961 223.629 217.652 224.248 217.549C225.279 217.446 224.351 221.671 224.145 222.495C223.938 223.32 221.979 224.041 222.701 227.133C223.01 228.163 224.351 229.091 225.794 228.163C226.722 229.297 227.754 229.606 228.991 228.679C230.331 229.606 231.672 229.709 233.012 228.679C233.012 228.679 236.105 229.4 237.343 225.072C238.58 220.847 237.858 207.759 237.858 207.759L228.063 206.007Z" fill="white" stroke="#333333" stroke-miterlimit="10" stroke-linecap="round" stroke-linejoin="round"/>
<path d="M239.405 209.098C239.405 209.098 239.096 211.263 238.477 211.572C237.446 211.984 234.146 211.984 230.744 211.159C227.444 210.335 225.073 208.377 224.867 207.862C224.557 207.346 225.279 205.491 225.279 205.491L239.405 209.098Z" fill="white" stroke="#333333" stroke-miterlimit="10" stroke-linecap="round" stroke-linejoin="round"/>
<path d="M240.127 98.933C248.169 109.651 255.49 151.079 253.84 156.231C252.191 161.384 240.745 208.274 240.745 208.274C239.817 212.087 223.629 208.171 224.557 204.255C224.557 204.255 232.806 158.911 232.806 155.407C232.703 151.903 220.742 114.391 219.711 110.166C217.649 101.715 229.3 84.6084 240.127 98.933Z" fill="#E3CCFF" stroke="#333333" stroke-miterlimit="10" stroke-linecap="round" stroke-linejoin="round"/>
<path d="M234.249 154.686C235.796 153.758 237.239 152.831 238.889 152.109C240.436 151.285 242.086 150.769 243.838 150.254C243.942 150.254 244.045 150.048 243.942 149.945C243.942 149.842 243.838 149.739 243.735 149.739C241.879 149.739 240.023 150.254 238.374 150.976C236.724 151.8 235.074 152.831 233.94 154.273C233.837 154.376 233.837 154.479 233.94 154.582C234.043 154.789 234.146 154.789 234.249 154.686Z" fill="#E3CCFF" stroke="#333333" stroke-miterlimit="10" stroke-linecap="round" stroke-linejoin="round"/>
<path d="M234.868 155.716C236.724 155.922 238.477 155.819 240.23 155.716C241.983 155.51 243.839 155.407 245.592 154.995C245.695 154.995 245.798 154.789 245.798 154.685C245.798 154.582 245.695 154.479 245.592 154.479C243.736 154.273 241.983 154.376 240.23 154.479C238.477 154.685 236.621 154.789 234.868 155.201C234.765 155.201 234.662 155.407 234.662 155.51C234.765 155.613 234.765 155.613 234.868 155.716Z" fill="#E3CCFF" stroke="#333333" stroke-miterlimit="10" stroke-linecap="round" stroke-linejoin="round"/>
<path d="M285.701 52.3522C285.701 52.3522 285.495 52.5583 285.185 52.9705C284.876 53.3828 284.36 53.898 283.639 54.6194C282.195 55.9591 280.03 57.8141 276.73 59.463C275.905 59.8752 275.081 60.2874 274.049 60.5966C273.534 60.8027 273.121 60.9058 272.606 61.1119C272.09 61.2149 271.575 61.421 271.059 61.5241C270.028 61.8332 268.791 61.9363 267.657 62.1424C267.038 62.2455 266.419 62.2455 265.801 62.2455C265.182 62.3485 264.563 62.3485 263.945 62.2455C258.789 62.2455 252.912 60.6996 247.653 56.9897H247.86C243.426 57.8141 238.683 58.7416 233.733 59.7722L232.909 59.8752L233.424 59.2569C235.899 56.3713 238.477 53.3828 241.26 50.2911V50.7033C239.92 48.8484 238.683 46.7873 237.755 44.5201C236.827 42.2529 236.208 39.8826 235.899 37.4093C235.28 32.4627 235.899 27.1038 238.064 22.2603C240.745 15.9739 245.694 10.9242 251.468 8.03871C257.243 5.25623 263.738 4.32874 269.513 5.46234C272.4 5.97762 275.184 6.90511 277.658 8.24482C280.133 9.58453 282.401 11.1304 284.257 12.9853C288.072 16.5922 290.444 21.0236 291.784 25.3519C293.125 29.5771 293.228 33.8024 292.712 37.2032C292.3 40.707 291.166 43.5926 290.135 45.8598C289.825 46.375 289.619 46.8903 289.31 47.4056C289 47.9209 288.691 48.3331 288.485 48.7453C287.969 49.5697 287.557 50.1881 287.041 50.7033C286.629 51.2186 286.32 51.5278 286.113 51.8369C285.804 52.1461 285.701 52.3522 285.701 52.3522Z" fill="white" stroke="#333333" stroke-miterlimit="10" stroke-linecap="round" stroke-linejoin="round"/>
<path d="M263.326 23.497L271.059 20.9206L278.895 18.3442L277.246 26.2794L275.596 34.3177L271.368 30.6077L253.221 50.9095L249.406 47.6118L267.553 27.2069L263.326 23.497Z" fill="#FFDFA6" stroke="#333333" stroke-miterlimit="10"/>
<path d="M62.2615 63.173C62.2615 63.173 65.7672 67.9135 64.5299 69.3562C63.2926 70.799 61.7459 70.1807 61.7459 70.1807" stroke="#333333" stroke-miterlimit="10" stroke-linecap="round" stroke-linejoin="round"/>
<path d="M65.5608 74.509C65.5608 74.509 64.1172 76.3639 58.7555 74.4059C53.3938 72.4479 55.5591 79.1464 60.5084 80.3831C65.3545 81.6197 67.4167 77.0853 65.5608 74.509Z" fill="white" stroke="#333333" stroke-miterlimit="10" stroke-linecap="round" stroke-linejoin="round"/>
<path d="M187.54 60.8027C187.54 60.8027 184.447 67.7074 184.55 68.5318C184.653 69.3563 188.571 69.5624 188.571 69.5624" stroke="#333333" stroke-miterlimit="10" stroke-linecap="round" stroke-linejoin="round"/>
<path d="M192.49 72.9631C193.108 73.1692 191.974 75.0242 190.427 76.6731C188.881 78.322 185.787 78.425 183.931 76.1578C183.313 75.3334 183.003 74.8181 182.385 73.1692C185.89 74.4059 189.293 74.3028 192.49 72.9631Z" stroke="#333333" stroke-miterlimit="10" stroke-linecap="round" stroke-linejoin="round"/>
<path d="M216.308 66.1616C216.927 66.883 218.473 66.986 219.401 66.1616C220.226 65.4402 220.329 64.3066 220.02 63.5852C219.814 62.9669 219.505 62.9669 219.505 62.6577C219.505 61.8333 221.361 61.6272 223.113 60.1844C223.32 59.9783 225.794 58.0203 225.382 56.8867C225.073 56.1653 223.732 55.547 221.154 54.5164C220.948 54.4134 220.639 54.3103 220.639 54.1042C220.433 53.3828 223.423 52.8675 224.351 50.8065C224.969 49.3637 224.557 47.3026 223.423 46.6843C222.082 45.9629 220.123 47.9209 219.505 47.3026C218.989 46.7873 220.639 45.0354 220.845 41.9437C220.845 41.0163 220.948 39.2643 220.02 38.7491C218.577 37.9246 215.999 40.604 215.38 39.9857C214.555 39.2643 217.649 36.0696 216.514 33.8024C215.793 32.2566 213.112 31.4322 211.565 32.1536C209.915 32.978 209.709 35.2452 209.09 35.1421C208.369 35.0391 209.194 31.4322 207.544 30.1955C205.688 28.8558 201.77 31.3291 200.223 32.2566C198.161 33.4933 197.233 34.1116 197.027 35.2452C196.717 36.8941 198.264 38.4399 203.626 42.9743C209.503 47.9209 210.018 47.1995 210.946 48.9515C213.112 53.1767 210.431 57.2989 213.318 59.8753C214.246 60.6997 215.38 61.1119 215.896 62.5547C216.308 64.3066 215.483 65.3372 216.308 66.1616Z" fill="#333333"/>
</g>
<defs>
<clipPath id="clip0">
<rect width="478" height="365" fill="white"/>
</clipPath>
</defs>
</svg>
