<svg id="Layer_1" viewBox="0 0 64 64" xmlns="http://www.w3.org/2000/svg" data-name="Layer 1"><path d="m18.77 25.77 7.11 2.4c.53.18 1.09-.1 1.27-.62.18-.53-.11-1.09-.63-1.27l-4.3-1.45 4.3-1.46c.28-.09.5-.3.61-.56.11-.27.1-.57-.03-.83l-2.02-4.07 4.08 2.01c.25.13.55.14.82.03s.47-.33.57-.6l1.45-4.31 1.45 4.31c.1.27.3.49.57.6s.57.1.82-.03l4.08-2.01-2.02 4.07c-.13.26-.14.56-.03.83.11.26.33.47.61.56l4.3 1.46-4.3 1.45c-.52.18-.81.74-.63 1.27.14.41.53.68.95.68.1 0 .21-.02.32-.06l7.11-2.4c.41-.13.68-.51.68-.94s-.27-.81-.68-.95l-6.03-2.04 2.83-5.7c.19-.38.11-.85-.19-1.15-.31-.3-.77-.38-1.15-.19l-5.71 2.82-2.03-6.02c-.14-.41-.52-.68-.95-.68s-.81.27-.95.68l-2.03 6.02-5.71-2.82c-.38-.19-.84-.11-1.15.19-.3.3-.38.77-.19 1.15l2.83 5.7-6.03 2.04c-.41.14-.68.52-.68.95s.27.81.68.94z"/><path d="m16.65 39.77c-1.55 0-2.97.63-3.99 1.65-.26.26-.49.54-.69.84-.51.75-.84 1.63-.94 2.58-.02.19-.03.38-.03.58 0 .23.01.44.04.65.34 2.87 2.75 5.01 5.61 5.01s5.27-2.14 5.61-4.99c.02-.1.03-.2.04-.3.01-.12.01-.24.01-.37 0-3.12-2.54-5.65-5.66-5.65z"/><path d="m6.66 20.64c-.72-.72-1.71-1.14-2.72-1.14h-.94v9.32h11.83z"/><path d="m9.07 44.45c.03-.25.07-.5.13-.74.05-.25.12-.48.2-.72.08-.23.17-.46.27-.68.2-.45.44-.87.71-1.27.14-.19.29-.39.45-.57.15-.18.32-.36.49-.53s.35-.33.54-.48c.16-.13.34-.26.52-.38.62-.42 1.3-.75 2.04-.98.2-.06.41-.11.62-.15.07-.03.15-.04.23-.05.2-.04.4-.07.6-.09h.01c.26-.03.51-.04.77-.04s.51.01.77.04h.01c.2.02.4.05.6.09.09.01.17.03.25.05.21.04.41.09.61.15.49.16.97.36 1.41.59.19.11.38.23.56.35.19.12.36.24.53.38.05.03.09.07.13.1.15.12.29.25.43.39.19.18.37.37.53.56.1.12.2.24.3.37.06.08.11.15.17.23.13.19.25.39.36.59.12.21.23.43.33.65.1.21.18.42.25.63.03.07.05.14.07.21.05.15.1.31.13.47.03.09.05.17.06.26.09.4.14.81.15 1.23.01.03.01.07.01.1h4.81c1.04 0 1.88-.84 1.88-1.88v-7.61c0-.86-.59-1.61-1.43-1.82l-11.77-2.89c-.16-.04-.36-.1-.56-.19h-14.24v14.39h6.01c.01-.26.03-.51.06-.76z"/><path d="m47.35 51.08c2.86 0 5.26-2.13 5.61-4.98v-.03c.03-.21.04-.42.04-.65 0-.2-.01-.39-.03-.58-.1-.95-.43-1.83-.94-2.58-.2-.3-.43-.58-.69-.84-1.02-1.02-2.44-1.65-3.99-1.65-3.12 0-5.66 2.53-5.66 5.65 0 .23.01.44.04.65.35 2.87 2.76 5.01 5.62 5.01z"/><path d="m57.34 20.64-8.17 8.18h11.83v-9.32h-.94c-1.01 0-2 .42-2.72 1.14z"/><path d="m46.2 31.01-11.77 2.89c-.84.21-1.43.96-1.43 1.82v7.61c0 1.04.84 1.88 1.88 1.88h4.81c0-.03 0-.07.01-.1.01-.42.06-.83.15-1.23.01-.09.03-.17.06-.26.03-.16.08-.32.13-.47.02-.07.04-.14.07-.21.07-.21.15-.42.25-.63.1-.22.21-.44.33-.65.11-.2.23-.4.36-.59.06-.08.11-.15.17-.23.1-.13.2-.25.3-.37.16-.19.34-.38.53-.56.14-.14.28-.27.43-.39.04-.03.08-.07.13-.1.17-.14.34-.26.53-.38.18-.12.37-.24.56-.35.44-.23.92-.43 1.41-.59.2-.06.4-.11.61-.15.08-.02.16-.04.25-.05.2-.04.4-.07.6-.09h.01c.26-.03.51-.04.77-.04s.51.01.77.04h.01c.2.02.4.05.6.09.08.01.16.02.23.05.21.04.42.09.62.15.74.23 1.42.56 2.04.98.18.12.36.25.52.38.19.15.37.31.54.48s.34.35.49.53c.16.18.31.38.45.57.27.4.51.82.71 1.27.1.22.19.45.27.68.08.24.15.47.2.72.06.24.1.49.13.74s.05.5.06.76h6.01v-14.39h-14.24c-.2.09-.4.15-.56.19z"/></svg>