<svg id="Capa_1" enable-background="new 0 0 480 480" height="512" viewBox="0 0 480 480" width="512" xmlns="http://www.w3.org/2000/svg"><path d="m113.652 218.234-12.195 10.36 3.07 3.609c1.554 1.678 2.343 3.926 2.18 6.207-.414 2.663-1.89 5.044-4.09 6.6l9.875 12.586c5.646-4.223 9.309-10.58 10.133-17.582.607-6.611-1.528-13.181-5.906-18.172z"/><path d="m142.7 287.242 13.571 8.469c9.914-16.021 9.914-36.272 0-52.293l-13.571 8.469c6.7 10.833 6.7 24.522 0 35.355z"/><path d="m240 120c5.929-.023 11.635-2.259 16-6.271v46.271h16v-36.423c1.553.438 3.157.669 4.77.689 3.146-.027 6.242-.795 9.035-2.243l44.16-25.9 141.59 7.867.89-15.976-144-8c-1.57-.075-3.129.302-4.492 1.086l-45.773 26.865c-.691.342-1.49.4-2.223.16-1.526-.512-2.347-2.164-1.835-3.69.108-.322.272-.623.483-.888l10.766-13.457c7.239-9.05 5.77-22.255-3.28-29.494s-22.255-5.77-29.494 3.28c-2.976 3.721-4.597 8.343-4.597 13.108v19.016c0 4.418-3.582 8-8 8s-8-3.582-8-8v-36l26.668-20h213.332v-16h-216c-1.731 0-3.415.561-4.8 1.6l-32 24c-2.016 1.509-3.202 3.881-3.2 6.4v40c.015 13.249 10.751 23.985 24 24zm24-43.016c.002-2.752 2.232-4.982 4.984-4.984 2.754-.002 4.989 2.229 4.991 4.983.001 1.133-.384 2.232-1.091 3.117l-8.884 11.1z"/><path d="m472 200h-48c-4.418 0-8 3.582-8 8v1.487l-10.641.275c-4.72 0-9.418-.225-14.1-.552l9.565-44.847-15.648-3.336-9.9 46.429c-8.953-1.386-17.801-3.384-26.481-5.98l11.321-47.417-15.562-3.719-11.169 46.76c-8.316-2.318-16.765-4.131-25.3-5.429l9.09-46.126-15.7-3.094-9.344 47.421c-18.943-1.355-37.982-.212-56.627 3.4l-9.314-50.4-15.734 2.906 9.442 51.092c-3.576.968-7.167 1.88-10.692 3.037-2.4.801-4.728 1.801-6.961 2.989l-18.789-48.661-14.921 5.765 20.565 53.272c-.827.96-1.594 1.967-2.338 3-9.86-9.531-22.22-16.071-35.647-18.862l-.009-1.994c-.021-15.897-12.903-28.779-28.8-28.8h-1.056c-10.327.035-19.839 5.614-24.91 14.61h-14.492c-.419 0-.826.05-1.243.056-6.587-21.77-29.575-34.079-51.345-27.492-17.258 5.221-29.112 21.062-29.255 39.092.036 9.602 3.507 18.874 9.786 26.138-6.309 9.827-9.704 21.241-9.791 32.918v12.679c0 22.474 11.6 42.527 29.646 55.621-16.67 1.201-29.595 15.049-29.646 31.762v24c.023 5.898 1.691 11.673 4.818 16.675-2.922 1.264-4.814 4.142-4.818 7.325v48c0 4.418 3.582 8 8 8h464c4.418 0 8-3.582 8-8v-240c0-4.418-3.582-8-8-8zm-279.229 108.868c.478 1.1.913 2.225 1.479 3.269.956 2.768 2.247 5.409 3.844 7.863h-16.353c4.073-3.296 7.772-7.029 11.03-11.132zm15.229-8.868c.013-11.04 8.96-19.987 20-20h188v40h-188c-11.04-.013-19.987-8.96-20-20zm6.176-84.879c40.333-13.166 83.807-13.166 124.14 0 21.704 7.08 44.394 10.669 67.223 10.633h.027l10.434-.27v38.516h-188c-7.218-.005-14.268 2.173-20.225 6.248.091-1.438.225-2.866.225-4.326-.018-12.853-3.668-25.44-10.529-36.309 3.386-6.886 9.41-12.112 16.705-14.492zm-22.176 50.801c0 29.82-25.121 54.078-56 54.078h-28.279c-.942-5.66-2.452-11.212-4.505-16.57l10.46 8.8 3.039-3.609c4.337-5.007 6.444-11.568 5.832-18.164-.814-6.966-4.434-13.299-10.024-17.535l-9.937 12.539c2.182 1.567 3.64 3.949 4.043 6.605.171 2.293-.61 4.555-2.16 6.254l-2.191 2.6c-10.966-27.557-33.836-57.126-45.571-71.278l41.555-17.82h2.183.018s.011 0 .017 0h35.52c2.098.008 4.193.128 6.278.359 27.931 3.034 49.722 25.965 49.722 53.741zm-70.75-83.313h1.055c7.078.016 12.806 5.762 12.8 12.84l-26.389.375h-.275v-.41c.03-1.294.258-2.575.676-3.8.015-.046 0-.095.01-.142 1.696-5.268 6.589-8.845 12.123-8.863zm-80.02-14.609c9.952-.02 18.961 5.884 22.916 15.016-16.609 3.219-31.903 11.253-43.98 23.1-2.662-3.909-4.112-8.516-4.166-13.245.114-13.829 11.401-24.955 25.23-24.871zm-25.23 96.617v-12.679c0-29.661 30.156-54.719 65.848-54.719h9.882l-51.33 22.015c-4.061 1.74-5.943 6.443-4.202 10.504.344.804.818 1.545 1.402 2.196 13.92 15.504 48.1 58.808 53.978 88.066h-12.469c-34.797 0-63.109-24.844-63.109-55.383zm0 87.383c.009-8.833 7.167-15.991 16-16h384v56h-384c-8.833-.009-15.991-7.167-16-16zm448 88h-448v-32h448zm0-48h-32v-176h32z"/></svg>