<?xml version="1.0" encoding="iso-8859-1"?>
<!-- Generator: Adobe Illustrator 19.0.0, SVG Export Plug-In . SVG Version: 6.00 Build 0)  -->
<svg version="1.1" id="Capa_1" xmlns="http://www.w3.org/2000/svg" xmlns:xlink="http://www.w3.org/1999/xlink" x="0px" y="0px"
	 viewBox="0 0 512 512" style="enable-background:new 0 0 512 512;" xml:space="preserve">
<g>
	<g>
		<g>
			<path d="M458.469,450.625c-36.424-9.393-81.754-21.08-115.562-40.402c-50.793-27.515-97.584-61.848-139.071-102.045
				c-20.965-20.964-20.965-50.75-20.965-70.464c0-17.321,30.045-162.482,45.455-226.518c0.656-2.694,0.033-5.54-1.688-7.714
				c-1.738-2.21-4.398-3.494-7.21-3.482h-18.964c-1.668,14.623-6.382,38.994-12.121,68.518
				c-10.585,54.464-23.759,122.259-23.759,160.054c-0.592,11.765,1.181,23.53,5.214,34.598c2.591,6.44,3.924,13.317,3.929,20.259
				c0.484,12.601-0.292,25.218-2.318,37.665c7.078,4.619,12.805,11.032,16.598,18.585c13.878-1.379,26.741-1.392,31.434-1.392
				c12.005,0,32.251,19.074,41.203,37.915c23.927,4.385,50.226,19.903,50.226,35.227c0.107,6.532-0.321,13.063-1.279,19.525
				c15.595,2.422,30.701,7.326,44.743,14.528c3.138,1.491,5.893,2.804,8.304,3.732c4.079,1.605,7.744,4.107,10.725,7.321
				c7.655-8.056,19.413-10.698,29.778-6.69c10.365,4.008,17.287,13.873,17.531,24.983s-6.24,21.269-16.42,25.727
				c-10.179,4.458-22.043,2.334-30.043-5.379c-4.511,4.955-10.923,7.749-17.624,7.68c-12.286-1.146-24.27-4.462-35.397-9.795
				c-9.022-4.333-18.678-7.199-28.603-8.491c-8.544,0.422-17.008,1.863-25.21,4.295c-9.645,2.83-19.603,4.458-29.647,4.848
				c-12.628,0.197-24.868-4.365-34.287-12.78c-3.505,2.016-7.402,3.257-11.427,3.637c-9.436-0.868-18.538-3.932-26.577-8.948
				c-5.135,5.72-12.799,8.478-20.401,7.341c-4.779-0.733-9.489-1.856-14.085-3.357c-9.798-3.167-20.077-4.582-30.366-4.178
				c-6.179,0-13.96,8.304-17.696,12.294c-1.576,1.679-2.879,3.018-3.808,3.813c-5.148,4.104-11.59,6.237-18.17,6.018
				c-6.817-0.039-13.522-1.736-19.536-4.946C30.232,486.572,9.156,469.482,9.156,448c0-29.955,6.469-37.633,27.429-58.638v-23.647
				c-0.001-2.425,0.962-4.751,2.677-6.466c1.715-1.715,4.041-2.678,6.466-2.677c5.6-1.388,10.89-3.812,15.596-7.148
				c-14.012-21.525-24.739-46.917-24.739-56.852c1.535-12.348,6.982-23.881,15.545-32.911c5.828-6.139,9.928-13.711,11.884-21.946V0
				H19.732c-2.54,0.002-4.965,1.06-6.694,2.922c-1.729,1.861-2.606,4.357-2.422,6.891c5.058,67.714,16.826,230.804,16.826,282.759
				c-0.803,29.529-5.264,58.845-13.281,87.277c-8.673,31.148-13.425,63.256-14.147,95.58C0.013,509.375,30.33,512,73.156,512
				c17.983-0.399,35.925-1.901,53.723-4.5c18.549-2.706,37.249-4.256,55.991-4.643c16.116,0,36.933,1.696,61.036,3.652
				c31.621,2.571,67.46,5.491,103.536,5.491c58.987,0,125.844,0,142.196-8.178c13.51-6.956,22.098-20.78,22.348-35.973
				C506.241,462.947,479.853,456.143,458.469,450.625z"/>
			<path d="M119.223,215.957l0.161,2.383c0.156,2.755,0.327,5.47,0.547,8.042c0.073,0.806,0.154,1.582,0.233,2.366l0.171,1.432
				c0.263,2.447,0.536,4.83,0.855,7.073c0.119,0.814,0.25,1.584,0.376,2.371l0.081,0.466c0.307,1.906,0.642,3.698,0.984,5.471
				c0.195,0.974,0.384,1.965,0.59,2.896l0.002-0.001c0.428,1.967,0.892,3.821,1.367,5.628c0.249,0.937,0.51,1.83,0.77,2.723
				c0.597,2.031,1.205,3.993,1.836,5.806c0.223,0.642,0.451,1.248,0.678,1.867c0.652,1.775,1.311,3.49,1.985,5.099
				c0.295,0.706,0.594,1.375,0.892,2.053c0.462,1.052,0.926,2.079,1.393,3.081c1.194,2.559,2.386,4.964,3.535,7.261
				c5.479,9.565,8.974,20.136,10.275,31.082l0.069,0.034c2.333,1.887,4.766,3.648,7.288,5.274
				c1.761-11.557,2.474-23.25,2.132-34.935c-0.009-4.865-0.99-9.679-2.884-14.161c-4.749-13.02-6.876-26.851-6.259-40.696
				c0-39.563,13.362-108.304,24.093-163.545c5.045-25.938,9.866-50.75,11.701-65.027h-54.183c-0.009,0.43-0.035,0.928-0.045,1.362
				c-0.093,3.949-0.229,8.092-0.408,12.428c-0.018,0.433-0.031,0.844-0.049,1.281c-0.198,4.623-0.443,9.49-0.715,14.503
				c-0.047,0.886-0.095,1.778-0.146,2.675c-0.281,5.034-0.588,10.241-0.919,15.622l-0.134,2.169
				c-0.345,5.56-0.704,11.24-1.08,17.129c-2.598,40.83-5.545,87.116-5.545,133.973c0,4.475,0.108,8.613,0.266,12.602
				C119.166,214.481,119.189,215.237,119.223,215.957z"/>
			<path d="M86.182,352.794c3.589,5.011,8.131,9.264,13.367,12.517c0.254,0.116,0.516,0.216,0.782,0.3
				c0.09,0.024,0.213,0.075,0.285,0.086c9.871-3.947,17.784-11.632,22.017-21.384c0.052-0.106,0.095-0.227,0.146-0.334
				c0.574-1.194,1.123-2.428,1.623-3.728c0.177-0.46,0.316-0.968,0.483-1.441c0.349-0.991,0.707-1.971,1.005-3.021
				c0.2-0.706,0.343-1.472,0.518-2.205c0.211-0.881,0.449-1.734,0.62-2.655c0.177-0.954,0.28-1.976,0.412-2.972
				c0.102-0.767,0.243-1.499,0.316-2.292c0.167-1.821,0.257-3.709,0.257-5.665c0-1.281-0.192-2.315-0.266-3.496
				c-0.1-2.08-0.325-4.151-0.676-6.204c-0.035-0.183-0.094-0.348-0.131-0.529c-1.654-6.876-4.239-13.495-7.682-19.673
				c-1.083-2.183-2.206-4.484-3.342-6.891c-8.025-16.906-12.804-35.169-14.087-53.839l-0.04-0.342l-0.013-0.183
				c-0.348-3.771-0.622-7.777-0.82-12.019l-0.06-0.914c-0.017-0.401-0.011-0.876-0.027-1.282c-0.169-4.272-0.285-8.706-0.285-13.486
				c0-47.438,2.964-94.027,5.585-135.143c0.337-5.296,0.657-10.381,0.97-15.408c0.085-1.374,0.171-2.754,0.254-4.107
				c0.312-5.066,0.601-9.975,0.867-14.729c0.056-0.996,0.107-1.967,0.161-2.948c0.265-4.874,0.506-9.603,0.699-14.088
				c0.018-0.428,0.031-0.824,0.049-1.248c0.176-4.213,0.308-8.212,0.402-12.041c0.011-0.473,0.028-0.964,0.038-1.431H82.299v237.714
				c-1.535,12.349-6.982,23.881-15.545,32.911c-5.828,6.139-9.928,13.711-11.884,21.946C54.871,304.18,72.11,335.091,86.182,352.794
				z"/>
			<path d="M161.521,417.743c-0.1-0.218-0.213-0.43-0.316-0.647c-1.033-2.182-2.205-4.295-3.508-6.327l-0.115-0.174
				c-1.545-2.387-3.224-4.684-5.029-6.88l-0.001-0.001l-0.008-0.008c-0.279-0.341-0.52-0.622-0.779-0.929
				c-0.185,0.039-0.383,0.031-0.566,0.076c-0.441,0.108-0.872,0.267-1.307,0.405c-0.962,0.299-1.905,0.656-2.824,1.07
				c-0.465,0.212-0.93,0.43-1.393,0.668c-0.948,0.487-1.901,1.019-2.857,1.598c-0.401,0.243-0.799,0.464-1.204,0.72
				c-1.296,0.817-2.602,1.675-3.959,2.579c-7.959,6.4-17.729,10.136-27.929,10.679c-3.464,0.001-6.63-1.955-8.179-5.053
				c-0.837-1.647-1.875-3.183-3.09-4.575c-0.377-0.438-0.893-0.811-1.309-1.232c-0.948-1.014-1.968-1.957-3.054-2.823
				c-0.609-0.462-1.352-0.834-2.01-1.265c-1.117-0.774-2.277-1.484-3.474-2.126c-0.806-0.406-1.73-0.704-2.588-1.064
				c-1.262-0.531-2.494-1.09-3.858-1.515c-0.996-0.309-2.089-0.492-3.134-0.739c-1.359-0.322-2.692-0.678-4.126-0.888
				c-1.16-0.17-2.397-0.198-3.602-0.289c-1.431-0.11-2.844-0.255-4.33-0.247c-1.289,0.007-2.635,0.17-3.96,0.272
				c-1.493,0.114-2.974,0.192-4.507,0.432c-1.36,0.213-2.758,0.59-4.143,0.907c-1.299,0.298-2.596,0.592-3.912,0.985
				C29.675,422.141,27.442,424.996,27.442,448c0,11.223,13.241,23.438,22.638,28.536c5.186,3.18,11.611,3.582,17.152,1.071
				c0.576-0.5,1.343-1.357,2.313-2.384c5.915-6.321,16.933-18.08,31.04-18.08c12.088-0.399,24.155,1.28,35.675,4.964
				c3.72,1.234,7.535,2.16,11.406,2.768c2.021,0.304,4.016-0.693,4.987-2.491c1.372-2.427,2.511-4.732,3.664-7.043
				c0.645-1.291,1.311-2.594,1.883-3.835c0.853-1.855,1.567-3.61,2.256-5.347c0.397-1,0.85-2.042,1.19-2.996
				c0.678-1.906,1.163-3.648,1.607-5.353c0.171-0.657,0.43-1.393,0.565-2.017c0.466-1.994,0.724-4.031,0.768-6.079
				c-0.04-1.787-0.287-3.563-0.736-5.294c-0.077-0.322-0.153-0.643-0.242-0.965C163.065,421.499,162.367,419.589,161.521,417.743z"
				/>
			<path d="M173.728,356.572c-0.534-8.11-4.907-15.478-11.771-19.831c-2.609,1.333-5.568,1.821-8.466,1.396
				c-0.236-0.034-0.499-0.106-0.744-0.154c-0.477-0.093-0.963-0.2-1.483-0.355c-0.277-0.083-0.579-0.198-0.871-0.301
				c-0.576-0.201-1.182-0.441-1.823-0.727c-0.247-0.112-0.505-0.235-0.763-0.36c-0.84-0.404-1.748-0.893-2.716-1.457l-0.162-0.086
				l-0.016,0.055c-0.706,3.565-1.687,7.069-2.934,10.482c-0.175,0.489-0.329,0.991-0.513,1.471c-1.151,2.989-2.511,5.893-4.071,8.69
				c-0.283,0.509-0.566,1.002-0.858,1.497c-1.498,2.561-3.164,5.019-4.987,7.36c-0.27,0.343-0.546,0.65-0.819,0.983
				c-1.785,2.211-3.712,4.303-5.769,6.263l-0.079,0.081c-1.923,1.787-3.962,3.445-6.104,4.963c-0.3,0.215-0.593,0.445-0.892,0.65
				c-1.819,1.252-3.72,2.382-5.689,3.381c-0.349,0.177-0.684,0.342-1.028,0.504c-1.682,0.815-3.427,1.494-5.217,2.031
				c-0.253,0.073-0.479,0.113-0.725,0.177c-1.513,0.426-3.072,0.666-4.643,0.714c-8.451,0-17.853-6.446-28.612-19.652
				c-5.377,3.518-11.109,6.46-17.103,8.777v8.375c2.699-0.427,5.418-0.707,8.147-0.84c0.603-0.033,1.198-0.055,1.799-0.074
				c0.779-0.024,1.566-0.095,2.34-0.095c2.154,0,4.277,0.131,6.382,0.315c0.24,0.021,0.485,0.012,0.724,0.036
				c2.927,0.301,5.832,0.789,8.697,1.459c0.799,0.182,1.57,0.398,2.354,0.608c2.174,0.579,4.316,1.275,6.416,2.083
				c0.637,0.245,1.29,0.456,1.914,0.722c2.512,1.061,4.944,2.304,7.276,3.719c0.515,0.314,0.978,0.675,1.478,1.004
				c1.79,1.176,3.501,2.469,5.122,3.869c0.568,0.491,1.132,0.976,1.672,1.49c1.922,1.787,3.678,3.744,5.246,5.848
				c4.699-1.617,9.112-3.967,13.076-6.964c7.959-6.4,17.729-10.136,27.929-10.679C169.906,384,173.728,366.063,173.728,356.572z"/>
			<path d="M265.085,396c-0.034,0.655-0.146,1.193-0.204,1.814c-0.08,0.87-0.163,1.733-0.286,2.538
				c-0.151,0.992-0.343,1.916-0.552,2.816c-0.169,0.729-0.333,1.464-0.537,2.136c-0.254,0.836-0.548,1.604-0.849,2.36
				c-0.24,0.603-0.469,1.221-0.737,1.776c-0.342,0.711-0.72,1.353-1.1,1.993c-0.29,0.487-0.565,0.997-0.873,1.446
				c-0.421,0.613-0.869,1.161-1.319,1.712c-0.314,0.385-0.614,0.795-0.939,1.153c-0.497,0.547-1.012,1.037-1.528,1.529
				c-0.303,0.289-0.596,0.604-0.903,0.876c-0.605,0.537-1.213,1.026-1.824,1.51c-0.227,0.181-0.452,0.38-0.679,0.555
				c-0.83,0.639-1.653,1.245-2.453,1.831c-1.181,0.859-2.312,1.712-3.427,2.617l-0.246,0.217c0.848,0.223,1.617,0.482,2.5,0.69
				c1.227,0.288,2.493,0.559,3.787,0.817c2.381,0.475,4.895,0.889,7.504,1.261c1.351,0.193,2.671,0.398,4.083,0.563
				c3.166,0.369,6.522,0.651,9.989,0.881c1.014,0.068,1.948,0.173,2.988,0.229c4.363,0.232,8.984,0.341,13.787,0.362
				c0.988-5.782,1.429-11.645,1.316-17.51C285.202,404.2,275.639,398.577,265.085,396z"/>
			<path d="M181.998,437.829c-0.256,1.386-0.548,2.773-0.907,4.18c-0.223,0.879-0.458,1.765-0.724,2.673
				c-0.521,1.756-1.099,3.508-1.735,5.258c-0.299,0.823-0.602,1.648-0.933,2.491c-0.835,2.13-1.73,4.219-2.667,6.272
				c-0.17,0.371-0.285,0.708-0.46,1.083c5.314,3.326,11.248,5.537,17.442,6.5c2.593-0.844,5.037-2.091,7.243-3.693
				c0.197-0.15,0.302-0.387,0.512-0.521c3.588-2.307,7.021-4.846,10.277-7.601c0.177-0.151,0.353-0.311,0.53-0.463l0,0
				c1.427-1.22,2.813-2.462,4.127-3.718l0.266-0.249c6.212-5.117,10.873-11.865,13.461-19.486c0.008-0.058,0.051-0.103,0.06-0.161
				c0.019-0.221,0.096-0.464,0.096-0.679c-0.064-1.264-0.314-2.512-0.742-3.703c-0.184-0.542-0.333-1.063-0.591-1.647l-0.038-0.06
				c-4.005-7.296-9.862-13.408-16.981-17.72l-0.4-0.256c-1.092-0.695-2.138-1.308-3.127-1.84c-0.358-0.19-0.686-0.346-1.026-0.512
				c-0.746-0.372-1.474-0.722-2.108-0.972c-0.679-0.274-1.385-0.478-2.105-0.609c-0.118-0.019-0.304-0.099-0.41-0.108
				c-1.409,0.013-6.57,0.361-25.45,2.767c0.143,0.255,0.258,0.535,0.399,0.793c0.531,0.979,1.016,1.975,1.511,3.004
				c0.605,1.248,1.159,2.516,1.684,3.814c0.349,0.866,0.682,1.718,0.991,2.608c0.55,1.575,0.984,3.181,1.376,4.809
				c0.182,0.757,0.402,1.491,0.546,2.259c0.48,2.429,0.733,4.898,0.756,7.373c-0.02,1.974-0.179,3.945-0.474,5.898
				C182.297,436.329,182.133,437.089,181.998,437.829z"/>
			<path d="M402.299,475.429c0-5.049-4.093-9.143-9.143-9.143s-9.143,4.093-9.143,9.143c0.005,5.047,4.096,9.138,9.143,9.143
				C398.206,484.572,402.299,480.478,402.299,475.429z"/>
			<path d="M246.242,389.587c-0.158-0.696-0.35-1.383-0.577-2.06c-0.057-0.162-0.059-0.331-0.107-0.494
				c-5.544-12.624-14.813-23.253-26.567-30.461c-4.505,0-15.263,0.036-26.987,1.089c-0.004,0.219-0.045,0.435-0.051,0.653
				c-0.052,2.261-0.229,4.517-0.529,6.758l-0.022,0.127c-0.321,2.198-0.766,4.377-1.333,6.525c-0.081,0.314-0.149,0.629-0.235,0.941
				c-0.569,2.034-1.258,4.033-2.063,5.986c-0.148,0.361-0.298,0.718-0.453,1.074c-0.818,1.889-1.761,3.723-2.821,5.488
				c-0.065,0.107-0.108,0.231-0.174,0.338c6.093-0.72,10.01-1.118,12.58-1.326l0.845-0.066l0.321-0.023
				c1.786-0.127,2.612-0.135,3.087-0.135c1.229,0.029,2.452,0.175,3.653,0.436c0.364,0.073,0.733,0.165,1.107,0.257
				c1.2,0.295,2.384,0.656,3.545,1.08c0.181,0.067,0.352,0.115,0.535,0.185c11.316,4.664,21.187,12.254,28.6,21.993
				c0.307-0.229,0.609-0.444,0.904-0.665c5.333-2.546,8.339-8.313,7.371-14.143C246.791,391.938,246.58,390.746,246.242,389.587z"/>
			<path d="M272.216,447.235c-3.404-0.243-6.712-0.535-9.874-0.907c-1.623-0.191-3.201-0.403-4.76-0.627
				c-2.934-0.423-5.733-0.914-8.435-1.456c-1.38-0.276-2.792-0.535-4.111-0.843c-0.558-0.131-1.194-0.222-1.741-0.357
				c-0.456,0.92-1.126,1.804-1.654,2.714c-0.569,0.975-1.133,1.947-1.777,2.919c-0.855,1.29-1.724,2.548-2.689,3.803
				c-0.69,0.907-1.449,1.796-2.19,2.691c-1.257,1.498-2.504,2.954-3.855,4.372c-1.413,1.509-2.873,2.98-4.381,4.415
				c-0.279,0.262-0.545,0.531-0.824,0.789h0c-2.079,1.938-4.203,3.792-6.364,5.532c5.372,3.566,11.723,5.367,18.167,5.149
				c8.544-0.422,17.008-1.863,25.21-4.295c9.645-2.83,19.603-4.458,29.647-4.848c12.285,1.146,24.27,4.462,35.397,9.795
				c9.022,4.333,18.678,7.199,28.603,8.491c1.736,0.097,3.411-0.655,4.491-2.018c1.976-2.336,2.668-5.499,1.848-8.446
				c-0.873-3.567-3.428-6.485-6.848-7.821c-2.777-1.071-5.96-2.562-9.576-4.277c-14.915-7.863-31.297-12.553-48.113-13.772
				c-0.11,0.004-0.21,0.049-0.32,0.049c-0.152,0-0.299,0-0.451-0.009l-2.12-0.134c-0.946-0.071-1.897-0.143-2.911-0.143
				c-5.528,0-10.75-0.17-15.792-0.436C275.217,447.481,273.744,447.343,272.216,447.235z"/>
		</g>
	</g>
</g>
<g>
</g>
<g>
</g>
<g>
</g>
<g>
</g>
<g>
</g>
<g>
</g>
<g>
</g>
<g>
</g>
<g>
</g>
<g>
</g>
<g>
</g>
<g>
</g>
<g>
</g>
<g>
</g>
<g>
</g>
</svg>
