<svg id="Layer_1" enable-background="new 0 0 500 500" viewBox="0 0 500 500" xmlns="http://www.w3.org/2000/svg"><g><path d="m291.528 474.999c-1.869 0-3.743-.296-5.554-.901-3.825-1.282-8.484-2.418-13.859-3.386-17.219-3.1-34.678-3.1-51.897 0-5.375.968-10.034 2.104-13.847 3.386-4.919 1.633-10.286 1.029-14.754-1.668-4.589-2.775-7.714-7.409-8.576-12.719-1.427-8.786-.414-18.36 3.011-28.456 1.763-5.198.35-12.26-1.148-19.737-2.275-11.377-4.854-24.27 3.688-34.673 8.59-10.459 26.735-15.338 57.073-15.338h.515c31.301.056 49.146 4.857 57.856 15.568 8.45 10.392 5.809 23.195 3.478 34.493-1.539 7.455-2.994 14.499-1.234 19.687 3.427 10.096 4.441 19.67 3.011 28.456-.862 5.305-3.99 9.944-8.578 12.719-2.814 1.702-5.99 2.569-9.185 2.569zm-45.361-20.94c9.519 0 19.035.851 28.489 2.552 6.052 1.091 11.388 2.406 15.862 3.901 1.181.408 2.163.028 2.781-.342.99-.599 1.665-1.606 1.852-2.759 1.05-6.452.23-13.699-2.434-21.556-3.011-8.87-1.091-18.182.77-27.186 2.238-10.85 3.319-17.783-.562-22.557-3.789-4.656-14.981-10.224-46.771-10.28-.16 0-.322 0-.478 0-31.156 0-42.219 5.49-46.013 10.106-3.948 4.807-2.901 11.807-.708 22.77 1.799 8.998 3.663 18.31.664 27.146-2.664 7.856-3.484 15.109-2.434 21.561.187 1.152.862 2.16 1.849 2.753.616.37 1.6.744 2.795.342 4.463-1.494 9.799-2.81 15.851-3.901 9.45-1.699 18.971-2.55 28.487-2.55z"/><path d="m203.767 349.263c-3.067 0-6.117-.839-8.82-2.473-4.409-2.664-7.414-7.118-8.243-12.216-1.346-8.287-.394-17.313 2.831-26.815 1.606-4.74.296-11.282-1.088-18.21-2.146-10.733-4.58-22.898 3.545-32.792 8.234-10.028 24.804-14.51 53.685-14.51h.504c29.409.05 46.2 4.594 54.437 14.722 8.042 9.888 5.549 21.97 3.347 32.63-1.424 6.906-2.77 13.431-1.167 18.16 3.225 9.507 4.18 18.533 2.831 26.821-.828 5.093-3.833 9.547-8.242 12.211-4.287 2.597-9.452 3.179-14.167 1.6-3.545-1.186-7.842-2.238-12.77-3.134-16.111-2.909-32.451-2.915-48.568.006-4.927.89-9.225 1.942-12.773 3.128-1.741.582-3.543.872-5.342.872zm41.938-92.691c-28.937 0-39.16 5.036-42.644 9.272-3.559 4.337-2.587 10.789-.565 20.895 1.695 8.478 3.447 17.242.604 25.618-2.465 7.264-3.223 13.967-2.255 19.921.153.94.705 1.763 1.511 2.25.492.296 1.284.588 2.213.274 4.197-1.399 9.164-2.625 14.762-3.637 17.81-3.223 35.868-3.218 53.671-.006 5.599 1.018 10.566 2.244 14.759 3.643.938.308 1.724.022 2.216-.274.806-.486 1.357-1.31 1.511-2.25.968-5.954.21-12.652-2.255-19.921-2.857-8.41-1.046-17.18.702-25.652 2.065-10.011 3.067-16.396-.431-20.699-3.478-4.275-13.823-9.384-43.352-9.435-.147.001-.298.001-.447.001z"/><path d="m284.83 228.002c-1.71 0-3.422-.272-5.079-.826-3.189-1.069-7.079-2.019-11.555-2.831-14.617-2.647-29.441-2.639-44.058 0-4.476.812-8.366 1.763-11.555 2.831-4.477 1.494-9.37.943-13.445-1.513-4.177-2.527-7.026-6.743-7.812-11.575-1.245-7.664-.369-15.993 2.608-24.765 1.41-4.157.232-10.042-1.013-16.273-1.986-9.924-4.236-21.175 3.36-30.425 7.686-9.354 22.919-13.265 49.9-13.459 27.023.048 42.482 4.259 50.126 13.657 7.518 9.244 5.212 20.417 3.179 30.274-1.282 6.212-2.494 12.079-1.086 16.229 2.977 8.765 3.853 17.098 2.608 24.759-.786 4.833-3.635 9.052-7.815 11.578-2.563 1.547-5.456 2.339-8.363 2.339zm-38.663-19.967c8.212 0 16.424.736 24.58 2.214 5.151.934 9.709 2.057 13.548 3.341.501.173 1.002.103 1.492-.19.272-.166.923-.652 1.08-1.615.867-5.324.182-11.331-2.032-17.857-2.658-7.837-.917-16.276.622-23.724 1.844-8.942 2.747-14.639-.266-18.341-3.083-3.794-12.359-8.324-39.038-8.372-26.206.056-35.697 4.447-38.799 8.226-3.069 3.735-2.191 9.488-.386 18.523 1.491 7.446 3.179 15.884.532 23.685-2.214 6.528-2.899 12.537-2.032 17.862.156.96.806 1.446 1.08 1.612.487.293.988.363 1.492.19 3.838-1.284 8.396-2.406 13.548-3.341 8.152-1.477 16.367-2.213 24.579-2.213z"/><path d="m209.763 119.087c-2.921 0-5.809-.795-8.346-2.345-4.004-2.445-6.726-6.528-7.468-11.203-1.156-7.258-.314-15.146 2.501-23.439 1.298-3.827.196-9.337-.971-15.168-1.799-8.995-4.041-20.187 3.257-29.074 7.3-8.89 21.81-12.859 47.009-12.859h.436c25.658.045 40.358 4.071 47.658 13.05 7.222 8.881 4.931 19.997 3.086 28.931-1.2 5.811-2.334 11.301-1.038 15.118 2.812 8.288 3.651 16.17 2.501 23.43-.741 4.681-3.464 8.766-7.47 11.214-4.017 2.451-8.914 3.002-13.419 1.528-2.767-.904-6.088-1.726-9.874-2.437-14.239-2.672-28.679-2.672-42.918 0-3.783.711-7.106 1.533-9.877 2.439-1.659.547-3.369.815-5.067.815zm35.998-79.761c-24.53 0-33.092 4.141-35.954 7.627-2.787 3.394-1.967 8.75-.282 17.169 1.419 7.084 3.025 15.112.49 22.58-2.059 6.072-2.703 11.653-1.92 16.592.11.68.49 1.041.79 1.225.302.188.814.367 1.48.143 3.363-1.102 7.302-2.082 11.704-2.908 15.993-2.996 32.216-2.996 48.199 0 4.401.828 8.335 1.805 11.695 2.904.672.213 1.184.045 1.488-.142.302-.184.682-.546.792-1.228.78-4.941.137-10.521-1.92-16.584-2.546-7.504-.889-15.534.574-22.619 1.718-8.332 2.566-13.634-.17-16.997-2.86-3.518-11.525-7.717-36.573-7.762-.129 0-.264 0-.393 0z"/><path d="m352.697 201.857c-3.875 0-7.062-3.091-7.158-6.984l-1.2-48.246c-.097-3.957 3.028-7.241 6.981-7.339 4.088-.265 7.244 3.028 7.339 6.981l1.2 48.246c.098 3.957-3.028 7.241-6.981 7.339-.06.003-.121.003-.181.003z"/><path d="m359.052 457.165c-3.876 0-7.063-3.089-7.157-6.984l-.571-22.916c-.098-3.957 3.027-7.241 6.98-7.342 4.035-.09 7.241 3.027 7.339 6.984l.57 22.915c.098 3.957-3.027 7.241-6.981 7.342-.06.001-.121.001-.18.001z"/><path d="m357.098 378.642c-3.875 0-7.062-3.089-7.157-6.984l-1.386-55.607c-.098-3.956 3.028-7.241 6.981-7.342 3.993-.151 7.241 3.028 7.339 6.984l1.385 55.607c.098 3.957-3.027 7.242-6.981 7.342-.06 0-.121 0-.181 0z"/><path d="m354.329 267.428c-3.875 0-7.063-3.09-7.158-6.984l-.57-22.915c-.098-3.957 3.027-7.241 6.98-7.343 4.077-.123 7.244 3.028 7.339 6.984l.57 22.916c.098 3.957-3.027 7.241-6.98 7.343-.061-.001-.123-.001-.181-.001z"/><path d="m140.949 368.972c-4.038-.044-7.208-3.285-7.166-7.241l.523-48.254c.04-3.957 3.271-7.365 7.242-7.085 3.957.045 7.126 3.285 7.084 7.241l-.523 48.254c-.042 3.93-3.243 7.085-7.16 7.085z"/><path d="m144.002 88.265c-4.038-.045-7.208-3.285-7.166-7.241l.249-22.918c.039-3.957 3.254-7.247 7.241-7.085 3.956.044 7.126 3.285 7.084 7.241l-.249 22.918c-.041 3.929-3.242 7.085-7.159 7.085z"/><path d="m142.79 199.507c-4.037-.045-7.208-3.285-7.166-7.241l.607-55.62c.04-3.957 3.319-7.278 7.242-7.085 3.956.045 7.127 3.285 7.085 7.241l-.607 55.621c-.043 3.928-3.244 7.084-7.161 7.084z"/><path d="m141.936 278.049c-4.037-.045-7.208-3.285-7.166-7.241l.249-22.921c.042-3.928 3.243-7.084 7.16-7.084 4.037.044 7.208 3.285 7.166 7.241l-.249 22.92c-.041 3.929-3.242 7.085-7.16 7.085z"/></g></svg>