<svg enable-background="new 0 0 64 64" viewBox="0 0 64 64" xmlns="http://www.w3.org/2000/svg"><g id="Layer_1"/><g id="Layer_2"><path d="m44.7001953 49.5239983h-1.7607422c-.1414185-.6518555-.4223022-1.2519531-.7935181-1.7734375.3782959-.5217896.5758667-1.2049561.5430298-1.9892578l-.0371094-.8452148c-.0097656-.2304688-.0195313-.4604492-.0302734-.690918h1.2285156c.8496094 0 1.6655273-.3500977 2.2114258-.9331055.6054688-.5961914.9384766-1.397461.9384766-2.2553711 0-1.7583008-1.4130859-3.1884766-3.1499023-3.1884766h-1.5991211c-.163269-.6394043-.4741211-1.2190552-.8949585-1.6975708.4375-.5291748.671936-1.2717285.6430054-2.1637573l-.0654297-1.5361328h1.0664062c.828125 0 1.5942383-.3481445 2.1391602-.9609394.5551757-.5908203.8608398-1.3823243.8608398-2.2275391 0-1.7583008-1.3457031-3.1884766-3-3.1884766h-1.4130859c-.1306763-.53302-.3695679-1.0264893-.6791992-1.4619141.241333-.4238892.4198608-1.0115356.4013672-1.8300781-.0239258-.512207-.0439453-1.0205078-.0629883-1.5361328h.9038086c.7963867 0 1.5336914-.3564453 2.0668945-.9921875.5048828-.5849609.7832031-1.3652343.7832031-2.196289 0-1.7583008-1.2783203-3.1889648-2.8500977-3.1889648h-1.222168c-.1094971-.4836426-.3032227-.9343872-.5584717-1.3430176.1575928-.3706665.2684326-.8436279.2493896-1.4611816-.0195313-.3896484-.034668-.7768555-.0493164-1.1640625-.0019531-.0458984-.003418-.0917969-.0053711-.1376953h.7460938c.7578125 0 1.4750977-.3510742 1.9487305-.9394531.4780274-.557129.741211-1.2895509.741211-2.0629879 0-1.6557617-1.206543-3.0024414-2.6899414-3.0024414h-1.0644531c-.4018555-1.6186526-1.6923828-2.789551-3.1757813-2.7578127l-10.112793.0004883c-1.5078125-.0405273-2.800293 1.1391602-3.2026367 2.7573245h-1.0644531c-.7578125 0-1.4750977.3510742-1.9487305.9394531-.4780273.5571288-.7412109 1.2895507-.7412109 2.0629882 0 1.6557612 1.206543 3.0024409 2.6899414 3.0024409h.7460938c-.0019531.0458984-.003418.0917969-.0053711.1376953-.0146484.387207-.0297852.7744141-.050293 1.1850586-.0183716.6112671.0913696 1.0814209.2474365 1.4455566-.2546997.4042969-.4481812.8527222-.5570068 1.3376465h-1.2207031c-.7963867 0-1.5336914.3564453-2.0668945.9921875-.5048829.584961-.7832032 1.3652344-.7832032 2.1967774 0 1.7583008 1.2783203 3.1884766 2.8500977 3.1884766h.9038086c-.019043.5141602-.0395508 1.0307617-.0634766 1.5600586-.0181885.8057861.1599121 1.3868408.4007568 1.8075562-.30896.4349365-.5474854.9280396-.6781006 1.4605103h-1.4130859c-.828125 0-1.5942383.3481445-2.1391602.9609375-.5551757.5908202-.8608398 1.3823241-.8608398 2.2275389 0 1.7583008 1.3457031 3.1884785 3 3.1884785h1.0664063l-.065918 1.550293c-.0286865.8843384.2054443 1.6231079.6425171 2.1504517-.4204102.4783325-.730835 1.0577393-.8939819 1.6967163h-1.5991211c-.8496094 0-1.6655273.3500977-2.2114258.9331055-.6054688.5961913-.9384766 1.3974608-.9384766 2.255371 0 1.7583008 1.4130859 3.1884766 3.1499023 3.1884766h1.2285156c-.0107422.2304688-.0205078.4604492-.0302734.690918l-.0371094.8496094c-.0328979.7837524.1655273 1.4675903.5418091 1.9877319-.3668213.5174561-.6454468 1.1142578-.7879028 1.7705688h-1.7651367c-.9086914 0-1.7734375.4033203-2.340332 1.0717773-.6186524.6616211-.9594727 1.5454102-.9594727 2.4887695 0 1.9633789 1.4804688 3.5605469 3.2998047 3.5605469h1.3979492c-.0180664.4169922-.0336914.8334961-.0493164 1.2529297l-.0273438.7260742c-.0517578 1.2402344.3613281 2.2490234 1.1621094 2.840332.4833984.3569336 1.0688477.5366211 1.7114258.5366211.4394531 0 .9057617-.0844727 1.3833008-.253418 4.659668-1.5620117 9.5849609-1.5629883 14.2280273-.0058594 1.1928711.4223633 2.2963867.3232422 3.1108398-.2773438.8007813-.5913086 1.2138672-1.6000977 1.1621094-2.8383789l-.0273438-.7280273c-.015625-.4194336-.03125-.8359375-.0493164-1.2529297h1.3979492c.909668 0 1.7739258-.4038086 2.3398438-1.0712891.6191407-.6611327.959961-1.54541.959961-2.4892577 0-1.9633789-1.4804687-3.5605468-3.2998047-3.5605468zm-22.0102539-40.7617207c-.3256836 0-.6899414-.4287109-.6899414-1.0024409 0-.2915039.0942383-.5688477.2788086-.7841797.1132813-.140625.2592773-.2182617.4111328-.2182617h1.9399414c.5366211 0 .9780273-.5112305.9990234-1.0478516.0375977-.9453125.6191406-1.7221682 1.3012695-1.7099612l10.1665039-.0004883c.6469727.0039065 1.2363281.7656252 1.2734375 1.758301 0 .5522461.4477539 1 1 1h1.9399414c.326172.0000001.6899415.4116212.6899415 1.0024415 0 .2915034-.0942383.5688472-.2788086.7841792-.1132813.140625-.2592773.2182617-.4111328.2182617h-1.7900391c-.2739258 0-.5361328.1123047-.7246094.3110352-.1889648.1987305-.2880859.4658203-.2739258.7397461.0195313.3896484.034668.7763672.0493164 1.1635742.0151367.3955078.0302734.7910156.0498047 1.168457.0107422.3457031-.0541992.6186523-.1542969.7255859-.03125.0307617-.0805664.0668945-.1694336.0727539-.0844727.0024414-.2626953-.003418-.4936523-.0898438-.0073242-.0029297-.1049805-.0380859-.112793-.0410156-1.6254883-.5698242-3.2973633-.894043-4.9863281-.9638672-.0057373-.0001221-.0119019.0001221-.0176392 0-.0021362-.000061-.0041504-.0004272-.0062866-.0004883l-1.4018555.0009766c-1.6713867.0693359-3.3432617.3935547-4.9726563.9648438-.0063477.0019531-.1025391.0371094-.1088867.0395508-.2294922.0869141-.4086914.09375-.4702148.0913086-.1191406-.0083008-.1523438-.0424805-.1835938-.074707-.0419922-.0419922-.1787109-.2177734-.1645508-.7045898.0205078-.3979492.0356445-.793457.0507813-1.1889648.0146484-.387207.0297852-.7739258.0493164-1.1635742.0141602-.2739258-.0849609-.5410156-.2739258-.7397461-.1884766-.1987305-.4506836-.3110352-.7246094-.3110352h-1.7900389zm-.8398437 10.4833984c-.4526368 0-.8500977-.5551757-.8500977-1.1884765 0-.3466797.1083984-.6708984.3061523-.9003906.1103516-.1318359.2944336-.2885742.5439453-.2885742h2.1098633c.5390625 0 .980957-.5253906.9995117-1.0639648.0112305-.3320313.0830078-.6503906.2060547-.9316406.0024414.0006104.005188.0005493.0076294.0011597.1414185.0344238.2893677.0574951.4440308.067688.0400391.0019531.0800781.0024414.1210938.0024414.1087036 0 .2245483-.0210571.3374634-.0338135.0743408-.0084229.1452637-.0079956.2218628-.0222168.2154541-.039856.4384155-.0996704.6730957-.1876221 1.4375-.5037231 2.9124146-.7904663 4.3671265-.8520508l1.3008423-.0009766c1.4741211.0615234 2.9511719.3486328 4.4584961.8774414.4233398.159668.8657227.2338867 1.3071289.2158203.1439209-.0093994.2837524-.0310669.4193115-.06427.0023804-.0006104.0050659-.0005493.0074463-.0011597.125.2929688.1977539.6289063.2089844.9931641 0 .5522461.4477539 1 1 1h2.1098633c.4526366-.0000001.8500975.555664.8500975 1.1889648 0 .3461914-.1083984.6704102-.3061523.8999023-.1103516.1318359-.2944336.2885742-.5439453.2885742h-1.9399414c-.2714844 0-.5302734.125-.71875.3198242-.1884766.1953125-.2890625.4731445-.2797852.7441406.0302734.8583984.0600586 1.7060547.0991211 2.5410156.0039063.175293-.0078125.3232422-.0292969.4453125-.0198364-.0079346-.0405273-.0100098-.0604248-.0175171-.1577148-.0600586-.3183594-.1035156-.480896-.1392822-.0374756-.0081177-.0740967-.0220337-.1118164-.0288696-.211792-.0388794-.4251099-.0612183-.6378784-.0565186h-11.9609375c-.3594971-.0057373-.6998291.0595703-1.0331421.1619873-.0581055.0174561-.1170044.0305176-.1742554.0510254-.0344238.0125732-.0703735.0169067-.1046143.0306396-.0209961-.1176758-.0322266-.2583008-.0283203-.4228516.0395508-.8588867.0693359-1.706543.1005859-2.59375.0092773-.2714844-.0917969-.534668-.2802734-.7299805-.1884766-.1948242-.4477539-.3051758-.7192383-.3051758h-1.9399413zm-.8500977 11.2050782c-.5419922 0-1-.5444336-1-1.1884766 0-.3344727.1132813-.6396484.3369141-.8779297.1782226-.2001953.4135742-.3105469.6630859-.3105469h2.2900391c.5361328 0 .9770508-.5214844.9990234-1.0576172.0268555-.6508789.3144531-1.2587891.7675781-1.6245117.2832031-.2275391.5986328-.3320313.953125-.3378906h12c.3139038-.003418.6508179.1104736.9334717.3378296.4539185.3678589.7409058.9747314.7667236 1.6821899 0 .5522461.4477539 1 1 1h2.2900391c.5419922 0 1 .5444336 1 1.1884766 0 .3344727-.1132813.6396484-.3369141.8779297-.1782226.2001953-.4135742.3105469-.6630859.3105469h-2.1098633c-.2734375 0-.534668.1118164-.7231445.3095703-.1889648.1972656-.2885742.4638672-.2758789.7368164l.109375 2.5683613c.0219727.684082-.2001953.8764648-.3901367.934082-.1087036-.036499-.2210693-.0558472-.3323364-.0811768-.0457764-.0101929-.0895996-.0247803-.1356201-.0330811-.2185669-.0401611-.4387207-.0646362-.65802-.0581055-.2831421-.0899048-.5697021-.1581421-.8547363-.236084-.2297363-.0628052-.4578857-.1351318-.6885986-.1901245-.3067627-.0731201-.6156616-.1259766-.9240723-.1853027-.239502-.0462036-.4779663-.102356-.7182617-.1402588-.270813-.0426025-.5429688-.0654907-.8145752-.0975952-.2807617-.0332642-.5609741-.0760498-.8421631-.0980225-.1121216-.008728-.2245483-.0066528-.336731-.0136108-1.9689331-.1226807-3.9416504.0305786-5.8746338.4573975-.1096802.0240479-.2200928.039978-.3295288.0657959-.2736816.0649414-.5438232.149292-.8155518.2252808-.2564697.071228-.5145264.1315308-.7694092.2125244-.2321167-.0016479-.4491577.0218506-.6607056.0597534-.0412598.0073242-.0804443.0206909-.1213379.02948-.1152954.0252686-.2316895.0458374-.3444214.0836182-.1899414-.0571289-.4125977-.2470703-.390625-.9204102l.1098633-2.5825214c.0126953-.2729492-.0869141-.5395508-.2758789-.7368164-.1884766-.1977539-.449707-.3095703-.7231445-.3095703h-2.1098633zm-.8500977 11.7744159c-.6342773 0-1.1499023-.5332031-1.1499023-1.1884765 0-.3183594.121582-.6132813.3691406-.8588867.199707-.2124023.4770508-.3295898.7807617-.3295898h2.4702148c.5336914 0 .9736328-.5175781.9990234-1.0507813.0361328-.7636719.4672852-1.4521484 1.0908203-1.7685547.0821533-.001709.173645-.0205078.2593384-.0291138.1070557-.0105591.2119751-.0150146.3228149-.0361938.0975952-.0187378.2090454-.055481.3129272-.0828857.1012573-.0273438.1986694-.0444946.3031616-.0803223l-.0004883-.0018921c.0074463-.0023804.0136719-.0032959.0211182-.0057373l.0003662.0012817c.0023804-.0006714.0040283-.0023804.0063477-.0030518.0157471-.005188.0285034-.0067139.0444336-.012085.7033081-.229126 1.4154663-.4026489 2.1305542-.5499878 3.2913818-.6774292 6.6904907-.5004272 10.0027466.5773315.210144.0726318.4162598.1262207.6182861.1635742.0634766.0117188.1235962.0116577.1861572.0198364.1251831.0164795.2515869.0373535.3728027.0397339.6230469.3164063 1.0541992 1.0083008 1.0893555 1.8188477 0 .5522461.4477539 1 1 1h2.4702148c.6342776.0000001 1.1499026.5332032 1.1499026 1.1884767 0 .3183594-.121582.6132813-.3691406.8588867-.199707.2124023-.4770508.3295898-.7807617.3295898h-2.2802734c-.2753906 0-.5385742.1132813-.7275391.3139648-.1889648.2001953-.2866211.4692383-.2709961.7441406.0336914.5756836.0581055 1.1459961.0825195 1.7182617l.0371094.8481445c.0136719.3300781-.0366211.7514648-.3754883.8930664-.2338867.1030273-.6254883.0810547-1.0820313-.0634766-2.3652344-.7255859-4.7973633-1.0888672-7.230957-1.0888672-.0011597 0-.0022583.0001221-.003418.0001221-.0410767 0-.0820923.0043945-.1231079.0045776-.5673828.0029297-1.1347656.0213013-1.701355.0637207-.382019.0286255-.7625732.0820313-1.1435547.1286011-.2249756.0274658-.4508057.0422363-.675354.0759888-1.210022.1818848-2.4121094.4547729-3.5978394.8187866-.4482422.1416016-.8393555.1635742-1.0927734.0522461-.3193359-.1333008-.3696289-.5546875-.355957-.8803711l.0371094-.8525391c.0244141-.5722656.0488281-1.1425781.0825195-1.7182617.015625-.2749023-.0820313-.5439453-.2709961-.7441406-.1889648-.2006836-.4521484-.3139648-.7275391-.3139648h-2.2802734zm25.3979493 12.0175782c-.2172852.2558594-.5258789.4023438-.8476563.4023438h-2.4501953c-.2753906 0-.5390625.1137695-.7280273.3144531-.1889648.2001953-.2866211.4702148-.2700195.7451172.0449219.7573242.0727539 1.5083008.1010742 2.2670898l.027832.7353516c.0229492.5561523-.1020508.9638672-.3520508 1.1484375-.2592773.190918-.7167969.1914063-1.2709961-.0043945-5.0756836-1.7026367-10.4414063-1.703125-15.5317383.0058594-.5385761.1899414-.9956055.1894531-1.2548828-.0014648-.25-.1845703-.375-.5922852-.3520508-1.1503906l.027832-.7333984c.0283203-.7587891.0561523-1.5097656.1010742-2.2670898.0166016-.2749023-.0810547-.5449219-.2700195-.7451172-.1889648-.2006839-.4526367-.3144534-.7280273-.3144534h-2.4501953c-.7045899 0-1.2998047-.7148437-1.2998047-1.5605469 0-.4277344.1533203-.8369141.4516602-1.1577148.2177734-.2558594.5268555-.402832.8481445-.402832h2.6503906c.5522461 0 1-.4477539 1-1l-.0009766-.065918c.027832-.6420898.2524414-1.2436523.6176758-1.6875.0407715.0061646.0876465-.0020752.1291504.0025024.1954346.0217896.3972778.0258789.6065674.0119019.0715332-.0047607.1415405-.0081177.2144775-.0170898.2717285-.0333252.5492554-.0852661.8364258-.1765137 4.3481445-1.3349609 8.9448242-1.3349609 13.2841797-.0029297.2905884.092041.5700684.1444702.8430176.1784058.0690918.0084229.1358643.0126343.2036133.017395.0891724.0064697.182251.0229492.2687988.0229492.1279297 0 .2462769-.0205078.3677979-.0345459.0360107-.0040894.0767212.0031738.1121826-.0020752.3652344.4418945.5898438 1.0361328.6166992 1.644043v.109375c0 .5522461.4477539 1 1 1h2.6503906c.7045899 0 1.2998047.7148437 1.2998047 1.5605468 0 .4282227-.152832.8374024-.4521484 1.1582032z"/></g></svg>