<?xml version="1.0" encoding="iso-8859-1"?>
<!-- Generator: Adobe Illustrator 19.0.0, SVG Export Plug-In . SVG Version: 6.00 Build 0)  -->
<svg version="1.1" id="Layer_1" xmlns="http://www.w3.org/2000/svg" xmlns:xlink="http://www.w3.org/1999/xlink" x="0px" y="0px"
	 viewBox="0 0 512.001 512.001" style="enable-background:new 0 0 512.001 512.001;" xml:space="preserve">
<g>
	<g>
		<path d="M296.102,166.739l-38.914-49.206c-3.958-5.005-8.764-9.279-14.198-12.625l-31.286-19.266
			c-12.388-7.688-28.731-3.192-35.432,9.775l-56.882,110.072c-1.704,3.298-2.493,6.938-2.367,10.561
			c-0.205,1.431-1.664,27.807-1.664,27.807h88.106l-2.139-13.268l7.434-11.977c-6.224-4.583-9.625-12.096-9.066-19.719l5.002-66.86
			l12.173,63.571c1.057,5.521,4.808,10.146,9.991,12.321l61.839,25.95c8.553,3.588,18.388-0.439,21.974-8.983
			c3.587-8.548-0.435-18.385-8.983-21.973l-53.54-22.468l-10.481-54.733c1.553,3.19,16.505,33.901,19.194,39.424l51.595,21.651
			c9.284,3.896,15.953,11.403,19.059,20.204l32.496,0.165L296.102,166.739z"/>
	</g>
</g>
<g>
	<g>
		<circle cx="263.282" cy="51.96" r="37.049"/>
	</g>
</g>
<g>
	<g>
		<path d="M377.544,225.781l-48.829-0.249c-0.442,2.061-1.071,4.112-1.918,6.129c-7.324,17.454-27.412,25.666-44.866,18.341
			l-29.719-12.472c-6.565,4.988-12.107,11.322-16.177,18.683l139.742,13.25H208.955c-9.271,0-16.786,7.515-16.786,16.786
			c0,9.271,7.515,16.725,16.786,16.725c171.42,0,178.685,0,178.921,0c11.678,0,21.181-9.504,21.241-21.193l0.123-23.978
			C409.33,240.219,395.137,225.871,377.544,225.781z"/>
	</g>
</g>
<g>
	<g>
		<path d="M461.605,213.395c-0.075,0-0.149-0.001-0.225-0.001c-19.503,0.001-35.374,15.75-35.496,35.281
			c-0.122,19.606,15.673,35.598,35.279,35.719c0.075,0,0.149,0.001,0.225,0.001c19.503,0,35.374-15.75,35.496-35.281
			C497.006,229.509,481.211,213.516,461.605,213.395z"/>
	</g>
</g>
<g>
	<g>
		<path d="M184.024,262.341c-11.187,0-144.956,0-150.142,0c-11.125,0-20.144,9.019-20.144,20.143s9.02,20.143,20.145,20.143
			c4.923,0,138.758,0,144.09,0c-2.341-4.013-3.86-8.59-4.295-13.525C172.758,278.663,176.88,268.946,184.024,262.341z"/>
	</g>
</g>
<g>
	<g>
		<path d="M494.559,319.695c-3.374,0-450.628,0-477.118,0C7.808,319.695,0,327.504,0,337.135c0,8.176,5.635,15.019,13.227,16.906
			v110.727c0,17.821,14.499,32.321,32.321,32.321c9.633,0,17.441-7.808,17.441-17.441c0-8.763-6.461-16.016-14.88-17.253V354.576
			h415.784v107.819c-8.419,1.238-14.88,8.492-14.88,17.253c0,9.633,7.808,17.441,17.441,17.441
			c17.821,0,32.321-14.499,32.321-32.321V354.042c7.592-1.887,13.227-8.73,13.227-16.906
			C512,327.504,504.192,319.695,494.559,319.695z"/>
	</g>
</g>
<g>
</g>
<g>
</g>
<g>
</g>
<g>
</g>
<g>
</g>
<g>
</g>
<g>
</g>
<g>
</g>
<g>
</g>
<g>
</g>
<g>
</g>
<g>
</g>
<g>
</g>
<g>
</g>
<g>
</g>
</svg>
