<svg id="Layer_1" enable-background="new 0 0 187.811 236.357" height="512" viewBox="0 0 187.811 236.357" width="512" xmlns="http://www.w3.org/2000/svg"><g><circle cx="120.871" cy="22.5" r="22.5"/><path d="m95.786 88.83c1.738 2.098 2.557 4.747 2.303 7.459-.492 5.274-4.854 9.252-10.146 9.252-.317 0-.636-.015-.957-.045l-14.928-1.395c.117 4.696.51 9.71 1.161 15.299 2.141 11.015 7.982 15.267 14.392 16.817 3.475 15.537 6.292 45.514-9.502 82.366-2.72 6.345.22 13.694 6.565 16.413 1.605.688 3.275 1.014 4.918 1.014 3.305 0 6.5-1.322 8.843-3.662l1.475-9.432 2.04.319c2.531-17.872 9.973-70.403 11.754-82.886-1.452-9.893-3.611-17.286-5.075-21.542-.351-4.193-.317-8.519-.038-12.857-15.007-20.774-18.99-37.686-19.217-38.696-1.234-5.487 2.225-10.956 7.711-12.19.74-.167 1.496-.25 2.249-.25 4.781 0 8.867 3.26 9.935 7.928.026.107 1.133 4.537 4.305 11.456.241-1.19.476-2.358.695-3.474 2.869-9.953-.885-21.865-9.42-23.992-8.537-2.129-20.912 2.508-25.947 17.15-2.459 7.291-4.211 13.659-5.336 19.872l15.317 1.432c2.713.252 5.164 1.547 6.903 3.644z"/><path d="m152.192 129.338c6.567 1.207 14.915 4.171 15.956 11.452.174 1.218.415 2.91.708 4.967h-49.456c.292-2.057.533-3.749.708-4.967.776-5.432 5.641-8.458 10.791-10.148-1.131-1.017-2.233-2.034-3.306-3.052-5.512 2.222-10.503 6.044-11.444 12.635-1.738 12.167-10.021 70.647-12.161 85.757l-2.075-.325-1.468 9.386 8.398 1.314 1.468-9.386-2.371-.371c1.022-7.215 3.468-24.485 5.927-41.843h60.521c2.46 17.358 4.906 34.628 5.927 41.843l-2.371.371 1.468 9.386 8.398-1.314-1.468-9.386-2.074.324c-2.14-15.11-10.423-73.59-12.161-85.757-1.421-9.944-12.047-13.594-19.794-14.935.044.26.087.52.111.786.102 1.111.015 2.208-.232 3.263zm-37.722 51.17c1.624-11.455 3.202-22.586 4.326-30.5h50.663c1.124 7.914 2.703 19.045 4.326 30.5z"/><path d="m97.569 57.21c-4.31.97-7.018 5.25-6.048 9.561.321 1.428 8.301 35.337 45.63 66.387 1.495 1.244 3.309 1.85 5.112 1.85 2.294 0 4.572-.982 6.154-2.884 2.825-3.396 2.362-8.441-1.034-11.266-32.823-27.302-40.155-57.186-40.259-57.625-.982-4.296-5.252-6.991-9.555-6.023z"/><circle cx="48.85" cy="22.956" r="22.5"/><path d="m15.31 136.601c4.51 14.961 11.035 47.286-2.031 82.565-2.397 6.474.906 13.666 7.38 16.063 1.432.53 2.898.782 4.34.782 5.08 0 9.856-3.12 11.724-8.162 17.947-48.455 5.456-91.283.226-105.456-1.299-9.75-.297-20.423 1.312-30.388l-18.386-19.545c-3.854-4.096-3.655-10.564.44-14.418 1.9-1.787 4.383-2.771 6.988-2.771 2.803 0 5.512 1.17 7.431 3.211l8.291 8.814c1.054-8.952-2.751-18.254-10.197-20.109-8.537-2.129-20.912 2.508-25.947 17.15-6.805 20.174-8.267 33.305-5.681 55.52 2.109 10.853 7.811 15.137 14.11 16.744z"/><path d="m21.823 59.644c-3.218 3.027-3.373 8.09-.346 11.309l24.963 26.536c1.335 1.419 3.143 2.303 5.083 2.484l35.667 3.333c.253.023.504.035.754.035 4.082 0 7.568-3.11 7.955-7.256.411-4.399-2.821-8.298-7.221-8.709l-32.656-3.052-22.89-24.334c-3.026-3.219-8.089-3.373-11.309-.346z"/></g></svg>