<svg id="Layer_1" enable-background="new 0 0 500 500" viewBox="0 0 500 500" xmlns="http://www.w3.org/2000/svg"><g><path d="m276.631 233.631c-9.566 0-18.812-2.958-26.631-8.431-7.818 5.473-17.064 8.431-26.631 8.431-25.794 0-46.781-20.987-46.781-46.782 0-6.172 1.467-19.944 4.95-28.025.076-.344.177-.685.305-1.022 16.105-42.042 17.352-88.411 17.364-88.875.098-4.221 3.534-7.363 7.817-7.471 4.222.095 7.567 3.593 7.472 7.815-.042 1.975-1.258 48.293-17.767 92.415-.117.875-.392 1.732-.83 2.53-2.067 3.77-4.015 15.947-4.015 22.633 0 17.361 14.124 31.486 31.485 31.486 7.908 0 15.511-3.036 21.409-8.548 2.94-2.742 7.505-2.742 10.445 0 5.897 5.512 13.5 8.548 21.408 8.548 17.36 0 31.486-14.125 31.486-31.486 0-6.686-1.948-18.863-4.015-22.633-.46-.834-.751-1.733-.876-2.65-16.464-44.087-17.68-90.324-17.722-92.296-.096-4.222 3.25-7.72 7.471-7.815 4.105.081 7.72 3.247 7.819 7.471.012.464 1.257 46.833 17.364 88.875.132.347.235.697.316 1.051 3.475 8.085 4.939 21.833 4.939 27.996 0 25.795-20.988 46.783-46.782 46.783z"/><path d="m293.152 438.552c-4.398-.099-7.744-3.597-7.648-7.819.042-1.975 1.258-48.293 17.767-92.418.116-.876.39-1.733.83-2.534 2.067-3.767 4.015-15.941 4.015-22.63 0-17.361-14.125-31.482-31.486-31.482-7.908 0-15.511 3.036-21.408 8.547-2.94 2.743-7.505 2.743-10.445 0-5.898-5.512-13.501-8.547-21.409-8.547-17.36 0-31.485 14.122-31.485 31.482 0 6.688 1.948 18.863 4.015 22.63.46.837.749 1.736.876 2.653 16.463 44.09 17.68 90.328 17.722 92.299.095 4.222-3.25 7.719-7.472 7.815-4.31.034-7.719-3.247-7.817-7.471-.012-.464-1.258-46.833-17.364-88.878-.132-.346-.236-.696-.317-1.048-3.474-8.085-4.938-21.833-4.938-27.999 0-25.794 20.987-46.779 46.781-46.779 9.567 0 18.813 2.958 26.631 8.431 7.819-5.473 17.065-8.431 26.631-8.431 25.795 0 46.782 20.985 46.782 46.779 0 6.172-1.468 19.948-4.951 28.026-.074.346-.176.687-.304 1.021-16.106 42.046-17.352 88.414-17.364 88.878-.096 4.162-3.499 7.471-7.642 7.475z"/><path d="m315.722 322.096c-1.007 0-2.023-.201-2.987-.609-2.896-1.228-4.742-4.108-4.654-7.251l.036-1.081c0-17.36-14.125-31.486-31.486-31.486-7.905 0-15.508 3.036-21.411 8.547-2.94 2.743-7.501 2.743-10.441 0-5.898-5.512-13.501-8.547-21.409-8.547-17.36 0-31.485 14.125-31.485 31.486.137 3.681-1.688 6.826-4.589 8.077-2.904 1.255-6.266.832-8.482-1.431-18.409-18.773-28.549-43.563-28.549-69.8 0-26.236 10.14-51.026 28.549-69.8 2.202-2.246 5.554-2.913 8.452-1.684 2.894 1.23 4.741 4.108 4.654 7.253l-.036 1.078c0 17.361 14.124 31.486 31.485 31.486 7.908 0 15.511-3.036 21.409-8.548 2.94-2.742 7.502-2.742 10.441 0 5.903 5.512 13.506 8.548 21.411 8.548 17.36 0 31.486-14.125 31.486-31.486 0-.027-.036-1.051-.036-1.078-.087-3.146 1.759-6.023 4.654-7.253 2.895-1.228 6.25-.562 8.452 1.684 18.409 18.774 28.548 43.564 28.548 69.8 0 26.237-10.139 51.027-28.548 69.8-1.469 1.5-3.447 2.295-5.464 2.295zm-39.091-55.723c19.978 0 37.069 12.584 43.764 30.243 9.135-13.725 14.043-29.822 14.043-46.615 0-16.792-4.908-32.889-14.043-46.614-6.696 17.659-23.787 30.243-43.764 30.243-9.562 0-18.812-2.958-26.631-8.431-7.815 5.473-17.064 8.431-26.631 8.431-19.977 0-37.069-12.584-43.764-30.243-9.135 13.725-14.044 29.822-14.044 46.614 0 16.793 4.909 32.89 14.044 46.615 6.695-17.659 23.787-30.243 43.764-30.243 9.567 0 18.815 2.958 26.631 8.431 7.819-5.473 17.068-8.431 26.631-8.431z"/><path d="m250 474.999c-124.064 0-225-100.933-225-224.998 0-124.064 100.936-225 225-225 124.065 0 225 100.936 225 225 0 124.065-100.935 224.998-225 224.998zm0-434.702c-115.631 0-209.704 94.073-209.704 209.704 0 115.632 94.073 209.701 209.704 209.701 115.632 0 209.705-94.07 209.705-209.701s-94.073-209.704-209.705-209.704z"/><path d="m365.691 151.489c-1.957 0-3.914-.747-5.407-2.241-2.987-2.987-2.987-7.827 0-10.814l11.272-11.272c2.987-2.988 7.827-2.988 10.815 0 2.988 2.987 2.988 7.827 0 10.815l-11.272 11.272c-1.494 1.493-3.451 2.24-5.408 2.24z"/><path d="m376.963 151.489c-1.956 0-3.914-.747-5.407-2.241l-11.272-11.272c-2.987-2.987-2.987-7.827 0-10.815s7.827-2.988 10.814 0l11.272 11.272c2.988 2.987 2.988 7.827 0 10.814-1.494 1.495-3.45 2.242-5.407 2.242z"/><path d="m376.963 375.082c-1.956 0-3.914-.747-5.407-2.241l-11.272-11.272c-2.987-2.987-2.987-7.827 0-10.814s7.827-2.987 10.814 0l11.272 11.272c2.988 2.987 2.988 7.827 0 10.814-1.494 1.494-3.45 2.241-5.407 2.241z"/><path d="m365.691 375.082c-1.957 0-3.914-.747-5.407-2.241-2.987-2.987-2.987-7.827 0-10.814l11.272-11.272c2.987-2.987 7.827-2.987 10.815 0s2.988 7.827 0 10.814l-11.272 11.272c-1.494 1.494-3.451 2.241-5.408 2.241z"/><path d="m409.395 263.284c-1.957 0-3.914-.747-5.407-2.241-2.987-2.987-2.987-7.827 0-10.814l11.272-11.272c2.987-2.987 7.827-2.987 10.814 0s2.987 7.827 0 10.814l-11.272 11.272c-1.493 1.494-3.45 2.241-5.407 2.241z"/><path d="m420.667 263.284c-1.956 0-3.914-.747-5.407-2.241l-11.272-11.272c-2.987-2.987-2.987-7.827 0-10.814s7.827-2.987 10.814 0l11.272 11.272c2.987 2.987 2.987 7.827 0 10.814-1.494 1.494-3.45 2.241-5.407 2.241z"/><path d="m134.31 151.489c-1.957 0-3.913-.747-5.408-2.241l-11.272-11.272c-2.987-2.987-2.987-7.827 0-10.815 2.988-2.988 7.827-2.988 10.816 0l11.272 11.272c2.987 2.987 2.987 7.827 0 10.814-1.494 1.495-3.452 2.242-5.408 2.242z"/><path d="m123.037 151.489c-1.956 0-3.914-.747-5.407-2.241-2.987-2.987-2.987-7.827 0-10.814l11.272-11.272c2.988-2.988 7.827-2.988 10.815 0 2.987 2.987 2.987 7.827 0 10.815l-11.272 11.272c-1.494 1.493-3.45 2.24-5.408 2.24z"/><path d="m123.037 375.082c-1.956 0-3.914-.747-5.407-2.241-2.987-2.987-2.987-7.827 0-10.814l11.272-11.272c2.988-2.987 7.827-2.987 10.815 0 2.987 2.987 2.987 7.827 0 10.814l-11.272 11.272c-1.494 1.494-3.45 2.241-5.408 2.241z"/><path d="m134.31 375.082c-1.957 0-3.913-.747-5.408-2.241l-11.272-11.272c-2.987-2.987-2.987-7.827 0-10.814 2.988-2.987 7.827-2.987 10.816 0l11.272 11.272c2.987 2.987 2.987 7.827 0 10.814-1.494 1.494-3.452 2.241-5.408 2.241z"/><path d="m90.606 263.284c-1.957 0-3.914-.747-5.407-2.241l-11.273-11.272c-2.987-2.987-2.987-7.827 0-10.814 2.988-2.987 7.827-2.987 10.815 0l11.272 11.272c2.987 2.987 2.987 7.827 0 10.814-1.493 1.494-3.451 2.241-5.407 2.241z"/><path d="m79.334 263.284c-1.957 0-3.914-.747-5.408-2.241-2.987-2.987-2.987-7.827 0-10.814l11.273-11.272c2.987-2.987 7.827-2.987 10.814 0s2.987 7.827 0 10.814l-11.272 11.272c-1.493 1.494-3.451 2.241-5.407 2.241z"/></g></svg>