<svg id="Capa_1" enable-background="new 0 0 512 512" height="512" viewBox="0 0 512 512" width="512" xmlns="http://www.w3.org/2000/svg"><g><g><path d="m78.904 114.823h54.711c2.38 0 4.619-1.13 6.033-3.045l10.635-14.401 22.887 30.42c1.412 1.876 3.62 2.983 5.968 2.991h.025c2.338 0 4.543-1.091 5.962-2.95l10.551-13.827 10.141 13.732c1.414 1.915 3.653 3.045 6.033 3.045s4.619-1.13 6.033-3.045l14.899-20.176h42.218c4.142 0 7.5-3.357 7.5-7.5s-3.358-7.5-7.5-7.5h-46c-2.38 0-4.619 1.13-6.033 3.045l-11.115 15.051-10.042-13.6c-1.401-1.898-3.615-3.026-5.974-3.045h-.059c-2.337 0-4.543 1.09-5.962 2.95l-10.607 13.9-22.986-30.55c-1.424-1.893-3.672-2.957-6.027-2.991-2.368.011-4.592 1.14-6 3.045l-14.364 19.45h-50.927c-4.142 0-7.5 3.357-7.5 7.5s3.358 7.501 7.5 7.501z"/><path d="m78.904 158.987h196.096c4.142 0 7.5-3.357 7.5-7.5s-3.358-7.5-7.5-7.5h-196.096c-4.142 0-7.5 3.357-7.5 7.5s3.358 7.5 7.5 7.5z"/><path d="m436.591 277.416c-3.638-1.983-8.192-.643-10.175 2.992l-3.868 7.092h-29.548c-4.142 0-7.5 3.357-7.5 7.5s3.358 7.5 7.5 7.5h34c2.745 0 5.27-1.499 6.584-3.908l6-11c1.984-3.637.644-8.193-2.993-10.176z"/><path d="m409.958 241.5c-11.08 0-21.501 4.319-29.345 12.163-2.929 2.93-2.929 7.678 0 10.607 1.464 1.464 3.384 2.196 5.303 2.196s3.839-.732 5.303-2.196c5.011-5.011 11.666-7.771 18.739-7.771s13.728 2.76 18.738 7.77c2.929 2.93 7.678 2.929 10.606.001 2.929-2.929 2.929-7.678 0-10.606-7.842-7.845-18.264-12.164-29.344-12.164z"/><path d="m309.859 123.517h27.936c5.79 0 10.5-4.71 10.5-10.5v-27.936c0-5.79-4.71-10.5-10.5-10.5h-27.936c-5.79 0-10.5 4.71-10.5 10.5v27.936c0 5.79 4.711 10.5 10.5 10.5zm4.5-33.936h18.936v18.936h-18.936z"/><path d="m506.175 310.784-28.238-28.237c-.794-31.231-13.416-60.397-35.744-82.428-5.806-5.729-12.089-10.793-18.756-15.159v-153.326c0-12.406-10.093-22.5-22.5-22.5h-378.437c-12.407 0-22.5 10.094-22.5 22.5v275.419c0 12.406 10.093 22.5 22.5 22.5h58.458v16.512h-38.705c-12.407 0-22.5 10.094-22.5 22.5v59.687c0 12.406 10.093 22.5 22.5 22.5h234.079v34.615c0 9.649 7.851 17.5 17.5 17.5h15.317c4.142 0 7.5-3.357 7.5-7.5s-3.358-7.5-7.5-7.5h-15.317c-1.378 0-2.5-1.121-2.5-2.5v-99.518c10.939 7.267 23.038 12.757 35.796 16.111 1.521.399 2.849 1.225 3.84 2.387l25.813 30.256c6.128 7.183 15.058 11.302 24.499 11.302h19.886v39.463c0 1.379-1.122 2.5-2.5 2.5h-54.517c-4.142 0-7.5 3.357-7.5 7.5s3.358 7.5 7.5 7.5h54.517c9.649 0 17.5-7.851 17.5-17.5v-39.463h29.607c17.758 0 32.205-14.446 32.205-32.204v-61.736l21.569-8.688c6.207-2.5 10.711-7.907 12.049-14.463 1.337-6.558-.689-13.297-5.421-18.03zm-483.675 3.769c-4.136 0-7.5-3.364-7.5-7.5v-275.419c0-4.136 3.364-7.5 7.5-7.5h378.438c4.136 0 7.5 3.364 7.5 7.5v144.983c-4.957-2.306-10.067-4.262-15.299-5.865v-118.818c0-6.893-5.607-12.5-12.5-12.5h-337.839c-6.893 0-12.5 5.607-12.5 12.5v32.066c0 4.143 3.358 7.5 7.5 7.5s7.5-3.357 7.5-7.5v-29.566h332.838v112.765c-7.197-1.222-14.559-1.805-22.02-1.708-2.63.035-5.237.163-7.823.363v-14.114c0-5.79-4.71-10.5-10.5-10.5h-27.936c-5.79 0-10.5 4.71-10.5 10.5v27.936c0 .281.022.558.044.833-12.39 6.868-23.43 15.865-32.634 26.502h-11.899v-13.895c0-4.143-3.358-7.5-7.5-7.5s-7.5 3.357-7.5 7.5v13.895h-15.3v-27.647c0-4.143-3.358-7.5-7.5-7.5s-7.5 3.357-7.5 7.5v27.647h-15.3v-13.895c0-4.143-3.358-7.5-7.5-7.5s-7.5 3.357-7.5 7.5v13.895h-15.299v-27.647c0-4.143-3.358-7.5-7.5-7.5s-7.5 3.357-7.5 7.5v27.647h-15.3v-13.895c0-4.143-3.358-7.5-7.5-7.5s-7.5 3.357-7.5 7.5v13.895h-15.299v-13.895c0-4.143-3.358-7.5-7.5-7.5s-7.5 3.357-7.5 7.5v13.895h-9.468c-4.142 0-7.5 3.357-7.5 7.5s3.358 7.5 7.5 7.5h176.794c-4.569 7.321-8.363 15.179-11.284 23.459h-145.956c-9.649 0-17.5 7.851-17.5 17.5v21.284h-35.658v-165.254c0-4.143-3.358-7.5-7.5-7.5s-7.5 3.357-7.5 7.5v167.754c0 6.893 5.607 12.5 12.5 12.5h38.159v15.299zm310.795-158.313v11.723c-6.522 1.341-12.848 3.209-18.936 5.556v-17.28h18.936zm-173.33 234.518c4.218 0 7.65 3.432 7.65 7.65s-3.432 7.649-7.65 7.649-7.649-3.432-7.649-7.649c0-4.219 3.432-7.65 7.649-7.65zm-7.5-76.205h-56.507v-15.299h56.507zm-56.507-30.299v-21.284c0-1.379 1.122-2.5 2.5-2.5h141.739c-.7 3.305-1.269 6.66-1.694 10.061-4.257 3.51-7.44 8.276-8.987 13.723zm71.507 45.299h60.876c-3.073 3.155-4.975 7.455-4.975 12.196v4.315h-55.901zm64.007 61.205c4.218 0 7.65 3.432 7.65 7.65s-3.432 7.649-7.65 7.649-7.649-3.432-7.649-7.649c0-4.219 3.431-7.65 7.649-7.65zm-64.007-76.205v-12.799c0-1.379 1.122-2.5 2.5-2.5h59.559c1.793 6.311 5.776 11.709 11.086 15.299zm70.901 27.196c0-1.379 1.122-2.5 2.5-2.5h9.311c1.144 2.309 2.364 4.582 3.657 6.815h-15.468zm5.106-49.995c0-6.893 5.607-12.5 12.5-12.5s12.5 5.607 12.5 12.5-5.607 12.5-12.5 12.5-12.5-5.608-12.5-12.5zm-155.014 99.004c4.218 0 7.65 3.432 7.65 7.65s-3.432 7.649-7.65 7.649-7.65-3.432-7.65-7.649c.001-4.219 3.432-7.65 7.65-7.65zm187.874 44.993h-234.079c-4.136 0-7.5-3.364-7.5-7.5v-59.687c0-4.136 3.364-7.5 7.5-7.5h38.705v15.975c-8.813 3.103-15.15 11.508-15.15 21.369 0 12.489 10.161 22.649 22.65 22.649s22.65-10.16 22.65-22.649c0-9.861-6.337-18.266-15.15-21.369v-15.975h11.042c4.142 0 7.5-3.357 7.5-7.5s-3.358-7.5-7.5-7.5h-11.042v-16.512h56.507v16.512h-10.465c-4.142 0-7.5 3.357-7.5 7.5s3.358 7.5 7.5 7.5h10.465v15.975c-8.813 3.103-15.149 11.508-15.149 21.368 0 12.489 10.161 22.649 22.649 22.649 12.489 0 22.65-10.16 22.65-22.649 0-9.861-6.337-18.266-15.15-21.369v-15.975h55.901v16.199c-8.496 3.269-14.543 11.511-14.543 21.145 0 12.489 10.161 22.649 22.649 22.649 12.489 0 22.65-10.16 22.65-22.649 0-10.086-6.628-18.65-15.756-21.574v-15.77h25.772c3.747 4.644 7.826 8.989 12.193 13.007v61.681zm220.567-109.938c-.158.772-.761 2.664-2.956 3.548l-26.267 10.58c-2.838 1.144-4.698 3.896-4.698 6.957v36.602h-40.978c-4.142 0-7.5 3.357-7.5 7.5s3.358 7.5 7.5 7.5h40.978v15.199c0 9.486-7.718 17.204-17.205 17.204h-64.493c-5.044 0-9.814-2.201-13.088-6.038l-25.813-30.256c-2.988-3.502-6.943-5.977-11.438-7.158-22.636-5.949-42.927-19.566-57.135-38.341-2.411-3.187-4.609-6.482-6.617-9.861h18.43c3.274 11.528 13.889 20 26.452 20 15.164 0 27.5-12.337 27.5-27.5s-12.336-27.5-27.5-27.5c-12.563 0-23.178 8.472-26.452 20h-25.786c-.661-1.678-1.295-3.366-1.867-5.075 14.236-1.025 25.507-12.928 25.507-27.42 0-15.163-12.336-27.5-27.5-27.5-.413 0-.823.013-1.232.031.263-1.282.561-2.551.87-3.815h30.008c3.274 11.528 13.889 20 26.452 20 15.164 0 27.5-12.337 27.5-27.5s-12.336-27.5-27.5-27.5c-12.563 0-23.178 8.472-26.452 20h-25.104c15.587-37.826 52.503-64.401 95.806-64.981.485-.006.969-.01 1.453-.01 27.849 0 54.039 10.734 73.886 30.317 20.196 19.929 31.319 46.527 31.319 74.897 0 1.989.79 3.896 2.197 5.304l30.395 30.395c1.671 1.672 1.485 3.649 1.328 4.421zm-197.33 5.936c0-6.893 5.607-12.5 12.5-12.5s12.5 5.607 12.5 12.5-5.607 12.5-12.5 12.5-12.5-5.607-12.5-12.5zm0-78.779c0-6.893 5.607-12.5 12.5-12.5s12.5 5.607 12.5 12.5-5.607 12.5-12.5 12.5-12.5-5.608-12.5-12.5z"/></g></g></svg>