<svg id="Capa_1" enable-background="new 0 0 512 512" height="512" viewBox="0 0 512 512" width="512" xmlns="http://www.w3.org/2000/svg"><g><circle cx="190.569" cy="310.53" r="10"/><path d="m501.979 302.521h-9.04l-17.977-101.042c-.834-4.691-4.856-8.146-9.619-8.263-4.748-.102-8.95 3.135-10.015 7.779l-33.224 144.9-26.548-86.585c-1.253-4.088-4.963-6.93-9.236-7.078-4.254-.15-8.169 2.432-9.701 6.425l-16.319 42.523h-50.195l44.676-47.923c35.144-37.693 35.144-99.024 0-136.716-17.237-18.487-40.209-28.669-64.685-28.668-24.476 0-47.448 10.183-64.684 28.671l-34.656 37.173-35.033-37.574c-17.237-18.487-40.209-28.668-64.685-28.668-24.476.001-47.448 10.183-64.684 28.671-35.139 37.692-35.139 99.02 0 136.711l157.073 168.482c1.896 2.034 4.55 3.188 7.33 3.188s5.434-1.155 7.33-3.188l93.333-100.115h75.768c4.15 0 7.869-2.557 9.356-6.431l8.37-21.812 29.005 94.597c1.294 4.221 5.191 7.084 9.578 7.083.121 0 .243-.002.364-.006 4.534-.164 8.393-3.353 9.407-7.775l30.587-133.398 10.82 60.818c.85 4.783 5.009 8.266 9.866 8.266h17.436c5.535 0 10.021-4.487 10.021-10.021s-4.485-10.024-10.019-10.024zm-311.222 97.287-149.742-160.619c-28.113-30.155-28.113-79.221 0-109.376 13.403-14.377 31.169-22.295 50.024-22.296s36.621 7.917 50.025 22.293l42.364 45.436c1.896 2.033 4.55 3.187 7.33 3.187 2.779 0 5.434-1.155 7.33-3.188l41.986-45.036c13.404-14.377 31.169-22.295 50.024-22.296 18.855 0 36.621 7.917 50.025 22.293 28.117 30.156 28.116 79.224-.001 109.381l-57.418 61.591h-47.287c-5.535 0-10.021 4.487-10.021 10.021s4.487 10.021 10.021 10.021h28.602z"/></g></svg>