<svg id="Layer_1" enable-background="new 0 0 479.999 479.999" height="512" viewBox="0 0 479.999 479.999" width="512" xmlns="http://www.w3.org/2000/svg"><g><path d="m435.336 119.928-83.99 96.67c-1.55 1.79-3.77 2.75-6.04 2.75-4.768 0-8.471-4.152-7.94-8.89l4.624-41.436c.264-2.37-1.591-4.444-3.975-4.444h-35.689c-4.84 0-8.63-4.311-7.91-9.2l15.86-105.22c.59-3.92 3.95-6.81 7.91-6.81h64.652c5.512 0 8.927 4.765 8.088 9.42l-8.871 49.2c-.442 2.454 1.443 4.71 3.937 4.71h43.304c6.834 0 10.534 8.054 6.04 13.25z"/><path d="m428.986 271.968c-39.11-39.668-97.738-46.462-143.234-22.694-6.018 3.144-5.696 11.82.55 14.484 9.891 4.219 19.051 9.503 27.455 15.66 3.7 2.71 4.312 8.001 1.39 11.52-2.709 3.262-7.48 3.851-10.9 1.351-27.512-20.031-58.914-26.39-86.332-20.929-4.089.815-6.831 4.72-6.271 8.852 7.633 56.268-17.97 96.005-71.197 101.367-4.73.47-8.84-3.24-8.83-7.99 0-4.04 3.02-7.431 7.01-7.91.855-.292 26.667-1.128 43.26-19.98 2.201-2.398 5.206-6.681 6.26-8.72 9.128-14.975 10.26-37.603 7.57-54.82-2.461-19.083-10.026-40.953-18.81-58.34-7.413-14.686-11.025-19.025-19.95-29.55-13.229-15.641-28.991-34.277-31.369-66.619-.294-4.002-3.529-7.168-7.537-7.37-16.733-.841-32-9.814-40.864-24.221-2.43-3.95-1.04-9.12 3.06-11.29 3.75-1.99 8.36-.67 10.59 2.95 3.781 6.271 10.198 11.599 16.72 14.09.402.183 2.232.838 2.64.94v.01c7.48 2.026 8.676 1.693 21.51 1.46 17.592-.32 32.26-13.92 34.12-31.4l3.44-32.27c2.179-20.305-13.426-38.222-33.84-38.85l-53.65-1.68c-18.62-.59-34.5 13.51-36.11 32.1l-29.62 342.69c-1.52 17.54 4.39 35.09 16.22 48.13 21.47 23.69 104.74 38.23 129.65 38.96 24.96.74 49.83-2.47 73.95-9.53 12.53-3.67 25.82-1.529 36.46 5.86 20.25 14.07 44.029 21.686 68.77 21.771 69.542.239 122.175-55.677 123.08-120.48.449-32.992-12.041-64.082-35.191-87.552zm-350.48-17.45-5.9 68.22c-.36 4.17-3.86 7.311-7.96 7.311-4.715 0-8.382-4.022-7.98-8.69l5.9-68.22c.38-4.4 4.22-7.66 8.66-7.28 4.4.379 7.66 4.258 7.28 8.659zm3.36-38.94-.33 3.81c-.36 4.17-3.85 7.31-7.96 7.31-4.713 0-8.382-4.032-7.98-8.689l.33-3.811c.38-4.399 4.25-7.64 8.66-7.279 4.4.379 7.66 4.259 7.28 8.659z"/></g></svg>