<svg id="Capa_1" enable-background="new 0 0 512 512" height="512" viewBox="0 0 512 512" width="512" xmlns="http://www.w3.org/2000/svg"><g><path d="m97.5 181.948h152c4.143 0 7.5-3.357 7.5-7.5s-3.357-7.5-7.5-7.5h-152c-4.143 0-7.5 3.357-7.5 7.5s3.357 7.5 7.5 7.5z"/><path d="m97.5 211.948h152c4.143 0 7.5-3.357 7.5-7.5s-3.357-7.5-7.5-7.5h-152c-4.143 0-7.5 3.357-7.5 7.5s3.357 7.5 7.5 7.5z"/><path d="m97.5 241.948h76c4.143 0 7.5-3.357 7.5-7.5s-3.357-7.5-7.5-7.5h-76c-4.143 0-7.5 3.357-7.5 7.5s3.357 7.5 7.5 7.5z"/><path d="m459.187 382.677c-3.619-8.444-10.092-15.045-18.004-18.911 6.683-6.776 10.817-16.072 10.817-26.318v-93.823l37.079-51.035c14.995-20.603 22.921-44.994 22.921-70.538 0-66.168-53.832-120-120-120-66.133 0-119.942 53.776-119.999 119.896h-189.501c-20.678 0-37.5 16.822-37.5 37.5v74c0 4.143 3.357 7.5 7.5 7.5s7.5-3.357 7.5-7.5v-74c0-12.406 10.094-22.5 22.5-22.5h189.5v137.525c0 38.859 31.615 70.475 70.476 70.475 22.484 0 43.799-10.86 57.016-29.051l37.508-51.626v73.177c0 12.406-10.094 22.5-22.5 22.5h-332c-12.406 0-22.5-10.094-22.5-22.5v-74c0-4.143-3.357-7.5-7.5-7.5s-7.5 3.357-7.5 7.5v74c0 10.246 4.134 19.542 10.817 26.317-7.912 3.866-14.385 10.468-18.004 18.911l-37.207 86.818c-.4.934-.606 1.939-.606 2.954 0 20.678 16.822 37.5 37.5 37.5h422c20.678 0 37.5-16.822 37.5-37.5 0-1.016-.206-2.021-.606-2.954zm-71.831-75.596c-10.404 14.318-27.182 22.867-44.881 22.867-30.589 0-55.476-24.886-55.476-55.475v-152.421c0-57.897 47.103-105 105-105s105 47.103 105 105c0 22.351-6.933 43.69-20.053 61.718zm-335.755 81.504c3.551-8.284 11.669-13.637 20.682-13.637h352.436c9.013 0 17.131 5.353 20.682 13.637l32.727 76.363h-459.254zm234.432 91.363v15h-75v-15zm-269.737 0h179.737v15h-158.533c-9.776 0-18.107-6.272-21.204-15zm443.204 15h-158.467v-15h179.671c-3.097 8.728-11.428 15-21.204 15z"/><path d="m59.425 434.948h378.15c2.521 0 4.873-1.267 6.262-3.371 1.388-2.104 1.625-4.766.632-7.083l-12.857-30c-1.182-2.758-3.894-4.546-6.894-4.546l-352.437.001c-3 0-5.712 1.788-6.894 4.546l-12.856 29.999c-.993 2.317-.756 4.979.632 7.083 1.389 2.105 3.74 3.371 6.262 3.371zm17.802-29.999 342.546-.001 6.429 15h-355.403z"/><g><path d="m317 155.313c0-.068 0 .067 0 0z"/><path d="m444.602 68.635c-14.439-14.222-33.508-21.877-53.764-21.574-40.714.62-73.838 34.72-73.838 76.014v32.237c.121 2.73 1.688 5.201 4.146 6.43l14.627 7.313c6.925 3.463 11.228 10.424 11.228 18.167 0 11.2-9.111 20.312-20.312 20.312h-2.189c-4.143 0-7.5 3.357-7.5 7.5v15c0 22.009 17.905 39.914 39.914 39.914 12.734 0 24.807-6.15 32.292-16.453l43.92-60.452c.01-.014 19.568-26.933 19.568-26.933 9.359-12.859 14.306-28.094 14.306-44.059 0-20.221-7.955-39.192-22.398-53.416zm-23.609 115.589-43.921 60.454c-4.673 6.431-12.208 10.27-20.157 10.27-13.737 0-24.914-11.177-24.914-24.914v-7.898c16.96-2.57 30-17.247 30-34.913 0-13.462-7.479-25.563-19.52-31.583l-10.237-5.119c1.186-12.049 6.8-23.357 15.822-31.576 10.21-9.3 23.953-13.906 37.703-12.612 17.826 1.666 32.872 12.399 40.248 28.712 7.375 16.312 5.497 34.696-5.024 49.179zm24.232-34.459c-.642-7.073-2.477-14.124-5.541-20.9-9.625-21.287-29.259-35.294-52.521-37.468-17.937-1.668-35.877 4.323-49.199 16.459-1.827 1.665-3.537 3.435-5.146 5.282 4.663-28.512 29-50.634 58.247-51.08 16.183-.24 31.456 5.884 43.01 17.263 11.56 11.384 17.925 26.559 17.925 42.73 0 9.781-2.327 19.213-6.775 27.714z"/></g></g></svg>