<svg height="512" viewBox="0 0 60 60" width="512" xmlns="http://www.w3.org/2000/svg"><g id="Page-1" fill="none" fill-rule="evenodd"><g id="033---Epidural" fill="rgb(0,0,0)" fill-rule="nonzero" transform="translate(0 -1)"><path id="Shape" d="m59.233 13.59-5.343-5.955c-1.1067786-1.2329757-3.0035243-1.33527864-4.2365-.2285s-1.3352786 3.0035243-.2285 4.2365l.667.744-2.977 2.671-2-2.233c-.9703543-1.0960421-2.5912727-1.329044-3.8310636-.5507033-1.2397909.7783408-1.7343665 2.3394497-1.1689364 3.6897033l-2.426 2.177c-.4908929-.1558178-1.0142815-.1789338-1.517-.067l-3.95.881c-.122-1.059-.181-2.039-.2-2.965.3768188-.2046997.736932-.4387566 1.077-.7.6333754-.4852913.913982-1.3030704.712-2.075-.1-.382-.278-1.061-.479-1.935l4-.446c.8353972-.0930015 1.5934597-.5322092 2.0896364-1.21069756.4961767-.67848838.6849502-1.53401544.5203636-2.35830244l-.171-.857c-.1580199-.79129248-.6281427-1.48556596-1.304219-1.92605988-.6760763-.44049391-1.5010974-.59006451-2.288781-.41494012l-3.955.879c-.08-.722-.139-1.417-.176-2.076-.0373696-.6653572-.4077573-1.26700215-.985-1.6-.5912234-.34175898-1.3151797-.36132537-1.924-.052-2.873136 1.27393995-5.9967235 1.88307029-9.138 1.782-3.1412765.10107029-6.264864-.50806005-9.138-1.782-.6086801-.30927538-1.33263499-.28894591-1.923.054-.57724269.33299785-.94763036.9346428-.985 1.6-.037.659-.1 1.354-.176 2.076l-3.955-.876c-.78768364-.17512439-1.6127047-.02555379-2.28878101.41494012-.67607631.44049392-1.14619911 1.1347674-1.30421899 1.92605988l-.171.857c-.16458665.824287.02418692 1.67981406.52036363 2.35830244.49617672.67848836 1.25423914 1.11769606 2.08963637 1.21069756l4 .446c-.2.878-.377 1.555-.479 1.935-.20406654.7730586.07584012 1.5930668.71 2.08.3405754.2610226.70100311.4950665 1.078.7-.021.93-.081 1.911-.2 2.966l-3.946-.881c-.78870135-.1772461-1.61555621-.0287-2.29324489.4119859-.67768868.4406858-1.14885372 1.1362133-1.30675511 1.9290141l-.169.858c-.16490085.8245912.0238543 1.6805362.52027672 2.3592908.49642241.6787545 1.25493184 1.1179969 2.09072328 1.2107092l4 .439c-.193.837-.366 1.509-.478 1.942-.1988491.7751982.08503714 1.5941765.721 2.08.34135164.255142.70061178.4854027 1.075.689.01027622 1.3231756-.0615283 2.6457148-.215 3.96l-3.942-.879c-.78870135-.1772461-1.61555621-.0287-2.29324489.4119859-.67768868.4406858-1.14885372 1.1362133-1.30675511 1.9290141l-.169.858c-.16490085.8245912.0238543 1.6805362.52027672 2.3592908.49642241.6787545 1.25493184 1.1179969 2.09072328 1.2107092l4 .439c-.193.837-.366 1.509-.478 1.942-.19785826.7664917.07740649 1.5773643.701 2.065.34061505.2591036.70143533.4905101 1.079.692-.021.931-.081 1.913-.2 2.968l-3.946-.881c-.78870135-.1772461-1.61555621-.0287-2.29324489.4119859-.67768868.4406858-1.14885372 1.1362133-1.30675511 1.9290141l-.169.858c-.16490085.8245912.0238543 1.6805362.52027672 2.3592908.49642241.6787545 1.25493184 1.1179969 2.09072328 1.2107092l4 .439c-.193.837-.366 1.509-.478 1.942-.19790997.7701672.08118463 1.5842587.71 2.071 2.375 1.842 6.535 2.7 13.093 2.7s10.718-.858 13.1-2.7c.6290485-.4852703.908981-1.2983327.712-2.068-.112-.436-.286-1.109-.479-1.947l4-.439c.8351847-.0930332 1.5930601-.5320981 2.0892047-1.2103525.4961447-.6782544.6850672-1.5335096.5207953-2.3576475l-.17-.862c-.1581328-.7926167-.6293942-1.4878965-1.3070554-1.9283763s-1.5043869-.5888915-2.2929446-.4116237l-3.95.881c-.122-1.06-.181-2.041-.2-2.966.3766922-.2015175.7368199-.4325743 1.077-.691.6290485-.4852703.908981-1.2983327.712-2.068-.112-.436-.286-1.109-.479-1.947l4-.439c.8351847-.0930332 1.5930601-.5320981 2.0892047-1.2103525.4961447-.6782544.6850672-1.5335096.5207953-2.3576475l-.173-.876c-.019-.085-.053-.163-.078-.246l1.449-1.3 8.323-7.466c.3893046.2164889.822333.3426037 1.267.369h.166c1.1817728-.0027813 2.2518076-.6990985 2.7329938-1.7784754.4811863-1.079377.2838602-2.3406836-.5039938-3.2215246l-2-2.233 2.974-2.673.668.744c.7157816.7977741 1.8027985 1.1530828 2.8515819.9320847 1.0487834-.220998 1.8999982-.9847279 2.233-2.0035s.0971997-2.1378106-.6185819-2.9355847zm-11.241 11.43-1.492 1.335-1.336-1.489c-.2310588-.29155-.6048592-.4307413-.9703319-.3613206s-.6622022.3359776-.7702668.6919434c-.1080646.3559657-.0096005.7424961.2555987 1.0033772l1.335 1.489-1.489 1.336-1.336-1.489c-.2390107-.2659842-.6017666-.3842531-.951621-.3102559s-.6336562.3290186-.7445.669-.0318897.7132717.207121.9792559l1.336 1.488-1.488 1.338-1.336-1.489c-.2369591-.2722887-.6022678-.3957449-.955824-.3230212-.3535563.0727237-.6404815.3303393-.750735.674047-.1102535.3437076-.0267219.7201572.218559.9849742l1.335 1.488-.744.668c-1.3271302 1.2095167-3.2009176 1.6145267-4.909104 1.0610789-1.7081863-.5534477-2.9884367-1.9803575-3.3541062-3.7383367s.2393995-3.5770459 1.5852102-4.7657422l9.676-8.682 3.34 3.722zm-19.715 10.97c-.1773219-.1975134-.2688434-.4574216-.2544004-.7224613.0144431-.2650397.1336656-.5134636.3314004-.6905387l.8-.721c.1835251.2809454.3870519.5483041.609.8.2255503.2473305.4681437.4785628.726.692l-.8.72c-.4114606.3683497-1.0436149.333429-1.412-.078zm-25.387-27.138c-.27853663-.0309899-.53128647-.17744006-.69668941-.40368085-.16540293-.2262408-.22827776-.51150714-.17331059-.78631915l.171-.862c.09490281-.46493083.50348289-.79914766.978-.8.07398287.00006797.14774267.0081145.22.024l5.029 1.118c.27302233.06041912.5588704.00376465.78820892-.1562213.22933853-.15998594.38121529-.40868716.41879108-.6857787.159-1.164.269-2.279.339-3.295.6052503.29342544 1.2288923.54729147 1.867.76-.0981013 2.01590886-.3657127 4.01998328-.8 5.991-.0647732.2572631-.0246657.5297215.1114948.7574059.1361606.2276844.3572139.391933.6145052.4565941.0795243.019598.1610971.0296687.243.03.4580159-.0003551.8572442-.3118274.969-.756.4384037-1.94864298.7163344-3.92994407.831-5.924 2.0336434.46431867 4.1140611.69249351 6.2.68 3.4602112.11322847 6.8996629-.57609941 10.049-2.014.057 1.035.167 2.15.326 3.314.0375758.27709154.1894526.52579276.4187911.6857787.2293385.15998595.5151866.21664042.7882089.1562213l5.029-1.118c.2628526-.05908927.5384278-.00961869.7643149.1372079.225887.14682659.3829742.37858655.4356851.6427921l.171.858c.0549672.27481201-.0079077.56007835-.1733106.78631915-.1654029.22624079-.4181528.37269095-.6966894.40368085l-5.112.568c-.2803125.03117261-.5344275.17926747-.6997264.40779125-.1652989.22852375-.2264097.51622495-.1682736.79220875.306 1.438.6 2.568.736 3.094-1.977 1.539-5.859 2.286-11.868 2.286s-9.891-.747-11.875-2.264c.145-.542.434-1.669.741-3.114.05877313-.2759683-.001774-.563923-.1667101-.79285279-.16493611-.22892979-.4189099-.3775272-.6992899-.40914721zm0 14c-.27878095-.0311831-.53164565-.1780269-.69689925-.4047039-.16525361-.226677-.22769908-.5123415-.17210075-.7872961l.169-.858c.05246298-.2663073.21092456-.4998486.439-.647.2255897-.146438.50116863-.1944747.763-.133l5.02 1.12c.2721092.0607769.55723665.0051921.78659148-.1533437s.38210901-.4056259.42140852-.6816563c.174-1.229.285-2.394.34-3.49.6215002.2062852 1.2541788.3772253 1.895.512-.092895 2.1604756-.3688844 4.3091781-.825 6.423-.0647732.2572631-.0246657.5297215.1114948.7574059.1361606.2276844.3572139.391933.6145052.4565941.0796859.021026.1616016.0324405.244.034.4580159-.0003551.8572442-.3118274.969-.756.4743992-2.1676278.7647657-4.3714695.868-6.588 2.0449525.2453268 4.1034484.3602258 6.163.344 3.3875227.1209274 6.7736274-.2766642 10.041-1.179.054 1.0906667.167 2.2536667.339 3.489.0390497.2762131.1916996.5235599.4210855.6823071s.5146544.2144632.7869145.1536929l3.663-.817-4.951 4.441c-1.3059924 1.1726471-2.1210193 2.7952007-2.282 4.543-2.6404018.5151208-5.3284543.7454391-8.018.687-4.938 0-8.4-.5-10.6-1.517-.44826079-.2085469-.87468913-.4611212-1.273-.754.156-.6.444-1.722.74-3.11.05909351-.2762701-.00143165-.5646457-.16661446-.7938439-.1651828-.2291983-.41960821-.3778303-.70038554-.4091561zm33.722 26.173c.2607079-.059927.5345734-.0115766.759.134.2272522.1468858.3852784.3795957.438.645l.17.863c.0546548.274353-.0081075.5590561-.1730515.784999s-.4169876.3724658-.6949485.404001l-5.11.56c-.2804941.0309136-.53487.1789-.700383.4074564-.1655129.2285564-.2267539.5164047-.168617.7925436.3 1.388.584 2.508.735 3.1-1.978 1.538-5.86 2.284-11.867 2.284s-9.889-.746-11.872-2.271c.156-.6.444-1.722.74-3.11.0590946-.2764251-.00156056-.564948-.16695753-.794179-.16539696-.2292311-.42008357-.3777545-.70104247-.408821l-5.109-.56c-.27878095-.0311831-.53164565-.1780269-.69689925-.4047039-.16525361-.226677-.22769908-.5123415-.17210075-.7872961l.169-.858c.05246298-.2663073.21092456-.4998486.439-.647.22541525-.1468817.50118267-.1949513.763-.133l5.02 1.12c.2721092.0607769.55723665.0051921.78659148-.1533437s.38210901-.4056259.42140852-.6816563c.174-1.224.284-2.383.339-3.475.6393961.2106326 1.290494.3839248 1.95.519-.068511 2.4881804-.3627179 4.9650075-.879 7.4-.0651062.2572664-.0252825.5298616.1107007.7577506.1359831.2278891.3569728.3923812.6142993.4572494.0798629.0196022.1617672.0296724.244.03.4577256-.0002394.8568573-.3112244.969-.755.5359106-2.4923405.8458339-5.0279548.926-7.576 2.0262138.2362787 4.0651177.3468237 6.105.331 3.3872196.1276346 6.7739677-.2652714 10.042-1.165.054 1.0866667.1666667 2.245.338 3.475.0390497.2762131.1916996.5235599.4210855.6823071s.5146544.2144632.7869145.1536929zm1.2-11.571c-.1657563.2268978-.4203656.3723889-.7.4l-5.11.56c-.2804941.0309136-.53487.1789-.700383.4074564-.1655129.2285564-.2267539.5164047-.168617.7925436.3 1.388.584 2.508.73 3.1-.398026.3033511-.8286972.5612842-1.284.769-2.179 1.024-5.64 1.517-10.579 1.517s-8.4-.493-10.572-1.5c-.45806113-.2112278-.89360666-.4681997-1.3-.767.156-.6.444-1.722.74-3.11.06037877-.2770114.00033471-.5666324-.16519395-.7968087-.16552866-.2301764-.42098191-.3792712-.70280605-.4101913l-5.109-.56c-.27878095-.0311831-.53164565-.1780269-.69689925-.4047039-.16525361-.226677-.22769908-.5123415-.17210075-.7872961l.169-.858c.05246298-.2663073.21092456-.4998486.439-.647.22580496-.145889.50115184-.1938852.763-.133l5.02 1.12c.27301017.0610639.55911644.0049752.78886242-.1546498.22974597-.159625.38212235-.4081892.42013758-.6853502.20886527-1.480622.33140567-2.9721424.367-4.467.6303944.2040951 1.2717337.3726929 1.921.505-.0690793 2.4921043-.3632763 4.9728639-.879 7.412-.0647732.2572631-.0246657.5297215.1114948.7574059.1361606.2276844.3572139.391933.6145052.4565941.0795243.019598.1610971.0296687.243.03.4580159-.0003551.8572442-.3118274.969-.756.5369559-2.4949962.8485431-5.0332102.931-7.584 2.0242308.2406903 4.0615596.3542463 6.1.34 2.7217011.0498624 5.441567-.1725776 8.119-.664.0413333.2113333.0923333.4203333.153.627l-1.254 1.126c-.9391596.8499456-1.2432999 2.1981672-.76 3.369l-5.348 4.8c-.2722887.2369591-.3957449.6022678-.3230212.955824.0727237.3535563.3303393.6404815.674047.750735.3437076.1102535.7201572.0267219.9849742-.218559l5.351-4.8c1.1077407.6194318 2.4872211.4628921 3.428-.389l1.251-1.122c.7376748.310071 1.5230533.4913643 2.322.536.129.007.258.01.387.01 1.0115372-.0002542 2.0108166-.2214062 2.928-.648l.066.336c.056352.2742167-.0061493.5594697-.172.785zm14.084-13.64c-.0217201.4039858-.2847182.7550833-.6663039.889503-.3815857.1344198-.8065705.0256754-1.0766961-.275503l-8.019-8.928c-.3601107-.4121348-.3220152-1.0371893.0854813-1.4025404.4074964-.3653511 1.032987-.3352511 1.4035187.0675404l4.007 4.466 1.335 1.488 2.672 2.978c.175809.1962105.2670867.4538724.254.717zm-2.1-5.779-.833-.929-.5-.559 2.977-2.672.716.8.619.691zm7.881-1.7c-.4111922.368604-1.0433288.3341319-1.412-.077l-1.345-1.485-1.336-1.488-2.671-2.978c-.2635032-.2935457-.32982-.71456781-.1693118-1.07490119.1605082-.36033337.5178466-.59264097.9123118-.59309881h.055c.2653013.01274921.5143241.13167472.691.33l5.342 5.954c.1779441.197613.2698506.4579631.2554013.7234932s-.1340644.5143698-.3324013.6915068z"/></g></g></svg>