<svg id="Layer_1" enable-background="new 0 0 64 64" viewBox="0 0 64 64" xmlns="http://www.w3.org/2000/svg"><g><path d="m42.45 62.17h-20.9c-2.9 0-5.26-2.36-5.26-5.26v-25.13c0-2.9 2.36-5.26 5.26-5.26h20.91c2.9 0 5.26 2.36 5.26 5.26v25.13c-.01 2.91-2.37 5.26-5.27 5.26zm-20.9-33.64c-1.8 0-3.26 1.46-3.26 3.26v25.13c0 1.8 1.46 3.26 3.26 3.26h20.91c1.8 0 3.26-1.46 3.26-3.26v-25.14c0-1.8-1.46-3.26-3.26-3.26h-20.91z"/></g><g><path d="m17.28 40.21c-.25 0-.51-.1-.7-.29-3.27-3.21-5.06-7.49-5.06-12.07 0-5.27 2.82-10.42 7.55-13.78.45-.32 1.07-.21 1.39.24s.21 1.08-.24 1.39c-4.2 2.98-6.71 7.52-6.71 12.15 0 4.03 1.59 7.81 4.46 10.64.39.39.4 1.02.01 1.41-.18.21-.44.31-.7.31z"/></g><g><path d="m17.28 48.85c-.17 0-.33-.04-.49-.13-7.55-4.22-12.24-12.22-12.24-20.86 0-9.18 5.95-17.97 14.82-21.86.51-.22 1.1.01 1.32.51.22.51-.01 1.1-.51 1.32-8.16 3.58-13.63 11.63-13.63 20.03 0 7.92 4.3 15.25 11.22 19.12.48.27.65.88.38 1.36-.18.33-.52.51-.87.51z"/></g><g><path d="m25.99 20.29c-4.28 0-7.77-3.48-7.77-7.77v-2.93c0-4.28 3.48-7.77 7.77-7.77.55 0 1 .45 1 1s-.45 1-1 1c-3.18 0-5.77 2.59-5.77 5.77v2.94c0 3.18 2.59 5.77 5.77 5.77.55 0 1 .45 1 1s-.45.99-1 .99z"/></g><g><path d="m25.99 20.29c-4.28 0-7.77-3.48-7.77-7.77v-2.93c0-4.28 3.48-7.77 7.77-7.77.55 0 1 .45 1 1s-.45 1-1 1c-3.18 0-5.77 2.59-5.77 5.77v2.94c0 3.18 2.59 5.77 5.77 5.77.55 0 1 .45 1 1s-.45.99-1 .99z"/></g><g><path d="m10.86 43.51c-.46 0-.87-.32-.97-.78-.12-.53.21-1.06.74-1.19.13-.03 2.52-.73 3.58-5.11.13-.54.67-.87 1.21-.74s.87.67.74 1.21c-1.38 5.7-4.93 6.56-5.08 6.59-.08.02-.15.02-.22.02z"/></g><g><path d="m7.54 36.35c-.54 0-.88-.06-.93-.06-.54-.1-.91-.61-.81-1.16.09-.54.61-.9 1.15-.81.13.02 3.25.49 5.42-2.49.33-.45.95-.54 1.4-.22.45.33.54.95.22 1.4-2.14 2.92-4.99 3.34-6.45 3.34z"/></g><g><path d="m8.18 29.49c-1.6 0-2.78-.29-2.87-.31-.53-.13-.86-.68-.72-1.21.13-.54.67-.87 1.21-.73.03.01 3.5.84 6.27-.6.49-.25 1.09-.07 1.35.42.25.49.07 1.09-.42 1.35-1.64.85-3.39 1.08-4.82 1.08z"/></g><g><path d="m12.06 24.3c-4.22 0-6.04-2.93-6.13-3.07-.29-.47-.13-1.09.34-1.37.47-.29 1.08-.13 1.37.33.07.12 1.69 2.57 5.53 2.03.55-.08 1.05.3 1.13.85s-.3 1.05-.85 1.13c-.49.06-.96.1-1.39.1z"/></g><g><path d="m15.75 19.67c-.05 0-.1 0-.15-.01-4.63-.7-6.39-4.44-6.46-4.6-.23-.5-.01-1.1.49-1.32.5-.23 1.09-.01 1.32.49.07.14 1.42 2.92 4.94 3.45.55.08.92.59.84 1.14-.07.49-.49.85-.98.85z"/></g><g><path d="m18.85 16.49c-.1 0-.2-.01-.3-.05-4.48-1.42-5.3-5.77-5.33-5.95-.1-.54.27-1.06.81-1.16s1.06.27 1.16.81c.03.15.67 3.35 3.97 4.4.53.17.82.73.65 1.26-.14.42-.53.69-.96.69z"/></g><g><path d="m46.72 40.21c-.26 0-.52-.1-.71-.3-.39-.39-.38-1.03.01-1.41 2.88-2.83 4.46-6.6 4.46-10.64 0-4.63-2.51-9.17-6.7-12.15-.45-.32-.56-.94-.24-1.39s.94-.56 1.39-.24c4.72 3.35 7.55 8.51 7.55 13.78 0 4.58-1.8 8.86-5.06 12.07-.2.19-.45.28-.7.28z"/></g><g><path d="m46.72 48.85c-.35 0-.69-.18-.87-.51-.27-.48-.1-1.09.38-1.36 6.92-3.87 11.22-11.2 11.22-19.12 0-8.4-5.47-16.45-13.62-20.03-.51-.22-.74-.81-.51-1.32.22-.5.81-.73 1.32-.51 8.86 3.89 14.82 12.68 14.82 21.86 0 8.64-4.69 16.64-12.25 20.86-.16.09-.33.13-.49.13z"/></g><g><path d="m38.02 20.29c-.55 0-1-.45-1-1s.45-1 1-1c3.18 0 5.77-2.59 5.77-5.77v-2.93c0-3.18-2.59-5.77-5.77-5.77-.55 0-1-.45-1-1s.45-1 1-1c4.28 0 7.77 3.48 7.77 7.77v2.94c-.01 4.28-3.49 7.76-7.77 7.76z"/></g><g><path d="m38.02 20.29c-.55 0-1-.45-1-1s.45-1 1-1c3.18 0 5.77-2.59 5.77-5.77v-2.93c0-3.18-2.59-5.77-5.77-5.77-.55 0-1-.45-1-1s.45-1 1-1c4.28 0 7.77 3.48 7.77 7.77v2.94c-.01 4.28-3.49 7.76-7.77 7.76z"/></g><g><path d="m53.14 43.51c-.07 0-.14-.01-.22-.02-.15-.03-3.7-.89-5.08-6.59-.13-.54.2-1.08.74-1.21s1.08.2 1.21.74c1.07 4.41 3.48 5.09 3.59 5.11.53.14.86.67.73 1.21-.11.45-.52.76-.97.76z"/></g><g><path d="m56.46 36.35c-1.45 0-4.31-.42-6.45-3.34-.33-.45-.23-1.07.22-1.4s1.07-.23 1.4.22c2.18 2.98 5.29 2.51 5.42 2.49.54-.09 1.06.28 1.15.82s-.27 1.06-.81 1.15c-.05 0-.4.06-.93.06z"/></g><g><path d="m55.82 29.49c-1.42 0-3.18-.23-4.81-1.08-.49-.26-.68-.86-.42-1.35s.86-.68 1.35-.42c2.78 1.45 6.23.61 6.26.6.54-.13 1.08.19 1.21.72.13.54-.19 1.08-.72 1.21-.09.03-1.27.32-2.87.32z"/></g><g><path d="m51.94 24.3c-.44 0-.9-.03-1.39-.1-.55-.08-.93-.58-.85-1.13s.59-.92 1.13-.85c3.86.55 5.46-1.92 5.53-2.03.29-.47.91-.61 1.37-.33.47.29.62.89.33 1.37-.07.13-1.9 3.07-6.12 3.07z"/></g><g><path d="m48.25 19.67c-.49 0-.91-.36-.99-.85-.08-.55.29-1.06.84-1.14 3.53-.53 4.89-3.33 4.94-3.45.23-.5.83-.71 1.33-.49.5.23.72.82.49 1.32-.07.16-1.83 3.9-6.46 4.6-.05 0-.1.01-.15.01z"/></g><g><path d="m45.15 16.49c-.42 0-.82-.27-.95-.7-.17-.53.12-1.09.65-1.26 3.31-1.05 3.94-4.26 3.97-4.4.1-.54.63-.9 1.16-.8.54.1.9.61.81 1.16-.03.18-.85 4.53-5.33 5.95-.11.04-.21.05-.31.05z"/></g><g><path d="m41.68 48.14h-19.36c-.55 0-1-.45-1-1v-14.72c0-.55.45-1 1-1h19.36c.55 0 1 .45 1 1v14.72c0 .56-.45 1-1 1zm-18.36-2h17.36v-12.72h-17.36z"/></g><g><path d="m32.2 53.12h-9.88c-.55 0-1-.45-1-1s.45-1 1-1h9.88c.55 0 1 .45 1 1s-.44 1-1 1z"/></g><g><path d="m41.68 53.12h-5.57c-.55 0-1-.45-1-1s.45-1 1-1h5.57c.55 0 1 .45 1 1s-.45 1-1 1z"/></g><g><path d="m41.68 57.49h-10.9c-.55 0-1-.45-1-1s.45-1 1-1h10.91c.55 0 1 .45 1 1s-.46 1-1.01 1z"/></g><g><path d="m26.87 57.49h-4.55c-.55 0-1-.45-1-1s.45-1 1-1h4.55c.55 0 1 .45 1 1s-.44 1-1 1z"/></g><g><path d="m17.28 56.87h-10.49c-.55 0-1-.45-1-1v-7.41c0-.55.45-1 1-1h10.5c.55 0 1 .45 1 1v7.41c-.01.55-.45 1-1.01 1zm-9.49-2h8.5v-5.41h-8.5z"/></g><g><path d="m6.79 59.27c-.55 0-1-.45-1-1v-12.3c0-.55.45-1 1-1s1 .45 1 1v12.3c0 .55-.45 1-1 1z"/></g><g><path d="m57.22 56.87h-10.5c-.55 0-1-.45-1-1v-7.41c0-.55.45-1 1-1h10.5c.55 0 1 .45 1 1v7.41c0 .55-.45 1-1 1zm-9.5-2h8.5v-5.41h-8.5z"/></g><g><path d="m57.22 59.27c-.55 0-1-.45-1-1v-12.3c0-.55.45-1 1-1s1 .45 1 1v12.3c0 .55-.45 1-1 1z"/></g></svg>