<svg id="Capa_1" enable-background="new 0 0 512 512" height="512" viewBox="0 0 512 512" width="512" xmlns="http://www.w3.org/2000/svg"><g><path d="m173.17 353.417c-55.226-149.682-19.459-237.155-10.24-255.723-13.811-7.86-31.227-15.236-47.357-20.72-4.197 7.865-11.283 19.02-22.163 30.064-16.974 17.227-46.714 37.578-93.41 39.648v365.314h149.599c.77-82.25 17.774-140.921 23.571-158.583z"/><path d="m91.198 58.712-9.527-58.712h-81.671v116.656c62.474-3.384 86.147-46.822 91.198-57.944z"/><path d="m353.052 111.529-27.386 27.386c-9.28 9.28-11.975 22.646-8.101 34.307l-22.396 22.397c-7.52-37.768-31.306-69.404-72.456-78.534l-32.448-6.951c-37.014 72.289-12.619 172.531 14.866 243.028-18.796 49.825-24.999 106.066-25.529 158.84h126.07c.776-46.245.72-98.012-15.474-142.14-11.333-31.696-11.293-67.711-.007-99.361 3.653-11.276 5.995-22.904 7.014-34.49l41.574-41.575c11.661 3.874 25.026 1.18 34.307-8.101l27.386-27.386z"/><path d="m490.787 78.85 21.213-21.213-57.638-57.637-21.213 21.213 18.213 18.212-21.414 21.413-34.084-34.084-21.213 21.213 20.982 20.982-21.368 21.367 47.419 47.419 21.368-21.368 20.981 20.982 21.213-21.213-34.084-34.084 21.413-21.414z"/></g></svg>