<svg id="Layer_1_1_" enable-background="new 0 0 48 48" height="512" viewBox="0 0 48 48" width="512" xmlns="http://www.w3.org/2000/svg"><path d="m25 12c-1.105 0-2.105-.448-2.828-1.172-.724-.723-1.172-1.723-1.172-2.828 0-2.209 1.791-4 4-4s4 1.791 4 4-1.791 4-4 4zm-10.343 12 6.1-6.1-2.328-2.328c-.391-.391-.391-1.023 0-1.414s1.023-.391 1.414 0l5.843 5.842h3.551c.444-.765.346-1.759-.309-2.415l-6.757-6.757c-1.562-1.562-4.095-1.562-5.657 0l-8.514 8.515c-1.262 1.262-1.486 3.151-.708 4.657zm-12.657 6h21.556c-.344-.591-.556-1.268-.556-2 0-2.206 1.794-4 4-4h8c.553 0 1 .447 1 1s-.447 1-1 1h-8c-1.103 0-2 .897-2 2s.897 2 2 2h9c2.209 0 4-1.791 4-4s-1.791-4-4-4h-13c-2.209 0-4 1.791-4 4h-17c-1.105 0-2 .895-2 2s.895 2 2 2zm42 0c2.209 0 4-1.791 4-4s-1.791-4-4-4-4 1.791-4 4 1.791 4 4 4zm3 2h-46c-.553 0-1 .447-1 1v2c0 .553.447 1 1 1h1v7c0 .553.447 1 1 1h42c.553 0 1-.447 1-1v-7h1c.553 0 1-.447 1-1v-2c0-.553-.447-1-1-1z"/></svg>