<?xml version="1.0"?>
<svg xmlns="http://www.w3.org/2000/svg" viewBox="0 0 64 64" width="512" height="512"><g id="Outline"><g><path d="M55.94,48.51a28,28,0,0,0,.82-27.57l2.6-1A1,1,0,0,0,60,19V14a1,1,0,0,0-2,0v4.32l-2.25.87A28,28,0,0,0,24.74,7a1,1,0,1,0,.52,1.93,26,26,0,0,1,28.59,11L51,21A23,23,0,0,0,24.68,12.2a1,1,0,0,0-.63,1.27,1,1,0,0,0,1.27.62,21,21,0,0,1,23.74,7.7l-8.42,3.28A1,1,0,0,0,41,27a.92.92,0,0,0,.36-.07l8.8-3.42A20.87,20.87,0,0,1,50.46,44H49V41a3,3,0,0,0-3-3H44a4.92,4.92,0,0,0,1-3,5,5,0,0,0-5-5H38.92A6.63,6.63,0,0,0,39,29a7,7,0,0,0-14,0,6.63,6.63,0,0,0,.08,1H24a5,5,0,0,0-5,5,4.92,4.92,0,0,0,1,3H18a3,3,0,0,0-3,3v3H13.54A21,21,0,0,1,11,34a20.78,20.78,0,0,1,1.85-8.59,1,1,0,0,0-.5-1.32,1,1,0,0,0-1.33.5A23,23,0,0,0,12.08,45.5,1,1,0,0,0,13,46H35a1,1,0,0,0,0-2H17V41a1,1,0,0,1,1-1H46a1,1,0,0,1,1,1v3H39a1,1,0,0,0,0,2h12a1,1,0,0,0,.87-.5A23.06,23.06,0,0,0,55,34a22.81,22.81,0,0,0-2.94-11.23l2.83-1.1a26,26,0,1,1-47.4,3.66,1,1,0,0,0-.6-1.27,1,1,0,0,0-1.28.61A27.91,27.91,0,0,0,8.06,48.51,9,9,0,0,0,2,57v4a1,1,0,0,0,2,0V57a7,7,0,0,1,5.21-6.76,28,28,0,0,0,45.58,0A7,7,0,0,1,60,57v4a1,1,0,0,0,2,0V57A9,9,0,0,0,55.94,48.51ZM32,24a5,5,0,1,1-5,5A5,5,0,0,1,32,24ZM21,35a3,3,0,0,1,3-3h1.69a7,7,0,0,0,1.54,2.11A3,3,0,0,0,25,37v1H24A3,3,0,0,1,21,35Zm6,3V37a1,1,0,0,1,1-1h8a1,1,0,0,1,1,1v1Zm12,0V37a3,3,0,0,0-2.23-2.89A7,7,0,0,0,38.31,32H40a3,3,0,0,1,0,6Z"/><path d="M24,51a3,3,0,1,0-3,3A3,3,0,0,0,24,51Zm-4,0a1,1,0,1,1,1,1A1,1,0,0,1,20,51Z"/><path d="M32,50a1,1,0,0,0,0-2,3,3,0,0,0,0,6,1,1,0,0,0,0-2,1,1,0,0,1,0-2Z"/><path d="M46,51a3,3,0,1,0-3,3A3,3,0,0,0,46,51Zm-4,0a1,1,0,1,1,1,1A1,1,0,0,1,42,51Z"/><path d="M61,2H51a1,1,0,0,0-1,1V7a1,1,0,0,0,1,1H61a1,1,0,0,0,1-1V3A1,1,0,0,0,61,2ZM60,6H52V4h8Z"/><path d="M61,10H56a1,1,0,0,0,0,2h5a1,1,0,0,0,0-2Z"/><path d="M3,22H21a1,1,0,0,0,1-1V3a1,1,0,0,0-1-1H3A1,1,0,0,0,2,3V21A1,1,0,0,0,3,22ZM4,4H20V20H4Z"/><path d="M18.88,9.61a3.49,3.49,0,0,0-2.26-2.43A3.91,3.91,0,0,0,15.74,7,2,2,0,0,0,14,6H13a2,2,0,0,0-1,.28A2,2,0,0,0,11,6H10A2,2,0,0,0,8.26,7a3.91,3.91,0,0,0-.88.17A3.49,3.49,0,0,0,5.12,9.61a3.42,3.42,0,0,0,.13,2.19A3.07,3.07,0,0,0,5,13a3,3,0,0,0,2.76,3A3,3,0,0,0,10,17h.21a2.93,2.93,0,0,0,1.79-.8,2.92,2.92,0,0,0,1.78.8H14a3,3,0,0,0,2.24-1A3,3,0,0,0,19,13a3.07,3.07,0,0,0-.25-1.2A3.42,3.42,0,0,0,18.88,9.61ZM10.07,15a1,1,0,0,1-.94-.52A1,1,0,0,0,8.26,14H8.13L8,14a1,1,0,0,1-1-1H8a1,1,0,0,0,0-2H7.1a1.44,1.44,0,0,1,0-.89h0a1.52,1.52,0,0,1,1-1A1.56,1.56,0,0,1,8.81,9,1,1,0,0,0,10,8h1v2a1,1,0,0,0,0,2v1.87A1.1,1.1,0,0,1,10.07,15ZM16,14l-.14,0a1,1,0,0,0-1,.5,1,1,0,0,1-.94.52A1.1,1.1,0,0,1,13,13.87V12a1,1,0,0,0,0-2V8h1a1,1,0,0,0,1.2,1,1.56,1.56,0,0,1,.8.05,1.52,1.52,0,0,1,1,1h0a1.44,1.44,0,0,1-.05.89H16a1,1,0,0,0,0,2h1A1,1,0,0,1,16,14Z"/><path d="M17,27V24a1,1,0,0,0-2,0v4a1,1,0,0,0,1,1h6a1,1,0,0,0,0-2Z"/></g></g></svg>
