<svg id="Layer_1" enable-background="new 0 0 513.417 513.417" height="512" viewBox="0 0 513.417 513.417" width="512" xmlns="http://www.w3.org/2000/svg"><path d="m86.133 119.227c-19.384-8.282-39.303-8.382-55.453-.099-17.488 8.969-28.541 27.364-30.265 44.861-4.359 44.788 27.057 73.764 27.057 100.135 0 15.445 13.921 52.073.048 230.931-.72 9.287 6.628 17.237 15.952 17.237h62.017c8.194 0 15.064-6.191 15.914-14.342 10.339-99.219 12.142-168.674 5.914-235.39 108.161-43.618 50.321-163.951-41.184-143.333z"/><path d="m72.814 98.708c19.293 9.974 43.767 2.606 64.258-6.244 18.588-8.025 20.523-32.328 4.783-43.352 11.091-5.337 16.884-17.499 13.591-29.285.847 0-6.008-19.061-25.76-18.697-38.85.717-80.526 22.259-80.644 59.689-.003 1.133.113 2.262.348 3.369 3.541 16.701 11.422 28.316 23.424 34.52z"/><path d="m501.162 25.725c-6.192-6.096-14.222-11.149-23.872-15.021-5.844-2.343-12.431-3.073-19.046-2.114-86.814 12.59-170.467-2.43-258.727-6.446-16.557-.746-30.203 12.032-29.184 27.56-2.379 16.402-4.875 36.389 10.925 41.612 83.822 27.717 211.944 20.846 306.123 15.718 10.988-.599 19.903-7.181 23.847-17.607 5.222-13.806.8-33.003-10.066-43.702z"/><path d="m289.47 125.43c-1.879.97-4.221.349-4.702-.169l-10.281-12.352c-11.724-14.085-33.113-17.759-49.751-8.542-22.825 12.64-21.112 11.746-21.212 11.746-18.182 10.071-19.808 34.055-3.193 46.085 31.801 23.026 22.366 60.325-2.583 91.069-9.526 11.738-9.941 27.725-1.031 39.78 9.964 13.479 16.9 58 40.275 74.503 27.231 19.226 66.807 17.713 92.078-3.069 53.111-43.679 106.871-122.708 132.706-160.688.744-1.094 1.35-2.276 1.803-3.52 30.849-84.623-76.197-125.381-174.109-74.843zm99.463 79.387c-14.17 21.897-38.863 55.847-61.819 79.46-3.137 3.227-7.304 4.848-11.474 4.848-14.069 0-21.304-17.037-11.471-27.152 19.963-20.535 43.464-52.234 57.899-74.54 4.801-7.42 14.706-9.543 22.125-4.74 7.419 4.8 9.541 14.706 4.74 22.124z"/></svg>