<svg id="Capa_1" enable-background="new 0 0 593.686 593.686" height="512" viewBox="0 0 593.686 593.686" width="512" xmlns="http://www.w3.org/2000/svg"><g><g><path d="m322.101 94.697v-7.402c0-2.131-1.854-3.864-4.141-3.864h-16.253v15.134h16.253c2.287.001 4.141-1.737 4.141-3.868z"/><path d="m301.711 65.256h6.822v8.443h-6.822z"/><path d="m322.101 52.458v-10.458c0-1.693-1.489-3.066-3.314-3.066h-17.076v16.589h17.076c1.825.001 3.314-1.376 3.314-3.065z"/><path d="m301.711 19.158h6.822v10.044h-6.822z"/><path d="m308.534 108.298h-6.823v9.864l6.823-1.562z"/><path d="m308.534 225.151c-2.326-.555-4.608-1.124-6.822-1.703v8.316c2.161.925 4.438 1.835 6.822 2.73z"/><path d="m322.101 133.223v-5.153c0-1.44-.847-2.331-1.353-2.735-.968-.764-2.219-1.046-3.44-.764l-15.601 3.577v14.861l17.913-6.423c1.488-.531 2.481-1.879 2.481-3.363z"/><path d="m308.534 264.037c-2.346-.934-4.633-1.878-6.822-2.827v17.703c2.122 1.153 4.409 2.297 6.822 3.436z"/><path d="m445.771 222.952c.005 0 .005-.005.01-.01.078-.039.161-.024.243-.058 6.594-1.781 11.703-4.151 14.759-7.192 4.17-4.151 5.985-9.246 5.241-14.74-.939-6.964-5.951-13.864-13.144-18.307-2.793-.078-5.708-.146-8.73-.195 3.363 4.01 5.796 8.657 6.599 13.173.929 5.192-.423 9.737-3.801 12.788-6.263 5.655-22.866 7.966-42.434 7.966-24.258 0-53.013-3.562-72.332-8.706-8.112 1.119-16.462 1.684-25.081 1.684-1.776 0-3.596-.092-5.392-.136v4.146c46.772 12.837 112.519 17.995 144.062 9.587z"/><path d="m316.816 173.754c3.002-11.567.117-20.589-1.985-25.11l-13.119 4.706v41.738c5.493-4.375 12.574-11.607 15.104-21.334z"/><path d="m322.101 1.781v-1.781h-20.39v9.426h12.355c4.429 0 8.035-3.431 8.035-7.645z"/><path d="m535.86 186.28c17.11-3.387 21.158-11.543 22.098-14.769-7.737-12.506-22.122-24.414-39.601-35.601-8.049-1.961-78.736-18.706-125.865-13.674-39.65 4.209-56.239 11.436-61.047 13.986-.939 3.951-3.679 7.314-7.484 9.056.871 1.985 1.781 4.448 2.501 7.367 10.857-4.54 35.971-13.854 68.643-18.346 43.348-5.961 118.099 12.458 121.262 13.246 2.263.564 3.81 2.657 3.684 4.988s-1.893 4.243-4.209 4.56c-34.633 4.676-68.161 7.625-100.376 8.866-.175.019-.345.063-.516.063-.078 0-.146-.024-.224-.029-11.324.428-22.487.652-33.47.652-.365 0-.71-.019-1.075-.019-.107.005-.214.044-.321.044-.156 0-.302-.044-.453-.058-17.679-.039-34.852-.686-51.587-1.835-.068 3.543-.526 7.363-1.582 11.436-.423 1.63-.968 3.183-1.562 4.691 6.467-2.234 14.385-4.584 21.66-5.655 11.377-1.674 70.648-3.509 108.045-2.307.18.005.35-.01.53.015 12.477.414 22.463 1.168 27.304 2.384 5.776 1.455 10.891 3.538 15.844 5.548 10.959 4.446 21.324 8.656 37.801 5.391z"/><path d="m316.354 194.484c-1.601 1.869-3.246 3.562-4.866 5.061 24.394-.589 46.458-6.083 66.828-16.453-14.506.472-26.049 1.11-30.56 1.776-12.331 1.815-27.46 7.957-31.402 9.616z"/><path d="m391.936 144.625c-18.91 2.929-35.149 7.494-46.891 11.47 10.915.496 22.029.764 33.334.803 5.435-3.456 9.937-7.578 13.557-12.273z"/><path d="m385.454 87.602c2.229 3.363 4.054 7.509 4.453 12.419.418 5.148-.394 9.465-1.601 12.91 1.066-.122 2.058-.253 3.158-.37 31.665-3.367 72.332 2.438 99.719 7.596-12.75-6.808-26-13.28-38.837-19.392-21.373-6.555-44.234-10.963-66.892-13.163z"/><path d="m474.317 231.151c4.905-16.511 12.535-29.976 22.905-40.112-.949-.38-1.893-.759-2.832-1.144-4.857-1.976-9.441-3.839-14.555-5.129-2.346-.589-6.375-1.056-11.538-1.416 3.961 4.871 6.589 10.467 7.377 16.297 1.114 8.248-1.562 16.146-7.494 22.355 2.341 2.774 4.39 5.869 6.137 9.149z"/><path d="m318.266 29.202h.521c7.197 0 13.046 5.742 13.046 12.798v10.453c0 7.056-5.854 12.798-13.046 12.798h-.521v8.477c3.528.078 6.72 1.45 9.129 3.659 4.944-.438 9.942-.769 15.003-.959.097-.01.19 0 .287-.005 22.36-.813 45.66.842 68.721 4.759-17.591-8.769-30.847-16.438-36.915-23.655-17.738-21.084-18.482-46.393-17.781-57.527h-24.876v1.781c0 8.161-5.801 14.978-13.567 16.832z"/><path d="m318.266 114.736c3.085 0 6.088 1.027 8.55 2.988 2.487 1.981 4.112 4.715 4.72 7.732 2.423-1.022 5.562-2.185 9.455-3.401 2.204-2.803 5.796-8.141 7.543-13.533-10.18-.443-20.341-.584-30.268-.229z"/><path d="m354.919 118.361c6.127-1.382 13.368-2.73 21.854-3.956 1.411-1.961 4.005-6.603 3.436-13.596-.608-7.465-6.754-12.599-9.139-14.331-5.99-.326-11.922-.462-17.796-.457 2.91 4.253 5.664 9.742 5.971 15.81.034.691.019 1.382-.01 2.068 0 .083.039.156.034.238-.005.063-.039.112-.044.17-.296 4.979-2.15 9.894-4.306 14.054z"/><path d="m331.245 98.41c5.859-.005 11.737.131 17.65.389-1.611-5.523-5.805-10.375-7.951-12.584-3.1.127-6.112.399-9.153.628.005.156.049.302.049.457v7.402c-.007 1.294-.25 2.521-.595 3.708z"/><path d="m430.691 155.505c17.971-.988 36.346-2.501 55.076-4.545-13.377-2.54-30.005-5.246-46.453-6.803-2.341 4.171-5.222 7.962-8.623 11.348z"/><path d="m428.345 143.301c-8.38-.501-16.487-.594-23.883-.122-2.754 5.012-6.219 9.557-10.385 13.611 6.428-.097 12.91-.253 19.455-.492 6.181-3.508 11.1-7.785 14.813-12.997z"/><path d="m322.101 365.936v-3.63c-7.358-3.299-14.229-6.852-20.39-10.584v20.755h13.489c3.806-.001 6.901-2.935 6.901-6.541z"/><path d="m433.236 384.914c-.404.131-.886.229-1.324.346 3.99 6.428 5.674 14.209 4.297 21.616-1.723 9.265-8.029 16.419-17.314 19.621-6.321 2.18-13.64 3.148-21.553 3.148-26.998 0-60.896-11.265-85.811-24.025-.029-.01-.054-.029-.083-.044-3.44-1.762-6.691-3.547-9.742-5.343v9.791c34.185 24.18 103.748 39.309 130.415 27.986 7.859-3.338 13.29-10.701 15.304-20.735 2.433-12.132-.881-25.348-8.409-34.716-1.829.876-3.736 1.689-5.78 2.355z"/><path d="m442.934 343.537c.18 4.925-1.085 9.586-3.815 13.494-2.983 4.263-9.105 9.601-21.338 10.784-.798.078-1.679.117-2.633.117-19.008 0-68.619-14.92-103.442-31.888-.18-.068-.341-.161-.511-.248-3.304-1.62-6.496-3.251-9.489-4.895v9.295c7.752 5.26 16.92 10.117 26.798 14.453.238.078.453.17.672.287 32.774 14.253 72.809 22.823 92.814 21.947.136-.015.263-.015.399-.019 3.148-.161 5.81-.545 7.82-1.202 15.66-5.124 23.295-17.922 20.394-33.29-2.325.532-4.919.897-7.669 1.165z"/><path d="m453.377 288.943c1.742 4.818 2.083 9.533.861 13.694-1.071 3.65-3.898 8.749-11.309 12.302-5.494 2.638-13.591 3.796-23.28 3.796-30.662 0-77.242-11.582-107.855-24.355-.2-.073-.384-.151-.569-.248-3.397-1.431-6.569-2.871-9.518-4.311v9.119c40.21 23.455 125.943 42.336 150.654 32.818 13.557-5.226 16.978-16.161 17.815-22.214 1.236-8.978-1.557-18.063-7.032-23.621-2.779 1.277-6.063 2.28-9.767 3.02z"/><path d="m422.759 450.404c.36 9.202-3.961 21.314-26.691 26.774-3.163.759-7.066 1.124-11.479 1.124-23.387 0-61.383-10.253-82.877-26.604v12.677c28.195 16.808 82.531 28.404 104.235 21.913 10.346-3.095 17.854-8.978 21.703-17.008 2.954-6.17 3.484-13.197 1.64-20.166-2.059.517-4.229.955-6.531 1.29z"/><path d="m308.534 313.493c-2.38-1.134-4.647-2.282-6.822-3.436v9.655c2.17 1.294 4.453 2.579 6.822 3.849z"/><path d="m575.972 165.014c-17.523-34.142-82.818-66.254-130.493-89.699-25.757-12.667-46.108-22.672-53.314-30.214-15.484-16.205-17.329-35.695-17.188-45.101h-8.482c-.613 9.251-.302 32.545 15.441 51.266 7.625 9.066 33.918 21.48 61.753 34.623 25.825 12.195 54.95 25.991 79.106 41.387.219.131.443.243.637.404 19.226 12.326 35.139 25.684 43.601 40.108.258.37.511.74.657 1.173.555.998 1.197 1.981 1.674 2.988 4.141 8.677 7.285 25.309 9.655 47.149.049.219.058.438.073.667 11.406 106.566 4.428 335.464 3.144 373.917h8.852c1.264-43.943 10.053-379.621-15.116-428.668z"/><path d="m507.728 194.752c-14.253 11.903-23.309 29.538-27.567 53.894.545 3.616.715 7.236.414 10.73-.725 8.404-4.039 15.63-9.416 20.935 6.871 7.728 10.248 19.081 8.667 30.565-.448 3.251-1.299 6.316-2.462 9.202v273.604h12.618v-318.389c0-30.842 8.92-56.653 27.163-78.59-3.339-.428-6.463-1.1-9.417-1.951z"/><path d="m454.18 230.353c3.158 10.122 3.917 25.319-9.436 32.755-4.01 2.234-11.45 3.221-21.037 3.221-29.353 0-78.799-9.265-111.768-20.355-.214-.068-.423-.117-.623-.209-3.387-1.148-6.628-2.311-9.616-3.489v8.268c4.248 1.956 8.788 3.864 13.572 5.718.01.005.015.005.024.01 41.047 15.898 99.023 27.411 129.675 24.253.448-.117.886-.146 1.338-.131 6.37-.764 11.465-2.204 14.857-4.419 7.183-4.686 9.236-12.068 9.703-17.436.9-10.414-3.411-22.55-10.633-30.779-1.842.943-3.861 1.81-6.056 2.593z"/><path d="m562.931 182.396c-4.107 5.192-11.543 10.73-25.178 13.431-2.72.54-5.265.866-7.723 1.085-10.068 10.594-17.625 22.21-22.647 35.056 15.518 103.291 19.796 237.974 11.509 361.717h26.044c-.886-142.42.526-277.891 24.497-374.116-1.719-15.8-3.855-28.574-6.502-37.173z"/><path d="m308.553 569.004c-1.226-5.762-1.343-11.329-.302-16.638h-6.545v16.638c1.636.005 3.869 0 6.847 0z"/><path d="m308.534 478.911c-2.394-1.1-4.647-2.229-6.822-3.372v16.243c1.64.774 3.942 1.825 6.822 3.051z"/><path d="m308.534 425.679c-2.365-1.285-4.638-2.608-6.822-3.966v16.969c1.985 2.097 4.263 4.107 6.822 6.01z"/><path d="m384.861 497.811c-2.102 6.857-8.02 15.65-21.256 17.893-2.774.472-5.684.686-8.672.686-19.343 0-41.962-8.871-53.222-13.888v8.355c18.735 13.431 54.429 18.93 76.585 11.45 16.9-5.703 24.764-14.015 23.971-25.309-3.869.608-8.093.929-12.652.929-1.547.001-3.148-.053-4.754-.116z"/><path d="m308.534 382.209h-6.822v6.594c2.131 1.367 4.409 2.74 6.822 4.107z"/><path d="m314.957 578.722c-.005 0-.01 0-.015 0s-.01 0-.015 0-.01 0-.015 0c-6.029.015-10.224.024-13.207-.01v14.969h20.39v-8.175c0-1.747-.701-3.406-1.966-4.672-1.357-1.363-3.196-2.112-5.172-2.112z"/><path d="m372.14 533.831c-1.985 4.307-5.908 8.273-11.421 11.387-1.465.827-2.487 2.146-2.876 3.718-.38 1.513-.122 3.075.725 4.409 1.684 2.638 5.241 3.591 8.287 2.234 13.689-6.146 21.825-15.64 24.477-28.176-2.92 1.474-6.185 2.866-9.922 4.127-2.905.982-6.043 1.703-9.27 2.301z"/><path d="m301.711 542.634h13.003c4.073 0 7.387-3.144 7.387-7.012v-4.876c-7.44-2.127-14.36-4.973-20.39-8.404z"/><path d="m201.525 45.1c-7.207 7.543-27.557 17.548-53.314 30.214-12.9 6.346-27.095 13.329-41.28 20.813 8.808 4.19 23.64 10.258 38.219 11.655 9.567.915 18.399.044 26.939-.798 12.234-1.207 24.876-2.453 38.75 1.859 23.319 7.251 38.92 25.791 39.572 26.575 1.718 2.063 1.431 5.129-.628 6.847-.91.754-2.015 1.124-3.11 1.124-1.397 0-2.779-.599-3.742-1.747-.141-.17-14.487-17.134-34.979-23.509-11.99-3.732-23.119-2.633-34.906-1.47-9.003.891-18.307 1.805-28.818.803-20.652-1.981-40.935-12.039-47.777-15.713-34.541 18.915-67.125 40.638-78.736 63.261-25.17 49.047-16.382 384.725-15.117 428.667h93.67v-334.495c-4.871-7.256-10.419-14.239-16.686-20.91-1.839-1.961-1.742-5.041.214-6.881 1.961-1.835 5.037-1.742 6.881.214 6.968 7.426 13.071 15.231 18.419 23.343.195.292.414.555.545.886 14.336 22.059 22.764 46.536 24.939 73.159.336 4.102 2.243 8.122 5.372 11.319l9.616 9.825c3.338 3.406 7.835 5.538 12.672 6l108.97 10.458c2.676.258 4.638 2.637 4.38 5.309-.243 2.516-2.36 4.399-4.842 4.399-.156 0-.311-.005-.472-.019l-108.97-10.458c-7.119-.681-13.757-3.839-18.696-8.886l-9.616-9.82c-4.715-4.818-7.601-10.973-8.117-17.338-1.562-19.09-6.623-36.979-14.881-53.631v317.527h185.978v-593.682h-73.261c.141 9.406-1.708 28.896-17.188 45.1zm-30.482 274.626c-9.81 0-17.762-6.545-17.762-14.623s7.951-14.623 17.762-14.623c9.81 0 17.762 6.545 17.762 14.623s-7.952 14.623-17.762 14.623z"/></g></g></svg>