<svg id="Layer_1" enable-background="new 0 0 52 52" height="512" viewBox="0 0 52 52" width="512" xmlns="http://www.w3.org/2000/svg"><g id="_x38_"><path d="m47.8 30.4c.1-4-.5-6.9-.9-8.6-.2-.9-.4-1.8-.4-2.8 0-10.1-9.3-11.1-10.3-11.2-4.8-.9-5.7-3.6-5.8-3.7-.2-.5-.7-.8-1.2-.7-.5.2-.8.7-.7 1.2 0 .2 1.2 4 7.4 5.1h.1c.3 0 8.5.5 8.5 9.2 0 1.2.1 2.3.4 3.3.4 1.6.9 4.3.9 8 0 1.2.1 2.4.5 3.5.7 2.4 2.3 8.5 1.5 13.7-.1.6.4 1.2 1 1.2.5 0 .9-.3 1-.8.9-5.3-.6-11.4-1.5-14.6-.4-.9-.5-1.8-.5-2.8z"/><path d="m39.8 27.4s.3-2 1.2-4.2c.2-.5-.1-1.1-.6-1.3s-1.1.1-1.3.6c-.8 2.1-1.1 3.9-1.2 4.5-.5 1-3.5 8.8.4 21 .2.5.7.8 1.3.6.5-.2.8-.7.6-1.3-2.1-6.6-2.1-11.9-1.6-15.3.7 2.1 1.6 3.8 1.6 3.9.3.5.9.7 1.3.4.5-.3.7-.9.4-1.3-.6-1.3-2.3-5.2-2.1-7.6z"/><path d="m12.9 22.4c-.2-.5-.8-.8-1.3-.6s-.8.8-.6 1.3c.8 2.3 1.2 4.2 1.2 4.2.3 2.9-2.2 7.7-2.2 7.8-.3.5-.1 1.1.4 1.3.5.3 1.1.1 1.3-.4.1-.1.9-1.8 1.6-4 .5 3.4.6 8.6-1.6 15.3-.2.5.1 1.1.6 1.3s1.1-.1 1.3-.6c3.9-12.2.9-19.9.4-21 0-.6-.3-2.4-1.1-4.6z"/><path d="m23.4 4.7c.2-.5-.1-1.1-.7-1.2-.5-.2-1.1.1-1.2.7 0 .1-1 2.8-5.8 3.7-.9 0-10.3 1-10.3 11.1 0 1-.1 1.9-.4 2.8-.5 1.7-1 4.6-.9 8.6 0 1-.1 2-.4 2.9-.9 3.1-2.4 9.2-1.5 14.6.1.5.5.8 1 .8.6 0 1.1-.6 1-1.2-.8-5.1.8-11.3 1.5-13.7.3-1.1.5-2.3.5-3.5-.1-3.7.4-6.4.9-8 .3-1.1.4-2.2.4-3.3 0-8.7 8.2-9.2 8.5-9.2h.1c6.1-1.2 7.3-5 7.3-5.1z"/><path d="m30.8 18.5h1.2c1.1 0 2.1-.8 2.2-1.9.2-1.4-.8-2.7-2.2-2.7h-1.3v-1.1c0-.4-.2-.7-.5-.9s-.7-.2-1 0c-2.7 1.4-4 1.4-6.7 0-.3-.2-.7-.2-1 0s-.5.5-.5.9v1.1h-1.3c-1.3 0-2.4 1.3-2.2 2.7.2 1.1 1.1 1.9 2.2 1.9h1.2c0 .1 0 2.2 0 2.1h-1.3c-.6 0-1.2.3-1.6.8-.5.5-.6 1.2-.5 1.9.2 1.1 1.1 1.9 2.2 1.9h1.2c0 .1 0 2.2 0 2.1h-1.3c-.6 0-1.2.3-1.6.8-.5.5-.6 1.2-.5 1.9.2 1.1 1.1 1.9 2.2 1.9h1.2c0 .1 0 2.2 0 2.1h-1.3c-1.3 0-2.4 1.3-2.2 2.7.2 1.1 1.1 1.9 2.2 1.9h1.2c0 .1 0 2.2 0 2.1h-1.3c-.6 0-1.2.3-1.6.8-.5.5-.6 1.2-.5 1.9.2 1.1 1.1 1.9 2.2 1.9h1.2v1.1c0 .4.2.7.5.9 3.3 1.8 5.4 1.8 8.6 0 .3-.2.5-.5.5-.9v-1.1h1.6c1.1 0 2.1-.8 2.2-1.9.2-1.4-.8-2.7-2.2-2.7h-1.3c0-.1 0-2.2 0-2.1h1.3c1.1 0 2.1-.8 2.2-1.9.1-.7-.1-1.4-.5-1.9s-1-.8-1.6-.8h-1.3c0-.1 0-2.2 0-2.1h1.2c1.1 0 2.1-.8 2.2-1.9.1-.7-.1-1.4-.5-1.9s-1-.8-1.6-.8h-1.3c0-.1 0-2.2 0-2.1h1.2c1.1 0 2.1-.8 2.2-1.9.2-1.4-.8-2.7-2.2-2.7h-1.3v-1-1.1zm-10.8-2c-.1 0-.2-.1-.2-.2 0-.2.1-.4.2-.4h1.6c.8 0 1.5-.6 1.6-1.5 2 .8 3.7.8 5.7 0 .1.8.8 1.5 1.6 1.5h1.6c.1 0 .2.2.2.4s-.2.2-.2.2h-1.5c-.9 0-1.6.8-1.6 1.7v.7c-2.1 1.1-3.4 1.1-5.7 0v-.7c0-.9-.7-1.7-1.6-1.7zm12.1 26.3s.1 0 0 0c.2.1.2.3.2.4 0 .2-.2.2-.2.2h-1.5c-.9 0-1.6.8-1.6 1.7v.7c-2.2 1.1-3.5 1.1-5.7 0v-.7c0-.9-.7-1.7-1.6-1.7h-1.7c-.1 0-.2-.1-.2-.2 0-.2.1-.4.2-.4h1.6c.8 0 1.5-.6 1.6-1.5 2 .8 3.7.8 5.7 0 .1.8.8 1.5 1.6 1.5zm0-6.8s.1.1 0 0c.2.1.2.3.2.4 0 .2-.2.2-.2.2h-1.5c-.9 0-1.6.8-1.6 1.7v.7c-2.2 1.1-3.5 1-5.7 0v-.7c0-.9-.7-1.7-1.6-1.7h-1.7c-.1 0-.2-.1-.2-.2 0-.2.1-.4.2-.4h1.6c.8 0 1.5-.6 1.6-1.5 2 .8 3.6.9 5.7 0 .1.8.8 1.5 1.6 1.5zm0-6.7s.1.1 0 0c.2.1.2.3.2.4 0 .2-.2.2-.2.2h-1.5c-.9 0-1.6.8-1.6 1.7v.7c-2.2 1.1-3.5 1-5.7 0v-.7c0-.9-.7-1.7-1.6-1.7h-1.7c-.1 0-.2-.1-.2-.2 0-.2.1-.4.2-.4h1.6c.8 0 1.5-.6 1.6-1.5 2.1.9 3.8.8 5.7 0 .1.8.8 1.5 1.6 1.5zm0-6.7s.1.1 0 0c.2.1.2.3.2.4 0 .2-.2.2-.2.2h-1.5c-.9 0-1.6.8-1.6 1.7v.7c-2.1 1.1-3.4 1.1-5.7 0v-.7c0-.9-.7-1.7-1.6-1.7h-1.7c-.1 0-.2-.1-.2-.2 0-.2.1-.4.2-.4h1.6c.8 0 1.5-.6 1.6-1.5 2 .8 3.7.8 5.7 0 .1.8.8 1.5 1.6 1.5z"/></g></svg>