<svg id="Capa_1" enable-background="new 0 0 503.443 503.443" height="512" viewBox="0 0 503.443 503.443" width="512" xmlns="http://www.w3.org/2000/svg"><g><g id="Page-1_74_"><g id="_x30_75---Neck-Injection"><g id="Path_390_"><path clip-rule="evenodd" d="m374.813 132.742 16.465 7.186c4.549 1.984 6.628 7.281 4.644 11.83s-7.281 6.628-11.83 4.644l-16.465-7.186-7.186 16.474 24.702 10.779c3.904 1.698 6.08 5.904 5.21 10.072s-4.546 7.152-8.803 7.148c-1.237.005-2.46-.249-3.593-.746l-24.711-10.779-7.186 16.474 16.474 7.186c4.549 1.984 6.628 7.281 4.644 11.83s-7.281 6.628-11.83 4.644l-16.474-7.186-7.186 16.474 24.702 10.779c4.549 1.984 6.628 7.281 4.644 11.83s-7.281 6.628-11.83 4.644l-24.504-10.717c-3.669 8.719-3.83 18.517-.449 27.352 3.385 8.926 10.238 16.103 18.998 19.896 18.445 7.793 39.717-.814 47.553-19.24l57.075-131.144-65.886-28.672z" fill-rule="evenodd"/></g><g id="Path_389_"><path clip-rule="evenodd" d="m377.876 487.325-64.494-53.176c-5.203-4.354-10.095-9.066-14.641-14.102l32.157-73.926c6.172-.415 11.604-4.221 14.102-9.881l8.803-20.211c-12.348-.682-24.029-5.821-32.876-14.462l-8.893 20.39c-1.8 4.124-1.8 8.811 0 12.935.592 1.466 1.41 2.83 2.425 4.042l-28.385 65.302c-4.042-5.659-7.815-11.138-10.869-16.168-10.929-17.767-16.857-38.157-17.156-59.015-.09-2.695 0-5.479.18-8.174.802-8.854 2.182-17.645 4.132-26.319 2.825-11.18 4.095-22.696 3.773-34.223-3.952-48.865-51.919-93.507-104.825-97.37-46.888-3.234-91.262 22.366-120.095 44.553-33.206 23.497-48.348 65.129-37.996 104.467 1.041 5.96 1.522 12.005 1.437 18.055-.197 3.579.045 7.169.719 10.689 1.744.891 3.582 1.584 5.479 2.066 6.8 1.315 12.679 5.552 16.079 11.587 1.407 3.187 1.964 6.684 1.617 10.15-.045.568-.045 1.139 0 1.707 2.998 9.618 3.029 19.916.09 29.552-3.365 9.311-6.037 18.859-7.994 28.564.947.258 1.906.468 2.874.629 1.572.267 3.166.388 4.761.359 7.672-.667 15.216 2.29 20.39 7.994 3.008 4.259 4.638 9.338 4.671 14.552-.014 2.071-.134 4.139-.359 6.198 3.234.808 6.467 1.437 6.557 1.437 2.343.553 4.394 1.963 5.749 3.952 1.27 2.067 1.689 4.547 1.168 6.916l-.269 1.078c6.132.139 11.914 2.883 15.899 7.545 2.945 3.713 4.838 8.149 5.479 12.845.544 4.493 2.641 8.655 5.928 11.767 1.188 1.672 2.993 2.802 5.016 3.139s4.097-.146 5.763-1.342c13.997-10.919 27.343-22.646 39.972-35.121.18-.18.269-.359.449-.539 4.491-4.132 8.533-8.084 11.767-11.228 3.683-3.503 6.378-6.108 7.815-7.366 19.761-17.875 18.414-27.037 16.887-30.091-1.412-2.888-1.176-6.31.619-8.977s4.877-4.174 8.084-3.952 6.053 2.137 7.465 5.025c7.276 14.911.18 32.157-21.019 51.29-1.258 1.168-3.773 3.593-7.096 6.737 15.838 7.286 29.495 18.589 39.613 32.786 1.655 2.123 4.226 3.325 6.916 3.234h156.385c3.823.064 7.259-2.323 8.533-5.928 1.39-3.573.256-7.636-2.786-9.971z" fill-rule="evenodd"/></g><g id="Rectangle_28_"><path clip-rule="evenodd" d="m425.631 55.73h35.93v17.965h-35.93z" fill-rule="evenodd" transform="matrix(.399 -.917 .917 .399 207.294 445.667)"/></g><g id="Path_388_"><path clip-rule="evenodd" d="m469.542 115.182-23.803-10.357-32.948-14.372-24.702-10.779c-1.133-.497-2.356-.751-3.593-.746-4.257-.005-7.933 2.98-8.803 7.148s1.306 8.373 5.21 10.072l81.471 35.445c4.54 1.953 9.805-.129 11.782-4.658 1.977-4.53-.077-9.806-4.596-11.807z" fill-rule="evenodd"/></g><g id="Path_387_"><path clip-rule="evenodd" d="m498.061 29.633-65.913-28.672c-4.544-1.975-9.829.103-11.812 4.644-.951 2.185-.995 4.657-.122 6.874s2.59 3.996 4.775 4.947l65.886 28.672c4.542 1.976 9.826-.098 11.812-4.635 1.989-4.544-.082-9.841-4.626-11.83z" fill-rule="evenodd"/></g></g></g></g></svg>