<svg height="512" viewBox="0 0 32 32" width="512" xmlns="http://www.w3.org/2000/svg"><g id="Layer_32" data-name="Layer 32"><path d="m23.41 2.81h-3.58a4.0151 4.0151 0 0 0 -7.66 0h-3.58a5.5259 5.5259 0 0 0 -5.59 5.45v18.28a5.5343 5.5343 0 0 0 5.59 5.46h14.82a5.5343 5.5343 0 0 0 5.59-5.46v-18.28a5.5259 5.5259 0 0 0 -5.59-5.45zm-15.41 21.39a1.0029 1.0029 0 0 1 1-1h7.92a1 1 0 0 1 0 2h-7.92a1.0029 1.0029 0 0 1 -1-1zm1-5.8a1 1 0 0 1 0-2h14a1 1 0 0 1 0 2zm14-6.8h-14a1 1 0 0 1 0-2h14a1 1 0 0 1 0 2zm-8.99-7.77a1.997 1.997 0 0 1 3.98 0c0 .04.01.08.01.11a1.58 1.58 0 0 1 -.12.61 1.9848 1.9848 0 0 1 -1.88 1.28 2.01 2.01 0 0 1 -1.9-1.32 1.6138 1.6138 0 0 1 -.1-.57c0-.04.01-.07.01-.11z"/></g></svg>