<svg height="512" viewBox="0 0 64 64" width="512" xmlns="http://www.w3.org/2000/svg"><path d="m5 2c-1.6447 0-3 1.3553-3 3v30c0 1.6447 1.3553 3 3 3h23v2h-1c-1.645 0-3 1.355-3 3v4c0 1.645 1.355 3 3 3h1v2h-15c-1.6447 0-3 1.3553-3 3v4c0 1.6447 1.3553 3 3 3h38c1.6447 0 3-1.3553 3-3v-1h1c3.8541 0 7-3.1459 7-7s-3.1459-7-7-7h-8.1777c-.41651-1.1589-1.5281-2-2.8223-2h-7c-.33813 0-.67317-.04628-1-.12695v-3.873h23c1.6447 0 3-1.3553 3-3v-30c0-1.6447-1.3553-3-3-3zm0 2h54c.5713 0 1 .4287 1 1v30c0 .5713-.4287 1-1 1h-54c-.5713 0-1-.4287-1-1v-30c0-.5713.4287-1 1-1zm4 2c-1.6447 0-3 1.3553-3 3v21c0 1.6447 1.3553 3 3 3h46c1.6447 0 3-1.3553 3-3v-21c0-1.6447-1.3553-3-3-3zm0 2h46c.5713 0 1 .4287 1 1v21c0 .5713-.4287 1-1 1h-46c-.5713 0-1-.4287-1-1v-21c0-.5713.4287-1 1-1zm13.691 2.3672c-.90103.01595-1.7569.48136-2.2363 1.3203l-6.377 11.162c-.39416.68979-.47649 1.5002-.2207 2.207.25578.7068.85884 1.2912 1.6309 1.5391 2.8224.90634 8.6697 2.4043 16.512 2.4043 7.8417 0 13.689-1.4979 16.512-2.4043.77206-.24792 1.375-.83225 1.6309-1.5391.25587-.70681.17348-1.5172-.2207-2.207l-6.377-11.162c-.63893-1.1181-1.9495-1.573-3.1406-1.1836-1.75.57208-5.1335 1.4961-8.4043 1.4961-3.2699 0-6.654-.92398-8.4043-1.4961-.29785-.09735-.60396-.14204-.9043-.13672zm7.3086 27.633h4v3.123l-1.6992-.67969c-.73146-.29258-1.513-.44336-2.3008-.44336zm16.822 8h8.1777c2.7733 0 5 2.2267 5 5s-2.2267 5-5 5h-1v-1c0-1.6447-1.3553-3-3-3h-15v-3.873c.32683-.08068.66187-.12695 1-.12695h7c1.2941 0 2.4058-.84105 2.8223-2zm-12.822 2.877v3.123h-4v-2c.78781 0 1.5693-.15078 2.3008-.44336z" fill-rule="evenodd"/></svg>