<svg height="464pt" viewBox="0 0 464 464" width="464pt" xmlns="http://www.w3.org/2000/svg"><path d="m176 168c0 4.417969-3.582031 8-8 8s-8-3.582031-8-8 3.582031-8 8-8 8 3.582031 8 8zm0 0"/><path d="m176 296c0 4.417969-3.582031 8-8 8s-8-3.582031-8-8 3.582031-8 8-8 8 3.582031 8 8zm0 0"/><path d="m176 232c0 4.417969-3.582031 8-8 8s-8-3.582031-8-8 3.582031-8 8-8 8 3.582031 8 8zm0 0"/><path d="m176 104c0 4.417969-3.582031 8-8 8s-8-3.582031-8-8 3.582031-8 8-8 8 3.582031 8 8zm0 0"/><path d="m112 168c0 4.417969-3.582031 8-8 8s-8-3.582031-8-8 3.582031-8 8-8 8 3.582031 8 8zm0 0"/><path d="m48 11.3125-36.6875 36.6875h36.6875zm0 0"/><path d="m112 104c0 4.417969-3.582031 8-8 8s-8-3.582031-8-8 3.582031-8 8-8 8 3.582031 8 8zm0 0"/><path d="m408 301.777344c4.761719-2.777344 8-7.882813 8-13.777344s-3.238281-11-8-13.777344zm0 0"/><path d="m384 32h16v32h-16zm0 0"/><path d="m308.199219 203.296875-35.816407-8.960937c.847657 11.527343 3.128907 22.886718 6.800782 33.894531l5.472656 16.410156-28.199219-9.402344c1.09375 13.5625 4.023438 24.457031 6.941407 32.546875 4.714843-5.730468 11.28125-9.832031 18.867187-11.21875 4.199219-9.726562 13.886719-16.566406 25.148437-16.566406 4.226563 0 8.457032 1 12.25 2.878906l24.335938 12.175782 24.320312-12.167969c3.808594-1.886719 8.039063-2.886719 12.265626-2.886719 11.269531 0 20.957031 6.839844 25.167968 16.574219 5.804688 1.066406 11.007813 3.746093 15.269532 7.496093 1.207031-7.789062 2.304687-17.484374 2.761718-28.894531l-23.785156 7.929688v-11.105469c-.007812-.144531-.433594-16.761719-14.929688-40.257812l-6.878906 13.761718-7.847656-7.847656c-.167969-.160156-20.222656-18.929688-71.160156-21.390625zm0 0"/><path d="m464 48c0-8.824219-7.175781-16-16-16h-32v32h32c8.824219 0 16-7.175781 16-16zm0 0"/><path d="m328 363.96875v9.816406l16 26.671875 16-26.671875v-9.816406c-4.9375 2.597656-10.375 4.03125-16 4.03125s-11.0625-1.433594-16-4.03125zm0 0"/><path d="m280 301.777344v-27.546875c-4.761719 2.777343-8 7.882812-8 13.777343 0 5.894532 3.238281 10.992188 8 13.769532zm0 0"/><path d="m112 232c0 4.417969-3.582031 8-8 8s-8-3.582031-8-8 3.582031-8 8-8 8 3.582031 8 8zm0 0"/><path d="m392 302.3125v-34.898438c0-6.292968-5.121094-11.414062-11.414062-11.414062-1.761719 0-3.539063.414062-5.121094 1.207031l-31.464844 15.738281-31.480469-15.746093c-1.566406-.785157-3.34375-1.199219-5.105469-1.199219-6.292968 0-11.414062 5.121094-11.414062 11.414062v34.898438c0 13.398438 6.65625 25.839844 17.816406 33.28125l19.96875 13.308594c6.078125 4.050781 14.351563 4.050781 20.4375 0l19.96875-13.308594c11.144532-7.433594 17.808594-19.882812 17.808594-33.28125zm0 0"/><path d="m240 32h128v32h-128zm0 0"/><path d="m16 336h256v45.519531l40-11.535156v-16.367187l-7.0625-4.714844c-10.691406-7.125-18.328125-17.558594-22.144531-29.429688-14.28125-2.367187-25.273438-14.160156-26.519531-28.785156-3.792969-6.421875-16.273438-30.34375-16.273438-66.6875v-11.097656l20.121094 6.707031c-2.738282-11.65625-4.121094-23.585937-4.121094-35.609375v-10.246094l27.800781 6.949219-6.898437-20.703125h11.097656c19.296875 0 35.144531 2.136719 48 5.175781v-85.175781h-105.886719l-64-32 64-32h105.886719v-16h-272v64h-64v368h208v-1.929688c0-4.910156.992188-9.636718 2.679688-14.070312h-194.679688zm152-16c-13.230469 0-24-10.769531-24-24s10.769531-24 24-24 24 10.769531 24 24-10.769531 24-24 24zm0-64c-13.230469 0-24-10.769531-24-24s10.769531-24 24-24 24 10.769531 24 24-10.769531 24-24 24zm0-64c-13.230469 0-24-10.769531-24-24s10.769531-24 24-24 24 10.769531 24 24-10.769531 24-24 24zm0-112c13.230469 0 24 10.769531 24 24s-10.769531 24-24 24-24-10.769531-24-24 10.769531-24 24-24zm-88-64h64v16h-64zm0 32h64v16h-64zm24 32c13.230469 0 24 10.769531 24 24s-10.769531 24-24 24-24-10.769531-24-24 10.769531-24 24-24zm0 64c13.230469 0 24 10.769531 24 24s-10.769531 24-24 24-24-10.769531-24-24 10.769531-24 24-24zm0 64c13.230469 0 24 10.769531 24 24s-10.769531 24-24 24-24-10.769531-24-24 10.769531-24 24-24zm0 64c13.230469 0 24 10.769531 24 24s-10.769531 24-24 24-24-10.769531-24-24 10.769531-24 24-24zm-64-192c13.230469 0 24 10.769531 24 24s-10.769531 24-24 24-24-10.769531-24-24 10.769531-24 24-24zm0 64c13.230469 0 24 10.769531 24 24s-10.769531 24-24 24-24-10.769531-24-24 10.769531-24 24-24zm0 64c13.230469 0 24 10.769531 24 24s-10.769531 24-24 24-24-10.769531-24-24 10.769531-24 24-24zm0 64c13.230469 0 24 10.769531 24 24s-10.769531 24-24 24-24-10.769531-24-24 10.769531-24 24-24zm0 0"/><path d="m48 104c0 4.417969-3.582031 8-8 8s-8-3.582031-8-8 3.582031-8 8-8 8 3.582031 8 8zm0 0"/><path d="m224 36.945312-22.113281 11.054688 22.113281 11.054688zm0 0"/><path d="m48 232c0 4.417969-3.582031 8-8 8s-8-3.582031-8-8 3.582031-8 8-8 8 3.582031 8 8zm0 0"/><path d="m48 296c0 4.417969-3.582031 8-8 8s-8-3.582031-8-8 3.582031-8 8-8 8 3.582031 8 8zm0 0"/><path d="m48 168c0 4.417969-3.582031 8-8 8s-8-3.582031-8-8 3.582031-8 8-8 8 3.582031 8 8zm0 0"/><path d="m446.648438 407.015625-74.953126-21.625-27.695312 46.152344-27.695312-46.160157-74.953126 21.625c-10.214843 2.953126-17.351562 12.441407-17.351562 23.0625v33.929688h41.441406l6.710938-33.566406 15.6875 3.140625-6.078125 30.425781h124.476562l-6.085937-30.433594 15.6875-3.140625 6.71875 33.574219h41.441406v-33.929688c0-10.621093-7.136719-20.109374-17.351562-23.054687zm0 0"/><path d="m112 296c0 4.417969-3.582031 8-8 8s-8-3.582031-8-8 3.582031-8 8-8 8 3.582031 8 8zm0 0"/><path d="m256 386.136719v-34.136719h-224v48h189.847656c4.296875-3.761719 9.359375-6.710938 15.0625-8.359375zm-192-2.136719h-16v-16h16zm16 0v-16h160v16zm0 0"/></svg>