<svg height="512pt" viewBox="-94 0 512 512.00062" width="512pt" xmlns="http://www.w3.org/2000/svg"><path d="m116.375 269.164062c-8.683594 0-16.84375-4.472656-21.496094-12.027343l-7.949218 4.421875c-6.289063 3.496094-13.5625 4.335937-20.480469 2.359375-6.917969-1.972657-12.65625-6.523438-16.152344-12.8125-7.21875-12.980469-2.527344-29.414063 10.453125-36.632813l7.929688-4.410156-4.867188-8.753906c-3.402344-6.113282-3.660156-13.257813-.710938-19.605469 2.949219-6.34375 8.578126-10.75 15.445313-12.097656l51.175781-10.011719 35.515625-38.1875c4.761719-5.121094 11.480469-7.574219 18.425781-6.734375 6.945313.84375 12.878907 4.835937 16.277344 10.949219l4.867188 8.753906 7.929687-4.410156c12.980469-7.214844 29.414063-2.527344 36.628907 10.453125 3.5 6.289062 4.335937 13.5625 2.363281 20.480469-1.976563 6.921874-6.527344 12.65625-12.8125 16.152343l-7.953125 4.421875c4.707031 9.417969 3.113281 20.742188-4.113282 28.511719l-41.566406 44.695313c-1.09375 1.179687-2.535156 1.980468-4.113281 2.289062l-59.902344 11.71875c-1.636719.320312-3.277343.476562-4.894531.476562zm-18.570312-29.988281c2.675781 0 5.269531 1.414063 6.664062 3.917969l3.148438 5.660156c2.125 3.824219 6.441406 5.828125 10.730468 4.988282l57.46875-11.246094 39.878906-42.882813c2.980469-3.203125 3.554688-7.921875 1.429688-11.746093l-3.148438-5.660157c-.984374-1.765625-1.222656-3.847656-.667968-5.789062.554687-1.945313 1.855468-3.585938 3.621094-4.566407l14.582031-8.109374c2.734375-1.519532 4.714843-4.011719 5.570312-7.019532.859375-3.007812.492188-6.171875-1.027343-8.902344-3.136719-5.640624-10.277344-7.679687-15.921876-4.542968l-14.582031 8.109375c-3.675781 2.042969-8.3125.71875-10.355469-2.957031l-8.566406-15.40625c-1.003906-1.804688-2.753906-2.984376-4.804687-3.230469-2.046875-.253907-4.03125.472656-5.4375 1.988281l-37.195313 39.996094c-1.097656 1.179687-2.535156 1.980468-4.117187 2.289062l-53.605469 10.488282c-2.027344.398437-3.6875 1.695312-4.558594 3.570312-.867187 1.871094-.792968 3.980469.210938 5.785156l8.566406 15.410156c.980469 1.761719 1.222656 3.847657.667969 5.789063-.554688 1.941406-1.859375 3.582031-3.621094 4.566406l-14.585937 8.105469c-5.640626 3.140625-7.679688 10.28125-4.542969 15.925781 1.519531 2.730469 4.011719 4.710938 7.019531 5.566407 3.007812.859374 6.167969.496093 8.902344-1.023438l14.585937-8.109375c1.171875-.652344 2.441407-.964844 3.691407-.964844zm0 0"/><path d="m26.941406 173.628906c-7.410156 0-14.5625-3.085937-19.621094-8.46875-4.925781-5.238281-7.527343-12.085937-7.3085932-19.277344.2187502-7.191406 3.2226562-13.867187 8.4609372-18.796874l6.609375-6.21875-6.871093-7.289063c-4.796876-5.101563-6.796876-11.96875-5.492188-18.839844 1.300781-6.871093 5.671875-12.523437 11.992188-15.511719l47.164062-22.265624 25.066406-45.734376c3.351563-6.132812 9.257813-10.160156 16.203125-11.046874 6.945313-.882813 13.679688 1.53125 18.46875 6.628906l6.863281 7.285156 6.601563-6.21875c5.007813-4.722656 11.566406-7.324219 18.460937-7.324219 7.414063 0 14.566407 3.089844 19.625 8.472657 10.175782 10.816406 9.664063 27.902343-1.15625 38.082031l-6.621093 6.234375c3.1875 3.699218 5.214843 8.183594 5.882812 13.035156.570313 4.167969-2.34375 8.007812-6.507812 8.578125-4.164063.582031-8.007813-2.339844-8.582031-6.507813-.285157-2.070312-1.195313-3.980468-2.640626-5.515624l-4.441406-4.722657c-2.878906-3.0625-2.730468-7.878906.332032-10.757812l12.140624-11.433594c2.28125-2.144531 3.585938-5.050781 3.683594-8.175781.09375-3.125-1.039062-6.101563-3.183594-8.382813-2.230468-2.371093-5.257812-3.675781-8.53125-3.675781-2.996093 0-5.84375 1.125-8.015624 3.175781l-12.144532 11.441407c-1.46875 1.386718-3.425781 2.132812-5.445312 2.070312-2.019532-.058594-3.933594-.917969-5.316406-2.390625l-12.09375-12.832031c-1.417969-1.511719-3.40625-2.222656-5.449219-1.960938-2.046875.261719-3.785157 1.449219-4.773438 3.253906l-26.261719 47.910157c-.773437 1.410156-1.972656 2.539062-3.425781 3.226562l-49.394531 23.320313c-1.863281.882812-3.152344 2.550781-3.535156 4.578125-.386719 2.03125.203125 4.0625 1.621094 5.566406l12.085937 12.828125c1.382813 1.46875 2.128906 3.429688 2.070313 5.449219-.0625 2.019531-.921876 3.929687-2.394532 5.316406l-12.152344 11.441406c-2.277343 2.140625-3.582031 5.042969-3.675781 8.167969-.097656 3.125 1.035157 6.101562 3.179688 8.378906 2.226562 2.371094 5.253906 3.675782 8.527343 3.675782 2.996094 0 5.84375-1.125 8.015626-3.171876l12.15625-11.445312c1.472656-1.386719 3.402343-2.132812 5.453124-2.070312 2.019532.0625 3.933594.925781 5.316407 2.398437l4.4375 4.71875c2.992187 3.179687 7.664062 4.066406 11.617187 2.199219l52.964844-25.007813 18.667969-34.085937c2.023437-3.6875 6.648437-5.039063 10.339843-3.019532 3.6875 2.019532 5.039063 6.648438 3.019532 10.335938l-19.859375 36.257812c-.773438 1.410157-1.972657 2.539063-3.429688 3.226563l-55.203125 26.0625c-9.589844 4.53125-20.863281 2.617187-28.414062-4.722656l-6.621094 6.234375c-5.007812 4.722656-11.566406 7.320312-18.464844 7.320312zm0 0"/><path d="m194.480469 387.261719c-.234375 0-.46875-.011719-.703125-.03125l-60.777344-5.625c-10.566406-.988281-19.300781-8.371094-22.066406-18.523438l-8.875 2c-1.9375.441407-3.941406.664063-5.941406.664063-12.664063 0-23.460938-8.640625-26.261719-21.007813-1.582031-7.023437-.335938-14.242187 3.507812-20.324219 3.847657-6.082031 9.828125-10.304687 16.847657-11.886718l8.84375-1.996094-2.203126-9.761719c-1.539062-6.828125.226563-13.757812 4.839844-19.015625 4.617188-5.257812 11.273438-7.902344 18.234375-7.261718l16.03125 1.484374c4.191407.386719 7.269531 4.09375 6.882813 8.28125-.386719 4.191407-4.101563 7.265626-8.28125 6.882813l-16.035156-1.480469c-2.066407-.191406-4.023438.589844-5.386719 2.144532-1.363281 1.550781-1.882813 3.597656-1.425781 5.613281l3.875 17.1875c.925781 4.101562-1.648438 8.179687-5.75 9.105469l-16.273438 3.675781c-3.054688.6875-5.652344 2.519531-7.324219 5.164062s-2.214843 5.78125-1.527343 8.828125c1.199218 5.292969 5.996093 9.136719 11.40625 9.136719.878906 0 1.726562-.09375 2.578124-.289063l16.296876-3.675781c1.972656-.445312 4.039062-.089843 5.746093.992188s2.917969 2.796875 3.359375 4.765625l1.417969 6.328125c.960937 4.257812 4.539063 7.394531 8.894531 7.800781l58.308594 5.398438 50.34375-29.90625c3.761719-2.238282 5.648438-6.605469 4.6875-10.867188l-1.433594-6.320312c-.445312-1.972657-.089844-4.039063.992188-5.746094 1.078125-1.710938 2.792968-2.921875 4.765625-3.363282l16.285156-3.667968c6.289063-1.421875 10.257813-7.703125 8.832031-14-1.191406-5.292969-5.984375-9.128906-11.394531-9.128906-.875 0-1.746094.097656-2.589844.285156l-16.289062 3.671875c-4.097657.921875-8.175781-1.652344-9.101563-5.753907l-3.878906-17.199218c-.453125-2.011719-1.800781-3.632813-3.695312-4.449219-1.894532-.816406-4.003907-.679687-5.78125.375l-46.957032 27.898437c-1.382812.824219-2.988281 1.1875-4.585937 1.039063l-8.042969-.742187c-4.1875-.386719-7.269531-4.09375-6.882812-8.28125.386718-4.1875 4.09375-7.261719 8.28125-6.882813l5.578124.511719 44.832032-26.636719c6.019531-3.574219 13.15625-4.039063 19.582031-1.269531 6.421875 2.765625 10.988281 8.261718 12.527344 15.085937l2.207031 9.773438 8.847656-1.992188c1.933594-.441406 3.941406-.664062 5.945313-.664062 12.671875 0 23.46875 8.640625 26.253906 21.007812 3.273437 14.480469-5.851563 28.929688-20.339844 32.210938l-8.878906 1.996093c1.859375 10.359376-2.863281 20.773438-11.984375 26.199219l-52.476562 31.171875c-1.179688.703125-2.523438 1.070313-3.886719 1.070313zm0 0"/><path d="m181.742188 512c-.792969 0-1.589844-.125-2.351563-.371094l-58.050781-18.867187c-10.089844-3.277344-16.984375-12.402344-17.449219-22.917969h-9.097656c-14.851563 0-26.9375-12.085938-26.9375-26.9375s12.085937-26.9375 26.9375-26.9375h9.074219v-10.015625c0-6.996094 3.246093-13.367187 8.90625-17.480469 5.660156-4.113281 12.71875-5.230468 19.375-3.066406l49.59375 16.117188 49.597656-16.117188c6.652344-2.164062 13.714844-1.046875 19.375 3.066406 5.660156 4.113282 8.90625 10.484375 8.90625 17.480469v10.015625h9.070312c14.855469 0 26.9375 12.085938 26.9375 26.9375s-12.082031 26.9375-26.9375 26.9375h-9.09375c-.46875 10.515625-7.363281 19.640625-17.453125 22.917969l-58.046875 18.867187c-.765625.246094-1.5625.371094-2.355468.371094zm-86.949219-80.800781c-6.457031 0-11.707031 5.25-11.707031 11.707031 0 6.453125 5.25 11.707031 11.707031 11.707031h16.6875c4.207031 0 7.613281 3.410157 7.613281 7.613281v6.480469c0 4.371094 2.796875 8.21875 6.957031 9.570313l55.691407 18.101562 55.695312-18.101562c4.160156-1.351563 6.953125-5.199219 6.953125-9.570313v-6.480469c0-4.203124 3.410156-7.613281 7.617187-7.613281h16.6875c6.453126 0 11.707032-5.253906 11.707032-11.707031 0-6.457031-5.253906-11.707031-11.707032-11.707031h-16.6875c-4.207031 0-7.617187-3.410157-7.617187-7.617188v-17.628906c0-2.066406-.957031-3.945313-2.628906-5.160156-1.667969-1.210938-3.753907-1.542969-5.714844-.902344l-51.949219 16.882813c-1.53125.496093-3.175781.496093-4.707031 0l-51.949219-16.882813c-1.964844-.640625-4.046875-.308594-5.71875.902344-1.667968 1.214843-2.628906 3.09375-2.628906 5.160156v17.628906c0 4.207031-3.40625 7.617188-7.613281 7.617188zm0 0"/><path d="m276.351562 219.164062c-3.167968 0-6.125-1.992187-7.207031-5.160156-1.355469-3.980468.769531-8.308594 4.75-9.667968l38.820313-13.242188c3.976562-1.355469 8.304687.769531 9.664062 4.75s-.769531 8.308594-4.746094 9.664062l-38.820312 13.246094c-.816406.277344-1.644531.410156-2.460938.410156zm0 0"/><path d="m266.53125 190.359375c-2.035156 0-4.0625-.808594-5.558594-2.410156-2.878906-3.066407-2.722656-7.886719.347656-10.761719l21.570313-20.214844c3.070313-2.878906 7.890625-2.71875 10.765625.347656 2.875 3.070313 2.71875 7.886719-.351562 10.765626l-21.570313 20.210937c-1.46875 1.378906-3.339844 2.0625-5.203125 2.0625zm0 0"/><path d="m315.613281 250.777344c-.242187 0-.484375-.007813-.734375-.035156l-29.425781-2.816407c-4.1875-.402343-7.257813-4.117187-6.855469-8.304687s4.117188-7.253906 8.304688-6.855469l29.429687 2.816406c4.1875.402344 7.253907 4.121094 6.855469 8.308594-.378906 3.9375-3.691406 6.886719-7.574219 6.886719zm0 0"/></svg>