<svg id="Capa_1" enable-background="new 0 0 512 512" height="512" viewBox="0 0 512 512" width="512" xmlns="http://www.w3.org/2000/svg"><g><path d="m445.746 357.901h-16.832c-8.492 0-16.877 2.228-24.248 6.443l-25.326 14.484c4.841-4.459 7.881-10.846 7.881-17.931 0-13.445-10.939-24.384-24.385-24.384h-15.918v-1.643c13.843.615 25.598-10.491 25.561-24.385 0-13.445-10.939-24.384-24.384-24.384h-.449c-3.466 0-6.286-2.82-6.286-6.286v-9.211l8.061 1.762c18.063 3.952 37.245 1.736 53.955-6.261l24.941-11.934c5.179-2.478 8.526-7.789 8.526-13.531v-19.617c0-7.206-5.862-13.068-13.068-13.068h-23.285c-10.625 0-21.16 2.71-30.468 7.837-7.161 3.945-15.268 6.031-23.445 6.031h-5.217c-.392-3.768 2.413-7.245 6.286-7.219 6.654 0 13.161-2.742 17.852-7.522 4.62-4.706 7.097-10.86 6.977-17.326-.201-14.2-12.826-25.055-26.84-23.921 2.69-1.261 5.167-2.993 7.275-5.142 4.619-4.707 7.096-10.86 6.975-17.325-.246-13.191-11.183-23.922-24.38-23.922-2.72.211-5.126-1.909-5.113-4.665v-10.666c6.261-3.145 13.874-2.471 19.501 1.897 8.439 6.556 19.809 8.029 29.591 3.938l18.483-7.716c5.431-2.268 8.941-7.536 8.941-13.422v-34.49c0-4.805-2.368-9.294-6.335-12.006-3.966-2.713-9.008-3.292-13.486-1.548l-21.843 8.502c-3.985 1.551-8.179 2.323-12.446 2.258l-21.844-.265c.784-1.475 2.319-2.493 4.103-2.493 13.6.25 24.848-10.777 24.833-24.385 0-13.446-10.939-24.385-24.385-24.385h-32.503c-4.019 0-7.275 3.257-7.275 7.275s3.257 7.275 7.275 7.275h32.503c5.422 0 9.834 4.411 9.834 9.834.014 5.592-4.708 10.069-10.282 9.834-10.596 0-19.216 8.62-19.216 19.216v61.348c0 10.595 8.62 19.216 19.216 19.216 8.52-.592 13.794 10.488 7.468 16.504-1.972 2.011-4.695 3.164-7.468 3.164h-88.683c-4.019 0-7.275 3.257-7.275 7.275s3.257 7.275 7.275 7.275h74.391v5.083c0 .901-.481 1.746-1.255 2.205l-13.751 8.154c-4.091 2.426-8.768 3.708-13.525 3.708h-72.466c-4.757 0-9.433-1.282-13.525-3.708l-13.75-8.154c-.775-.459-1.256-1.304-1.256-2.205v-5.083h21.091c4.019 0 7.275-3.257 7.275-7.275s-3.257-7.275-7.275-7.275h-35.832c-5.321 0-9.732-4.326-9.831-9.643-.218-5.387 4.959-10.142 10.279-10.024 10.596 0 19.216-8.62 19.216-19.216v-61.349c0-10.595-8.62-19.216-19.216-19.216-5.574.236-10.296-4.241-10.282-9.834 0-5.422 4.412-9.834 9.834-9.834h92.674c4.019 0 7.275-3.257 7.275-7.275s-3.257-7.275-7.276-7.275h-92.674c-13.446 0-24.385 10.939-24.385 24.385-.015 13.607 11.234 24.635 24.833 24.385 1.784 0 3.318 1.018 4.103 2.493l-21.843.266c-4.291.064-8.462-.708-12.445-2.258l-21.845-8.502c-4.477-1.743-9.52-1.163-13.485 1.548-3.966 2.713-6.335 7.201-6.335 12.006v34.491c0 5.886 3.51 11.154 8.941 13.422l18.483 7.716c9.781 4.092 21.152 2.618 29.59-3.938 5.655-4.389 13.237-5.051 19.502-1.899v10.667c0 2.572-2.093 4.665-4.665 4.665-6.654 0-13.162 2.742-17.853 7.522-4.619 4.707-7.096 10.86-6.975 17.326.177 9.466 5.861 17.665 13.934 21.541-7.222-.349-14.455 2.28-19.548 7.521-4.619 4.707-7.096 10.86-6.976 17.327.247 13.19 11.184 23.921 24.38 23.921 4.031-.274 7.163 3.268 6.735 7.219h-5.217c-8.177 0-16.285-2.086-23.445-6.031-9.307-5.127-19.843-7.837-30.468-7.837h-23.286c-7.206 0-13.068 5.863-13.068 13.068v19.617c0 5.741 3.347 11.052 8.526 13.531l24.941 11.934c16.711 7.998 35.891 10.212 53.955 6.261l8.061-1.762v9.211c0 3.466-2.819 6.286-6.286 6.286h-.449c-13.445 0-24.384 10.939-24.384 24.384-.037 13.894 11.718 25 25.561 24.385v1.643h-15.918c-13.446 0-24.385 10.939-24.385 24.384 0 7.085 3.04 13.472 7.881 17.931l-25.326-14.483c-7.371-4.216-15.756-6.444-24.248-6.444h-16.832c-7.206 0-13.068 5.863-13.068 13.068v17.162c0 7.263 4.908 13.616 11.936 15.448l8.747 2.281c28.301 9.9 27.26 53.585 69.629 53.575 5.925.035 12.02-1.23 17.7-3.511-2.079 4.315-6.484 7.307-11.586 7.307-6.655 0-13.162 2.742-17.853 7.522-4.619 4.707-7.096 10.86-6.975 17.325.247 13.19 11.184 23.921 24.38 23.921h125.965c4.019 0 7.275-3.257 7.275-7.275s-3.257-7.275-7.275-7.275h-125.965c-5.321 0-9.732-4.326-9.831-9.643-.218-5.388 4.959-10.141 10.279-10.024 15.118 0 27.417-12.3 27.417-27.418v-52.215c.015-15.279-12.594-27.669-27.866-27.418-5.422 0-9.834-4.411-9.834-9.834 0-5.422 4.412-9.833 9.834-9.833h20.028c1.204 1.414 2.641 2.641 4.276 3.611l13.75 8.154c6.337 3.758 13.58 5.744 20.946 5.744h95.671c7.366 0 14.61-1.986 20.946-5.744l13.751-8.154c1.634-.969 3.071-2.197 4.275-3.61h20.028c5.423 0 9.834 4.411 9.834 9.833s-4.412 9.834-9.834 9.834c-15.272-.251-27.88 12.139-27.866 27.418v52.215c0 15.118 12.299 27.418 27.418 27.418 8.519-.592 13.794 10.488 7.468 16.504-1.972 2.01-4.695 3.163-7.468 3.163h-53.604c-4.019 0-7.275 3.257-7.275 7.275s3.257 7.275 7.275 7.275h53.604c6.654 0 13.162-2.742 17.853-7.522 4.619-4.707 7.096-10.86 6.975-17.326-.247-13.19-11.184-23.921-24.38-23.921-5.231.173-9.907-2.852-12.034-7.307 5.682 2.282 11.773 3.546 17.7 3.511 42.488-.065 41.221-43.591 69.629-53.575l8.747-2.281c7.028-1.833 11.936-8.185 11.936-15.448v-17.162c.002-7.206-5.86-13.069-13.066-13.069zm-75.225-295.072 21.836-8.507.004 34.486-18.483 7.716c-5.005 2.089-10.778 1.322-15.062-2.005-8.192-6.359-18.736-8.353-28.424-5.859v-22.852l22.229.27c6.13.074 12.169-1.019 17.9-3.249zm-217.338 31.69c-4.285 3.327-10.057 4.094-15.061 2.004l-18.479-7.71-.009-34.486 21.845 8.502c5.73 2.23 11.763 3.325 17.899 3.248l22.229-.27v22.85c-9.677-2.505-20.193-.526-28.424 5.862zm1.264 348.392c-13.349 4.967-28.439.332-36.694-11.276-10.086-13.341-21.941-36.675-40.213-39.854l-8.747-2.281c-.622-.162-1.057-.725-1.057-1.368v-15.679h15.35c5.962 0 11.849 1.564 17.023 4.524l43.643 24.959c5.76 3.294 12.214 4.92 18.726 4.805v33.181zm-5.283-57.629c5.066-.166 9.626 2.663 11.834 6.893-3.492-.137-6.924-1.1-10.022-2.871l-8.849-5.061c2.229.673 4.591 1.039 7.037 1.039zm197.413-148.908c19.589 1.595 34.691-14.258 53.913-13.868h21.802v18.134c0 .171-.1.33-.256.405l-24.941 11.934c-13.797 6.601-29.621 8.438-44.567 5.171l-11.168-2.442v-19.335h5.217zm-187.105 21.776c-14.947 3.268-30.771 1.43-44.567-5.171l-24.941-11.934c-.155-.074-.256-.233-.256-.405v-18.134h21.802c22.381.298 33.58 16.46 59.13 13.868v19.334zm-5.4 52.335c0-5.422 4.411-9.833 9.833-9.833 11.643.249 21.3-9.185 21.285-20.837v-58.925c0-11.49-9.347-20.837-20.836-20.837-5.474.234-10.19-4.157-10.28-9.643-.218-5.387 4.959-10.142 10.28-10.025h13.887c1.432 3.135 3.787 5.831 6.828 7.634l13.751 8.154c6.336 3.757 13.579 5.743 20.946 5.743h72.466c7.367 0 14.611-1.986 20.946-5.743l13.752-8.155c3.04-1.803 5.396-4.499 6.827-7.634h14.336c5.321 0 9.732 4.326 9.831 9.643.219 5.387-4.96 10.142-10.28 10.025-11.489 0-20.836 9.347-20.836 20.837v58.925c-.015 11.653 9.643 21.086 21.285 20.837 5.423 0 9.833 4.411 9.833 9.833s-4.411 9.834-9.833 9.834h-184.188c-5.422.001-9.833-4.41-9.833-9.833zm177.039 31.674-13.75 8.154c-4.091 2.426-8.768 3.709-13.525 3.709h-95.671c-4.757 0-9.433-1.283-13.525-3.709l-13.749-8.153c-.776-.46-1.257-1.305-1.257-2.205v-5.084h152.734v5.084c-.001.899-.482 1.744-1.257 2.204zm31.277 43.123c2.576.038 5.127-.321 7.486-1.04l-8.85 5.061c-3.094 1.769-6.528 2.73-10.021 2.868 2.158-4.091 6.448-6.889 11.385-6.889zm81.875 2.85c0 .643-.435 1.206-1.057 1.368l-8.747 2.281c-18.227 3.131-30.178 26.569-40.213 39.854-8.254 11.608-23.345 16.245-36.694 11.276l-8.031-2.989v-33.183c6.513.113 12.971-1.513 18.727-4.804l43.642-24.959c5.174-2.959 11.061-4.523 17.023-4.523h15.35z"/><circle cx="213.062" cy="235.735" r="9.412"/><circle cx="228.529" cy="263.14" r="9.412"/><circle cx="259.756" cy="67.84" r="9.412"/><circle cx="209.704" cy="468.361" r="9.412"/><circle cx="259.756" cy="409.932" r="9.412"/></g></svg>