<svg id="Layer_1" enable-background="new 0 0 262.667 235.166" height="512" viewBox="0 0 262.667 235.166" width="512" xmlns="http://www.w3.org/2000/svg"><g><path d="m112.103 222.803c0 6.828 5.537 12.363 12.363 12.363 6.828 0 12.365-5.535 12.365-12.363v-20.569h-24.729v20.569z"/><path d="m123.389 169.668-.075-.01-.075-.012c-4.479-.831-8.197-2.331-11.135-4.473v5.061h17.338c-1.937-.153-3.945-.338-6.053-.566z"/><path d="m141.467 222.803c0 6.828 5.537 12.363 12.363 12.363 6.828 0 12.365-5.535 12.365-12.363v-20.569h-24.729v20.569z"/><path d="m166.195 170.234v-2.706c-5.28 1.341-10.189 2.216-15.126 2.706z"/><path d="m133.468 103.739h-.003-.004c-.313 0-.636-.002-.955-.003l3.384 26.516c10.588-.704 21.457-3.004 30.306-4.882v-.568-18.939-4.8c-8.167 1.795-18.636 2.629-32.728 2.676z"/><path d="m56.717 95.846c-.047-.063-.085-.13-.131-.194-1.782 1.467-2.919 3.69-2.919 6.179 0 4.418 3.581 8.002 7.999 8.002h.055c9.011 0 17.133-2.138 24.173-5.473l-19.637-2.843c-3.834-.554-7.224-2.568-9.54-5.671z"/><path d="m118.744 79.815c3.039.439 5.767 1.833 7.891 3.852h.067c2.261.045 4.434.07 6.508.07h.249.894c16.089 0 26.535-1.6 31.842-3.352v-7.954c1.645 1.563 3.108 3.178 4.081 4.576.419.596.738 1.138.971 1.597.106.21.2.408.267.576.109.271.162.466.188.594-.24.253-.876.804-2.258 1.465h-.001c-4.489 2.258-15.998 4.568-35.981 4.498-2.164.002-4.432-.023-6.802-.07-4.417-.09-8.07 3.42-8.16 7.836-.088 4.418 3.42 8.071 7.839 8.161 2.465.05 4.839.075 7.123.075 21.122-.07 34.02-1.945 42.864-6.059.01-.004.018-.007.028-.012 2.242-1.077 4.261-2.366 5.991-3.951.789-.724 1.524-1.503 2.183-2.362 2.115-2.711 3.243-6.21 3.206-9.395-.079-5.349-2.374-9.384-4.825-12.79-3.78-5.087-8.642-9.138-12.645-12.193-4.001-3.021-7.139-4.924-7.298-5.022-.656-.397-1.348-.682-2.052-.873-.77-.257-1.591-.402-2.447-.402h-38.635c-.48 0-.949.05-1.405.134-3.358-.18-6.599 1.782-7.882 5.087h-.002s0 0-.016.041c-.323.845-4.748 11.419-13.113 21.256-.385.455-.787.905-1.188 1.356z"/><circle cx="137" cy="22.5" r="22.5"/><ellipse cx="219.405" cy="122.856" rx="22.495" ry="22.495" transform="matrix(.972 -.235 .235 .972 -22.738 55.042)"/><path d="m179.074 161.52c14.598-5.16 19.127-17.574 16.926-26.094-2.202-8.518-14.146-12.168-24.072-9.213-10.446 2.139-24.277 5.488-37.785 6.145l-3.655-28.633c-1.358-.012-2.756-.031-4.188-.061-5.513-.111-9.908-4.688-9.799-10.199.092-4.526 3.256-8.333 7.454-9.454-1.59-1.141-3.458-1.922-5.496-2.217l-48.334-6.999c-6.832-.99-13.174 3.748-14.16 10.58-.991 6.832 3.745 13.174 10.579 14.162l38.926 5.637 3.388 26.539c11.917 3.83 24.304 5.792 36.855 5.792 18.098 0 30.014-4.059 30.132-4.1 1.079-.378 2.188-.564 3.306-.564 4.237 0 8.03 2.688 9.435 6.687.886 2.52.738 5.233-.419 7.642-1.155 2.408-3.179 4.222-5.699 5.106-2.604.887-16.361 5.223-36.754 5.231-15.312 0-30.422-2.479-44.909-7.365-2.53-.854-4.578-2.642-5.763-5.036-1.188-2.394-1.37-5.104-.516-7.636.748-2.221 2.225-4.039 4.105-5.237-4.586-.365-9.649-.597-15.196-.598-17.869 0-40.561 2.365-66.922 10.027-6.63 1.926-10.443 8.861-8.517 15.491 1.589 5.464 6.581 9.016 11.999 9.016 1.155 0 2.329-.161 3.494-.5h-.002c23.997-6.97 44.271-9.03 59.947-9.032 10.687 0 19.227.961 25.326 1.993 2.476 4.173 6.923 7.581 14.844 9.05 22.236 2.394 35.355.818 55.47-6.16z"/><path d="m96.419 138.109c-1.411 4.186.836 8.724 5.024 10.137 16.373 5.522 31.606 7.259 44.269 7.259 21.396-.009 35.492-4.916 36.089-5.117 4.169-1.464 6.36-6.03 4.896-10.199-1.462-4.161-6.018-6.353-10.18-4.902l-.02.006c-.581.201-12.747 4.22-30.785 4.211-11.209 0-24.673-1.536-39.157-6.421-4.186-1.41-8.726.84-10.136 5.026z"/><path d="m206.667 148.5c-3.314 0-6 2.686-6 6v6.666c0 3.314 2.686 6 6 6h35c3.313 0 6-2.686 6-6v-6.666c0-3.314-2.687-6-6-6z"/><path d="m6 200.233h8.599v34.933h10.969v-34.933h211.531v34.933h10.969v-34.933h8.6c3.314 0 6-2.688 6-6v-16c0-3.314-2.686-6-6-6h-250.668c-3.314 0-6 2.686-6 6v16c0 3.313 2.686 6 6 6z"/></g></svg>