<svg id="_x3C_Layer_x3E_" height="512" viewBox="0 0 32 32" width="512" xmlns="http://www.w3.org/2000/svg"><g id="syringe_x2C__injector_x2C__vaccine_1_"><g id="XMLID_2927_"><g id="XMLID_2948_"><path d="m12.111 26.219c-.934 0-1.813-.364-2.475-1.026l-2.829-2.828c-1.364-1.365-1.364-3.586 0-4.95l13.435-13.436c.195-.195.512-.195.707 0l7.072 7.071c.094.094.146.221.146.354s-.053.26-.146.354l-13.435 13.434c-.662.662-1.541 1.027-2.475 1.027zm8.485-21.18-13.081 13.082c-.975.975-.975 2.561 0 3.536l2.829 2.828c.946.947 2.589.947 3.535 0l13.082-13.082z" fill="rgb(0,0,0)"/></g><g id="XMLID_2946_"><path d="m7.16 26.343c-.403 0-.781-.156-1.064-.439-.277-.276-.436-.664-.436-1.064 0-.398.159-.786.437-1.063.195-.195.512-.195.707 0s.195.512 0 .707c-.092.09-.144.221-.144.356 0 .136.052.266.143.355.19.191.526.19.713.001l1.058-1.065-1.057-1.058c-.195-.195-.195-.512 0-.707s.512-.195.707 0l1.409 1.41c.195.195.195.511.001.706l-1.409 1.42c-.284.285-.662.441-1.065.441z" fill="rgb(0,0,0)"/></g><g id="XMLID_2944_"><path d="m1.711 30.789c-.128 0-.256-.049-.354-.146-.195-.195-.195-.512 0-.707l4.743-4.743c.195-.195.512-.195.707 0s.195.512 0 .707l-4.743 4.743c-.097.097-.225.146-.353.146z" fill="rgb(0,0,0)"/></g><g id="XMLID_2942_"><path d="m25.546 9.782c-.128 0-.256-.049-.354-.146l-2.829-2.828c-.094-.094-.146-.221-.146-.354s.053-.26.146-.354l3.329-3.329c.195-.195.512-.195.707 0l2.829 2.829c.094.094.146.221.146.354s-.053.26-.146.354l-3.329 3.328c-.097.097-.225.146-.353.146zm-2.122-3.328 2.122 2.121 2.622-2.621-2.122-2.122z" fill="rgb(0,0,0)"/></g><g id="XMLID_2940_"><path d="m30.488 8.068c-.128 0-.256-.049-.354-.146l-6.057-6.057c-.195-.195-.195-.512 0-.707s.512-.195.707 0l6.057 6.057c.195.195.195.512 0 .707-.097.098-.225.146-.353.146z" fill="rgb(0,0,0)"/></g><g id="XMLID_2938_"><path d="m29.274 13.511c-.128 0-.256-.049-.354-.146l-10.284-10.286c-.195-.195-.195-.512 0-.707s.512-.195.707 0l10.285 10.285c.195.195.195.512 0 .707-.098.098-.226.147-.354.147z" fill="rgb(0,0,0)"/></g><g id="XMLID_2936_"><path d="m9.283 20.39c-.128 0-.256-.049-.354-.146l-2.122-2.122c-.094-.094-.146-.221-.146-.354s.053-.26.146-.354l2.122-2.121c.195-.195.512-.195.707 0l2.121 2.121c.195.195.195.512 0 .707s-.512.195-.707 0l-1.768-1.768-1.415 1.414 1.769 1.769c.195.195.195.512 0 .707-.097.098-.225.147-.353.147z" fill="rgb(0,0,0)"/></g><g id="XMLID_2934_"><path d="m13.525 16.146c-.128 0-.256-.049-.354-.146l-2.121-2.121c-.195-.195-.195-.512 0-.707l2.121-2.122c.188-.188.52-.188.707 0l2.122 2.122c.195.195.195.512 0 .707s-.512.195-.707 0l-1.768-1.769-1.414 1.415 1.768 1.768c.195.195.195.512 0 .707-.098.098-.226.146-.354.146z" fill="rgb(0,0,0)"/></g><g id="XMLID_2932_"><path d="m17.768 11.903c-.128 0-.256-.049-.354-.146l-2.121-2.121c-.195-.195-.195-.512 0-.707l2.121-2.121c.195-.195.512-.195.707 0l2.121 2.121c.195.195.195.512 0 .707s-.512.195-.707 0l-1.768-1.768-1.414 1.414 1.768 1.768c.195.195.195.512 0 .707-.098.097-.225.146-.353.146z" fill="rgb(0,0,0)"/></g><g id="XMLID_2930_"><g><path d="m3.34 22.479c-.13 0-.26-.05-.35-.14-.1-.1-.15-.23-.15-.36 0-.14.05-.26.15-.359.19-.181.52-.181.7.01.09.09.15.22.15.35s-.06.261-.15.36c-.09.09-.22.139-.35.139z" fill="rgb(0,0,0)"/></g><g><path d="m2.16 20.319c-.09-.259.06-.539.32-.619.27-.091.55.06.63.319v.011c.08.26-.07.539-.33.619-.05.021-.1.021-.15.021-.21 0-.41-.13-.47-.351zm-.47-1.949c-.04-.28.14-.53.41-.58.28-.04.53.14.58.42.04.27-.14.52-.41.57-.03 0-.06.01-.08.01-.24 0-.46-.181-.5-.42zm-.18-2c-.01-.28.21-.511.48-.511.28-.01.51.21.51.48.01.28-.21.51-.48.52-.01 0-.01 0-.01 0-.28 0-.5-.219-.5-.489zm.52-1.46c-.27-.021-.47-.271-.44-.551.03-.27.28-.47.55-.439.28.03.48.28.44.56-.02.25-.24.44-.49.44-.02 0-.04 0-.06-.01zm.28-1.91c-.26-.07-.42-.351-.36-.61.07-.27.34-.43.61-.359.27.069.43.34.36.609-.06.22-.26.37-.48.37-.04 0-.09 0-.13-.01zm.55-1.87c-.26-.1-.38-.39-.27-.65.1-.26.39-.38.65-.27.26.1.38.399.27.649-.08.19-.26.311-.46.311-.06 0-.13-.01-.19-.04zm.8-1.771c-.24-.139-.32-.439-.18-.679.14-.24.45-.32.69-.18.23.14.31.45.17.689-.09.161-.26.241-.43.241-.08 0-.17-.02-.25-.071zm1.04-1.639c-.22-.17-.26-.48-.09-.7.17-.21.49-.25.7-.08.22.17.26.48.09.7-.1.13-.25.19-.4.19-.1 0-.21-.03-.3-.11zm1.25-1.48c-.19-.2-.19-.511.01-.7s0 0 0-.01c.2-.19.52-.181.71.02.19.2.18.52-.01.71-.1.09-.23.14-.35.14-.13-.001-.26-.06-.36-.16zm1.44-1.29c-.16-.23-.11-.54.11-.7.23-.16.54-.11.7.109.16.221.11.54-.11.7-.09.061-.19.09-.29.09-.16 0-.31-.069-.41-.199zm1.61-1.091c-.13-.239-.04-.54.21-.67.24-.13.54-.04.67.2.13.25.04.55-.2.68h-.01c-.07.04-.15.061-.23.061-.18 0-.35-.1-.44-.271zm1.74-.849c-.09-.26.04-.55.3-.64.26-.09.55.04.64.3.1.26-.04.55-.3.64-.05.021-.11.03-.17.03-.2 0-.39-.13-.47-.33zm1.85-.6c-.06-.271.11-.54.38-.591.27-.06.54.11.6.381.05.27-.12.54-.39.59-.03.01-.07.02-.1.02-.24 0-.44-.17-.49-.4zm1.91-.341c-.02-.27.18-.51.46-.529.28-.02.51.18.54.46.01.28-.19.51-.47.53-.01 0-.02.01-.03.01-.27 0-.48-.21-.5-.471z" fill="rgb(0,0,0)"/></g><g><path d="m16.95 2.53c-.13 0-.26-.051-.35-.15-.1-.09-.15-.21-.15-.35 0-.131.05-.261.15-.351.18-.18.51-.189.7 0 .1.09.15.22.15.351 0 .13-.05.26-.14.35-.1.099-.23.15-.36.15z" fill="rgb(0,0,0)"/></g></g><g id="XMLID_2928_"><g><path d="m29.96 15.49c-.12 0-.25-.051-.34-.141-.11-.1-.16-.22-.16-.35s.05-.26.15-.351c.2-.199.52-.189.7-.01.1.101.16.22.16.36 0 .13-.06.25-.15.35-.1.091-.23.142-.36.142z" fill="rgb(0,0,0)"/></g><g><path d="m15.59 30.49c-.28 0-.49-.23-.48-.511 0-.279.23-.489.51-.489.27.01.49.239.48.52 0 .271-.23.48-.49.48-.01 0-.01 0-.02 0zm1.46-.52c-.03-.28.17-.52.45-.55.27-.03.52.17.55.439.03.271-.17.521-.45.551-.01 0-.03.01-.05.01-.25 0-.47-.191-.5-.45zm-3.47.33c-.27-.05-.45-.31-.41-.58.05-.27.31-.45.58-.41.27.05.45.3.41.58-.04.24-.26.42-.49.42-.03 0-.06-.01-.09-.01zm5.4-.611c-.07-.27.1-.54.36-.609.27-.07.54.09.61.359.07.271-.09.54-.36.61-.04.01-.08.02-.12.02-.23 0-.43-.149-.49-.38zm-7.36.141c-.26-.09-.41-.37-.33-.63.09-.261.37-.41.63-.33.26.09.41.37.33.63-.07.21-.27.35-.48.35-.05 0-.1-.01-.15-.02zm9.23-.69c-.1-.25.02-.54.28-.649.25-.101.54.02.65.279.1.25-.02.54-.27.65-.07.02-.13.03-.19.03-.2 0-.39-.11-.47-.31zm1.78-.8c-.14-.24-.06-.54.18-.68.23-.141.54-.061.68.18.14.24.06.54-.18.68-.08.05-.16.07-.25.07-.17 0-.34-.09-.43-.25zm1.65-1.04c-.18-.21-.14-.53.08-.7.22-.17.53-.13.7.08.17.22.13.53-.08.71-.09.07-.2.101-.31.101-.15-.001-.3-.061-.39-.191zm1.48-1.26c-.2-.19-.2-.5-.01-.7.19-.2.5-.21.71-.021.2.19.2.511.01.711-.1.1-.23.149-.36.149-.13.001-.25-.039-.35-.139zm1.3-1.45c-.22-.16-.27-.47-.11-.7.16-.22.48-.27.7-.109.22.159.27.479.11.699-.1.13-.25.21-.41.21-.1-.001-.2-.03-.29-.1zm1.09-1.62c-.24-.12-.34-.43-.21-.67.13-.25.43-.34.68-.21.24.13.34.43.21.68-.09.16-.27.261-.45.261-.07-.001-.15-.021-.23-.061zm.85-1.75c-.26-.09-.39-.38-.3-.64.1-.261.38-.4.64-.3.26.09.4.38.3.64-.07.2-.26.33-.47.33-.05 0-.11-.01-.17-.03zm.6-1.861c-.27-.05-.44-.319-.39-.59.06-.27.33-.439.6-.39.27.06.44.33.38.6-.04.23-.25.391-.49.391-.03 0-.06 0-.1-.011zm.33-1.92c-.27-.02-.48-.25-.46-.529.02-.271.26-.48.53-.46.28.02.49.25.47.529-.02.261-.24.471-.5.471-.01 0-.02 0-.04-.011z" fill="rgb(0,0,0)"/></g><g><path d="m9.95 29.13c-.14 0-.26-.061-.36-.15-.09-.09-.14-.22-.14-.35 0-.14.05-.26.14-.36.2-.189.52-.18.7 0 .1.09.16.221.16.36 0 .13-.06.26-.15.35-.1.089-.22.15-.35.15z" fill="rgb(0,0,0)"/></g></g></g></g></svg>