<?xml version="1.0" encoding="UTF-8"?>
<svg xmlns="http://www.w3.org/2000/svg" viewBox="0 0 64 64" width="512" height="512"><g id="Outline"><g id="Outline-2" data-name="Outline"><path d="M57,17H51V7a5,5,0,0,0-5-5H18a5,5,0,0,0-5,5V17H7a5,5,0,0,0-5,5V61a1,1,0,0,0,1,1H61a1,1,0,0,0,1-1V22A5,5,0,0,0,57,17ZM4,22a3,3,0,0,1,3-3h6v5H9a2,2,0,0,0-2,2v4a2,2,0,0,0,2,2h4v4H9a2,2,0,0,0-2,2v4a2,2,0,0,0,2,2h4v4H9a2,2,0,0,0-2,2v4a2,2,0,0,0,2,2h4v4H4Zm9,4v4H9V26Zm0,12v4H9V38Zm0,12v4H9V50ZM31,60H24V47h7Zm9,0H33V47h7Zm2-13h2V60H42Zm2-2H20V43H44ZM22,47V60H20V47ZM49,60H46V43a2,2,0,0,0-2-2H20a2,2,0,0,0-2,2V60H15V7a3,3,0,0,1,3-3H46a3,3,0,0,1,3,3Zm2-34h4v4H51Zm0,12h4v4H51Zm0,12h4v4H51Zm9,10H51V56h4a2,2,0,0,0,2-2V50a2,2,0,0,0-2-2H51V44h4a2,2,0,0,0,2-2V38a2,2,0,0,0-2-2H51V32h4a2,2,0,0,0,2-2V26a2,2,0,0,0-2-2H51V19h6a3,3,0,0,1,3,3Z"/><path d="M27.58,26.53a1,1,0,1,0,.84-1.82,8.5,8.5,0,1,1,7.16,0,1,1,0,0,0,.84,1.82,10.5,10.5,0,1,0-8.84,0Z"/><circle cx="32" cy="26.5" r="1"/><path d="M32,23.5a3,3,0,0,0,3-3V20h.5a3,3,0,0,0,0-6H35v-.5a3,3,0,0,0-6,0V14h-.5a3,3,0,0,0,0,6H29v.5A3,3,0,0,0,32,23.5ZM28.5,18a1,1,0,0,1,0-2H30a1,1,0,0,0,1-1V13.5a1,1,0,0,1,2,0V15a1,1,0,0,0,1,1h1.5a1,1,0,0,1,0,2H34a1,1,0,0,0-1,1v1.5a1,1,0,0,1-2,0V19a1,1,0,0,0-1-1Z"/><circle cx="36" cy="53.5" r="1"/><circle cx="28" cy="53.5" r="1"/><path d="M28,30H20a2,2,0,0,0-2,2v4a2,2,0,0,0,2,2h8a2,2,0,0,0,2-2V32A2,2,0,0,0,28,30Zm-8,6V32h8v4Z"/><path d="M44,30H36a2,2,0,0,0-2,2v4a2,2,0,0,0,2,2h8a2,2,0,0,0,2-2V32A2,2,0,0,0,44,30Zm-8,6V32h8v4Z"/></g></g></svg>
