<svg id="Icon" viewBox="0 0 60 60" xmlns="http://www.w3.org/2000/svg"><path d="m56 0h-52c-2.206 0-4 1.794-4 4v52c0 2.206 1.794 4 4 4h52c2.206 0 4-1.794 4-4v-52c0-2.206-1.794-4-4-4zm-41.953 44.275c-.423-.368-.465-.992-.15-1.366.104-.078.211-.153.302-.242.371-.217.822-.197 1.158.089l6.136 5.309c-.446.511-.805 1.096-1.059 1.737l-6.387-5.526zm-.97-3.542c-.04.186-.144.34-.273.473-.04.031-.082.054-.121.087l-.087.089c-.455.264-1.046.134-1.337-.314l-4.171-6.438c-.064-.1-.056-.198-.046-.248.011-.05.044-.143.145-.208.279-.181.594-.268.905-.268.548 0 1.085.269 1.404.762l3.441 5.312c.145.224.194.491.139.753zm7.746-28.126c.036.248-.038.495-.208.696-.194.229-.477.36-.795.366-.586.022-.947-.478-.999-.957-.134-1.215.189-2.283.484-2.966l.176-.022c.509.606 1.154 1.599 1.342 2.882zm-1.225 3.422c.16-.214.394-.354.657-.393.05-.007.098-.011.146-.011.488 0 .916.359.989.855l.578 3.958c.08.546-.299 1.054-.845 1.135-.552.08-1.055-.3-1.135-.845l-.578-3.958c-.038-.265.028-.528.188-.742zm1.814 7.523c.05-.007.098-.011.146-.011.488 0 .916.359.989.855l1.014 6.926c.079.546-.3 1.055-.846 1.135-.269.036-.527-.028-.742-.188-.214-.159-.353-.393-.392-.657l-1.014-6.925c-.079-.547.3-1.056.845-1.136zm1.575 10.89c.607-.056 1.071.299 1.153.842l1.565 10.731c-.689.035-1.348.182-1.957.43l-1.589-10.871c-.079-.546.3-1.056.828-1.133zm7.111-26.405c.416.675.911 1.751.911 3.047 0 .251-.109.485-.307.66-.227.199-.529.286-.839.247-.555-.069-.868-.609-.852-1.092.044-1.219.519-2.231.909-2.865l.177.003zm13.111 4.706c-.059.244-.219.447-.451.571-.267.144-.577.159-.873.047-.523-.195-.704-.793-.577-1.257.324-1.179 1.02-2.053 1.546-2.579l.172.044c.249.751.482 1.912.184 3.174zm-2.85 3.35c.062-.26.222-.48.448-.621.228-.14.495-.182.756-.122.536.128.869.668.743 1.204l-.923 3.893c-.112.471-.543.766-1.014.749-.006-.001-.011-.004-.017-.006-.082-.02-.165-.021-.247-.034-.489-.16-.789-.66-.669-1.17l.922-3.893zm-1.671 7.784c.062-.26.221-.479.448-.62.156-.096.33-.145.508-.147.025.007.048.019.074.025.078.018.155.015.234.027.231.07.432.212.56.42.14.228.184.495.122.756l-1.614 6.811c-.128.536-.669.865-1.204.743-.536-.128-.869-.668-.743-1.204l1.614-6.812zm7.964 7.229 1.968-3.483c.271-.48.883-.647 1.362-.379.479.272.649.884.378 1.363l-1.966 3.482c-.272.479-.881.649-1.363.38-.48-.271-.65-.884-.379-1.363zm5.635-5.909c-.123.219-.333.369-.592.424-.294.067-.597-.009-.852-.197-.448-.333-.456-.958-.204-1.369.64-1.043 1.549-1.688 2.199-2.046 0 0 .153.089.154.089.03.791-.067 1.971-.705 3.1zm-7 8.92c.258-.071.526-.039.761.094.232.131.399.345.471.602.072.258.039.527-.093.76l-3.443 6.096c-.271.478-.879.648-1.362.379-.479-.272-.649-.884-.378-1.363l3.443-6.095c.131-.232.345-.4.602-.472zm-5.408 9.578c.254-.069.516-.038.76.103.4.22.59.686.459 1.138-.035.121-.054.167-.079.213l-2.006 3.549c-.388-.586-.879-1.097-1.443-1.515l1.712-3.024c.127-.228.339-.392.598-.463zm-2.881 14.306h-6v-2h5c.552 0 1 .448 1 1zm-14.989-6c0-2.206 1.794-4 4-4h8c2.206 0 4 1.794 4 4 0 1.103-.897 2-2 2h-12c-1.103 0-2-.897-2-2zm13.974-17.423c.061-.257.219-.477.446-.616.225-.139.487-.183.76-.115.447.101.76.497.76.964 0 .124-.01.18-.022.229l-2.632 11.103c-.415-.091-.844-.142-1.285-.142h-.736zm-6.974-4.577v-7c0-.552.448-1 1-1s1 .448 1 1v7c0 .552-.448 1-1 1s-1-.448-1-1zm0-11v-4c0-.552.448-1 1-1s1 .448 1 1v4c0 .552-.448 1-1 1s-1-.448-1-1zm0 15c0-.552.448-1 1-1s1 .448 1 1v12h-2zm-5.011 22s.007 0 .011 0h4.989v2h-6v-1c0-.552.448-1 1-1zm34 0c0 1.103-.897 2-2 2h-17v-1c0-.678-.234-1.296-.615-1.799.981-.73 1.625-1.887 1.625-3.201 0-.299-.029-.59-.071-.877l2.803-4.959c.14-.227.217-.46.278-.675.146-.5.156-1.009.053-1.485.701-.236 1.286-.706 1.653-1.354l3.443-6.096c.38-.674.461-1.431.302-2.132.679-.227 1.286-.679 1.666-1.349l1.966-3.482c.377-.667.459-1.415.308-2.111.683-.224 1.267-.676 1.62-1.299.868-1.538 1.003-3.111.962-4.16-.027-.726-.429-1.377-1.074-1.742-.645-.363-1.408-.372-2.041-.022-.862.474-2.073 1.336-2.941 2.753-.43.703-.543 1.518-.384 2.269-.684.226-1.292.687-1.673 1.361l-1.968 3.483c-.379.671-.459 1.425-.304 2.124-.705.236-1.295.706-1.663 1.358l-3.442 6.095c-.38.672-.461 1.427-.305 2.127-.348.116-.669.285-.945.51l1.613-6.807c.058-.214.084-.442.084-.719 0-.482-.119-.935-.32-1.341.679-.421 1.154-1.08 1.339-1.858l1.614-6.811c.181-.76.057-1.542-.338-2.213.526-.405.922-.985 1.086-1.68l.924-3.893c.176-.745.046-1.487-.293-2.112.595-.405 1.03-1.001 1.194-1.698.407-1.717.1-3.267-.23-4.264-.229-.69-.796-1.204-1.517-1.375-.722-.172-1.455.033-1.968.546-.999.999-1.712 2.196-2.061 3.463-.217.794-.099 1.608.263 2.284-.616.422-1.054 1.042-1.227 1.774l-.922 3.893c-.182.763-.057 1.548.343 2.222-.542.418-.932.994-1.092 1.67l-1.615 6.812c-.168.713-.054 1.421.252 2.03-.685.421-1.163 1.083-1.344 1.861l-1.027 4.332v-4.451c0-.771-.301-1.468-.78-2 .48-.532.78-1.229.78-2v-7c0-.771-.301-1.468-.78-2 .48-.532.78-1.229.78-2v-4c0-.766-.297-1.458-.771-1.989.485-.531.771-1.212.771-1.927 0-1.765-.657-3.201-1.208-4.096-.381-.618-1.051-.988-1.792-.988h-.002c-.739 0-1.408.368-1.789.985-.741 1.204-1.158 2.532-1.204 3.844-.03.823.274 1.588.782 2.163-.484.533-.787 1.233-.787 2.008v4c0 .771.301 1.468.78 2-.48.532-.78 1.229-.78 2v7c0 .771.301 1.468.78 2-.48.532-.78 1.229-.78 2v7.101l-.891-6.11c-.115-.764-.505-1.417-1.058-1.874.394-.594.589-1.324.478-2.083l-1.014-6.926c-.112-.764-.508-1.411-1.06-1.868.412-.617.589-1.351.481-2.09l-.578-3.958c-.108-.736-.485-1.384-1.05-1.857.403-.596.587-1.31.483-2.019-.255-1.747-1.113-3.072-1.787-3.877-.467-.556-1.179-.826-1.917-.718-.731.106-1.341.567-1.628 1.232-.561 1.297-.78 2.673-.637 3.978.09.819.502 1.532 1.088 2.028-.402.598-.6 1.335-.488 2.101l.578 3.958c.112.763.506 1.415 1.059 1.872-.395.595-.59 1.325-.479 2.086l1.014 6.926c.108.742.489 1.395 1.062 1.869-.398.596-.595 1.33-.484 2.093l1.41 9.642-4.93-4.266c-.458-.392-1.001-.617-1.562-.688.007-.584-.157-1.158-.482-1.659l-3.441-5.312c-.532-.822-1.354-1.389-2.312-1.593-.96-.207-1.94-.024-2.762.508-.523.339-.883.86-1.013 1.469-.131.608-.016 1.231.323 1.754l4.171 6.438c.498.768 1.294 1.211 2.138 1.32-.011.855.325 1.709 1.017 2.311l7.283 6.301c.028 1.271.653 2.39 1.604 3.103-.385.505-.623 1.127-.623 1.81v1h-17.002c-1.103 0-2-.897-2-2v-52.005c0-1.103.897-2 2-2h52c1.103 0 2 .897 2 2v52z"/><path d="m4 49v5c0 1.103.897 2 2 2h5c.553 0 1-.447 1-1s-.447-1-1-1h-5v-5c0-.553-.447-1-1-1s-1 .447-1 1z"/><path d="m55 48c-.553 0-1 .447-1 1v5h-5c-.553 0-1 .447-1 1s.447 1 1 1h5c1.103 0 2-.897 2-2v-5c0-.553-.447-1-1-1z"/><path d="m54 4h-5c-.553 0-1 .447-1 1s.447 1 1 1h5v5c0 .553.447 1 1 1s1-.447 1-1v-5c0-1.103-.897-2-2-2z"/><path d="m11 4h-5c-1.103 0-2 .897-2 2v5c0 .553.447 1 1 1s1-.447 1-1v-5h5c.553 0 1-.447 1-1s-.447-1-1-1z"/></svg>