<svg id="Layer_1" enable-background="new 0 0 512 512" height="512" viewBox="0 0 512 512" width="512" xmlns="http://www.w3.org/2000/svg"><path d="m380.79 288.19-2.27-26.04c-.79-9.01-8.2-15.81-17.25-15.81-4.34 0-8.5 1.62-11.7 4.55l-18.74 17.17c-4.97 4.55-11.42 7.06-18.16 7.06h-95.35v-18.45h77.34v5.07c0 1.93 1.57 3.5 3.5 3.5s3.5-1.57 3.5-3.5v-5.18c3.99-.61 7.05-4.06 7.05-8.21v-8.09l18.88-1.69c2.16 2.39 5.27 3.89 8.74 3.89 6.51 0 11.79-5.28 11.79-11.79s-5.28-11.79-11.79-11.79c-3.47 0-6.58 1.51-8.74 3.89l-18.88-1.69v-6.13c0-4.16-3.07-7.6-7.05-8.21v-14.9c3.99-.61 7.05-4.06 7.05-8.21v-8.09l18.88-1.69c2.16 2.39 5.27 3.89 8.74 3.89 6.51 0 11.79-5.28 11.79-11.79s-5.28-11.79-11.79-11.79c-3.47 0-6.58 1.51-8.74 3.89l-18.88-1.69v-6.13c0-4.16-3.07-7.6-7.05-8.21v-14.9c3.99-.61 7.05-4.06 7.05-8.21v-8.09l18.88-1.69c2.16 2.39 5.27 3.89 8.74 3.89 6.51 0 11.79-5.28 11.79-11.79s-5.28-11.79-11.79-11.79c-3.47 0-6.58 1.51-8.74 3.89l-18.88-1.69v-6.13c0-4.16-3.07-7.6-7.05-8.21v-14.9c3.99-.61 7.05-4.06 7.05-8.21v-8.09l18.88-1.69c2.16 2.39 5.27 3.89 8.74 3.89 6.51 0 11.79-5.28 11.79-11.79s-5.28-11.79-11.79-11.79c-3.47 0-6.58 1.51-8.74 3.89l-18.88-1.69v-6.13c0-4.59-3.73-8.32-8.32-8.32h-88.8c-4.59 0-8.32 3.73-8.32 8.32v6.13l-18.88 1.69c-2.16-2.39-5.27-3.89-8.74-3.89-6.51 0-11.79 5.28-11.79 11.79s5.28 11.79 11.79 11.79c3.47 0 6.58-1.51 8.74-3.89l18.88 1.69v8.09c0 4.16 3.07 7.6 7.05 8.21v14.9c-3.99.61-7.05 4.06-7.05 8.21v6.13l-18.88 1.69c-2.16-2.39-5.27-3.89-8.74-3.89-6.51 0-11.79 5.28-11.79 11.79s5.28 11.79 11.79 11.79c3.47 0 6.58-1.51 8.74-3.89l18.88 1.69v8.09c0 4.16 3.07 7.6 7.05 8.21v14.9c-3.99.61-7.05 4.06-7.05 8.21v6.13l-18.88 1.69c-2.16-2.39-5.27-3.89-8.74-3.89-6.51 0-11.79 5.28-11.79 11.79s5.28 11.79 11.79 11.79c3.47 0 6.58-1.51 8.74-3.89l18.88 1.69v8.09c0 4.16 3.07 7.6 7.05 8.21v14.9c-3.99.61-7.05 4.06-7.05 8.21v6.13l-18.88 1.69c-2.16-2.39-5.27-3.89-8.74-3.89-6.51 0-11.79 5.28-11.79 11.79s5.28 11.79 11.79 11.79c3.47 0 6.58-1.51 8.74-3.89l18.88 1.69v8.09c0 4.16 3.07 7.6 7.05 8.21v18.56h-11.01c-6.74 0-13.19-2.51-18.16-7.06l-18.74-17.17c-3.2-2.93-7.36-4.55-11.7-4.55-9.05 0-16.46 6.8-17.25 15.81l-2.27 26.04c-1.28 14.73 2.27 29.78 10 42.39l54.21 88.38c2.5 4.07 7.02 6.6 11.79 6.6h7.5c1.93 0 3.5-1.57 3.5-3.5s-1.57-3.5-3.5-3.5h-7.5c-2.36 0-4.59-1.25-5.83-3.26l-54.21-88.38c-6.95-11.34-10.15-24.87-8.99-38.12l2.27-26.04c.47-5.37 4.88-9.42 10.27-9.42 2.59 0 5.06.96 6.97 2.71l18.74 17.17c6.26 5.74 14.39 8.9 22.89 8.9h113.37c8.5 0 16.62-3.16 22.89-8.9l18.74-17.17c1.91-1.75 4.38-2.71 6.97-2.71 5.39 0 9.81 4.05 10.27 9.42l2.27 26.04c1.15 13.25-2.04 26.79-8.99 38.12l-54.21 88.38c-1.23 2.01-3.47 3.26-5.83 3.26h-6.39c-1.93 0-3.5 1.57-3.5 3.5s1.57 3.5 3.5 3.5h6.39c4.78 0 9.29-2.53 11.79-6.6l54.21-88.38c7.74-12.6 11.29-27.66 10.01-42.39zm-170.51-233.98v-33.39c0-.73.59-1.32 1.32-1.32h88.8c.73 0 1.32.59 1.32 1.32v33.39c0 .73-.59 1.32-1.32 1.32h-2.23-84.34-2.23c-.73 0-1.32-.59-1.32-1.32zm84.39 8.32v14.68h-77.34v-14.68zm-84.39 56.39v-33.39c0-.73.59-1.32 1.32-1.32h2.23 84.34 2.23c.73 0 1.32.59 1.32 1.32v33.39c0 .73-.59 1.32-1.32 1.32h-2.23-84.34-2.23c-.73 0-1.32-.59-1.32-1.32zm84.39 8.32v14.68h-77.34v-14.68zm-84.39 56.39v-33.39c0-.73.59-1.32 1.32-1.32h2.23 84.34 2.23c.73 0 1.32.59 1.32 1.32v33.39c0 .73-.59 1.32-1.32 1.32h-2.23-84.34-2.23c-.73.01-1.32-.59-1.32-1.32zm84.39 8.33v14.68h-77.34v-14.68zm-84.39 56.39v-33.39c0-.73.59-1.32 1.32-1.32h2.23 84.34 2.23c.73 0 1.32.59 1.32 1.32v33.39c0 .73-.59 1.32-1.32 1.32h-88.8c-.73 0-1.32-.59-1.32-1.32z"/><path d="m214.12 436.43c-1.41 3-.98 6.45 1.13 9.01l7.91 9.59c4.99 6.05 9.37 12.64 13 19.59l9.87 18.85c1.95 3.72 5.77 6.03 9.97 6.03s8.02-2.31 9.97-6.03l9.87-18.85c3.64-6.95 8.01-13.54 13-19.59l7.91-9.59c2.11-2.56 2.54-6.01 1.13-9.01s-4.35-4.86-7.67-4.86h-4.34l-1.97-3.75c-1.68-3.2-4.96-5.18-8.57-5.18h-2.51c-3.51 0-6.76 1.91-8.46 4.98l-1.62 2.92c-.35.64-1.03 1.03-1.75 1.03h-9.96c-.73 0-1.4-.4-1.75-1.03l-1.62-2.92c-1.71-3.07-4.95-4.98-8.46-4.98h-2.51c-3.61 0-6.89 1.98-8.57 5.18l-1.97 3.75h-4.34c-3.34 0-6.28 1.86-7.69 4.86zm59.35 28.17c-1.35 2.22-2.63 4.47-3.83 6.76l-9.87 18.85c-.75 1.43-2.16 2.28-3.77 2.28s-3.02-.85-3.77-2.28l-8.08-15.45c10.62-.59 20.71-4.2 29.32-10.16z"/><path d="m209.74 310.59c0-1.93-1.57-3.5-3.5-3.5h-22.04c-1.93 0-3.5 1.57-3.5 3.5s1.57 3.5 3.5 3.5h22.04c1.94 0 3.5-1.57 3.5-3.5z"/><path d="m327.8 314.09c1.93 0 3.5-1.57 3.5-3.5s-1.57-3.5-3.5-3.5h-22.04c-1.93 0-3.5 1.57-3.5 3.5s1.57 3.5 3.5 3.5z"/><path d="m195.82 349.74h22.04c1.93 0 3.5-1.57 3.5-3.5s-1.57-3.5-3.5-3.5h-22.04c-1.93 0-3.5 1.57-3.5 3.5s1.57 3.5 3.5 3.5z"/><path d="m290.64 346.24c0 1.93 1.57 3.5 3.5 3.5h22.04c1.93 0 3.5-1.57 3.5-3.5s-1.57-3.5-3.5-3.5h-22.04c-1.94 0-3.5 1.56-3.5 3.5z"/><path d="m207.44 385.39h22.04c1.93 0 3.5-1.57 3.5-3.5s-1.57-3.5-3.5-3.5h-22.04c-1.93 0-3.5 1.57-3.5 3.5s1.57 3.5 3.5 3.5z"/><path d="m279.02 381.89c0 1.93 1.57 3.5 3.5 3.5h22.04c1.93 0 3.5-1.57 3.5-3.5s-1.57-3.5-3.5-3.5h-22.04c-1.94 0-3.5 1.56-3.5 3.5z"/></svg>