<svg id="Layer_1" enable-background="new 0 0 492 492" viewBox="0 0 492 492" xmlns="http://www.w3.org/2000/svg"><g><g><path d="m432.59 462.77h-372.66c-19.54 0-35.43-15.89-35.43-35.43v-361.2c0-19.54 15.89-35.43 35.43-35.43h372.66c19.54 0 35.43 15.89 35.43 35.43v361.2c0 19.54-15.89 35.43-35.43 35.43zm-372.66-420.54c-13.18 0-23.91 10.73-23.91 23.91v361.2c0 13.18 10.73 23.91 23.91 23.91h372.66c13.18 0 23.91-10.73 23.91-23.91v-361.2c0-13.18-10.73-23.91-23.91-23.91z"/></g><g><path d="m326.39 396.71c-3.19 0-5.76-2.59-5.76-5.77l.18-122.62c0-1.53.61-2.99 1.69-4.07 21.19-21.13 25-35.54 24.46-43.91-.52-8.04-5.2-11.98-5.25-12.01-.09-.07-.17-.14-.25-.21-10.05-8.68-14.72-4.3-16.25-2.87-3.96 3.72-6.98 10.32-10.47 17.97-7.38 16.17-17.49 38.32-46.1 49.86-1.39.56-5.91 2.6-5.52 5.26.35 2.4 4.15 6.03 10.39 6.7l12.69.02c6.45-.35 16.11 2.89 16.94 13.31.01.16.02.31.02.47l-.13 89.16c0 3.18-2.58 5.75-5.76 5.75h-.01c-3.18 0-5.76-2.59-5.75-5.77l.13-88.88c-.38-2.76-4.42-2.57-4.88-2.54-.13.01-.26.01-.39.01l-13.15-.02c-.18 0-.35-.01-.53-.03-10.89-1.03-19.71-7.98-20.95-16.53-1.08-7.4 3.64-13.98 12.61-17.6 24.35-9.82 32.63-27.96 39.93-43.96 3.83-8.39 7.44-16.31 13.06-21.59 4.13-3.88 15.48-11.39 31.61 2.51 1.38 1.14 8.71 7.79 9.51 20.24.98 15.17-7.81 32.36-26.13 51.1l-.17 120.25c-.01 3.19-2.59 5.77-5.77 5.77z"/></g><g><path d="m250.15 230.02c-5.33 0-10.33-2.07-14.1-5.84-6.57-6.57-7.59-16.63-3.05-24.28l-70.95-70.95c-2.25-2.25-2.25-5.9 0-8.15s5.9-2.25 8.15 0l74.6 74.6c1.12 1.12 1.73 2.65 1.69 4.24-.05 1.58-.74 3.08-1.93 4.14-.12.11-.24.22-.36.34-3.28 3.28-3.28 8.63 0 11.91 1.59 1.59 3.71 2.47 5.96 2.47s4.37-.88 5.96-2.47c1.96-1.96 2.83-4.77 2.32-7.51-.35-1.87.25-3.79 1.59-5.13s3.26-1.94 5.13-1.59c2.74.51 5.55-.36 7.51-2.32 3.28-3.28 3.28-8.63 0-11.91s-8.63-3.28-11.91 0c-.11.11-.22.23-.33.35-1.05 1.19-2.55 1.89-4.14 1.93-1.58.06-3.12-.56-4.24-1.68l-74.6-74.6c-2.25-2.25-2.25-5.9 0-8.15s5.9-2.25 8.15 0l70.95 70.95c7.65-4.54 17.7-3.52 24.28 3.05 7.78 7.78 7.78 20.43 0 28.2-3.01 3.01-6.86 4.94-10.96 5.59-.65 4.1-2.58 7.95-5.59 10.96-3.8 3.77-8.81 5.85-14.13 5.85z"/></g><g><path d="m398.06 423.8h-303.6c-16.5 0-29.93-13.43-29.93-29.93v-294.26c0-16.5 13.43-29.93 29.93-29.93h303.6c16.5 0 29.93 13.43 29.93 29.93v294.26c0 16.5-13.43 29.93-29.93 29.93zm-303.6-342.6c-10.15 0-18.41 8.26-18.41 18.41v294.26c0 10.15 8.26 18.41 18.41 18.41h303.6c10.15 0 18.41-8.26 18.41-18.41v-294.26c0-10.15-8.26-18.41-18.41-18.41z"/></g><g><path d="m351.6 423.8c-.37 0-.74-.04-1.12-.11-3.12-.61-5.16-3.64-4.54-6.76l28.87-146.96c8.39-44.07-5.7-65-5.85-65.21-.25-.36-.49-.79-.65-1.21-9.18-23.25-71.7-69.27-167.22-123.1-2.77-1.56-3.75-5.07-2.19-7.85 1.56-2.77 5.07-3.75 7.85-2.19 57.98 32.68 157.12 92.64 172.04 128.32 2.7 4.21 16.01 27.89 7.33 73.43l-28.88 146.99c-.53 2.75-2.94 4.65-5.64 4.65z"/></g><g><path d="m212.91 423.8c-.77 0-1.54-.15-2.29-.48-2.92-1.27-4.26-4.66-2.99-7.58 14.96-34.48 15.45-66.5 15.88-94.75.43-28.33.81-53.2 15.11-73.83-76.7-22.21-120.29-69.66-172.77-133.62-2.02-2.46-1.66-6.09.8-8.11s6.09-1.66 8.11.8c52.99 64.59 96.58 111.87 175.23 132.09 1.95.5 3.5 1.99 4.08 3.92s.11 4.03-1.25 5.52c-16.97 18.72-17.33 42.85-17.79 73.4-.44 29.33-.95 62.57-16.83 99.16-.95 2.18-3.07 3.48-5.29 3.48z"/></g></g></svg>