<svg id="Layer_1" enable-background="new 0 0 58 58" height="512" viewBox="0 0 58 58" width="512" xmlns="http://www.w3.org/2000/svg"><path d="m56 6h-54c-1.103 0-2 .897-2 2v42c0 1.103.897 2 2 2h54c1.103 0 2-.897 2-2v-42c0-1.103-.897-2-2-2zm0 44h-54v-42h54z"/><path d="m5 48h48c.553 0 1-.448 1-1v-36c0-.552-.447-1-1-1h-48c-.553 0-1 .448-1 1v36c0 .552.447 1 1 1zm18.641-16.768c-.113-.094-10.898-9.188-12.505-19.232h7.777l5.805 10.763c.277.517.113 1.155-.373 1.478-1.064.69-1.365 1.572-1.431 2.189-.113 1.075.402 2.3 1.378 3.276.695.696 1.701 1.044 2.707 1.044s2.012-.348 2.707-1.043c.331-.332.546-.596.742-.84.298-.37.495-.615 1.118-1.044.281-.193.73-.294 1.251-.41 1.019-.228 2.413-.539 3.496-1.902.959-1.21 1.387-4.295.489-5.683-.583-.882-1.561-1.408-2.613-1.408-.594 0-1.178.172-1.608.455-.018.006-1.743.431-2.714-1.371l-3.144-5.504h6.859c2.869 2.912 9.418 10.502 9.418 15 0 5.897-5.327 16.533-6.605 19h-2.972l5.102-14.164c.021-.057.036-.115.046-.175.146-.881-.171-1.753-.85-2.333s-1.589-.757-2.438-.476c-.106.036-.229.061-.362.091-.656.147-1.646.37-2.627 1.35-1.033 1.033-2.032 2.556-2.252 3.414l-4.729 12.293h-1.857l4.477-11.641c.198-.515-.06-1.094-.574-1.292-.517-.2-1.095.059-1.293.575l-4.753 12.358h-1.279c.345-6.43 3.823-13.479 3.86-13.553.208-.415.102-.918-.253-1.215zm.779-19.232 3.699 6.474c.815 1.514 2.012 2.095 2.871 2.314 1.086.277 2.125.115 2.587-.186.524-.333 1.23-.167 1.553.32.372.575.128 2.701-.383 3.345-.642.808-1.44.986-2.365 1.193-.663.148-1.349.302-1.949.716-.863.595-1.208 1.022-1.541 1.436-.159.197-.33.412-.599.68-.604.604-1.982.604-2.586 0-.528-.529-.852-1.193-.803-1.652.019-.174.093-.438.538-.727 1.361-.903 1.808-2.664 1.037-4.098l-5.294-9.815zm3.036 34 4.477-11.641c.016-.041.038-.126.048-.168.073-.305.802-1.559 1.726-2.483.57-.57 1.12-.694 1.651-.813.206-.046.394-.091.556-.145.258-.085.439.041.507.099.062.053.194.192.184.417l-5.307 14.734zm24.544 0h-13.355c1.846-3.653 6.355-13.174 6.355-19 0-4.909-5.76-11.822-8.668-15h15.668zm-46-34h3.134c1.368 9.614 10.222 18.105 12.637 20.257-.932 2.023-3.466 8.013-3.743 13.743h-12.028z"/><path d="m39.105 30.447c.144.288.417.488.734.54.055.009.108.013.161.013.263 0 .519-.104.707-.293.133-.132 1.293-1.36 1.293-3.707s-2.059-4.473-2.293-4.707c-.286-.286-.716-.371-1.09-.217-.374.155-.617.52-.617.924 0 1.73-.886 3.536-.896 3.554-.189.382-.113.846.186 1.15.009.009.912.937 1.815 2.743zm.5-4.888c.232.47.395.971.395 1.441 0 .32-.03.605-.079.858-.286-.436-.546-.781-.751-1.035.132-.326.292-.761.435-1.264z"/></svg>