<?xml version="1.0" encoding="iso-8859-1"?>
<!-- Generator: Adobe Illustrator 19.0.0, SVG Export Plug-In . SVG Version: 6.00 Build 0)  -->
<svg version="1.1" id="Capa_1" xmlns="http://www.w3.org/2000/svg" xmlns:xlink="http://www.w3.org/1999/xlink" x="0px" y="0px"
	 viewBox="0 0 512 512" style="enable-background:new 0 0 512 512;" xml:space="preserve">
<g>
	<g>
		<g>
			<path d="M185.552,210.492c-3.885-14.708-12.644-27.664-24.845-36.75c-5.923-4.326-12.756-7.241-19.978-8.522
				c-2.553-0.406-5.133-0.619-7.718-0.636c-2.706,0.008-5.306,0.122-7.798,0.342c-0.308,0.028-0.565,0.082-0.869,0.113
				c-2.096,0.213-4.111,0.504-6.045,0.872c-0.612,0.117-1.165,0.257-1.745,0.386c-1.686,0.376-3.319,0.8-4.866,1.301
				c-0.368,0.118-0.752,0.232-1.105,0.354c-1.891,0.648-3.734,1.428-5.516,2.334l-0.054,0.018c-2.414,1.211-4.66,2.733-6.679,4.527
				l6.545,13.08c1.759,3.52,1.068,7.771-1.714,10.554s-7.033,3.473-10.554,1.714c-3.84-1.829-8.003-2.882-12.25-3.098
				c-1.662-0.149-3.318,0.347-4.625,1.384c-6.464,6.464-6.464,23.883-6.464,39.249c0.749,4.683,2.614,9.118,5.438,12.929
				c8.223,14.375,21.991,38.429,21.991,96.786v113.339c-0.002,12.882,10.245,23.427,23.122,23.795
				c12.877,0.367,23.709-9.577,24.441-22.438c2.723-48,7.295-136.232,7.295-187.839c0-13.446,10.964-18.464,18.964-22.116
				c7.196-3.29,14.164-6.478,16.69-15.614l0.024-0.093c0.176-0.654,0.296-1.386,0.426-2.103c0.315-1.914,0.471-3.85,0.467-5.789
				c-0.016-2.425-0.166-4.846-0.449-7.254C187.182,217.671,186.47,214.056,185.552,210.492z M160.235,231.463
				c-0.767,2.301-2.417,4.203-4.586,5.287c-4.517,2.257-10.008,0.426-12.268-4.089c-5.437-9.815-13.524-17.903-23.339-23.339
				c-2.93-1.456-4.859-4.367-5.057-7.633c-0.199-3.266,1.363-6.389,4.095-8.19s6.218-2.004,9.141-0.534
				c13.365,7.194,24.324,18.153,31.518,31.518C160.824,226.651,161.002,229.162,160.235,231.463z"/>
			<path d="M407.56,137.143c-25.161,0-78.366,17.402-96.482,26.464c-9.099,4.326-17.542,9.914-25.08,16.599
				c-2.338,2.305-5.73,3.181-8.891,2.298c-3.161-0.883-5.608-3.392-6.412-6.574c-0.313-1.17-8.054-29.643-36.848-29.643
				c-3.383,0-6.629,0.194-9.781,0.505c-1.033,0.102-2.006,0.277-3.013,0.41c-2.074,0.272-4.127,0.569-6.093,0.961
				c-1.108,0.222-2.17,0.488-3.242,0.744c-1.768,0.424-3.506,0.876-5.177,1.387c-1.039,0.318-2.059,0.652-3.059,1.001
				c-1.612,0.563-3.173,1.162-4.684,1.798c-0.905,0.379-1.818,0.754-2.686,1.157c-1.56,0.723-3.038,1.493-4.48,2.281
				c-0.688,0.376-1.411,0.733-2.071,1.123c-1.795,1.057-3.482,2.161-5.074,3.294c-0.219,0.156-0.472,0.3-0.687,0.457
				c-1.422,1.039-2.68,2.118-3.929,3.197c4.416,3.914,8.33,8.36,11.651,13.238c12.502-8.48,27.222-13.094,42.327-13.268
				c5.049,0,9.143,4.093,9.143,9.143s-4.093,9.143-9.143,9.143c-12.272,0.184-24.182,4.185-34.075,11.447
				c0.19,0.551,0.48,1.049,0.656,1.607c1.208,3.822,2.152,7.365,2.974,10.778c1.608,6.023,2.557,12.203,2.829,18.431
				c0.041,0.842,0.127,1.732,0.138,2.541c0.002,0.304,0.049,0.606,0.049,0.91c0,0.89-0.118,1.689-0.154,2.55
				c-0.047,1.099-0.091,2.2-0.196,3.234c-0.102,1.004-0.248,1.978-0.406,2.942c-0.181,1.111-0.396,2.183-0.645,3.215
				c-0.201,0.838-0.4,1.68-0.647,2.485c-0.368,1.167-0.795,2.314-1.278,3.438c-0.43,1.027-0.906,2.022-1.422,2.989
				c-0.512,0.951-1.031,1.893-1.611,2.762c-0.21,0.319-0.357,0.68-0.578,0.992c0.277,0.196,0.563,0.393,0.839,0.571
				c1.807,0.995,4.06,0.627,5.455-0.893l3.322-3.321c1.715-1.714,4.04-2.677,6.464-2.679c0.706,0.001,1.41,0.082,2.098,0.241
				c3.085,0.727,5.572,3.001,6.571,6.009c0.759,2.259,18.509,55.607,27.625,92.107c8.911,35.625,23.277,64.357,45.027,107.839
				c15.759,31.518,29.402,31.518,46.679,31.518c33.009,0,36.571-51.152,36.571-73.143c0-15.777,9.679-42.482,21.92-76.295
				c18.009-49.704,40.182-111.063,41.912-164.04c-0.01-0.223-0.088-0.431-0.081-0.657l0.134-2.848
				c0.054-1.018,0.116-2.027,0.116-3.018C444.132,150.321,439.703,137.143,407.56,137.143z M406.905,167.977
				c-1.217,3.032-3.959,5.185-7.193,5.648h0c-58.321,8.33-75.813,32.348-75.973,32.589c-1.799,2.748-4.934,4.32-8.213,4.118
				c-3.278-0.202-6.196-2.148-7.644-5.096c-1.448-2.948-1.202-6.447,0.642-9.164c0.839-1.259,21.33-30.938,88.598-40.554
				c3.234-0.463,6.47,0.836,8.488,3.406C407.629,161.493,408.122,164.945,406.905,167.977z"/>
			<path d="M110.028,149.018l0.262-0.068c2.092-0.527,4.301-0.993,6.661-1.379c0.201-0.033,0.391-0.075,0.592-0.107
				c4.89-0.756,9.829-1.15,14.777-1.18h0.545l0.127,0.011l0.284-0.011c3.187,0.028,6.368,0.301,9.513,0.818
				c1.42,0.206,2.799,0.523,4.197,0.815c1.156,0.261,2.308,0.534,3.453,0.86c4.834,1.217,9.525,2.941,13.998,5.142
				c1.721-1.671,3.593-3.318,5.616-4.941c0.618-0.493,1.326-0.954,1.971-1.44c1.682-1.266,3.405-2.512,5.272-3.711
				c0.939-0.603,1.95-1.16,2.934-1.742c1.735-1.025,3.504-2.022,5.381-2.97c1.147-0.58,2.335-1.121,3.535-1.667
				c1.889-0.862,3.834-1.67,5.849-2.437c1.302-0.496,2.61-0.972,3.964-1.424c2.116-0.706,4.313-1.323,6.552-1.91
				c1.388-0.364,2.751-0.742,4.186-1.056c2.502-0.547,5.116-0.955,7.76-1.336c1.298-0.188,2.542-0.435,3.874-0.579
				c4.156-0.461,8.334-0.697,12.515-0.707c21.069-0.032,40.316,11.943,49.598,30.857c6.178-4.362,12.682-8.243,19.455-11.607
				c1.19-0.595,2.523-1.225,3.971-1.881c0.516-0.233,1.114-0.483,1.659-0.722c0.994-0.436,1.971-0.87,3.058-1.326
				c0.656-0.274,1.382-0.561,2.069-0.841c1.08-0.441,2.146-0.879,3.301-1.334c0.742-0.293,1.542-0.591,2.313-0.887
				c1.186-0.455,2.36-0.909,3.607-1.371c0.853-0.316,1.749-0.636,2.628-0.954c1.231-0.447,2.454-0.892,3.731-1.341
				c0.886-0.311,1.797-0.62,2.703-0.932c-31.785-10.023-64.785-15.676-98.094-16.804c-11.515,0.082-22.959,1.813-33.982,5.143
				c-4.842,1.43-9.927-1.336-11.357-6.179c-1.43-4.842,1.336-9.927,6.179-11.357c12.704-3.828,25.892-5.812,39.161-5.893
				c34.313,0,77.858,8.63,129.411,25.59c0.645-0.168,1.283-0.32,1.926-0.484c1.093-0.278,2.176-0.547,3.263-0.814
				c1.382-0.338,2.752-0.665,4.123-0.982c1.089-0.252,2.167-0.494,3.246-0.731c1.336-0.294,2.655-0.571,3.971-0.84
				c1.08-0.221,2.152-0.434,3.216-0.638c1.277-0.243,2.531-0.466,3.781-0.682c1.061-0.183,2.113-0.361,3.15-0.522
				c1.202-0.187,2.372-0.349,3.538-0.506c1.019-0.137,2.034-0.272,3.022-0.384c1.112-0.126,2.181-0.22,3.25-0.314
				c0.975-0.085,1.951-0.171,2.888-0.228c0.302-0.018,0.632-0.058,0.929-0.073c-62.92-13.259-146.635-27.536-215.429-27.536
				c-50.411,0-91.429,16.402-91.429,36.571c-0.211,8.191,2.143,16.243,6.732,23.031
				C105.463,150.289,107.675,149.621,110.028,149.018z"/>
			<path d="M455.123,130.571c-3.054-0.732-6.241-1.488-9.563-2.267c0.359,0.248,0.638,0.539,0.984,0.794
				c1.032,0.763,2.027,1.545,2.938,2.37c0.469,0.425,0.907,0.861,1.346,1.301c0.8,0.804,1.551,1.63,2.253,2.478
				c0.374,0.454,0.755,0.902,1.102,1.367c0.728,0.973,1.383,1.974,1.998,2.993c0.214,0.355,0.46,0.697,0.661,1.057
				c0.772,1.379,1.459,2.803,2.058,4.266c0.123,0.302,0.212,0.613,0.328,0.918c0.444,1.167,0.847,2.344,1.188,3.534
				c0.145,0.512,0.265,1.026,0.393,1.541c0.251,1.009,0.475,2.017,0.661,3.032c0.098,0.546,0.194,1.088,0.277,1.634
				c0.156,1.051,0.278,2.099,0.375,3.148c0.042,0.464,0.101,0.926,0.132,1.388c0.103,1.494,0.165,2.982,0.165,4.447v-24.67
				C462.448,135.475,459.426,131.61,455.123,130.571z"/>
			<path d="M498.989,0H308.516c-9.814,0.03-19.363,3.189-27.259,9.018c-30.516,24.219-67.12,39.555-105.786,44.322
				c-13.786,2.563-29.402,5.455-49.125,10.384C45.212,84.009,23.56,142.411,23.56,173.714c0,14.759,1.563,32.982,3.375,54.071
				c2.571,29.973,5.768,67.259,5.768,110.5c-2.429,54.9-11.961,109.254-28.357,161.705c-0.94,2.786-0.475,5.855,1.247,8.239
				c1.722,2.383,4.49,3.788,7.431,3.77H155.56c12.668,0.014,24.248-7.155,29.884-18.5c11.83-24.33,11.83-47.304,11.83-82.071
				c0-5.049,4.093-9.143,9.143-9.143c5.049,0,9.143,4.093,9.143,9.143v91.429c0.003,5.048,4.095,9.139,9.143,9.143h274.286
				c5.048-0.003,9.139-4.095,9.143-9.143V9.143C508.128,4.095,504.037,0.003,498.989,0z M480.703,167.777
				c0.099,4.861-2.007,9.506-5.73,12.635c-3.722,3.128-8.661,4.404-13.432,3.47c-4.379,52.704-25.177,110.229-42.294,157.485
				c-11.179,30.848-20.83,57.5-20.83,70.063c0,58.107-19.991,91.429-54.857,91.429c-18.813,0-42.223,0-63.036-41.625
				c-21.482-42.964-37.009-74.009-46.402-111.589c-6.384-25.527-17.41-60.5-23.286-78.679c-6.752,2.748-14.419,2.031-20.545-1.92
				c-1.75-1.17-3.417-2.459-4.99-3.858c-2.343,1.321-4.756,2.504-7.171,3.608c-6.58,3.009-8.286,4.143-8.286,5.491
				c0,52.054-4.59,140.679-7.33,188.875c-1.291,22.742-20.443,40.328-43.212,39.681c-22.769-0.648-40.89-19.295-40.886-42.073
				V347.429c0-53.491-11.786-74.08-19.58-87.705c-4.582-6.479-7.297-14.092-7.848-22.009c0-19.839,0-40.357,11.822-52.178
				c4.556-4.437,10.695-6.87,17.054-6.759l-0.482-0.973c-1.286-2.575-1.286-5.604,0-8.179c2.062-3.68,4.81-6.93,8.096-9.575
				c-6.086-9.569-9.236-20.711-9.061-32.05c0-32.295,45.116-54.857,109.714-54.857c87.438,0,195.768,21.563,271.25,39.643
				c12.54,2.993,21.371,14.224,21.321,27.116V167.777z"/>
		</g>
	</g>
</g>
<g>
</g>
<g>
</g>
<g>
</g>
<g>
</g>
<g>
</g>
<g>
</g>
<g>
</g>
<g>
</g>
<g>
</g>
<g>
</g>
<g>
</g>
<g>
</g>
<g>
</g>
<g>
</g>
<g>
</g>
</svg>
