<svg id="Layer_1" enable-background="new 0 0 512 512" viewBox="0 0 512 512" xmlns="http://www.w3.org/2000/svg"><path d="m397.3 226.2c-12.7-19.4-33-33-55.7-37.3l-68.3-13.1-1.5-22c-.6-8.6-7.4-15.4-16-16-9.5-.7-17.7 6.6-18.3 16l-1.5 22.5-65.6 12.5c-22.7 4.4-43 18-55.7 37.3l-12.5 19c-4.5 6.4-2.5 16.4 4.1 20.4 6.5 4.7 16.4 2.6 20.6-4.2 0 0 12.5-19.1 12.5-19.1 8.3-12.7 21.6-21.6 36.5-24.4l57.9-11.1-2.3 34.1-50.9 9.7c-20.4 3.9-38.7 16.1-50.1 33.5l-11 16.8c-6.5 9.5 1 23.2 12.4 23 5.1 0 9.7-2.5 12.4-6.7l10.9-16.7c7.1-10.7 18.3-18.3 30.8-20.7l43.3-8.3-2.3 34.1s-36.3 6.9-36.3 6.9c-18.1 3.5-34.3 14.4-44.4 29.8l-9.4 14.4c-6.5 9.4 1 23.2 12.4 23 5 0 9.7-2.5 12.4-6.7l9.4-14.4c5.7-8.8 14.9-14.9 25.2-16.9l28.7-5.4-2.3 34-21.7 4.1c-15.9 3.1-30 12.5-38.8 26l-7.9 12c-6.6 9.3.9 23.4 12.4 23 10.5.6 15.3-11.7 20.3-18.7 4.5-6.8 11.6-11.6 19.5-13.1l14.1-2.7c-.2 3.7-1.8 22.4-1.4 25.7 1.2 18.6 16.8 32.8 35.1 32.8 19.8.5 36.9-17.8 35.1-37.5 0 0-1.4-21.5-1.4-21.5 12.9 2.4 28.9 3.6 36.3 16.3 5 7 9.8 19.3 20.3 18.7 11.4.4 19-13.6 12.4-22.9 0 0-7.9-12-7.9-12-8.8-13.5-22.9-22.9-38.8-26l-24.4-4.7-2.3-34 31.4 6c10.3 2 19.4 8.1 25.2 16.9l9.8 14.4c2.8 4.2 7.4 6.7 12.4 6.7 11.4.3 18.9-13.5 12.4-23 0 0-9.4-14.4-9.4-14.4-10.1-15.4-26.3-26.3-44.5-29.8l-39-7.4-2.3-34.1 46 8.8c12.6 2.4 23.8 9.9 30.8 20.6l10.9 16.7c4.2 6.8 13.9 8.8 20.5 4.3 6.8-4.5 8.8-13.7 4.3-20.6l-11-16.7c-11.4-17.4-29.7-29.6-50.1-33.5l-53.6-10.2-2.3-34.1 60.9 11.7c14.9 2.8 28.2 11.7 36.5 24.4l12.5 19.1c4.2 6.8 14.1 8.8 20.6 4.2 6.7-4.2 8.8-13.9 4.2-20.5zm-175.6 162.7-17 3.3c-11 2.1-20.9 8.7-27.1 18.1l-7.9 12c-1.5 2.3-5.3 1.6-5.8-1.1-1.1-1.4 6.8-11.6 8.4-14.4 7.1-10.8 18.4-18.5 31.2-20.9l18.7-3.6c-.1 1.4-.4 5.2-.5 6.6zm4.3-64.6-31.7 6c-13.3 2.6-25.3 10.5-32.7 21.9l-9.4 14.4c-2.3 3.5-7.6.1-5.4-3.5 0 0 9.4-14.4 9.4-14.4 8.4-12.8 21.8-21.8 36.9-24.7l33.3-6.3c.1.1-.3 6.4-.4 6.6zm82.5 61.5c12.8 2.5 24.1 10.1 31.2 20.9l7.9 12.1c.5.7.6 1.5.4 2.3-.4 2.7-4.2 3.4-5.8 1.1 0 0-7.9-12-7.9-12-6.2-9.4-16.1-16-27.1-18.1l-19.8-3.8-.4-6.6zm10.3-61.8c15.1 2.9 28.5 11.9 36.9 24.7l9.4 14.4c2.3 3.5-3.1 7-5.4 3.5 0 0-9.4-14.4-9.4-14.4-7.4-11.4-19.4-19.4-32.7-21.9l-34.4-6.6-.4-6.6zm-69.7-169.4c.2-3.1 2.9-5.4 5.9-5.2 2.8.2 5 2.4 5.2 5.2l1 15.3c-4.5-.2-8.9-.2-13.2 0zm-1.8 27.1c4.8-.3 9.7-.3 14.7 0 .6 8.3 1.8 26 2.3 34.4-6.2-.4-12.7-.4-19.3 0zm-3.8 57.1.7-10.9c7.2-.6 14.4-.6 20.9 0l.7 10.4 1.3 19.8.3 4.4c-8.8-.8-17.4-.8-25.5 0 .4-6 1.2-17.8 1.6-23.7zm-4.4 64.6 2-29.2c8.6-.9 17.7-1 27.1 0l1.9 28.7.4 5.9c-10.3-1.2-21.2-1.1-31.7 0zm-1.1 17.3c11-1.4 22.6-1.4 33.3 0l.2 2.8 2.1 31.9c-12.7-1.7-25.5-1.7-38 0zm-64.2-114.1c-18 3.4-34 14.2-44 29.5l-12.5 19.1c-2.1 3.5-7.7 0-5.3-3.5l12.5-19.1c10.9-16.7 28.5-28.5 48.2-32.3l62.6-12c0 .2-.4 6.2-.4 6.6zm56.6 53-46.3 8.9c-15.6 3-29.6 12.3-38.4 25.7l-11 16.8c-2.2 3.4-7.6 0-5.3-3.5 0 0 11-16.7 11-16.7 9.7-14.8 25.2-25.1 42.5-28.4l48-9.1zm98.7 2.6c17.4 3.3 32.9 13.7 42.6 28.4l10.9 16.7c2.3 3.5-3.1 7-5.3 3.5 0 0-11-16.7-11-16.7-8.8-13.3-22.8-22.7-38.4-25.7l-49-9.3-.4-6.6zm-56.7 177.5c-14.2 16.9-43.1 4.9-41.2-17.1 0 0 .6-9 .6-9 15.2-2.7 30.9-2.7 45.8-.1.9 8.9 1.5 19.3-5.2 26.2zm3.4-52.5 1 14.4c-14.4-2.3-29.5-2.3-44.2 0 .5-8.1 1.7-25.6 2.3-33.6l.1-.9c12.9-2 26.3-2 39.6 0v.4zm124.7-133.2c-.5 2.6-4.1 3.5-5.8 1.1l-12.5-19.1c-10-15.3-26.1-26.1-44-29.5l-63.7-12.2-.4-6.6 65.3 12.5c19.7 3.8 37.2 15.5 48.2 32.3l12.5 19.1c.4.8.6 1.6.4 2.4zm25.5-168.8h-32.6c-15.5-16.8-36.2-28.5-58.6-32.9-15.9-3.1-29.3-13.9-35.6-28.9l-10-23.3h-66.3l-10 23.4c-6.4 14.9-19.7 25.7-35.6 28.9-22.3 4.5-43.4 16-58.7 32.9h-32.7c-33.6 0-60.9 27.3-60.9 60.9v304.8c0 33.6 27.3 60.9 60.9 60.9h340.1c33.6 0 60.9-27.3 60.9-60.9v-304.9c.1-33.5-27.3-60.9-60.9-60.9zm-286.9-3.2c11.8-9.1 25.8-15.4 40.4-18.3 19.7-3.9 36.1-17.2 44-35.7l7-16.3h50.9l7 16.3c7.9 18.5 24.4 31.8 44.1 35.7 16.3 3.2 31.6 10.7 44.2 21.5h-241.6c1.3-1.1 2.7-2.1 4-3.2zm336.2 369c0 27.2-22.1 49.3-49.3 49.3h-340.1c-27.2 0-49.3-22.1-49.3-49.3v-304.9c0-27.2 22.1-49.3 49.3-49.3h340.1c27.2 0 49.3 22.1 49.3 49.3zm-53.5-331.6h-331.6c-16.9 0-30.6 13.7-30.6 30.6v297.2c0 16.9 13.7 30.6 30.6 30.6h331.6c16.9 0 30.6-13.7 30.6-30.6v-297.2c0-16.9-13.8-30.6-30.6-30.6zm18.9 327.7c0 10.5-8.5 19-19 19h-331.5c-10.4 0-19-8.5-19-19v-297.1c0-10.5 8.5-19 19-19h331.6c10.4 0 19 8.5 19 19v297.1z"/></svg>