<svg id="Capa_1" enable-background="new 0 0 595.84 595.84" height="512" viewBox="0 0 595.84 595.84" width="512" xmlns="http://www.w3.org/2000/svg"><g><g><path d="m175.678 324.874c12.125 0 21.989-8.484 21.989-18.916 0-10.456-9.864-18.963-21.989-18.963s-21.989 8.507-21.989 18.963c0 10.433 9.864 18.916 21.989 18.916zm0-28.42c6.795 0 12.532 4.351 12.532 9.505 0 5.126-5.736 9.458-12.532 9.458-6.909 0-12.532-4.242-12.532-9.458.001-5.24 5.623-9.505 12.532-9.505z"/><path d="m577.586 165.478c-18.462-35.949-83.555-67.954-131.085-91.329-23.219-11.42-43.274-21.28-49.119-27.385-16.963-17.771-13.86-41.122-13.827-41.345.199-1.362-.199-2.743-1.097-3.783-.898-1.04-2.204-1.636-3.58-1.636h-161.917c-1.371 0-2.672.601-3.57 1.636-.898 1.036-1.3 2.416-1.107 3.774.033.232 3.14 23.588-13.823 41.354-5.845 6.114-25.891 15.965-49.105 27.376-14.948 7.349-31.892 15.676-48.429 24.652-45.776 24.86-72.045 46.05-82.675 66.691-27.152 52.921-16.086 410.58-15.604 425.779.08 2.554 2.171 4.578 4.729 4.578h536.398.033 44.655c2.554 0 4.644-2.029 4.729-4.578.482-15.199 11.547-372.858-15.606-425.784zm-38.564 420.904h-25.342c8.058-120.152 3.934-251.023-11.151-351.508 4.88-12.503 12.092-23.682 21.961-34.086 2.383-.203 4.838-.515 7.528-1.04 13.231-2.615 20.452-7.973 24.444-13.004 2.402 7.963 4.521 20.131 6.308 36.365-23.256 93.462-24.623 225-23.748 363.273zm-163.426-465.758c-7.694 1.102-14.797 2.402-21.313 3.868 2.109-4.067 3.949-8.862 4.237-13.643.009-.061-.005-.118.005-.18.005-.061.038-.113.038-.175s-.028-.113-.028-.175c.057-.634.099-1.277.047-1.892-.298-5.93-2.927-11.278-5.731-15.378 5.665-.024 11.378.076 17.142.388 2.208 1.57 8.337 6.554 8.942 14.007.558 6.792-1.967 11.284-3.339 13.18zm35.708 40.726c-6.129.241-12.409.407-18.911.506 4.038-3.939 7.405-8.346 10.063-13.194 6.795-.459 14.556-.445 23.238.076-3.636 5.05-8.469 9.259-14.39 12.612zm38.266 25.597c6.994 4.317 11.86 11.037 12.759 17.804.705 5.325-1.064 10.266-5.126 14.3-.629.629-1.386 1.239-2.341 1.873-2.71 1.887-6.573 3.537-11.472 4.909-30.005 8.332-88.52 3.168-128.347-5.921-4.388-.993-8.484-2.048-12.394-3.116v-4.02c1.688.043 3.395.128 5.069.128 8.394 0 16.546-.577 24.387-1.655 18.783 5.003 46.83 8.479 70.465 8.479 19.02 0 35.159-2.241 41.241-7.727 3.272-2.96 4.582-7.368 3.693-12.399-.78-4.403-3.149-8.942-6.431-12.858 2.88.056 5.731.118 8.497.203zm-131.15-21.923c.43 4.436.061 8.9-1.102 13.302-1.173 4.544-3.504 8.975-6.933 13.179-.005.005-.005.009-.009.014-.009.014-.028.019-.038.033-2.506 3.069-5.249 5.571-7.684 7.505v-40.574l12.74-4.568c1.134 2.46 2.529 6.267 3.026 11.109zm138.324 65.765c4.923 5.651 8.54 13.231 9.874 20.921.927 5.429 1.901 18.826-8.966 25.914-3.216 2.071-8.304 3.499-15.114 4.242-29.045 3.149-84.761-7.155-126.843-23.451-4.634-1.788-8.961-3.651-13.052-5.538v-7.997c3.097 1.239 6.346 2.459 9.836 3.651 29.702 10.035 79.284 19.771 108.675 19.771 9.245 0 16.494-.965 20.49-3.183 12.962-7.188 12.243-21.918 9.179-31.759 2.185-.789 4.162-1.649 5.921-2.571zm-154.095 49.724v-17.246c2.137.932 4.36 1.84 6.62 2.747v17.809c-2.397-1.121-4.611-2.227-6.62-3.31zm16.598-233.224c1.773 0 3.216 1.338 3.216 2.979v10.167c0 1.646-1.442 2.979-3.216 2.979h-16.598v-16.125zm-9.978 25.583v8.181h-6.62v-8.181zm9.174 17.639c1.367 0 2.615.629 3.343 1.688.307.449.681 1.177.681 2.095v7.188c0 2.062-1.802 3.736-4.02 3.736h-15.794v-14.707zm-9.174 24.164v8.101l-6.62 1.518v-9.619zm13.194 250.395c0 3.495-3.012 6.337-6.715 6.337h-13.099v-20.121c5.854 3.566 12.503 7.003 19.814 10.29zm-13.194 15.794v10.446c-2.346-1.334-4.53-2.677-6.62-4.029v-6.417zm2.568 22.605c24.576 12.607 57.877 23.446 84.037 23.446 7.632 0 14.655-.922 20.679-2.993 9.013-3.121 15.142-10.073 16.806-19.076 1.334-7.188-.298-14.735-4.161-20.973.435-.118.884-.227 1.282-.359 1.929-.634 3.788-1.428 5.604-2.303 7.32 9.122 10.545 21.97 8.176 33.76-1.958 9.741-7.245 16.892-14.986 20.178-.402.184-.813.326-1.239.482-3.67 1.352-8.19 2.26-13.444 2.705-27.092 2.393-69.401-7.136-98.394-22.174-5.017-2.629-9.543-5.381-13.544-8.19v-9.533c2.899 1.705 5.954 3.384 9.184 5.03zm113.214 62.014c-3.736 7.812-11.033 13.534-21.479 16.65l-.511.137c-5.613 1.485-13.591 1.925-23.034 1.272-19.98-1.466-45.156-7.774-64.152-16.078-.014-.005-.024-.009-.033-.014 0 0-.005 0-.005-.005-4.937-2.142-9.34-4.384-13.184-6.677v-12.347c2.691 2.048 5.66 4.048 8.98 5.963 21.602 12.484 52.992 19.795 72.333 19.795 4.067 0 7.604-.326 10.404-.988 22.013-5.325 26.245-17.067 25.924-25.995 2.241-.331 4.341-.761 6.332-1.267 1.792 6.744 1.286 13.563-1.575 19.554zm-32.535 43.676c-3.778 3.036-8.971 5.679-15.416 7.855-2.998 1.003-6.45 1.816-10.224 2.412-11.647 1.75-25.683.889-38.54-2.369-10.162-2.53-19.166-6.455-25.687-11.132v-8.143c2.606 1.159 5.826 2.53 9.505 3.958h.005c.047.019.085.033.132.052 11.836 4.578 27.839 9.491 41.997 9.491 2.927 0 5.779-.208 8.493-.681 12.943-2.185 18.684-10.806 20.698-17.483 1.575.061 3.225.17 4.71.17 4.511 0 8.55-.307 12.177-.865.459 6.62-2.094 12.139-7.85 16.735zm-35.31 33.75c.383-1.537 1.371-2.828 2.747-3.618 5.476-3.06 9.254-6.852 11.165-11.07 3.216-.619 6.275-1.338 8.99-2.246 3.518-1.187 6.715-2.53 9.623-3.986-2.582 12.196-10.489 21.412-23.829 27.385-2.658 1.248-6.403.34-7.992-2.171-.822-1.291-1.073-2.818-.704-4.294zm-47.937-101.359c-2.563-1.882-4.771-3.802-6.62-5.75v-16.485c2.1 1.305 4.322 2.582 6.62 3.84zm0 48.798c-2.757-1.177-5.027-2.218-6.62-2.97v-15.766c2.09 1.102 4.313 2.18 6.62 3.235zm13.194 34.908v4.705c0 3.755-3.225 6.81-7.188 6.81h-.095c-.019 0-.033 0-.052 0h-12.48v-19.639c5.723 3.272 12.409 6.02 19.815 8.124zm124.871-183.083c2.317 12.243-2.152 22.897-12.527 29.05-2.265 1.352-4.715 2.464-7.301 3.31-1.215.407-3.523.927-7.609 1.088-18.452.851-57.432-6.947-90.828-21.417-.014-.005-.024-.009-.038-.014 0 0-.005 0-.005-.005-10.299-4.464-19.109-9.231-26.382-14.163v-8.999c2.828 1.556 5.892 3.149 9.259 4.805.043.019.085.038.128.061.071.033.137.071.208.099 32.894 16.144 81.531 31.021 100.531 31.021.974 0 1.873-.038 2.681-.118 11.86-1.135 17.809-6.313 20.708-10.46 2.648-3.788 3.878-8.304 3.722-13.066 2.762-.261 5.197-.677 7.453-1.192zm-138.065-18.329c-2.379-1.272-4.582-2.511-6.62-3.726v-9.354c2.071 1.097 4.299 2.204 6.62 3.315zm0-86.544c-2.336-.884-4.526-1.773-6.62-2.672v-8.03c2.137.563 4.355 1.111 6.62 1.65zm-6.62-88.865v-14.433l12.409-2.847c.076-.019.123-.071.199-.09l2.511-.563c1.211-.27 2.45.014 3.391.771.492.393 1.31 1.263 1.31 2.648v5.013c0 1.438-.965 2.743-2.407 3.258zm28.695-43.345c.34-1.154.577-2.35.577-3.608v-7.188c0-.175-.033-.345-.038-.52 3.041-.222 6.02-.388 8.938-.487 2.09 2.142 6.096 6.786 7.675 12.172-5.756-.237-11.468-.364-17.152-.369zm-22.075-67.259h-6.62v-9.741h6.62zm-6.62 524.59v-16.192h6.356c-1.007 5.169-.884 10.588.317 16.211-2.403.004-4.753-.005-6.673-.019zm161.595-244.72c-2.833 6.531-8.082 11.43-15.194 14.163-3.499 1.352-8.441 2.156-14.697 2.383-29.82 1.159-82.935-11.127-118.326-27.423-5.074-2.336-9.533-4.639-13.373-6.871v-8.796c2.88 1.409 6.02 2.837 9.5 4.308.005.005.014.005.019.009 28.17 11.874 74.631 23.748 105.137 23.748 9.358 0 17.227-1.121 22.59-3.703 7.169-3.443 9.916-8.375 10.962-11.912 1.192-4.043.87-8.635-.818-13.335 3.632-.728 6.767-1.702 9.439-2.932 7.102 7.151 9.334 20.052 4.761 30.361zm-132.48-115.919c-6.308.908-12.881 1.4-19.611 1.565 1.561-1.442 3.14-3.079 4.677-4.875 11.761-4.842 22.614-8.172 30.586-9.368 4.067-.605 15.251-1.239 29.816-1.726-14.195 7.263-29.2 12.03-45.468 14.404zm-9.301-190.575c0 4.095-3.499 7.424-7.803 7.424h-12.011v-9.173h19.814zm-19.814 560.582c3.088.071 7.169.076 12.602.076h.246.014s.009 0 .014 0 .014 0 .019 0c1.925-.071 3.655.7 4.984 2.015 1.248 1.234 1.934 2.856 1.934 4.554v7.949h-19.814zm170.712-251.61c5.211-13.104 2.634-28.662-6.01-38.384 7.344-7.292 10.541-18.277 8.706-30.648 4.128-23.739 12.943-40.91 26.827-52.486 3.102.889 6.148 1.518 9.179 1.901-8.157 9.85-14.494 20.58-18.816 32.033-.014.033-.005.066-.014.099-5.055 13.307-7.618 28.198-7.618 44.272v309.416h-12.248v-266.203zm56.837-129.709c-2.984.582-5.66.927-8.19 1.055-6.46.326-12.248-.463-18.797-2.61-3.258-1.069-6.36-2.327-9.647-3.655-4.842-1.962-9.855-3.996-15.482-5.415-4.403-1.125-12.806-1.858-26.345-2.298-.515-.099-1.031-.118-1.551-.043-7.448-.232-15.435-.359-23.214-.359-.009 0-.014.005-.024.005s-.014-.005-.024-.005c-10.385 0-21.242.095-31.532.284-.009 0-.019.005-.028.005s-.019-.005-.028-.005c-23.853.497-43.208 1.409-49.313 2.322-5.892.884-13.137 2.809-21.053 5.538.596-1.509 1.102-3.026 1.499-4.563.974-3.674 1.457-7.401 1.532-11.146 16.579 1.135 33.533 1.806 50.585 1.844h.009c.009 0 .014-.005.024-.005.009 0 .014.005.024.005 12.078 0 23.167-.213 33.868-.653.061.005.118.038.18.038.137 0 .265-.047.397-.061 30.596-1.149 63.443-4.048 97.642-8.635 2.251-.303 3.967-2.161 4.095-4.426s-1.381-4.303-3.58-4.852c-.393-.099-39.812-9.822-77.152-12.986-.109-.009-.203-.014-.312-.024-.033 0-.061-.019-.099-.019-.019 0-.038.009-.057.009-13.033-1.116-24.472-1.267-33.963-.468-.019 0-.033.005-.052.005-.104.009-.218.009-.322.019-2.029.147-3.963.345-5.878.596-31.646 4.341-56.151 13.43-66.715 17.847-.7-2.814-1.561-5.268-2.407-7.188 3.684-1.688 6.337-4.946 7.245-8.782 2.024-1.083 6.181-3.026 13.454-5.235 9.373-2.785 20.722-5.107 33.778-6.899 3.769-.558 7.774-1.021 12.092-1.485 46.059-4.852 115.068 11.548 122.365 13.331 19.024 12.196 31.589 23.521 38.427 34.582-.899 3.12-4.81 11.045-21.451 14.332zm-140.334-71.652c-1.055.113-2.024.232-3.041.345 1.163-3.339 1.953-7.505 1.546-12.48-.388-4.795-2.166-8.862-4.346-12.144 22.141 2.137 44.338 6.479 64.899 12.773 12.588 5.982 25.508 12.286 37.935 18.934-26.585-5.002-66.156-10.663-96.993-7.428zm-363.198 50.987c9.415-18.282 34.483-38.399 76.518-61.457 6.668 3.58 26.364 13.335 46.409 15.241 10.238.998 19.303.099 28.071-.766 11.444-1.135 22.249-2.199 33.878 1.423 19.899 6.2 33.859 22.703 33.996 22.869.936 1.121 2.279 1.698 3.637 1.698 1.069 0 2.142-.359 3.022-1.097 2.005-1.669 2.279-4.644.61-6.654-.634-.766-15.813-18.797-38.455-25.848-13.458-4.195-25.739-2.979-37.618-1.806-8.313.818-16.91 1.674-26.236.766-14.149-1.348-28.544-7.221-37.108-11.293 13.808-7.282 27.669-14.125 40.139-20.259 25.011-12.295 44.759-22.004 51.767-29.329 15.052-15.761 16.844-34.701 16.712-43.837h71.184v576.924h-180.739v-308.884c8.053 16.154 12.929 33.722 14.485 52.443.501 6.171 3.291 12.144 7.864 16.83l9.358 9.548c4.781 4.894 11.226 7.963 18.154 8.64l105.88 10.167c.156.014.307.019.459.019 2.407 0 4.469-1.83 4.705-4.275.251-2.601-1.655-4.913-4.256-5.159l-105.875-10.162c-4.71-.459-9.075-2.535-12.309-5.84l-9.358-9.543c-3.031-3.107-4.875-7.003-5.202-10.995-2.189-26.274-10.484-50.438-24.647-71.837-.028-.043-.028-.095-.057-.137-5.23-7.897-11.283-15.525-17.989-22.661-1.788-1.906-4.786-1.996-6.687-.208-1.906 1.788-1.996 4.781-.208 6.687 6.02 6.408 11.453 13.227 16.215 20.277v325.092h-91.016c-1.23-42.707-9.756-368.915 14.697-416.577zm557.205 416.577h-8.63c1.168-36.044 7.888-261.38-2.979-363.491 0-.005-.005-.009-.005-.014 0-.014.005-.028.005-.047-2.497-22.935-5.608-38.063-9.552-46.338-.615-1.225-1.277-2.502-1.972-3.693-7.457-12.967-21.545-25.933-43.08-39.652-.038-.024-.085-.024-.128-.047-19.795-12.626-42.815-24.009-64.743-34.426-.005-.005-.014 0-.019-.005-.009-.005-.024-.009-.038-.014-.014-.009-.024-.024-.038-.028l-12.13-5.736c-27.026-12.754-52.557-24.798-59.953-33.603-15.336-18.244-15.605-40.881-15.005-49.828h8.228c-.137 9.136 1.665 28.075 16.712 43.842 7.003 7.32 26.765 17.038 51.781 29.338 46.343 22.789 109.814 53.999 126.843 87.158 24.459 47.669 15.932 373.877 14.703 416.584z"/></g></g></svg>