<svg id="Слой_1" enable-background="new 0 0 5000 5000" height="512" viewBox="0 0 5000 5000" width="512" xmlns="http://www.w3.org/2000/svg"><g><path d="m1853.712 2208.744c53.787 96.798 169.833 154.172 270.142 190.205 59.232 21.277 122.46 38.895 185.467 43.205 21.819 1.493 59.263 9.279 72.764-13.751 31.694-54.062 73.069-117.033 90.343-134.846l72.413 8.041c46.819 6.243 53.185 28.877 62.114 75.385 2.46 12.823 5.01 26.086 9.118 39.123 13.14 41.576 71.2 78.642 164.837 135.676 65.976 40.181 156.326 95.209 166.008 129.466 10.843 38.377 30.959 45.346 44.126 45.346 3.062 0 5.751-.376 7.852-.824 9.759-2.063 39.454-8.352 55.878-103.82 9.515-55.327 10.258-120.063 2.039-177.615-9.826-68.772-39.642-132.12-68.481-193.384-37.546-79.759-73.018-155.099-52.848-224.649 6.898-23.803-2.09-49.902-25.308-73.49-35.152-35.723-103.164-66.054-151.795-52.822-24.763 6.755-41.778 23.99-47.916 48.532-6.075 24.302-29.579 105.598-76.833 131.366-13.095 7.151-27.222 9.28-42.9 6.419-5.652-41.194 17.896-162.172 46.943-262.696 2.802-9.7.292-20.168-6.614-27.54-6.904-7.377-17.17-10.564-27.046-8.417-1.408.312-141.847 30.545-297.872 21.856-149.278-8.3-237.881-80.804-238.692-81.478-7.359-6.204-17.339-8.313-26.56-5.6-9.234 2.713-16.489 9.87-19.318 19.065-17.897 58.124-37.579 116.617-58.507 173.858-32.972 90.193-70.089 180.186-110.329 267.472-3.827 8.298-3.464 17.927.975 25.917zm163.189-273.708c16.814-45.982 32.836-92.756 47.793-139.517 42.926 26.034 124.794 64.918 238.271 71.225 110.29 6.152 211.345-5.86 267.444-14.756-21.557 82.133-52.789 223.286-27.618 271.254 3.413 6.508 9.202 11.459 16.164 13.822 36.612 12.427 70.967 10.123 102.12-6.853 63.51-34.626 93.049-119.984 105.002-167.791 2.661-10.642 21.077-8.786 31.783-6.755 45.943 8.747 83.965 44.062 82.57 54.672-26.19 90.349 15.614 179.147 56.034 265.031 27.042 57.429 54.996 116.825 63.608 177.077v-.006c10.979 76.877 2.491 149.913-8.282 190.373-29.05-47.404-103.189-92.562-181.06-139.985-55.989-34.1-132.671-80.81-139.991-103.982-3.109-9.85-5.237-20.934-7.489-32.666-8.865-46.177-21.005-109.421-111.452-121.477 0 0-85.528-9.443-86.585-9.443-1.454 0-2.914.11-4.354.338-11.992 1.844-33.997 5.237-119.926 149.757-34.523-.804-126.585-8.131-243.566-58.448-112.762-48.5-167.22-109.901-185.837-134.774 38.299-84.087 73.717-170.497 105.371-257.096z"/><path d="m1799.507 2552.333c-8.624 4.608-14.309 13.303-15.061 23.057-4.367 56.144-10.266 112.944-17.54 168.829-11.473 88.188-26.723 176.96-45.327 263.864-1.914 8.94.551 18.252 6.631 25.074 68.297 76.628 184.096 104.403 281.974 117.416 58.977 7.841 126.909 11.861 187.26 1.599 19.014-3.233 49.454-7.171 56.312-28.641 17.326-54.243 41.44-118.454 53.49-138.816l65.962-7.321c42.2-3.724 51.726 13.919 69.279 54.217 4.854 11.142 9.87 22.666 16.301 33.711 20.687 35.548 80.972 57.371 177.621 90.045 67.423 22.79 159.757 53.997 175.065 82.243 14.822 27.352 31.168 33.971 43.51 33.971 6.425 0 11.767-1.791 15.245-3.387 51.114-23.433 31.932-174.786-3.733-268.685-22.958-60.434-62.86-111.737-101.45-161.354-49.864-64.1-96.962-124.65-92.919-190.781.844-13.725-3.082-40.188-38.76-63.167-39.526-25.443-108.116-39.194-149.998-16.976-21.706 11.506-33.977 31.182-34.548 55.392-.552 22.972-5.211 100.433-42.011 132.729-9.915 8.702-21.693 13.316-35.754 13.966-13.796-28.865-15.517-88.604-11.791-126.605.889-8.968-2.485-17.825-9.118-23.925-6.632-6.101-15.756-8.754-24.606-7.087-1.357.247-137.208 24.867-270.216 7.431-140.731-18.449-227.459-66.061-228.277-66.515-8.52-4.787-18.903-4.892-27.541-.284zm248.368 123.631c100.75 13.199 200.703 4.225 252.305-2.484-.778 42.283 3.459 107.532 33.141 142.463 4.763 5.6 11.492 9.162 18.805 9.941 36.189 3.848 67.339-5.373 92.49-27.442 50.953-44.718 60.407-128.487 61.504-174.448.052-1.961.188-7.924 18.787-10.027 39.019-4.413 86.974 18.378 90.011 29.909-5.367 87.74 50.681 159.79 104.878 229.477 35.995 46.267 73.218 94.118 93.113 146.506 24.258 63.866 31.836 128.797 31.128 167.933-37.552-35.45-111.62-60.486-189.275-86.735-53.964-18.241-135.508-45.8-146.435-64.566-4.745-8.164-8.897-17.69-13.29-27.774-15.64-35.904-38.787-89.038-112.575-89.038-4.769 0-97.162 10.13-99.51 11.052-10.747 4.217-30.441 11.952-78.767 159.783-32.063 6.314-115.714 17.787-229.886-3.583-109.718-20.544-170.879-63.807-193.306-82.73 17.411-83.341 31.784-168.232 42.757-252.585 5.62-43.225 10.441-86.981 14.38-130.582 41.278 17.313 113.594 42.329 209.745 54.93z"/><path d="m1732.046 3514.86c5.074 76.884 7.041 154.956 5.84 232.06-.143 9.136 4.082 17.8 11.368 23.308 53.481 40.429 132.152 52.39 196.784 54.578 83.133 2.802 166.308-8.045 243.382-40.156 11.081-4.617 27.154-15.227 28.684-28.567 5.412-47.306 14.712-104.094 21.395-124.645l53.024-16.741c32.497-9.488 41.822 1.077 63.977 33.03 6.074 8.76 12.355 17.826 19.831 26.314 24.497 27.799 80.096 36.358 168.783 48.013 57.221 7.52 143.691 18.883 160.542 39.219 29.02 35.043 53.498 21.726 60.311 16.808 45.095-32.536-6.112-167.09-47.449-233.273-30.031-48.084-72.873-85.242-114.313-121.179-52.705-45.716-102.496-88.895-109.998-144.481-1.707-12.655-9.955-36.009-46.001-50.278-38.935-15.412-101.4-15.452-134.385 11.388-17.404 14.147-25.217 34.769-21.439 56.573 6.871 39.72 7.144 91.361-12.693 117.182-6.035 7.851-13.68 13.05-23.543 15.918-15.244-22.44-26.151-71.193-29.169-101.914-.864-8.968-5.898-17.007-13.588-21.699-7.69-4.705-17.138-5.515-25.516-2.18-1.103.441-112.133 44.067-227.724 51.589-122.178 7.917-203.456-17.774-204.208-18.021-9.293-3.037-19.506-1.135-27.073 5.068-7.567 6.197-11.453 15.821-10.305 25.535 5.735 48.532 10.27 97.837 13.483 146.551zm231.819-101.938c85.656-5.568 167.167-28.825 211.294-43.433 6.956 36.638 21.947 89.266 52.796 113.762 5.749 4.562 13.03 6.775 20.376 6.101 32.135-2.869 58.688-16.84 76.806-40.416 36.735-47.805 30.635-121.945 23.724-161.885-.116-.656-.116-1.032-.149-1.077 1.557-2.46 12.388-9.15 35.087-10.123 27.994-1.311 49.208 7.093 53.782 12.29 10.915 76.32 70.972 128.407 129.07 178.79 38.234 33.166 77.78 67.455 103.25 108.246 29.402 47.072 45.871 95.741 52.744 128.382-39.611-21.194-103.393-29.578-170.063-38.338-45.353-5.964-121.263-15.938-133.243-29.078-5.275-5.983-10.356-13.315-15.729-21.07-21.233-30.636-53.328-76.916-127.747-55.224 0 0-69.024 22.142-71.146 23.498-9.539 6.094-25.249 16.146-41.621 149.815-27.527 10.98-95.853 33.621-192.957 34.613-93.47.889-151.522-23.873-174.734-36.339.727-73.321-1.343-147.363-6.164-220.353-2.382-36.086-5.47-72.491-9.228-108.68 38.974 7.586 103.075 15.762 183.852 10.519z"/><path d="m2656.708 1231.961c-20.927-33.796-48.156-146.435-62.822-243.916-1.504-9.986-8.156-18.449-17.507-22.271-9.344-3.816-20.025-2.433-28.091 3.648-1.084.817-110.122 82.457-248.088 136.791-131.627 51.835-236.459 24.535-237.42 24.282-9.272-2.583-19.207-.324-26.468 5.996-7.261 6.321-10.864 15.853-9.598 25.392 7.599 57.28 13.803 115.546 18.436 173.183 7.307 90.92 10.947 183.268 10.824 274.493-.013 9.135 4.334 17.734 11.707 23.147 86.575 63.57 206.545 66.747 309.282 57.42 62.298-5.656 128.021-15.391 186.421-38.712 18.018-7.195 47.466-16.989 49.731-39.662 5.84-58.48 16.417-128.46 24.205-151.211l64.976-21.538c42.03-12.932 55.49 2.894 81.919 39.896 7.228 10.129 14.711 20.597 23.49 30.278 28.163 31.057 93.199 40.071 196.966 52.198 72.639 8.494 172.118 20.123 193.69 45.425 31.07 36.437 55.442 24.75 64.476 18.04 45.95-34.166-5.589-181.438-61.265-267.809-35.865-55.652-86.812-98.571-136.077-140.083-63.821-53.776-124.099-104.56-134.197-172.061-2.062-13.789-11.549-39.214-51.901-54.522-44.899-17.021-116.311-16.184-153.396 14.848-19.105 15.996-27.131 38.104-22.595 62.251 4.367 23.245 16.262 102.218-13.959 142.729-8.086 10.846-18.871 18.03-32.739 21.768zm78.682 12.511c41.421-55.522 33.037-141.361 24.354-187.59-1.13-5.989 5.145-11.161 18.65-15.373 40.984-12.777 91.808 2.109 96.215 11.862 13.297 88.908 84.801 149.154 153.948 207.414 46.036 38.785 93.633 78.888 124.84 127.305 38.623 59.921 60.155 124.403 67.506 163.774-44.813-28.157-125.221-37.554-209.573-47.417-58.142-6.8-146.02-17.073-161.165-33.77-6.536-7.209-12.74-15.898-19.313-25.1-24.736-34.626-62.121-86.975-145.987-61.18 0 0-80.343 26.976-82.452 28.364-9.785 6.464-27.741 18.332-44.658 177.024-30.589 13.115-112.373 42.758-232.098 45.69-115.002 2.836-186.032-27.883-212.378-42.05-.298-87.493-3.997-175.869-10.998-262.954-3.673-45.743-8.319-91.881-13.861-137.623 47.91 5.269 133.366 5.846 232.787-33.302 96.403-37.968 178.062-87.61 223.422-117.714 14.146 79.882 43.14 212.391 83.879 243.806 5.815 4.483 13.14 6.58 20.454 5.807 36.954-3.828 66.032-19.634 86.428-46.973z"/><path d="m2435.265 502.375c-25.003-24.827-73.14-109.926-112.977-201.489-4.029-9.259-12.634-15.71-22.654-16.988-10.02-1.285-19.974 2.811-26.197 10.759-.779.993-78.986 100.148-188.965 181.373-104.703 77.332-204.338 78.084-205.434 78.084-9.774-.032-18.644 4.659-24.029 12.628-5.38 7.975-6.406 18.124-2.72 27.008 20.441 49.317 39.915 99.953 57.87 150.51 28.261 79.597 53.588 161.341 75.269 242.948 2.348 8.832 8.767 16.016 17.281 19.338 2.368.928 38.006 14.393 100.231 14.387 109.235-.01 222.419-33.668 314.491-92.271 22.825-14.528 76.828-39.832 71.336-73.58-8.579-52.718-15.775-116.74-14.523-139.615l52.082-34.217c33.38-20.876 47.903-10.831 80.407 15.969 8.942 7.379 18.196 15.003 28.469 21.636 33.257 21.466 93.95 13.971 190.23-.059 66.714-9.707 158.076-23.023 182.743-6.002 37.987 26.184 58.012 8.942 64.871.305 10.086-12.719 18.974-37.508-20.121-105.58-14.562-25.353-46.781-74.956-98.987-122.359-45.646-41.447-101.652-67.754-155.82-93.198-69.615-32.7-135.364-63.582-160.217-120.849-5.327-12.278-20.363-33.491-61.206-37.663-44.886-4.548-109.486 13.569-135.696 50.842-13.744 19.539-15.703 42.005-5.522 63.257 9.371 19.565 38.617 86.715 21.571 129.4-4.262 10.695-11.446 19.093-21.783 25.426zm75.022-4.165c24.094-60.343-4.141-135.806-23.115-175.422-.616-1.291-2.498-5.224 9.402-13.634 29.345-20.734 79.571-23.069 89.006-14.613 33.628 76.708 112.185 113.612 188.167 149.302 50.337 23.646 102.387 48.091 141.66 83.756 48.019 43.601 80.893 92.88 97.13 125.605-47.501-12.655-119.72-2.149-195.364 8.87-53.354 7.78-133.975 19.526-150.879 8.624-7.469-4.828-15.061-11.084-23.096-17.709-30.888-25.457-77.565-63.937-147.797-19.993 0 0-65.762 43.581-67.436 45.47-7.943 8.942-21.05 23.704 1.642 169.575-25.042 19.416-91.049 64.775-195.148 95.326-100.524 29.501-170.334 19.721-197.849 13.394-21.129-77.87-45.47-155.741-72.433-231.684-13.971-39.33-28.838-78.713-44.366-117.505 44.794-7.158 120.329-27.534 198.718-85.43 75.709-55.918 136.084-118.499 170.003-156.648 33.892 72.646 89.317 177.966 133.151 196.285 6.775 2.835 14.394 2.952 21.265.337 32.271-12.312 55.561-34.407 67.339-63.906z"/><path d="m1970.556 4759.615c6.275 4.522 12.79 6.385 19.324 6.385 20.513 0 41.155-18.384 54.821-30.551 18.268-16.262 40.947-39.552 63.874-65.58 53.827-61.134 121.049-151.106 211.547-354.905 82.919-186.759 78.688-228.407 65.43-260.352-35.853-86.417-143.949-132.133-227.926-131.01-45.188.531-85.118 21.852-127.577 34.237-72.555 21.188-153.767 22.466-241.372 3.829-15.425-3.271-30.505 6.457-33.932 21.784-11.965 53.548-9.091 103.469 8.534 148.375 12.336 31.44 35.716 72.276 157.733 159.367 61.777 44.094 97.285 63.374 118.505 74.886 21.381 11.609 22.939 12.803 27.735 21.265 38.766 68.396-32.063 191.113-74.385 264.441-32.564 56.408-50.5 87.485-22.311 107.829zm146.565-400.538c-13.179-23.245-27.131-30.824-50.26-43.375-21.356-11.596-53.632-29.116-112.547-71.166-118.389-84.502-130.939-116.482-137.682-133.658-10.421-26.553-13.939-55.911-10.519-87.545 85.943 14.458 166.532 10.96 239.993-10.469 37.078-10.813 72.865-31.628 112.195-31.951.707-.006 1.414-.013 2.122-.013 65.508 0 147.2 35.457 172.184 95.676 4.432 10.676 14.801 35.672-64.879 215.13-80.959 182.32-141.75 269.274-190.782 327.1 42.809-81.251 83.178-183.845 40.175-259.729z"/></g></svg>