<svg id="Capa_1" enable-background="new 0 0 508.801 508.801" height="512" viewBox="0 0 508.801 508.801" width="512" xmlns="http://www.w3.org/2000/svg"><g><path d="m178.11 0c-4.142 0-7.5 3.358-7.5 7.5v10.614c0 19.123-7.941 37.657-21.787 50.849-1.945 1.854-4.1 3.667-6.405 5.391-3.317 2.48-3.997 7.18-1.516 10.498 1.473 1.97 3.729 3.01 6.013 3.01 1.562 0 3.138-.486 4.485-1.494 2.781-2.079 5.396-4.281 7.771-6.544 16.803-16.009 26.439-38.501 26.439-61.708v-10.616c0-4.142-3.358-7.5-7.5-7.5z"/><path d="m125.047 92.116c-1.633-3.806-6.043-5.567-9.85-3.933l-28.415 12.198c-31.369 13.466-55.229 38.491-67.185 70.466-11.753 31.431-10.418 65.342 3.723 95.688v113.692c0 4.142 3.358 7.5 7.5 7.5s7.5-3.358 7.5-7.5v-115.38c0-1.129-.255-2.243-.746-3.26-13.042-27.022-14.436-57.382-3.927-85.486s31.48-50.1 59.052-61.937l28.415-12.198c3.806-1.634 5.567-6.044 3.933-9.85z"/><path d="m133.515 355.513c-6.528-12.433-9.978-26.427-9.978-40.471v-104.918c0-4.142-3.358-7.5-7.5-7.5s-7.5 3.358-7.5 7.5v104.917 17.837c0 7.202-1.866 14.327-5.397 20.605l-3.726 6.626c-2.03 3.61-.749 8.183 2.861 10.213 1.163.653 2.424.964 3.669.964 2.622 0 5.167-1.377 6.544-3.825l3.726-6.625c.587-1.043 1.138-2.104 1.657-3.179.747 1.628 1.53 3.241 2.363 4.828l4.553 8.673c.167.317.243.674.22 1.032l-3.6 56.861c-.262 4.134 2.877 7.697 7.011 7.958.161.01.321.016.481.016 3.925 0 7.226-3.054 7.478-7.027l3.6-56.861c.196-3.104-.464-6.2-1.909-8.952z"/><path d="m127.342 454.002c-4.118-.258-7.697 2.877-7.958 7.011l-2.521 39.812c-.262 4.134 2.877 7.697 7.011 7.958.161.01.321.016.481.016 3.925 0 7.226-3.054 7.478-7.027l2.521-39.812c.261-4.133-2.878-7.696-7.012-7.958z"/><path d="m481.048 177.903c.94 0 1.896-.178 2.821-.554 3.837-1.559 5.685-5.934 4.125-9.771-12.349-30.39-35.754-54.254-65.905-67.197l-41.299-17.729c-7.698-3.305-14.676-7.911-20.742-13.69-13.845-13.191-21.786-31.725-21.786-50.848v-10.614c0-4.142-3.358-7.5-7.5-7.5s-7.5 3.358-7.5 7.5v10.614c0 23.208 9.637 45.699 26.439 61.708 7.361 7.013 15.83 12.603 25.172 16.613l41.299 17.729c26.5 11.376 47.072 32.352 57.926 59.061 1.183 2.913 3.989 4.678 6.95 4.678z"/><path d="m496.488 201.59c-.427-4.12-4.115-7.116-8.234-6.686-4.12.427-7.113 4.114-6.686 8.234 2.076 20.014-1.476 40.225-10.271 58.449-.491 1.017-.746 2.131-.746 3.26v115.38c0 4.142 3.358 7.5 7.5 7.5s7.5-3.358 7.5-7.5v-113.693c9.46-20.319 13.241-42.734 10.937-64.944z"/><path d="m405.732 353.484c-3.531-6.278-5.397-13.403-5.397-20.605v-17.837-104.918c0-4.142-3.358-7.5-7.5-7.5s-7.5 3.358-7.5 7.5v104.917c0 14.043-3.45 28.039-9.978 40.471l-4.552 8.672c-1.446 2.753-2.106 5.849-1.91 8.954l8.144 128.636c.251 3.972 3.552 7.026 7.478 7.026.159 0 .32-.005.481-.016 4.134-.262 7.273-3.825 7.011-7.959l-8.144-128.635c-.022-.358.054-.715.221-1.034l4.553-8.672c.833-1.587 1.616-3.2 2.363-4.828.518 1.076 1.07 2.136 1.657 3.179l3.726 6.626c1.376 2.448 3.922 3.825 6.544 3.825 1.245 0 2.507-.311 3.669-.964 3.61-2.03 4.891-6.603 2.861-10.213z"/><path d="m298.543 128.323-4.23-17.454c-1.252-5.171-5.843-8.783-11.164-8.783h-58.427c-5.321 0-9.912 3.612-11.164 8.781l-4.23 17.456c-11.125 1.386-19.764 10.901-19.764 22.396v1.071c0 12.404 10.059 22.5 22.447 22.566l-2.683 11.072c-11.125 1.386-19.764 10.902-19.764 22.396v1.07c0 12.404 10.059 22.5 22.447 22.567l-2.683 11.071c-11.125 1.386-19.764 10.902-19.764 22.396v1.072c0 12.404 10.059 22.5 22.447 22.566l-2.683 11.072c-11.125 1.386-19.764 10.901-19.764 22.396v1.071c0 12.404 10.059 22.5 22.447 22.567l-2.683 11.071c-11.125 1.386-19.764 10.902-19.764 22.396v1.07c0 12.404 10.059 22.5 22.447 22.567l-2.683 11.072c-11.125 1.386-19.764 10.901-19.764 22.396v1.071c0 12.445 10.125 22.569 22.57 22.569h5.884l19.163 14.042c2.857 2.094 5.998 3.57 9.255 4.47v22.904c0 4.142 3.358 7.5 7.5 7.5s7.5-3.358 7.5-7.5v-22.905c3.257-.9 6.399-2.375 9.255-4.469l19.163-14.042h5.884c12.445 0 22.57-10.125 22.57-22.569v-1.071c0-11.495-8.639-21.01-19.764-22.396l-2.683-11.072c12.388-.067 22.447-10.163 22.447-22.567v-1.07c0-11.495-8.639-21.01-19.764-22.396l-2.683-11.071c12.388-.067 22.447-10.163 22.447-22.567v-1.071c0-11.495-8.639-21.01-19.764-22.396l-2.683-11.072c12.388-.066 22.447-10.162 22.447-22.566v-1.071c0-11.495-8.639-21.01-19.764-22.396l-2.683-11.071c12.388-.067 22.447-10.163 22.447-22.567v-1.07c0-11.495-8.639-21.01-19.764-22.396l-2.683-11.072c12.388-.066 22.447-10.162 22.447-22.566v-1.071c-.001-11.496-8.639-21.011-19.765-22.397zm4.764 307.922v1.071c0 4.174-3.396 7.569-7.57 7.569h-7.033c-2.459 0-4.807.768-6.79 2.221l-20.09 14.722c-.127.093-.26.174-.389.262v-16.584c0-4.142-3.358-7.5-7.5-7.5s-7.5 3.358-7.5 7.5v16.583c-.129-.088-.262-.169-.389-.262l-20.09-14.721c-1.983-1.454-4.331-2.222-6.79-2.222h-7.033c-4.174 0-7.57-3.396-7.57-7.569v-1.071c0-4.174 3.396-7.569 7.57-7.569 5.321 0 9.911-3.611 11.164-8.781l2.726-11.248 11.157 8.175c5.012 3.673 10.882 5.509 16.755 5.508 5.872 0 11.745-1.836 16.755-5.508l11.157-8.176 2.726 11.247c1.252 5.171 5.843 8.782 11.164 8.782 4.174.001 7.57 3.397 7.57 7.571zm0-57.105v1.07c0 4.174-3.396 7.57-7.57 7.57h-7.033c-2.459 0-4.807.768-6.79 2.221l-20.09 14.722c-.127.093-.26.174-.389.262v-16.584c0-4.142-3.358-7.5-7.5-7.5s-7.5 3.358-7.5 7.5v16.583c-.129-.088-.262-.169-.389-.262l-20.09-14.721c-1.983-1.454-4.331-2.222-6.79-2.222h-7.033c-4.174 0-7.57-3.396-7.57-7.57v-1.07c0-4.174 3.396-7.57 7.57-7.57 5.321 0 9.912-3.612 11.164-8.781l2.726-11.248 11.157 8.176c5.011 3.672 10.883 5.507 16.755 5.507s11.744-1.836 16.755-5.507l11.157-8.176 2.725 11.246c1.252 5.171 5.843 8.783 11.164 8.783 4.175.001 7.571 3.397 7.571 7.571zm0-57.106v1.071c0 4.174-3.396 7.57-7.57 7.57h-7.033c-2.459 0-4.807.768-6.79 2.221l-20.09 14.722c-.127.093-.26.174-.389.262v-16.584c0-4.142-3.358-7.5-7.5-7.5s-7.5 3.358-7.5 7.5v16.584c-.129-.088-.262-.169-.389-.262l-20.09-14.721c-1.982-1.453-4.331-2.221-6.79-2.221h-7.033c-4.174 0-7.57-3.396-7.57-7.57v-1.071c0-4.174 3.396-7.569 7.57-7.569 5.321 0 9.911-3.611 11.164-8.781l2.726-11.248 11.157 8.175c5.012 3.673 10.882 5.509 16.755 5.508 5.872 0 11.745-1.836 16.755-5.508l11.157-8.176 2.726 11.247c1.252 5.171 5.843 8.782 11.164 8.782 4.174 0 7.57 3.395 7.57 7.569zm0-57.105v1.071c0 4.174-3.396 7.569-7.57 7.569h-7.033c-2.459 0-4.807.768-6.79 2.221l-20.09 14.722c-.127.093-.26.174-.389.262v-16.584c0-4.142-3.358-7.5-7.5-7.5s-7.5 3.358-7.5 7.5v16.583c-.129-.088-.262-.169-.389-.262l-20.09-14.721c-1.983-1.454-4.331-2.222-6.79-2.222h-7.033c-4.174 0-7.57-3.396-7.57-7.569v-1.071c0-4.174 3.396-7.57 7.57-7.57 5.321 0 9.912-3.612 11.164-8.781l2.726-11.248 11.157 8.175c5.012 3.673 10.882 5.509 16.755 5.508 5.872 0 11.745-1.836 16.755-5.508l11.157-8.176 2.725 11.246c1.252 5.171 5.843 8.783 11.164 8.783 4.175.002 7.571 3.398 7.571 7.572zm0-57.105v1.07c0 4.174-3.396 7.57-7.57 7.57h-7.033c-2.459 0-4.807.768-6.79 2.221l-20.09 14.722c-.127.093-.26.174-.389.262v-16.584c0-4.142-3.358-7.5-7.5-7.5s-7.5 3.358-7.5 7.5v16.583c-.129-.088-.262-.169-.389-.262l-20.09-14.721c-1.983-1.454-4.331-2.222-6.79-2.222h-7.033c-4.174 0-7.57-3.396-7.57-7.57v-1.07c0-4.174 3.396-7.57 7.57-7.57 5.321 0 9.912-3.612 11.164-8.781l2.726-11.248 11.157 8.176c5.012 3.673 10.882 5.509 16.755 5.508 5.872 0 11.745-1.836 16.755-5.508l11.157-8.176 2.726 11.246c1.252 5.171 5.843 8.783 11.164 8.783 4.174.001 7.57 3.397 7.57 7.571zm0-56.034c0 4.174-3.396 7.569-7.57 7.569h-7.033c-2.459 0-4.807.768-6.79 2.221l-20.09 14.722c-.127.093-.26.174-.389.262v-16.584c0-4.142-3.358-7.5-7.5-7.5s-7.5 3.358-7.5 7.5v16.584c-.129-.088-.262-.169-.389-.262l-20.09-14.721c-1.983-1.454-4.331-2.222-6.79-2.222h-7.033c-4.174 0-7.57-3.396-7.57-7.569v-1.071c0-4.174 3.396-7.569 7.57-7.569 5.321 0 9.911-3.611 11.164-8.781l4.188-17.282h52.899l4.188 17.281c1.252 5.171 5.843 8.782 11.164 8.782 4.174 0 7.57 3.396 7.57 7.569v1.071z"/><path d="m253.936 86.394c4.142 0 7.5-3.358 7.5-7.5v-18.17c0-4.142-3.358-7.5-7.5-7.5s-7.5 3.358-7.5 7.5v18.17c0 4.142 3.358 7.5 7.5 7.5z"/><path d="m253.936 33.171c4.142 0 7.5-3.358 7.5-7.5v-18.171c0-4.142-3.358-7.5-7.5-7.5s-7.5 3.358-7.5 7.5v18.17c0 4.143 3.358 7.501 7.5 7.501z"/></g></svg>