<svg id="Icon" viewBox="0 0 60 60" xmlns="http://www.w3.org/2000/svg"><path d="m56 0h-52c-2.206 0-4 1.794-4 4v52c0 2.206 1.794 4 4 4h52c2.206 0 4-1.794 4-4v-52c0-2.206-1.794-4-4-4zm2 56c0 1.103-.897 2-2 2h-52c-1.103 0-2-.897-2-2v-52c0-1.103.897-2 2-2h52c1.103 0 2 .897 2 2z"/><path d="m11 54h-5v-5c0-.553-.448-1-1-1s-1 .447-1 1v5c0 1.103.897 2 2 2h5c.552 0 1-.447 1-1s-.448-1-1-1z"/><path d="m55 48c-.553 0-1 .447-1 1v5h-5c-.553 0-1 .447-1 1s.447 1 1 1h5c1.103 0 2-.897 2-2v-5c0-.553-.447-1-1-1z"/><path d="m54 4h-5c-.553 0-1 .447-1 1s.447 1 1 1h5v5c0 .553.447 1 1 1s1-.447 1-1v-5c0-1.103-.897-2-2-2z"/><path d="m5 12c.552 0 1-.447 1-1v-5h5c.552 0 1-.447 1-1s-.448-1-1-1h-5c-1.103 0-2 .897-2 2v5c0 .553.448 1 1 1z"/><path d="m52.627 40.733c-.647-.656-1.851-1.438-3.898-1.438-6.254 0-11.543-1.901-15.72-5.65-1.802-1.618-2.752-4.038-2.545-6.46l1.602-16.278c.072-.743-.173-1.485-.674-2.038s-1.216-.869-1.962-.869h-18.328c-.729 0-1.409.29-1.914.817s-.764 1.219-.732 1.947l.688 15.58c.124 1.878-.345 3.723-1.356 5.334-1.271 2.026-2.788 5.292-2.788 9.339v.208c.054 5.34 4.431 9.685 9.759 9.685 3.042 0 5.16-.664 7.028-1.25 1.664-.522 3.102-.974 5.016-.974 1.722 0 3.739.376 6.074.812 3.374.629 7.573 1.412 12.797 1.412 5.045 0 8.305-2.599 8.305-6.609.017-1.401-.463-2.668-1.352-3.567zm-27.955-13.647c.208.209.328.498.328.793 0 .618-.503 1.121-1.121 1.121h-7.758c-.618 0-1.121-.503-1.121-1.121 0-.295.12-.584.328-.793 1.079-1.079 1.644-2.571 1.548-4.095l-.812-12.991h7.871l-.812 12.991c-.095 1.523.469 3.016 1.548 4.095zm10.532 15.089c2.117.893 4.483 1.468 7.358 1.825.25.031.438.247.438.539 0 .165-.062.315-.177.424-.075.071-.21.172-.396.145-2.461-.129-4.142-.529-5.922-.952-.628-.149-1.264-.294-1.921-.43zm-2.621 1.169c-2.049-.371-3.916-.658-5.779-.658-.481 0-.934.025-1.376.059l1.257-6.901c.365.252.706.555 1.008.914.403.479.843.933 1.306 1.349l.164.147c1.382 1.24 2.761 2.237 4.236 3.046l-.816 2.043zm-16.831-8.098 8.338-.201c.236-.006.468.015.698.047l-1.446 7.94c-1.24.245-2.337.584-3.355.903-1.735.545-3.105.975-5.228.975-2.052 0-3.738-1.679-3.758-3.739v-.153c0-.614.056-1.241.169-1.862.402-2.21 2.33-3.854 4.582-3.909zm8.29-2.201-8.338.201c-.187.005-.365.042-.548.062-.094-.263-.155-.531-.155-.808 0-.642.252-1.161.546-1.558.187.035.378.058.575.058h7.758c.197 0 .388-.023.575-.058.294.397.546.916.546 1.558 0 .205-.029.405-.079.601-.291-.036-.584-.06-.88-.056zm21.633 15.865c-5.038 0-9.137-.765-12.43-1.378-2.433-.454-4.535-.846-6.441-.846-2.221 0-3.946.541-5.615 1.064-1.815.57-3.693 1.159-6.429 1.159-4.236 0-7.716-3.456-7.758-7.702v-.19c0-3.571 1.349-6.472 2.481-8.276 1.236-1.97 1.809-4.228 1.659-6.506l-.687-15.559c-.008-.179.056-.348.179-.477s.29-.2.468-.2h2.959l.82 13.116c.059.95-.293 1.882-.966 2.556-.581.581-.914 1.385-.914 2.207 0 .798.31 1.52.805 2.072-.517.778-.805 1.652-.805 2.549 0 .45.07.887.203 1.312-2.034.879-3.587 2.714-4.001 4.986-.134.739-.202 1.485-.202 2.226v.163c.032 3.156 2.615 5.724 5.759 5.724 2.428 0 4.079-.518 5.83-1.067 1.728-.542 3.687-1.156 6.214-1.156 2.096 0 4.279.407 6.807.88.854.159 1.642.347 2.432.534 1.788.426 3.638.865 6.279 1.005.047.002.093.003.138.003.651 0 1.266-.244 1.741-.694.508-.483.8-1.166.8-1.913 0-1.261-.941-2.329-2.191-2.485-5.471-.682-8.808-2.104-12.309-5.247l-.164-.147c-.396-.355-.771-.742-1.114-1.149-.673-.799-1.484-1.413-2.373-1.824.1-.372.151-.756.151-1.148 0-.897-.287-1.771-.805-2.549.495-.553.805-1.274.805-2.072 0-.822-.333-1.626-.914-2.207-.673-.674-1.025-1.605-.966-2.556l.82-13.116h3.49c.25 0 .408.133.48.213.072.079.19.25.166.499l-1.603 16.291c-.262 3.056.935 6.096 3.201 8.131 4.556 4.089 10.294 6.162 17.056 6.162 1.09 0 1.923.283 2.476.843.688.696.78 1.639.774 2.15 0 2.851-2.416 4.621-6.305 4.621z"/></svg>