<svg viewBox="0 0 76 20" fill="none" xmlns="http://www.w3.org/2000/svg">
<path d="M72.7762 9.1244H65.988V4.74983C65.988 3.78742 65.1997 3 64.2362 3C63.2727 3 62.4844 3.78742 62.4844 4.74983V9.1244V9.34313V17.8735C62.4844 18.836 63.2727 19.6234 64.2362 19.6234H72.7762" fill="#E3CCFF"/>
<path d="M74.3091 11.7491H68.8347C68.1121 11.7491 67.5208 11.1586 67.5208 10.4368C67.5208 9.71496 68.1121 9.12439 68.8347 9.12439H74.3091C75.0317 9.12439 75.6229 9.71496 75.6229 10.4368C75.6229 11.1586 75.0317 11.7491 74.3091 11.7491Z" fill="#E3CCFF"/>
<path d="M74.3091 14.3362H68.8347C68.1121 14.3362 67.5208 13.7456 67.5208 13.0238C67.5208 12.302 68.1121 11.7114 68.8347 11.7114H74.3091C75.0317 11.7114 75.6229 12.302 75.6229 13.0238C75.6229 13.7456 75.0317 14.3362 74.3091 14.3362Z" fill="#E3CCFF"/>
<path d="M74.3091 16.9986H68.8347C68.1121 16.9986 67.5208 16.4081 67.5208 15.6863C67.5208 14.9645 68.1121 14.3739 68.8347 14.3739H74.3091C75.0317 14.3739 75.6229 14.9645 75.6229 15.6863C75.6229 16.4081 75.0317 16.9986 74.3091 16.9986Z" fill="#E3CCFF"/>
<path d="M74.3091 19.6234H68.8347C68.1121 19.6234 67.5208 19.0328 67.5208 18.311C67.5208 17.5892 68.1121 16.9987 68.8347 16.9987H74.3091C75.0317 16.9987 75.6229 17.5892 75.6229 18.311C75.6229 19.0328 75.0317 19.6234 74.3091 19.6234Z" fill="#E3CCFF"/>
<path d="M13.4236 3.54223L15.5017 8.00057L20.1775 8.72354C20.9857 8.84404 21.2743 9.86825 20.6971 10.4707L17.2912 13.9048L18.0994 18.7849C18.2149 19.6284 17.4067 20.2309 16.6563 19.8694L12.4423 17.58L8.34375 19.8694C7.65104 20.2911 6.78515 19.6284 6.9006 18.7849L7.70876 13.9048L4.30294 10.4707C3.72569 9.86825 4.01431 8.84404 4.82247 8.72354L9.49826 8.00057L11.5764 3.54223C11.9805 2.81926 13.0195 2.81926 13.4236 3.54223Z" fill="#FFDFA6"/>
<path d="M48.5233 3.24549H48.1087C47.3979 3.24549 46.7463 3.4296 46.154 3.85921L42.1261 6.62094L37.3282 3.55235C36.7359 3.18412 36.0251 3 35.3735 3C32.4118 3.12274 30.931 6.68231 32.8857 9.01444L42.1853 20L51.1296 9.25993C53.0843 6.86643 51.5442 3.24549 48.5233 3.24549Z" fill="#B2EEDF"/>
<path d="M69.7762 7.1244H62.988V2.74983C62.988 1.78742 62.1997 1 61.2362 1C60.2727 1 59.4844 1.78742 59.4844 2.74983V7.1244V7.34313V15.8735C59.4844 16.836 60.2727 17.6234 61.2362 17.6234H69.7762" stroke="black" stroke-miterlimit="10"/>
<path d="M71.3091 9.74913H65.8347C65.1121 9.74913 64.5208 9.15857 64.5208 8.43676C64.5208 7.71496 65.1121 7.12439 65.8347 7.12439H71.3091C72.0317 7.12439 72.6229 7.71496 72.6229 8.43676C72.6229 9.15857 72.0317 9.74913 71.3091 9.74913Z" stroke="black" stroke-miterlimit="10"/>
<path d="M71.3091 12.3362H65.8347C65.1121 12.3362 64.5208 11.7456 64.5208 11.0238C64.5208 10.302 65.1121 9.71143 65.8347 9.71143H71.3091C72.0317 9.71143 72.6229 10.302 72.6229 11.0238C72.6229 11.7456 72.0317 12.3362 71.3091 12.3362Z" stroke="black" stroke-miterlimit="10"/>
<path d="M71.3091 14.9986H65.8347C65.1121 14.9986 64.5208 14.4081 64.5208 13.6863C64.5208 12.9645 65.1121 12.3739 65.8347 12.3739H71.3091C72.0317 12.3739 72.6229 12.9645 72.6229 13.6863C72.6229 14.4081 72.0317 14.9986 71.3091 14.9986Z" stroke="black" stroke-miterlimit="10"/>
<path d="M71.3091 17.6234H65.8347C65.1121 17.6234 64.5208 17.0328 64.5208 16.311C64.5208 15.5892 65.1121 14.9987 65.8347 14.9987H71.3091C72.0317 14.9987 72.6229 15.5892 72.6229 16.311C72.6229 17.0328 72.0317 17.6234 71.3091 17.6234Z" stroke="black" stroke-miterlimit="10"/>
<path d="M10.4236 1.54223L12.5017 6.00057L17.1775 6.72354C17.9857 6.84404 18.2743 7.86825 17.6971 8.47073L14.2912 11.9048L15.0994 16.7849C15.2149 17.6284 14.4067 18.2309 13.6563 17.8694L9.44227 15.58L5.34375 17.8694C4.65104 18.2911 3.78515 17.6284 3.9006 16.7849L4.70876 11.9048L1.30294 8.47073C0.725685 7.86825 1.01431 6.84404 1.82247 6.72354L6.49826 6.00057L8.57639 1.54223C8.98047 0.819257 10.0195 0.819257 10.4236 1.54223Z" stroke="#333333" stroke-miterlimit="10"/>
<path d="M45.5233 1.24549H45.1087C44.3979 1.24549 43.7463 1.4296 43.154 1.85921L39.1261 4.62094L34.3282 1.55235C33.7359 1.18412 33.0251 1 32.3735 1C29.4118 1.12274 27.931 4.68231 29.8857 7.01444L39.1853 18L48.1296 7.25993C50.0843 4.86643 48.5442 1.24549 45.5233 1.24549Z" stroke="#333333" stroke-miterlimit="10"/>
</svg>
