<svg width="453" height="368" viewBox="0 0 453 368" fill="none" xmlns="http://www.w3.org/2000/svg">
<path d="M60.2109 30C60.2109 24.4772 64.6881 20 70.2109 20H442.211C447.734 20 452.211 24.4772 452.211 30V352C452.211 357.523 447.734 362 442.211 362H70.2109C64.6881 362 60.2109 357.523 60.2109 352V30Z" fill="#F7F7F7"/>
<path d="M349.046 82.6661H104.977C104.904 82.6673 104.831 82.6539 104.763 82.6268C104.696 82.5997 104.634 82.5594 104.582 82.5082C104.53 82.457 104.488 82.3959 104.46 82.3285C104.432 82.2612 104.417 82.1889 104.417 82.1159C104.417 81.9676 104.476 81.8253 104.581 81.7204C104.686 81.6156 104.829 81.5566 104.977 81.5566H349.046C349.119 81.5566 349.192 81.5712 349.259 81.5994C349.327 81.6276 349.388 81.6689 349.439 81.721C349.49 81.773 349.531 81.8348 349.558 81.9026C349.585 81.9704 349.598 82.0429 349.597 82.1159C349.597 82.2618 349.539 82.4018 349.436 82.5049C349.333 82.6081 349.192 82.6661 349.046 82.6661Z" fill="#E3CCFF"/>
<g opacity="0.3">
<path opacity="0.3" d="M349.046 82.6661H104.977C104.904 82.6673 104.831 82.6539 104.763 82.6268C104.696 82.5997 104.634 82.5594 104.582 82.5082C104.53 82.457 104.488 82.3959 104.46 82.3285C104.432 82.2612 104.417 82.1889 104.417 82.1159C104.417 81.9676 104.476 81.8253 104.581 81.7204C104.686 81.6156 104.829 81.5566 104.977 81.5566H349.046C349.119 81.5566 349.192 81.5712 349.259 81.5994C349.327 81.6276 349.388 81.6689 349.439 81.721C349.49 81.773 349.531 81.8348 349.558 81.9026C349.585 81.9704 349.598 82.0429 349.597 82.1159C349.597 82.2618 349.539 82.4018 349.436 82.5049C349.333 82.6081 349.192 82.6661 349.046 82.6661Z" fill="white"/>
</g>
<path d="M348.559 179.379H104.489C104.416 179.38 104.344 179.366 104.276 179.339C104.208 179.312 104.146 179.272 104.094 179.221C104.042 179.169 104.001 179.108 103.972 179.041C103.944 178.974 103.93 178.901 103.93 178.828C103.93 178.68 103.989 178.538 104.094 178.433C104.199 178.328 104.341 178.269 104.489 178.269H348.559C348.632 178.269 348.704 178.284 348.772 178.312C348.839 178.34 348.9 178.381 348.952 178.433C349.003 178.485 349.043 178.547 349.07 178.615C349.097 178.683 349.111 178.755 349.11 178.828C349.11 178.901 349.095 178.972 349.068 179.039C349.04 179.106 348.999 179.166 348.948 179.217C348.897 179.268 348.836 179.309 348.77 179.337C348.703 179.364 348.631 179.379 348.559 179.379Z" fill="#E3CCFF"/>
<g opacity="0.3">
<path opacity="0.3" d="M348.559 179.379H104.489C104.416 179.38 104.344 179.366 104.276 179.339C104.208 179.312 104.146 179.272 104.094 179.221C104.042 179.169 104.001 179.108 103.972 179.041C103.944 178.974 103.93 178.901 103.93 178.828C103.93 178.68 103.989 178.538 104.094 178.433C104.199 178.328 104.341 178.269 104.489 178.269H348.559C348.632 178.269 348.704 178.284 348.772 178.312C348.839 178.34 348.9 178.381 348.952 178.433C349.003 178.485 349.043 178.547 349.07 178.615C349.097 178.683 349.111 178.755 349.11 178.828C349.11 178.901 349.095 178.972 349.068 179.039C349.04 179.106 348.999 179.166 348.948 179.217C348.897 179.268 348.836 179.309 348.77 179.337C348.703 179.364 348.631 179.379 348.559 179.379Z" fill="white"/>
</g>
<path d="M348.559 258.439H104.489C104.341 258.439 104.199 258.38 104.094 258.275C103.989 258.17 103.93 258.028 103.93 257.879C103.93 257.806 103.944 257.734 103.972 257.667C104.001 257.599 104.042 257.538 104.094 257.487C104.146 257.436 104.208 257.396 104.276 257.368C104.344 257.341 104.416 257.328 104.489 257.329H348.559C348.631 257.329 348.703 257.343 348.77 257.371C348.836 257.399 348.897 257.439 348.948 257.49C348.999 257.541 349.04 257.602 349.068 257.669C349.095 257.736 349.11 257.807 349.11 257.879C349.111 257.952 349.097 258.025 349.07 258.093C349.043 258.161 349.003 258.222 348.952 258.274C348.9 258.326 348.839 258.368 348.772 258.396C348.704 258.424 348.632 258.439 348.559 258.439Z" fill="#E3CCFF"/>
<g opacity="0.3">
<path opacity="0.3" d="M348.559 258.439H104.489C104.341 258.439 104.199 258.38 104.094 258.275C103.989 258.17 103.93 258.028 103.93 257.879C103.93 257.806 103.944 257.734 103.972 257.667C104.001 257.599 104.042 257.538 104.094 257.487C104.146 257.436 104.208 257.396 104.276 257.368C104.344 257.341 104.416 257.328 104.489 257.329H348.559C348.631 257.329 348.703 257.343 348.77 257.371C348.836 257.399 348.897 257.439 348.948 257.49C348.999 257.541 349.04 257.602 349.068 257.669C349.095 257.736 349.11 257.807 349.11 257.879C349.111 257.952 349.097 258.025 349.07 258.093C349.043 258.161 349.003 258.222 348.952 258.274C348.9 258.326 348.839 258.368 348.772 258.396C348.704 258.424 348.632 258.439 348.559 258.439Z" fill="white"/>
</g>
<path d="M156.377 271.816V354.097" stroke="#333333" stroke-width="0.265171" stroke-miterlimit="10"/>
<path d="M168.141 271.816V354.097" stroke="#333333" stroke-width="0.265171" stroke-miterlimit="10"/>
<path d="M179.905 271.816V354.097" stroke="#333333" stroke-width="0.265171" stroke-miterlimit="10"/>
<path d="M191.67 271.816V354.097" stroke="#333333" stroke-width="0.265171" stroke-miterlimit="10"/>
<path d="M203.434 271.816V354.097" stroke="#333333" stroke-width="0.265171" stroke-miterlimit="10"/>
<path d="M215.198 271.816V354.097" stroke="#333333" stroke-width="0.265171" stroke-miterlimit="10"/>
<path d="M226.962 271.816V354.097" stroke="#333333" stroke-width="0.265171" stroke-miterlimit="10"/>
<path d="M238.727 271.816V354.097" stroke="#333333" stroke-width="0.265171" stroke-miterlimit="10"/>
<path d="M250.491 271.816V354.097" stroke="#333333" stroke-width="0.265171" stroke-miterlimit="10"/>
<path d="M262.255 271.816V354.097" stroke="#333333" stroke-width="0.265171" stroke-miterlimit="10"/>
<path d="M274.019 271.816V354.097" stroke="#333333" stroke-width="0.265171" stroke-miterlimit="10"/>
<path d="M285.783 271.816V354.097" stroke="#333333" stroke-width="0.265171" stroke-miterlimit="10"/>
<path d="M156.964 279.457H285.197" stroke="#333333" stroke-width="0.265171" stroke-miterlimit="10"/>
<path d="M156.964 290.623H285.197" stroke="#333333" stroke-width="0.265171" stroke-miterlimit="10"/>
<path d="M156.964 301.79H285.197" stroke="#333333" stroke-width="0.265171" stroke-miterlimit="10"/>
<path d="M156.964 312.957H285.197" stroke="#333333" stroke-width="0.265171" stroke-miterlimit="10"/>
<path d="M156.964 324.124H285.197" stroke="#333333" stroke-width="0.265171" stroke-miterlimit="10"/>
<path d="M156.964 335.29H285.197" stroke="#333333" stroke-width="0.265171" stroke-miterlimit="10"/>
<path d="M156.964 346.457H285.197" stroke="#333333" stroke-width="0.265171" stroke-miterlimit="10"/>
<path d="M183.905 300.68L166.697 353.682H202.739L185.521 300.68C185.466 300.51 185.358 300.36 185.213 300.255C185.068 300.149 184.893 300.092 184.713 300.092C184.533 300.092 184.358 300.149 184.213 300.255C184.068 300.36 183.96 300.51 183.905 300.68Z" fill="#E3CCFF" stroke="#333333" stroke-width="1.06068" stroke-miterlimit="10"/>
<path d="M216.715 283.128L193.809 353.682H241.264L218.331 283.128C218.276 282.957 218.168 282.808 218.023 282.702C217.878 282.596 217.703 282.539 217.523 282.539C217.343 282.539 217.168 282.596 217.023 282.702C216.878 282.808 216.77 282.957 216.715 283.128Z" fill="#FFDFA6" stroke="#333333" stroke-width="1.06068" stroke-miterlimit="10"/>
<path d="M246.906 312.803L233.625 353.682H261.795L248.486 312.803C248.424 312.645 248.315 312.508 248.175 312.412C248.034 312.316 247.867 312.265 247.696 312.265C247.526 312.265 247.359 312.316 247.218 312.412C247.077 312.508 246.969 312.645 246.906 312.803Z" fill="#E3CCFF" stroke="#333333" stroke-width="1.06068" stroke-miterlimit="10"/>
<path d="M265.099 326.838L256.386 353.682H275.428L266.715 326.838C266.66 326.667 266.552 326.518 266.407 326.412C266.262 326.307 266.087 326.25 265.907 326.25C265.727 326.25 265.552 326.307 265.407 326.412C265.262 326.518 265.154 326.667 265.099 326.838Z" fill="#FFDFA6" stroke="#333333" stroke-width="1.06068" stroke-miterlimit="10"/>
<path d="M154.824 245.812C149.662 245.812 144.615 244.282 140.323 241.417C136.031 238.552 132.685 234.479 130.71 229.714C128.734 224.949 128.217 219.706 129.224 214.648C130.231 209.589 132.717 204.943 136.368 201.296C140.018 197.649 144.669 195.165 149.732 194.159C154.795 193.153 160.043 193.669 164.813 195.643C169.582 197.617 173.659 200.959 176.527 205.248C179.395 209.536 180.926 214.578 180.926 219.735C180.919 226.649 178.166 233.277 173.273 238.166C168.38 243.055 161.745 245.805 154.824 245.812ZM154.824 201.316C151.178 201.318 147.615 202.4 144.584 204.425C141.553 206.45 139.192 209.327 137.798 212.693C136.404 216.058 136.04 219.762 136.752 223.334C137.465 226.906 139.221 230.187 141.8 232.762C144.379 235.337 147.664 237.091 151.24 237.801C154.816 238.511 158.522 238.145 161.891 236.751C165.259 235.357 168.138 232.996 170.163 229.967C172.189 226.938 173.27 223.378 173.27 219.735C173.265 214.85 171.32 210.166 167.861 206.713C164.403 203.26 159.714 201.319 154.824 201.316Z" fill="white" stroke="#333333" stroke-width="1.06068" stroke-miterlimit="10"/>
<path d="M154.824 245.812C151.302 245.823 147.814 245.116 144.574 243.734C141.334 242.352 138.41 240.324 135.982 237.775L141.516 232.48C143.231 234.281 145.296 235.713 147.584 236.689C149.873 237.665 152.336 238.163 154.824 238.154C157.245 238.154 159.643 237.677 161.88 236.752C164.116 235.826 166.149 234.469 167.861 232.759C169.573 231.049 170.931 229.018 171.857 226.784C172.784 224.549 173.261 222.154 173.261 219.735C173.261 217.316 172.784 214.921 171.857 212.686C170.931 210.452 169.573 208.421 167.861 206.711C166.149 205.001 164.116 203.644 161.88 202.718C159.643 201.793 157.245 201.316 154.824 201.316V193.658C158.252 193.658 161.646 194.333 164.813 195.643C167.98 196.954 170.857 198.874 173.281 201.296C175.705 203.717 177.627 206.592 178.939 209.756C180.251 212.92 180.926 216.311 180.926 219.735C180.926 223.159 180.251 226.55 178.939 229.714C177.627 232.878 175.705 235.753 173.281 238.174C170.857 240.596 167.98 242.516 164.813 243.827C161.646 245.137 158.252 245.812 154.824 245.812Z" fill="#FFDFA6" stroke="#333333" stroke-width="1.06068" stroke-miterlimit="10"/>
<path d="M219.198 245.812C214.035 245.814 208.988 244.286 204.694 241.422C200.401 238.557 197.054 234.485 195.077 229.72C193.1 224.956 192.582 219.712 193.588 214.653C194.594 209.594 197.079 204.947 200.729 201.299C204.379 197.651 209.03 195.167 214.093 194.16C219.157 193.153 224.406 193.669 229.175 195.642C233.945 197.616 238.023 200.958 240.891 205.247C243.759 209.535 245.291 214.577 245.291 219.735C245.283 226.647 242.532 233.274 237.641 238.163C232.749 243.052 226.117 245.802 219.198 245.812ZM219.198 201.316C215.552 201.32 211.99 202.403 208.96 204.429C205.931 206.455 203.571 209.333 202.178 212.699C200.785 216.065 200.423 219.768 201.136 223.339C201.85 226.911 203.607 230.191 206.186 232.765C208.765 235.34 212.05 237.092 215.626 237.801C219.202 238.511 222.908 238.145 226.275 236.75C229.643 235.355 232.522 232.995 234.547 229.966C236.572 226.938 237.652 223.377 237.652 219.735C237.645 214.849 235.698 210.166 232.238 206.712C228.778 203.259 224.089 201.319 219.198 201.316Z" fill="white" stroke="#333333" stroke-width="1.06068" stroke-miterlimit="10"/>
<path d="M229.355 243.755L226.376 236.711C230.291 235.053 233.513 232.094 235.495 228.335C237.478 224.576 238.1 220.249 237.255 216.085C236.411 211.921 234.152 208.176 230.862 205.485C227.571 202.794 223.451 201.321 219.198 201.316V193.658C225.221 193.659 231.058 195.74 235.72 199.549C240.382 203.358 243.582 208.661 244.777 214.558C245.973 220.455 245.091 226.584 242.28 231.905C239.469 237.227 234.903 241.413 229.355 243.755Z" fill="#FFDFA6" stroke="#333333" stroke-width="1.06068" stroke-miterlimit="10"/>
<path d="M283.563 245.812C278.4 245.812 273.354 244.282 269.061 241.417C264.769 238.552 261.424 234.479 259.448 229.714C257.472 224.949 256.955 219.706 257.963 214.648C258.97 209.589 261.456 204.943 265.106 201.296C268.756 197.649 273.407 195.165 278.47 194.159C283.534 193.153 288.782 193.669 293.551 195.643C298.321 197.617 302.397 200.959 305.265 205.248C308.133 209.536 309.664 214.578 309.664 219.735C309.657 226.649 306.905 233.277 302.011 238.166C297.118 243.055 290.483 245.805 283.563 245.812ZM283.563 201.316C279.916 201.316 276.352 202.396 273.32 204.42C270.288 206.444 267.925 209.321 266.53 212.686C265.134 216.052 264.769 219.755 265.481 223.328C266.192 226.901 267.948 230.183 270.526 232.759C273.105 235.335 276.39 237.089 279.966 237.8C283.542 238.511 287.249 238.146 290.618 236.752C293.987 235.358 296.866 232.997 298.892 229.968C300.918 226.939 301.999 223.378 301.999 219.735C301.994 214.852 300.05 210.169 296.594 206.716C293.137 203.263 288.451 201.321 283.563 201.316Z" fill="white" stroke="#333333" stroke-width="1.06068" stroke-miterlimit="10"/>
<path d="M301.638 216.064C300.781 211.908 298.519 208.173 295.23 205.487C291.942 202.801 287.828 201.328 283.581 201.316V193.658C289.596 193.674 295.423 195.758 300.082 199.561C304.74 203.364 307.945 208.653 309.159 214.539L301.638 216.064Z" fill="#FFDFA6" stroke="#333333" stroke-width="1.06068" stroke-miterlimit="10"/>
<path d="M165.232 164.786H287.813" stroke="#333333" stroke-width="1.06068" stroke-miterlimit="10"/>
<path d="M165.232 164.785V162.179" stroke="#333333" stroke-width="1.06068" stroke-miterlimit="10"/>
<path d="M189.745 164.785V162.179" stroke="#333333" stroke-width="1.06068" stroke-miterlimit="10"/>
<path d="M214.267 164.785V162.179" stroke="#333333" stroke-width="1.06068" stroke-miterlimit="10"/>
<path d="M238.779 164.785V162.179" stroke="#333333" stroke-width="1.06068" stroke-miterlimit="10"/>
<path d="M263.292 164.785V162.179" stroke="#333333" stroke-width="1.06068" stroke-miterlimit="10"/>
<path d="M287.813 164.785V162.179" stroke="#333333" stroke-width="1.06068" stroke-miterlimit="10"/>
<path d="M186.314 129.978H168.663V150.859H186.314V129.978Z" fill="#B2EEDF" stroke="#333333" stroke-width="1.06068" stroke-miterlimit="10"/>
<path d="M210.827 105.614H193.176V154.34H210.827V105.614Z" fill="#B2EEDF" stroke="#333333" stroke-width="1.06068" stroke-miterlimit="10"/>
<path d="M235.348 71.5098H217.697V125.81H235.348V71.5098Z" fill="#B2EEDF" stroke="#333333" stroke-width="1.06068" stroke-miterlimit="10"/>
<path d="M259.861 122.329H242.21V132.774H259.861V122.329Z" fill="#B2EEDF" stroke="#333333" stroke-width="1.06068" stroke-miterlimit="10"/>
<path d="M284.373 116.06H266.723V143.21H284.373V116.06Z" fill="#B2EEDF" stroke="#333333" stroke-width="1.06068" stroke-miterlimit="10"/>
<path d="M186.314 150.868H168.663V164.795H186.314V150.868Z" fill="#FFDFA6" stroke="#333333" stroke-width="1.06068" stroke-miterlimit="10"/>
<path d="M210.827 154.35H193.176V164.795H210.827V154.35Z" fill="#FFDFA6" stroke="#333333" stroke-width="1.06068" stroke-miterlimit="10"/>
<path d="M235.348 125.801H217.697V164.786H235.348V125.801Z" fill="#FFDFA6" stroke="#333333" stroke-width="1.06068" stroke-miterlimit="10"/>
<path d="M259.861 132.765H242.21V164.786H259.861V132.765Z" fill="#FFDFA6" stroke="#333333" stroke-width="1.06068" stroke-miterlimit="10"/>
<path d="M284.373 143.21H266.723V164.786H284.373V143.21Z" fill="#FFDFA6" stroke="#333333" stroke-width="1.06068" stroke-miterlimit="10"/>
<path d="M320.479 61.6494C320.267 61.6509 320.057 61.5998 319.87 61.5006C319.682 61.4014 319.522 61.2573 319.404 61.0812L281.43 5.75248L242.905 46.7935L203.568 21.1767L165.512 29.9982L126.861 61.3608C126.593 61.5785 126.249 61.6808 125.905 61.6453C125.562 61.6098 125.246 61.4393 125.028 61.1714C124.81 60.9034 124.708 60.56 124.743 60.2166C124.779 59.8732 125.637 59.9062 125.905 59.6885L164.58 28.1885L204.08 19.1885L242.58 44.6885L281.58 3.18848L320.58 59.6885C320.715 59.8831 321.767 60.0333 321.782 60.2696C321.797 60.506 321.747 60.7418 321.637 60.9517C321.527 61.1616 321.362 61.3375 321.16 61.4605C320.957 61.5835 320.725 61.6488 320.488 61.6494H320.479Z" fill="#333333"/>
<path d="M129.308 60.3505C129.308 60.9874 129.119 61.61 128.765 62.1395C128.41 62.6691 127.907 63.0818 127.318 63.3255C126.729 63.5693 126.081 63.633 125.456 63.5088C124.83 63.3845 124.256 63.0778 123.805 62.6275C123.355 62.1772 123.048 61.6034 122.923 60.9787C122.799 60.3541 122.863 59.7066 123.107 59.1182C123.351 58.5298 123.764 58.0269 124.294 57.6731C124.824 57.3192 125.447 57.1304 126.085 57.1304C126.939 57.1304 127.759 57.4696 128.364 58.0735C128.968 58.6774 129.308 59.4965 129.308 60.3505Z" fill="#E3CCFF"/>
<path d="M164.925 32.0189C166.706 32.0189 168.149 30.5772 168.149 28.7988C168.149 27.0203 166.706 25.5786 164.925 25.5786C163.145 25.5786 161.702 27.0203 161.702 28.7988C161.702 30.5772 163.145 32.0189 164.925 32.0189Z" fill="#E3CCFF"/>
<path d="M203.811 22.9989C205.592 22.9989 207.035 21.5572 207.035 19.7787C207.035 18.0003 205.592 16.5586 203.811 16.5586C202.031 16.5586 200.588 18.0003 200.588 19.7787C200.588 21.5572 202.031 22.9989 203.811 22.9989Z" fill="#E3CCFF"/>
<path d="M242.698 48.327C244.478 48.327 245.921 46.8853 245.921 45.1069C245.921 43.3284 244.478 41.8867 242.698 41.8867C240.917 41.8867 239.474 43.3284 239.474 45.1069C239.474 46.8853 240.917 48.327 242.698 48.327Z" fill="#E3CCFF"/>
<path d="M284.807 3.68694C284.807 4.32382 284.618 4.9464 284.264 5.47595C283.909 6.0055 283.406 6.41824 282.817 6.66196C282.228 6.90569 281.58 6.96945 280.955 6.8452C280.33 6.72095 279.755 6.41427 279.304 5.96392C278.854 5.51358 278.547 4.9398 278.422 4.31515C278.298 3.69051 278.362 3.04304 278.606 2.45464C278.85 1.86624 279.263 1.36332 279.793 1.00949C280.323 0.655655 280.946 0.466797 281.584 0.466797C282.438 0.466797 283.258 0.806063 283.863 1.40996C284.467 2.01385 284.807 2.8329 284.807 3.68694Z" fill="#E3CCFF"/>
<path d="M323.693 60.3505C323.693 60.9874 323.504 61.61 323.15 62.1395C322.795 62.6691 322.292 63.0818 321.703 63.3255C321.114 63.5693 320.466 63.633 319.841 63.5088C319.216 63.3845 318.641 63.0778 318.191 62.6275C317.74 62.1772 317.433 61.6034 317.308 60.9787C317.184 60.3541 317.248 59.7066 317.492 59.1182C317.736 58.5298 318.149 58.0269 318.679 57.6731C319.209 57.3192 319.832 57.1304 320.47 57.1304C321.325 57.1304 322.144 57.4696 322.749 58.0735C323.353 58.6774 323.693 59.4965 323.693 60.3505Z" fill="#E3CCFF"/>
<path d="M372.395 64.3374C372.395 64.3374 396.068 62.0463 397.423 65.988C398.777 69.9298 398.326 78.9317 398.326 78.9317C399.518 79.2414 400.681 79.6549 401.801 80.1675C402.117 80.4741 405.621 82.7652 402.352 86.5266C401.499 87.4803 400.465 88.2559 399.31 88.8086C397.868 89.446 396.498 90.232 395.22 91.1538L390.471 96.5388L391.373 103.475C391.373 103.475 393.495 105.009 396.086 110.357C396.086 110.357 402.208 113.965 405.801 116.013C408.756 117.564 411.829 118.879 414.992 119.946C414.992 119.946 416.635 120.478 416.518 121.659C416.401 122.841 408.338 149.621 408.338 149.621L404.095 163.151C404.014 164.814 403.797 166.467 403.445 168.094C402.84 171.008 400.565 172.92 398.208 172.325L398.443 182.247C398.443 182.247 387.374 187.776 369.118 186.838C369.118 186.838 360.523 186.008 354.167 181.309L354.049 158.127L324.761 152.463C324.761 152.463 321.05 151.678 322.955 148.341C324.86 145.003 331.261 136.723 331.261 136.723L351.837 111.575C351.837 111.575 353.255 109.906 353.778 109.374C354.302 108.842 355.584 108.472 360.667 108.048C365.75 107.624 371.447 106.641 371.447 106.641C371.447 106.641 374.535 103.989 374.978 103.989C375.42 103.989 375.51 100.02 375.51 100.02C373.949 98.8948 372.65 97.4441 371.704 95.7686C370.758 94.093 370.187 92.2324 370.03 90.315C369.588 83.8747 372.413 68.7842 372.413 68.7842L372.395 64.3374Z" fill="#FFDFA6"/>
<path d="M388.081 155.689L381.581 154.689L379.581 160.689L385.581 163.189H389.081L388.081 159.689V155.689Z" fill="white"/>
<path d="M354.527 181.219C354.527 181.219 352.035 218.201 352.035 235.898C352.035 253.595 353.146 267.928 353.697 280.358C354.247 292.787 352.035 301.347 353.967 310.457C355.9 319.567 360.333 346.086 360.333 346.086L365.542 349.225C365.542 349.225 366.445 328.127 368.341 320.677C370.237 313.226 370.833 281.738 371.952 272.068C373.072 262.399 376.656 228.159 376.656 228.159C376.656 228.159 390.479 264.058 393.811 278.148C397.142 292.237 408.464 323.987 410.965 331.717C413.466 339.448 417.321 350.903 417.321 350.903C418.492 351.245 419.723 351.337 420.932 351.174C421.455 351.132 421.958 350.957 422.394 350.667C422.83 350.376 423.185 349.98 423.424 349.514C423.424 349.514 419.75 326.387 418.134 315.148C416.138 301.248 412.888 280.358 410.911 272.627C408.933 264.897 405.936 252.738 405.936 246.938C405.936 241.139 398.478 182.896 398.478 182.896C398.478 182.896 372.494 194.199 354.527 181.219Z" fill="#333333"/>
<path d="M360.333 346.086C360.333 346.086 346.79 354.917 344.849 359.057C342.907 363.197 350.654 361.547 356.179 359.337C361.705 357.127 365.208 349.225 365.208 349.225L360.333 346.086Z" fill="white" stroke="#333333" stroke-width="1.06068" stroke-miterlimit="10" stroke-linecap="round"/>
<path d="M417.754 351.02C418.437 354.804 419.782 358.437 421.727 361.754C424.706 366.381 430.331 370.35 430.331 363.071C430.331 355.792 423.388 349.541 423.388 349.541C423.388 349.541 419.939 351.408 417.754 351.02Z" fill="white" stroke="#333333" stroke-width="1.06068" stroke-miterlimit="10" stroke-linecap="round"/>
<path d="M372.314 69.3346C372.314 69.3346 369.379 87.519 370.372 92.029C371.408 96.642 373.581 98.189 375.581 99.689C372.314 120.189 375.38 122.737 378.081 121.689C387.081 119.189 394.858 91.578 395.454 90.7391C395.496 90.6799 395.556 90.6356 395.625 90.6128C396.366 90.4053 400.961 88.9441 402.984 85.3993C405.196 81.5297 389.081 60.189 389.081 60.189" fill="white"/>
<path d="M372.314 69.3345C372.314 69.3345 369.379 87.5188 370.372 92.0288C372.639 102.122 380.593 101.689 385.567 99.7589C390.217 97.9549 394.858 91.5778 395.454 90.7389C395.496 90.6797 395.556 90.6355 395.625 90.6126C396.366 90.4052 400.961 88.9439 402.984 85.3991C405.196 81.5295 401.051 79.8789 401.051 79.8789" stroke="#333333" stroke-width="1.06068" stroke-miterlimit="10" stroke-linecap="round"/>
<path d="M383.545 78.5799C383.374 79.3015 383.545 79.9509 383.879 80.0321C384.213 80.1133 384.665 79.6082 384.836 78.8956C385.008 78.183 384.836 77.5336 384.502 77.4434C384.168 77.3532 383.717 77.8673 383.545 78.5799Z" fill="#333333"/>
<path d="M375.79 76.695C375.618 77.4166 375.79 78.066 376.124 78.1472C376.458 78.2284 376.909 77.7233 377.081 77.0107C377.252 76.2981 377.081 75.6397 376.747 75.5585C376.412 75.4773 375.952 75.9734 375.79 76.695Z" fill="#333333"/>
<path d="M387.08 74.6895C386.877 74.4017 386.587 74.1595 386.238 73.9849C385.889 73.8102 385.491 73.7086 385.08 73.6895" stroke="#333333" stroke-width="1.06068" stroke-miterlimit="10" stroke-linecap="round"/>
<path d="M378.08 72.9674C377.58 72.6973 377.025 72.6218 376.489 72.7508C375.953 72.8798 375.462 73.2072 375.08 73.6895" stroke="#333333" stroke-width="1.06068" stroke-miterlimit="10" stroke-linecap="round"/>
<path d="M380.079 77.1899C380.109 79.3308 376.692 80.4467 377.297 82.8104C377.595 83.974 379.103 84.0913 379.103 84.0913" stroke="#333333" stroke-width="1.06068" stroke-miterlimit="10" stroke-linecap="round"/>
<path d="M380.674 88.7906C381.313 88.9939 381.989 89.0565 382.654 88.9739C383.32 88.8914 383.959 88.6658 384.529 88.3125" stroke="#333333" stroke-width="1.06068" stroke-miterlimit="10" stroke-linecap="round"/>
<path d="M385.58 48.3826C383.066 48.2046 382.931 54.3185 380.58 54.1895C378.243 54.0612 373.688 47.6895 372.314 47.6895C366.508 47.6895 372.584 54.7041 368.991 54.9928C365.398 55.2814 362.915 51.953 360.703 56.3728C358.491 60.7926 366.788 68.2522 372.314 69.3526C377.839 70.4531 385.576 68.8024 387.788 68.5228C389.908 68.3776 392.034 68.3776 394.154 68.5228C394.154 68.5228 392.492 73.7724 394.154 75.4321C395.815 77.0918 396.086 78.1922 396.086 79.2927C396.181 80.5072 396.365 81.7131 396.636 82.9007L398.298 83.4599L399.128 80.4202C401.37 78.0324 404.93 75.3977 405.58 72.1895C405.83 70.6809 403.594 68.8447 403.183 67.4774C409.08 59.1895 397.58 59.6895 397.58 59.6895H394.154C401.757 43.1764 391.486 60.1797 385.58 48.3826Z" fill="#333333"/>
<path d="M393.224 118.25C393.224 118.25 391.562 103.34 390.732 99.4705C389.901 95.6009 390.461 93.4 386.868 93.4C383.274 93.4 378.85 92.8408 379.645 94.7801C380.439 96.7194 385.965 95.0507 386.868 95.8805C387.77 96.7104 387.138 98.6406 387.138 98.6406C387.138 98.6406 379.916 99.1999 379.916 101.13C379.916 103.06 380.195 108.346 381.577 108.86C382.958 109.374 383.509 106.38 383.509 106.38C383.509 106.38 383.789 112.694 385.17 114.94C386.05 116.327 387.07 117.62 388.213 118.8L393.224 118.25Z" fill="white" stroke="#333333" stroke-width="1.06068" stroke-miterlimit="10" stroke-linecap="round"/>
<path d="M388.079 119.189C388.079 119.189 387.418 156.666 388.8 162.159C390.181 167.653 397.648 175.139 401.512 171.549C405.376 167.959 403.453 160.229 403.453 156.639C403.453 153.049 394.605 126.539 394.605 124.6C394.473 122.99 393.684 119.688 393.079 118.189" stroke="#333333" stroke-width="1.06068" stroke-miterlimit="10" stroke-linecap="round"/>
<path d="M388.8 126.539L394.325 125.98" stroke="#333333" stroke-width="1.06068" stroke-miterlimit="10" stroke-linecap="round"/>
<path d="M375.79 99.8223C375.79 99.8223 373.027 116.058 374.688 119.666C376.349 123.274 378.832 122.426 380.764 120.776C382.696 119.125 385.188 114.976 385.188 114.976" stroke="#333333" stroke-width="1.06068" stroke-miterlimit="10" stroke-linecap="round"/>
<path d="M353.967 158.569L354.527 181.219C354.527 181.219 360.847 187.289 373.045 187.289C385.242 187.289 398.478 182.869 398.478 182.869V172.188" stroke="#333333" stroke-width="1.06068" stroke-miterlimit="10" stroke-linecap="round"/>
<path d="M391.292 103.061C391.292 103.061 396.266 108.031 396.266 112.73C396.266 117.429 394.081 121.189 394.081 121.189" stroke="#333333" stroke-width="1.06068" stroke-miterlimit="10" stroke-linecap="round"/>
<path d="M395.707 109.97C395.707 109.97 403.173 114.381 407.317 116.87C411.461 119.36 416.445 119.351 416.445 121.56C416.445 123.77 404.08 163.69 404.08 163.69" stroke="#333333" stroke-width="1.06068" stroke-miterlimit="10" stroke-linecap="round"/>
<path d="M375.257 103.89C375.257 103.89 373.045 104.44 370.553 108.31C368.061 112.18 365.027 118.8 367.239 119.35C369.451 119.901 373.559 117.42 373.559 117.42" stroke="#333333" stroke-width="1.06068" stroke-miterlimit="10" stroke-linecap="round"/>
<path d="M383.825 118.53L387.581 121.69" stroke="#333333" stroke-width="1.06068" stroke-miterlimit="10" stroke-linecap="round"/>
<path d="M382.08 154.69C376.714 153.135 365.501 147.832 360.58 145.19" stroke="#333333" stroke-width="1.06068" stroke-miterlimit="10" stroke-linecap="round"/>
<path d="M371.384 106.65C371.384 106.65 361.154 108.03 357.01 108.31C352.866 108.59 353.669 110.114 352.315 111.07C350.13 112.595 325.067 144.336 323.424 147.376C321.781 150.415 322.042 151.795 324.805 152.625C327.568 153.455 355.087 158.29 355.087 158.29L379.401 160.779L381.333 154.7C381.333 154.7 386.985 155.449 387.978 155.449" stroke="#333333" stroke-width="1.06068" stroke-miterlimit="10" stroke-linecap="round"/>
<path d="M360.883 145.589C360.883 145.589 352.758 142.577 348.361 142.027C343.964 141.476 337.228 141.296 337.228 141.296" stroke="#333333" stroke-width="1.06068" stroke-miterlimit="10" stroke-linecap="round"/>
<path d="M353.417 142L354.247 120.18" stroke="#333333" stroke-width="1.06068" stroke-miterlimit="10" stroke-linecap="round"/>
<path d="M379.401 160.779C381.298 161.732 387.033 163.131 389.081 163.689" stroke="#333333" stroke-width="1.06068" stroke-miterlimit="10" stroke-linecap="round"/>
<path d="M17.6531 143.201L20.9124 125.404L41.5427 117.286C41.5427 117.286 42.5449 111.757 43.5561 111.513C44.5673 111.27 45.5604 108.997 45.5604 108.997L45.0639 104.442C45.0639 104.442 46.9508 97.2256 56.4398 102.845C56.4398 102.845 53.5688 104.757 54.0653 105.551C54.5619 106.345 53.5146 108.87 54.7696 108.87C56.0245 108.87 58.5616 110.467 59.8436 111.757C60.7409 112.72 61.5338 113.775 62.2091 114.905L72.8899 115.518C73.9847 115.527 75.0739 115.676 76.1312 115.96C76.3117 110.747 75.6707 106.769 74.4067 103.675C69.8112 92.5081 61.4327 88.5213 60.2318 82.9289C59.0311 77.3365 59.636 76.7502 59.636 76.7502C60.8569 75.5099 61.7509 73.9864 62.2378 72.3162C62.7247 70.646 62.7893 68.8812 62.4258 67.18C61.234 61.1997 56.6385 57.0054 40.0711 56.2116C23.5036 55.4179 25.9052 66.7741 25.9052 66.7741L26.1039 67.5678C26.1039 67.5678 15.5224 71.1758 17.5267 84.5164C19.5311 97.857 25.3093 103.657 25.1107 107.842C24.9121 112.027 18.7185 113.624 9.93368 123.176C1.14888 132.728 -0.638773 147.097 2.9546 156.469C4.76031 161.078 8.29048 164.921 12.7235 167.789L17.6531 143.201Z" fill="#333333"/>
<path d="M31.4849 144.959V148.982L23.8377 172.588C28.6162 173.851 33.6275 173.956 38.4549 172.894C41.1799 172.185 43.7844 171.075 46.1834 169.602L31.4849 144.959Z" fill="#333333"/>
<path d="M53.4695 105.407L54.3723 109.466C54.3723 109.466 57.0809 106.76 62.3716 114.977C62.3716 114.977 73.3684 114.716 76.3659 116.213C76.3659 116.213 76.9889 116.393 79.0203 118.549C81.0517 120.705 88.6899 127.569 88.6899 127.569C88.6899 127.569 98.4949 136.661 99.47 137.365C100.445 138.068 104.102 141.559 106.837 142.777L114.169 126.099L117.437 117.846L119.243 111.053H119.82L119.947 105.578L119.504 99.0478C119.576 98.7157 119.728 98.4061 119.947 98.1458C120.704 97.0977 121.286 95.9341 121.671 94.7002C121.671 94.0868 121.048 90.4608 121.048 90.4608C121.048 90.4608 120.741 89.5588 121.409 89.4505C122.078 89.3423 124.542 90.1992 124.849 91.922L125.752 91.6153C126.5 89.8306 127.432 88.1287 128.533 86.5371C129.996 84.6429 131.494 83.4522 132.424 84.0656C132.68 84.2414 132.863 84.5026 132.943 84.8019C133.022 85.1013 132.992 85.4192 132.858 85.6982L129.95 91.0381C129.95 91.0381 128.668 92.7609 130.257 93.3743C130.257 93.3743 133.697 95.5841 133.923 97.5234C134.149 99.4627 132.903 101.131 131.801 102.557C130.7 103.982 128.759 107.067 128.759 107.067L126.502 109.06L125.599 112.497L126.664 113.823L125.075 120.705L123.928 125.864L123.351 128.994L119.739 141.352L116.128 152.122C116.128 152.122 114.268 158.291 109.763 158.12C105.257 157.948 100.319 155.513 98.7206 154.719C97.1226 153.926 83.9499 147.052 83.9499 147.052L81.2413 145.771C81.6028 147.003 81.7584 148.286 81.7018 149.569C81.6567 151.95 79.0925 157.2 78.3432 158.39L77.9008 167.699C77.7259 169.314 77.7562 170.944 77.9911 172.552C78.3883 174.978 80.4197 188.707 80.8621 190.42C80.8621 190.42 76.4743 194.389 63.4009 196.274C50.3275 198.16 44.2061 195.102 44.2061 195.102L38.3827 191.683L45.5604 177.513C45.5604 177.513 47.3661 173.3 47.1856 172.191C47.005 171.082 43.9172 166.301 43.9172 166.301L32.5864 146.15L32.0537 146.331L30.2931 152.212L23.928 172.155L15.5494 197.05C15.5494 197.05 13.2562 203.364 12.3082 205.231L9.66282 213.286C9.80975 214.725 10.1656 216.135 10.7192 217.471L4.0651 213.169L5.24784 206.855L6.7195 197.438L8.52522 187.2L10.1142 178.731L12.6513 167.437L13.5541 164.317L15.3598 155.495L18.5379 139.494L21.2465 125.792L40.2065 118.26L41.3892 117.358C41.6522 115.615 42.2931 113.949 43.2672 112.479C43.9432 111.511 44.7481 110.64 45.6597 109.89C45.6597 109.89 45.5694 108.708 45.5062 107.59C45.443 106.471 45.1541 104.415 45.1541 104.415C45.1541 104.415 51.0137 106.931 53.4695 105.407Z" fill="white"/>
<path d="M45.0639 104.487C45.0639 104.487 45.2625 108.275 45.8674 112.262C46.4723 116.249 46.2646 116.249 50.0566 121.029C53.8486 125.81 57.8393 129.806 58.4352 129.012" stroke="#333333" stroke-width="1.06068" stroke-miterlimit="10" stroke-linecap="round"/>
<path d="M58.6338 127.614C58.6338 127.614 59.031 120.632 57.6406 116.05C56.2502 111.468 54.2459 109.862 54.2459 108.834C54.1784 107.763 54.0457 106.696 53.8486 105.641" stroke="#333333" stroke-width="1.06068" stroke-miterlimit="10" stroke-linecap="round"/>
<path d="M45.0638 110.269C43.4691 111.703 42.3535 113.592 41.8677 115.681C41.2718 118.865 40.676 122.653 40.676 122.653L46.8605 135.019C47.399 132.866 48.2027 130.788 49.2531 128.832C49.7733 127.866 50.4472 126.992 51.2484 126.243" stroke="#333333" stroke-width="1.06068" stroke-miterlimit="10" stroke-linecap="round"/>
<path d="M60.0332 124.222C60.4699 124.113 60.9239 124.092 61.3688 124.16C61.8138 124.228 62.2406 124.384 62.6244 124.619C64.2225 125.422 67.4186 129.607 67.4186 129.607C67.4186 129.607 65.2247 119.234 61.4327 113.858C57.6407 108.483 55.0404 108.87 55.0404 108.87" stroke="#333333" stroke-width="1.06068" stroke-miterlimit="10" stroke-linecap="round"/>
<path d="M40.071 118.044L20.9124 125.404C20.9124 125.404 13.9333 163.487 11.3331 173.652C8.73287 183.818 4.35401 212.537 4.35401 212.537L9.53641 213.53L11.3421 208.352" stroke="#333333" stroke-linecap="round" stroke-linejoin="round"/>
<path d="M11.5794 208.189C11.5794 208.189 13.527 203.571 16.7232 193.649C19.9193 183.727 28.4603 159.373 29.8958 154.565C31.3314 149.758 32.487 146.592 32.487 146.592" stroke="#333333" stroke-width="1.06068" stroke-miterlimit="10" stroke-linecap="round"/>
<path d="M29.0923 140.738C29.0923 140.738 45.2534 169.602 46.6529 170.847C48.0523 172.092 44.4869 178.894 44.0806 180.689" stroke="#333333" stroke-width="1.06068" stroke-miterlimit="10" stroke-linecap="round"/>
<path d="M43.863 180.85L38.6806 191.62C38.6806 191.62 42.0754 196.806 56.4398 196.806C64.9883 196.832 73.0067 195.149 80.5809 191.19C80.5809 191.19 77.5938 172.876 77.7924 169.683C77.991 166.49 78.3973 158.119 78.3973 158.119C78.3973 158.119 82.0088 152.707 81.5844 148.549C81.1601 144.391 79.3905 139.574 79.3905 138.78C79.3905 137.987 78.9932 129.409 78.9932 129.409" stroke="#333333" stroke-width="1.06068" stroke-miterlimit="10" stroke-linecap="round"/>
<path d="M106.738 142.966L103.822 150.101" stroke="#333333" stroke-miterlimit="10" stroke-linecap="round"/>
<path d="M117.509 117.44C118.464 117.369 119.424 117.493 120.33 117.803C121.236 118.113 122.07 118.603 122.782 119.244" stroke="#333333" stroke-miterlimit="10" stroke-linecap="round"/>
<path d="M4.29082 212.898C4.32186 216.327 4.14095 219.756 3.74911 223.163C3.15322 227.357 3.35185 236.927 4.14637 239.913C4.94088 242.899 5.34717 243.521 6.14168 241.717C6.9362 239.913 9.3378 229.359 9.3378 229.359C9.3378 229.359 9.73506 236.332 11.5317 235.737C13.3284 235.141 12.3353 231.75 12.3353 228.755C12.3353 225.76 12.5339 224.768 12.3353 222.378C12.1367 219.988 9.47322 214.08 9.47322 214.08" fill="white"/>
<path d="M4.29082 212.898C4.32186 216.327 4.14095 219.756 3.74911 223.163C3.15322 227.357 3.35185 236.927 4.14637 239.913C4.94088 242.899 5.34717 243.521 6.14168 241.717C6.9362 239.913 9.3378 229.359 9.3378 229.359C9.3378 229.359 9.73506 236.332 11.5317 235.737C13.3284 235.141 12.3353 231.75 12.3353 228.755C12.3353 225.76 12.5339 224.768 12.3353 222.378C12.1367 219.988 9.47322 214.08 9.47322 214.08" stroke="#333333" stroke-miterlimit="10" stroke-linecap="round"/>
<path d="M119.838 110.9C119.748 109.136 119.748 107.369 119.838 105.605C120.001 103.945 119.342 101.465 119.504 99.2911C119.667 97.1173 121.825 96.3145 121.491 93.5003C121.157 90.6861 120.498 90.3523 120.994 89.6939C121.491 89.0354 124.606 90.0186 124.804 91.8406C124.981 93.7156 124.981 95.6031 124.804 97.4781C124.642 97.9742 125.797 101.086 125.138 102.439C124.761 103.172 124.481 103.951 124.308 104.757" stroke="#333333" stroke-width="0.880843" stroke-miterlimit="10" stroke-linecap="round"/>
<path d="M125.472 91.6961C125.472 91.6961 129.282 84.0832 131.44 83.9118C133.598 83.7405 132.93 85.7158 132.262 86.7261C131.594 87.7363 129.445 91.3624 129.282 92.8597C129.12 94.357 127.125 99.309 127.125 99.309" stroke="#333333" stroke-width="0.880843" stroke-miterlimit="10" stroke-linecap="round"/>
<path d="M129.309 92.8599C129.309 92.8599 135.115 96.3326 133.824 99.1739C132.533 102.015 131.828 103.152 130.835 102.782C129.955 102.332 129.167 101.72 128.515 100.978" stroke="#333333" stroke-width="0.880843" stroke-miterlimit="10" stroke-linecap="round"/>
<path d="M131.44 102.791C131.44 102.791 129.941 105.272 128.786 106.769C128.121 107.634 127.333 108.396 126.447 109.033L125.743 111.477" stroke="#333333" stroke-width="0.880843" stroke-miterlimit="10" stroke-linecap="round"/>
<path d="M61.8299 114.851C61.8299 114.851 75.5985 114.652 77.3952 116.844C79.1919 119.036 100.951 138.979 103.578 140.774C106.205 142.569 106.774 142.966 106.774 142.966C106.774 142.966 117.545 118.612 117.545 117.439C117.545 116.267 119.351 110.864 119.351 110.864C119.351 110.864 122.746 111.261 123.549 111.261C124.353 111.261 126.538 113.858 126.538 113.858C126.538 113.858 123.549 126.017 123.549 127.388C123.549 128.759 117.961 147.729 115.36 153.546C112.76 159.364 109.176 158.525 103.388 156.73C97.6011 154.935 81.8372 145.97 81.8372 145.97" stroke="#333333" stroke-width="1.06068" stroke-miterlimit="10" stroke-linecap="round"/>
<path d="M59.1213 221.476C59.6148 221.395 59.6148 221.395 59.6149 221.396L59.6151 221.397L59.6162 221.404L59.6206 221.431L59.6379 221.536L59.7054 221.949L59.9631 223.524C60.1858 224.886 60.5057 226.844 60.8945 229.224C61.6719 233.986 62.7246 240.44 63.8256 247.213C66.0272 260.757 68.4226 275.581 69.195 280.68C69.9651 285.764 73.0525 302.114 75.9507 317.208C77.3991 324.751 78.7993 331.977 79.8374 337.316C80.3565 339.986 80.785 342.184 81.0837 343.714C81.2331 344.48 81.35 345.078 81.4296 345.486L81.4891 345.79C82.0637 345.912 82.6478 345.986 83.2352 346.011C83.3727 346.006 83.5539 345.877 83.7391 345.513C83.8208 345.353 83.8811 345.188 83.9212 345.06C83.941 344.997 83.9553 344.945 83.9643 344.91C83.9669 344.9 83.9691 344.891 83.9708 344.884L83.9799 344.802L84.0157 344.472C84.0471 344.183 84.0929 343.757 84.1507 343.211C84.2665 342.119 84.4305 340.547 84.6235 338.628C85.0094 334.79 85.511 329.564 85.974 324.01C86.437 318.455 86.8611 312.577 87.0922 307.434C87.3238 302.279 87.3596 297.897 87.0557 295.318C86.4405 290.095 85.211 284.255 84.1304 279.237C84.0634 278.926 83.9969 278.618 83.9312 278.313C83.4682 276.167 83.0424 274.193 82.7204 272.522C82.3553 270.627 82.1137 269.075 82.1137 268.091C82.1137 267.117 82.4693 264.367 82.9876 260.685C83.231 258.956 83.5122 257.008 83.8134 254.922L83.8785 254.471C84.2044 252.214 84.5519 249.804 84.8994 247.336C86.2916 237.448 87.6753 226.692 87.6753 221.187C87.6753 215.718 85.8891 208.19 84.0838 201.99C83.1836 198.899 82.2833 196.153 81.6079 194.179C81.2703 193.193 80.9891 192.4 80.7924 191.854C80.7483 191.731 80.7085 191.621 80.6732 191.524C80.499 191.606 80.2814 191.706 80.0235 191.822C79.2826 192.155 78.2077 192.616 76.8665 193.13C74.1851 194.159 70.4336 195.404 66.1553 196.267C57.7946 197.954 47.3164 198.204 38.9117 192.397C38.8776 192.484 38.84 192.58 38.7991 192.686C38.577 193.257 38.2572 194.088 37.8665 195.128C37.0852 197.209 36.0209 200.125 34.8893 203.464C32.6237 210.151 30.0983 218.509 29.0264 225.262C27.9542 232.015 27.6445 243.322 27.527 253.401C27.4918 256.42 27.4739 259.32 27.4577 261.95C27.4468 263.71 27.4367 265.349 27.4226 266.823C27.4051 268.659 27.3815 270.237 27.3427 271.464C27.3043 272.676 27.2504 273.584 27.1645 274.053C27.0776 274.527 26.8593 275.187 26.5628 275.968C26.2629 276.757 25.8706 277.701 25.4208 278.754C25.1123 279.476 24.7767 280.249 24.424 281.063C23.7446 282.629 23.0014 284.342 22.2647 286.119C21.1468 288.814 20.0529 291.634 19.239 294.256C18.4223 296.886 17.9003 299.279 17.9003 301.132C17.9003 305.026 16.7379 316.947 15.5817 327.852C15.0026 333.314 14.4235 338.534 13.9892 342.389C13.772 344.316 13.5911 345.902 13.4644 347.007C13.4011 347.559 13.3513 347.991 13.3174 348.284L13.3025 348.413L15.5752 349.774C15.6489 349.548 15.7426 349.261 15.8546 348.919C16.1587 347.989 16.5977 346.651 17.137 345.019C18.2155 341.755 19.6953 337.312 21.3002 332.6C24.5053 323.19 28.2232 312.663 30.2369 308.326C32.2204 304.054 34.6059 296.832 36.6957 290.147C37.4197 287.831 38.109 285.576 38.7327 283.536C39.9004 279.716 40.8388 276.647 41.3469 275.326C42.1135 273.333 45.2018 264.314 48.179 255.28C49.6665 250.765 51.1244 246.253 52.2485 242.62C53.3793 238.964 54.156 236.249 54.3024 235.291C54.6171 233.233 55.7138 229.719 56.7156 226.756C57.2192 225.266 57.7034 223.903 58.0617 222.912C58.2409 222.416 58.3887 222.014 58.4917 221.735C58.5432 221.595 58.5835 221.487 58.611 221.413L58.6424 221.329L58.6505 221.308L58.6525 221.302L58.6531 221.301L58.6532 221.3C58.6533 221.3 58.6533 221.3 59.1213 221.476ZM59.1213 221.476L59.6148 221.395L59.3121 219.546L58.6533 221.3L59.1213 221.476Z" fill="#FFDFA6" stroke="#333333"/>
<path d="M13.0937 348.649C13.0937 348.649 1.35654 358.571 1.35654 363.496C1.35654 368.421 5.98819 368.123 10.9358 363.496C15.8835 358.869 16.1363 349.334 16.1363 349.334L13.0937 348.649Z" fill="white" stroke="#333333" stroke-width="1.06068" stroke-miterlimit="10" stroke-linecap="round"/>
<path d="M81.0608 346.204C81.0608 346.204 85.0785 356.081 89.4122 360.411C93.7459 364.741 96.2107 366.274 96.2107 361.638C96.2107 357.001 93.4299 351.761 84.4736 344.969C84.4645 344.969 86.9384 346.818 81.0608 346.204Z" fill="white" stroke="#333333" stroke-width="1.06068" stroke-miterlimit="10" stroke-linecap="round"/>
<path d="M39.6016 72.8175C38.798 72.5198 38.0396 72.159 37.2541 71.8253C36.4686 71.4916 35.0331 71.3112 34.4914 73.7736C33.6878 77.3816 39.2765 80.3582 37.4798 83.3438C36.3621 85.1602 34.6822 86.563 32.6947 87.3397C32.3712 87.4508 32.034 87.5176 31.6925 87.5381C30.0945 87.7366 27.5033 87.5381 28.2978 90.3253C29.0923 93.1125 31.6925 95.5118 33.2906 95.5118H34.8886C34.8886 95.5118 36.6944 100.924 43.4658 103.882C50.2372 106.841 54.8418 106.679 56.4398 102.89C58.0379 99.1018 59.2387 95.9087 59.2387 90.9206C59.2387 85.9326 57.433 77.562 57.433 77.562C57.433 77.562 55.8349 79.7629 49.6504 76.9667C45.5604 75.1176 41.7323 73.6203 39.6016 72.8175Z" fill="white"/>
<path d="M39.6016 72.8175C38.798 72.5198 38.0396 72.159 37.2541 71.8253C36.4686 71.4916 35.0331 71.3112 34.4914 73.7736C33.6878 77.3816 39.2765 80.3582 37.4798 83.3438C36.3621 85.1602 34.6822 86.563 32.6947 87.3397C32.3712 87.4508 32.034 87.5176 31.6925 87.5381C30.0945 87.7366 27.5033 87.5381 28.2978 90.3253C29.0923 93.1125 31.6925 95.5118 33.2906 95.5118H34.8886C34.8886 95.5118 36.6944 100.924 43.4658 103.882C50.2372 106.841 54.8418 106.679 56.4398 102.89C58.0379 99.1018 59.2387 95.9087 59.2387 90.9206C59.2387 85.9326 57.433 77.562 57.433 77.562C57.433 77.562 55.8349 79.7629 49.6504 76.9667C45.5604 75.1176 41.7323 73.6203 39.6016 72.8175Z" stroke="#333333" stroke-width="1.06068" stroke-miterlimit="10" stroke-linecap="round"/>
<path d="M46.6529 84.6337C46.7793 85.3914 46.5716 86.0589 46.1834 86.122C45.7951 86.1852 45.3979 85.6169 45.2805 84.8592C45.1631 84.1015 45.3708 83.425 45.75 83.3619C46.1292 83.2988 46.5265 83.9121 46.6529 84.6337Z" fill="#333333"/>
<path d="M54.914 83.2534C55.0314 84.0111 54.8237 84.6786 54.4445 84.7417C54.0653 84.8049 53.659 84.2366 53.5417 83.4789C53.4243 82.7213 53.6229 82.0538 54.0021 81.9906C54.3813 81.9275 54.7876 82.4958 54.914 83.2534Z" fill="#333333"/>
<path d="M41.8677 80.9537C42.3729 80.2035 43.0582 79.5917 43.8609 79.1741C44.6637 78.7566 45.5584 78.5466 46.4633 78.5634" stroke="#333333" stroke-width="1.06068" stroke-miterlimit="10" stroke-linecap="round"/>
<path d="M52.6478 79.1584C53.4148 78.8906 54.245 78.8619 55.0286 79.0761C55.8122 79.2904 56.5122 79.7374 57.0357 80.358" stroke="#333333" stroke-width="1.06068" stroke-miterlimit="10" stroke-linecap="round"/>
<path d="M51.8533 82.5498C51.743 83.8102 51.743 85.0778 51.8533 86.3382C52.052 87.9347 53.2437 88.3316 52.8465 89.5313C52.4492 90.7309 50.8512 90.7219 50.8512 90.7219" stroke="#333333" stroke-width="1.06068" stroke-miterlimit="10" stroke-linecap="round"/>
<path d="M48.8558 95.5118C48.1721 95.6731 47.4614 95.6849 46.7727 95.5464C46.0839 95.4078 45.4332 95.1222 44.8652 94.709" stroke="#333333" stroke-width="1.06068" stroke-miterlimit="10" stroke-linecap="round"/>
</svg>
