<svg viewBox="0 0 664 356" fill="none" xmlns="http://www.w3.org/2000/svg">
<g clip-path="url(#clip0)">
<path d="M184.036 338.734H415.561C421.677 338.734 426.646 333.774 426.646 327.669V16.5981C426.646 10.4931 421.677 5.53271 415.561 5.53271H184.036C177.92 5.53271 172.952 10.4931 172.952 16.5981V327.669C172.856 333.774 177.825 338.734 184.036 338.734Z" fill="#F0F0F0"/>
<path d="M218.339 330.244H492.673C496.877 330.244 500.222 326.906 500.222 322.708V47.791H210.791V322.613C210.791 326.81 214.135 330.244 218.339 330.244Z" fill="white"/>
<path d="M273.474 100.161C271.467 100.161 269.747 101.782 269.747 103.881V175.997C269.747 178 271.371 179.717 273.474 179.717H437.634C439.641 179.717 441.361 178.095 441.361 175.997V103.881C441.361 101.878 439.736 100.161 437.634 100.161H273.474Z" fill="#E3CCFF" stroke="#333333" stroke-miterlimit="10"/>
<path d="M441.361 203.374C441.361 205.091 439.927 206.522 438.208 206.522H272.996C271.276 206.522 269.843 205.091 269.843 203.374C269.843 201.657 271.276 200.226 272.996 200.226H438.208C439.927 200.226 441.361 201.657 441.361 203.374Z" fill="#F0F0F0" stroke="#333333" stroke-miterlimit="10"/>
<path d="M441.361 217.015C441.361 218.732 439.927 220.163 438.208 220.163H272.996C271.276 220.163 269.843 218.732 269.843 217.015C269.843 215.298 271.276 213.867 272.996 213.867H438.208C439.927 213.867 441.361 215.298 441.361 217.015Z" fill="#F0F0F0" stroke="#333333" stroke-miterlimit="10"/>
<path d="M441.361 230.656C441.361 232.373 439.927 233.804 438.208 233.804H272.996C271.276 233.804 269.843 232.373 269.843 230.656C269.843 228.939 271.276 227.508 272.996 227.508H438.208C439.927 227.508 441.361 228.939 441.361 230.656Z" fill="#F0F0F0" stroke="#333333" stroke-miterlimit="10"/>
<path d="M441.361 244.297C441.361 246.014 439.927 247.445 438.208 247.445H272.996C271.276 247.445 269.843 246.014 269.843 244.297C269.843 242.58 271.276 241.149 272.996 241.149H438.208C439.927 241.149 441.361 242.58 441.361 244.297Z" fill="#F0F0F0" stroke="#333333" stroke-miterlimit="10"/>
<path d="M441.361 257.938C441.361 259.655 439.927 261.086 438.208 261.086H272.996C271.276 261.086 269.843 259.655 269.843 257.938C269.843 256.221 271.276 254.79 272.996 254.79H438.208C439.927 254.79 441.361 256.221 441.361 257.938Z" fill="#F0F0F0" stroke="#333333" stroke-miterlimit="10"/>
<path d="M441.361 271.579C441.361 273.296 439.927 274.727 438.208 274.727H272.996C271.276 274.727 269.843 273.296 269.843 271.579C269.843 269.862 271.276 268.431 272.996 268.431H438.208C439.927 268.431 441.361 269.862 441.361 271.579Z" fill="#F0F0F0" stroke="#333333" stroke-miterlimit="10"/>
<path d="M441.361 285.22C441.361 286.937 439.927 288.368 438.208 288.368H272.996C271.276 288.368 269.843 286.937 269.843 285.22C269.843 283.503 271.276 282.072 272.996 282.072H438.208C439.927 282.072 441.361 283.503 441.361 285.22Z" fill="#F0F0F0" stroke="#333333" stroke-miterlimit="10"/>
<path d="M441.361 298.861C441.361 300.578 439.927 302.009 438.208 302.009H272.996C271.276 302.009 269.843 300.578 269.843 298.861C269.843 297.144 271.276 295.713 272.996 295.713H438.208C439.927 295.713 441.361 297.144 441.361 298.861Z" fill="#F0F0F0" stroke="#333333" stroke-miterlimit="10"/>
<path d="M210.791 73.4512H500.222V28.8081C500.222 24.6109 496.877 21.2722 492.673 21.2722H218.339C214.135 21.2722 210.791 24.6109 210.791 28.8081V73.4512Z" fill="#FFDFA6"/>
<path d="M462 48.4588C462 43.88 465.727 40.2551 470.409 40.2551C472.511 40.2551 474.422 41.0183 475.951 42.2583C477.671 43.7846 478.818 45.9786 478.818 48.4588C478.818 53.0376 475.091 56.6624 470.409 56.6624C465.822 56.6624 462 53.0376 462 48.4588Z" fill="white" stroke="#333333" stroke-miterlimit="10"/>
<path d="M435.054 48.4588C435.054 43.88 438.781 40.2551 443.463 40.2551C448.145 40.2551 451.872 43.9754 451.872 48.4588C451.872 53.0376 448.145 56.6624 443.463 56.6624C438.781 56.6624 435.054 53.0376 435.054 48.4588Z" fill="white" stroke="#333333" stroke-miterlimit="10"/>
<path d="M408.013 48.4588C408.013 43.88 411.739 40.2551 416.421 40.2551C421.103 40.2551 424.83 43.9754 424.83 48.4588C424.83 53.0376 421.103 56.6624 416.421 56.6624C411.835 56.6624 408.013 53.0376 408.013 48.4588Z" fill="white" stroke="#333333" stroke-miterlimit="10"/>
<path d="M475.951 42.2583L464.962 54.6592" stroke="#333333" stroke-miterlimit="10"/>
<path d="M476.811 53.8007L464.198 43.0215" stroke="#333333" stroke-miterlimit="10"/>
<path d="M240.603 43.0215C244.521 38.8243 247.005 33.2916 247.388 27.1865C248.152 13.2594 237.45 1.33553 223.499 0.572401C209.548 -0.190728 197.604 10.4931 196.84 24.4202C196.075 38.3473 206.777 50.2712 220.728 51.0343C224.646 51.2251 228.372 50.5574 231.717 49.2219L242.514 55.4223L240.603 43.0215Z" fill="#E3CCFF" stroke="#333333" stroke-miterlimit="10" stroke-linecap="round" stroke-linejoin="round"/>
<path d="M225.41 11.7331C226.175 11.7331 226.844 11.8285 227.608 11.8285C228.086 11.8285 228.564 11.9239 228.946 11.9239L228.85 16.3119C228.755 16.3119 228.564 16.3119 228.564 16.3119C228.086 16.3119 227.608 16.3119 227.13 16.3119C226.844 16.3119 226.366 16.3119 226.079 16.3119C224.933 16.4073 224.073 16.7888 223.977 18.2197C223.881 19.269 223.881 21.5584 223.881 21.6538C223.977 21.6538 225.028 21.6538 226.27 21.6538C226.844 21.6538 227.417 21.6538 227.799 21.6538C228.086 21.6538 228.372 21.6538 228.755 21.6538C228.468 23.3708 228.277 24.8971 228.086 26.5187H223.977L223.881 38.7288H218.722L218.817 26.5187H214.708L214.804 21.6538H219.008V21.2722C219.008 20.3183 219.008 19.269 219.008 18.3151C219.008 17.7427 219.104 17.075 219.104 16.4073C219.39 14.881 220.059 13.6409 221.301 12.7824C222.448 12.0193 223.69 11.6377 224.933 11.6377C225.124 11.7331 225.315 11.7331 225.41 11.7331Z" fill="white"/>
<path d="M266.116 305.824C260.383 299.719 256.752 291.706 256.178 282.74C255.032 262.421 270.607 245.06 290.96 243.915C311.313 242.771 328.703 258.319 329.85 278.638C330.997 298.956 315.421 316.317 295.069 317.462C289.431 317.748 283.984 316.794 279.111 314.791L263.44 323.758L266.116 305.824Z" fill="#B2EEDF" stroke="#333333" stroke-miterlimit="10"/>
<path d="M618.421 326.143C614.408 321.85 611.732 316.126 611.446 309.831C610.681 295.522 621.67 283.216 636.003 282.358C650.336 281.595 662.662 292.565 663.522 306.874C664.287 321.182 653.298 333.488 638.965 334.346C634.952 334.537 631.13 333.869 627.69 332.438L616.606 338.734L618.421 326.143Z" fill="#B2EEDF" stroke="#333333" stroke-miterlimit="10"/>
<path d="M653.011 300.578C652.82 300.864 652.629 301.15 652.438 301.436C651.865 302.104 651.196 302.772 650.527 303.249L650.431 303.439C650.431 304.203 650.431 304.966 650.336 305.824C650.145 307.446 649.667 309.068 648.903 310.594C648.138 312.12 647.183 313.551 646.036 314.791C644.029 316.89 641.545 318.225 638.678 318.893C637.723 319.084 636.672 319.179 635.716 319.274C635.525 319.274 635.43 319.274 635.238 319.274C632.372 319.274 629.696 318.511 627.212 316.985L627.116 316.89C627.499 316.89 627.976 316.985 628.359 316.985C629.792 316.985 631.13 316.699 632.467 316.222C633.423 315.84 634.187 315.363 635.047 314.696C632.276 314.6 630.556 312.597 630.174 310.975C630.461 311.071 630.843 311.071 631.13 311.071C631.607 311.071 631.99 310.975 632.467 310.88H632.563C631.034 310.498 629.887 309.735 629.123 308.495C628.55 307.637 628.359 306.683 628.359 305.633C629.123 306.015 629.887 306.206 630.747 306.301C629.601 305.538 628.836 304.393 628.55 303.058C628.263 301.722 628.454 300.387 629.123 299.242C631.99 302.581 635.621 304.489 640.016 304.775C640.016 304.584 639.921 304.393 639.921 304.203C639.825 302.962 640.016 301.818 640.685 300.768C641.545 299.433 642.787 298.574 644.316 298.384C644.603 298.288 644.985 298.288 645.272 298.288C646.705 298.288 647.851 298.861 648.903 299.815C648.998 299.91 648.998 299.91 649.094 299.91H649.189C650.24 299.719 651.291 299.242 652.247 298.765H652.342C651.96 300.005 651.196 300.959 650.049 301.627C651.1 301.245 652.056 300.959 653.011 300.578Z" fill="white"/>
<path d="M341.412 171.132C346.572 165.599 350.012 158.254 350.394 150.05C351.445 131.544 337.208 115.71 318.766 114.756C300.229 113.706 284.367 127.92 283.411 146.33C282.36 164.836 296.597 180.671 315.039 181.625C320.199 181.911 325.072 180.957 329.563 179.145L343.801 187.253L341.412 171.132Z" fill="#FFDFA6" stroke="#333333" stroke-miterlimit="10"/>
<path d="M326.697 137.554C327.748 137.554 328.608 138.413 328.608 139.462C328.608 140.511 327.748 141.37 326.697 141.37C325.646 141.37 324.786 140.511 324.786 139.462C324.786 138.413 325.646 137.554 326.697 137.554Z" fill="white"/>
<path d="M333.863 139.939C334.054 142.419 334.245 154.248 333.481 157.014C332.526 160.639 330.137 162.833 326.41 163.405C325.072 163.596 321.346 163.787 317.619 163.787C313.797 163.787 310.071 163.691 308.733 163.31C305.102 162.356 303 160.066 302.426 156.346C302.044 153.675 301.948 141.179 302.713 138.508C303.764 134.979 306.057 132.88 309.688 132.308C311.313 132.021 314.466 131.926 317.715 131.926C320.677 131.926 323.735 132.021 325.455 132.117C327.652 132.212 329.659 132.975 331.283 134.502C332.812 136.028 333.672 137.84 333.863 139.939ZM330.806 155.869C331.283 153.103 331.283 142.896 330.997 140.225C330.71 137.459 328.99 135.551 326.219 135.169C324.881 134.979 321.537 134.883 318.288 134.883C315.135 134.883 311.982 134.979 310.548 135.074C307.777 135.36 305.866 137.077 305.484 139.843C305.006 142.801 305.006 153.675 305.388 155.869C305.771 158.159 307.013 159.685 309.306 160.353C310.548 160.734 314.275 160.83 317.906 160.83C321.25 160.83 324.499 160.734 325.741 160.543C328.512 160.353 330.328 158.636 330.806 155.869Z" fill="white"/>
<path d="M318.193 139.748C322.684 139.748 326.315 143.373 326.315 147.952C326.315 152.435 322.588 156.06 318.097 156.06C313.606 156.06 309.975 152.435 309.975 147.856C309.975 143.373 313.606 139.748 318.193 139.748ZM318.001 153.198C320.868 153.198 323.257 150.909 323.352 147.952C323.448 144.995 321.059 142.61 318.193 142.61C315.326 142.61 312.937 144.899 312.842 147.856C312.746 150.718 315.039 153.103 318.001 153.198Z" fill="white"/>
<path d="M622.339 52.5605C627.116 47.4094 630.27 40.6366 630.652 33.1007C631.607 16.0257 618.517 1.43084 601.413 0.476927C584.308 -0.476985 569.689 12.5916 568.733 29.6666C567.778 46.7417 580.869 61.3365 597.973 62.2904C602.75 62.5766 607.241 61.7181 611.35 60.001L624.536 67.5369L622.339 52.5605Z" fill="#FFDFA6"/>
<path d="M591.093 16.3119C592.908 16.3119 594.342 17.7428 594.342 19.5552C594.342 21.3676 592.908 22.7985 591.093 22.7985C589.277 22.7985 587.844 21.3676 587.844 19.5552C587.844 17.7428 589.373 16.3119 591.093 16.3119Z" fill="white"/>
<path d="M593.864 25.1832L593.768 43.1168H588.131L588.322 25.1832H593.864V25.1832Z" fill="white"/>
<path d="M608.101 24.8018C613.739 24.8018 614.79 28.522 614.695 33.387L614.599 43.2123H609.057L609.152 34.5317C609.152 32.4331 609.152 29.7621 606.286 29.7621C603.419 29.7621 602.941 32.0515 602.941 34.3409L602.846 43.2123H597.208L597.304 25.2787H602.655V27.7589H602.75C603.515 26.2326 605.426 24.8018 608.101 24.8018Z" fill="white"/>
<path d="M105.682 144.804C101.764 140.702 99.2799 135.169 98.8977 129.064C98.2288 115.328 108.835 103.404 122.595 102.641C136.45 101.878 148.299 112.466 149.063 126.298C149.828 140.13 139.221 151.958 125.366 152.721C121.544 152.912 117.817 152.244 114.473 150.909L103.771 156.919L105.682 144.804Z" fill="#B2EEDF" stroke="#333333" stroke-miterlimit="10"/>
<path d="M135.495 122.005C136.45 124.295 136.355 132.785 135.303 134.979C135.017 135.551 134.539 135.933 133.966 136.314C133.106 136.791 128.328 136.886 123.646 136.886C119.251 136.886 115.046 136.696 114.091 136.409C113.135 136.123 112.562 135.456 112.18 134.597C111.415 132.403 111.224 122.959 112.753 121.147C113.326 120.575 113.995 120.193 114.855 120.098C116.766 119.907 120.397 119.811 124.028 119.811C128.519 119.811 132.915 120.002 133.775 120.288C134.539 120.575 135.208 121.147 135.495 122.005ZM120.779 132.117C123.264 130.781 125.939 129.541 128.424 128.11C125.939 126.775 123.359 125.439 120.875 124.104C120.779 126.87 120.779 129.446 120.779 132.117Z" fill="white"/>
<path d="M560.516 349.132C560.516 349.132 559.082 353.806 560.038 355.046C560.994 356.286 562.522 354.665 572.46 355.618C580.677 356.382 593.959 355.905 594.437 354.283C595.393 351.135 590.711 350.181 585.646 349.323C580.582 348.464 577.811 346.461 577.811 346.461L560.516 349.132Z" fill="#333333"/>
<path d="M594.055 352.661C592.335 354.378 580.009 354.378 572.269 353.711C562.331 352.757 560.802 354.378 559.847 353.138C559.751 353.043 559.751 352.947 559.656 352.852C559.56 353.711 559.656 354.569 559.942 354.951C560.898 356.191 562.427 354.569 572.364 355.523C580.582 356.286 593.864 355.809 594.342 354.188C594.724 353.329 594.533 352.947 594.055 352.661Z" fill="#333333"/>
<path d="M560.516 349.036C564.72 349.895 575.04 348.273 578.384 346.556L578.098 321.373H558.796L560.516 349.036Z" fill="#E3CCFF" stroke="#333333" stroke-miterlimit="10" stroke-linecap="round" stroke-linejoin="round"/>
<path d="M76.8249 338.543C72.525 338.543 69.7539 337.685 69.085 336.826C68.8939 336.636 68.8939 336.445 68.8939 336.445C69.1806 335.968 72.4294 335.3 75.0093 334.632C80.8381 333.297 88.769 331.484 90.8712 327.955C93.8333 322.804 97.751 304.107 98.4199 300.673L111.129 304.489C108.262 312.12 104.153 318.511 100.618 324.044C97.751 328.527 95.2666 332.438 94.3111 335.682C93.5467 338.162 92.7823 338.448 91.8267 338.448C91.2534 338.448 90.6801 338.353 89.9157 338.257C88.8646 338.066 87.5268 337.876 85.9024 337.876C84.8513 337.876 83.8958 337.971 82.8447 338.162C80.8381 338.353 78.7359 338.543 76.8249 338.543Z" fill="white"/>
<path d="M98.8021 301.15L110.555 304.679C107.784 312.025 103.771 318.225 100.235 323.758C97.3688 328.241 94.7889 332.152 93.8333 335.491C93.1645 337.876 92.4956 337.876 91.8267 337.876C91.349 337.876 90.6801 337.78 90.0112 337.685C88.9601 337.494 87.6224 337.303 85.998 337.303C84.9469 337.303 83.8958 337.399 82.8447 337.589C80.8381 337.971 78.8315 338.066 76.9204 338.066C72.525 338.066 70.1361 337.112 69.5628 336.54C70.4228 336.063 73.0027 335.491 75.2004 335.014C81.4114 333.583 89.1512 331.866 91.349 328.05C94.2156 323.185 97.9421 305.633 98.8021 301.15ZM98.1332 299.91C98.1332 299.91 93.7378 322.041 90.489 327.573C87.2402 333.106 68.7984 334.346 68.5117 336.254C68.3206 337.685 71.665 338.925 76.9204 338.925C78.7359 338.925 80.8381 338.734 83.0358 338.353C84.0869 338.162 85.138 338.066 85.998 338.066C88.6735 338.066 90.489 338.639 91.8267 338.639C93.1645 338.639 94.12 338.066 94.7889 335.586C96.8911 328.336 106.637 318.13 111.797 303.916L98.1332 299.91Z" fill="#333333"/>
<path d="M90.489 334.346C88.1957 334.537 85.998 334.346 83.8003 331.771C77.5893 333.965 68.6073 334.919 68.4162 336.254C68.1295 338.162 74.436 339.879 82.9403 338.448C90.489 337.208 93.0689 341.501 94.7889 335.777C94.98 335.109 95.2667 334.346 95.6489 333.583C92.6867 333.011 92.6867 334.155 90.489 334.346Z" fill="#FFDFA6" stroke="#333333" stroke-miterlimit="10"/>
<path d="M83.3225 337.685C75.3916 339.02 69.3717 337.589 68.7984 335.872C68.6073 336.063 68.4162 336.159 68.4162 336.349C68.1295 338.257 74.436 339.974 82.9403 338.543C90.3934 337.303 93.0689 341.5 94.6933 336.159C92.5912 340.07 90.2979 336.445 83.3225 337.685Z" fill="white"/>
<path d="M68.7984 335.872C68.6073 336.063 68.4162 336.159 68.4162 336.349C68.2251 337.78 71.5694 339.02 76.8249 339.02C78.6404 339.02 80.7425 338.83 82.9403 338.448C83.9914 338.257 84.9469 338.162 85.9024 338.162C88.5779 338.162 90.489 338.83 91.8267 338.83C93.1645 338.83 94.0245 338.257 94.6933 336.063C93.9289 337.589 93.0689 338.066 92.0178 338.066C90.6801 338.066 88.9601 337.494 86.2846 337.494C85.4247 337.494 84.4691 337.589 83.3225 337.78C81.1248 338.162 79.0226 338.353 77.2071 338.353C72.4294 338.162 69.1806 337.113 68.7984 335.872Z" fill="#333333"/>
<path d="M34.5903 338.543C33.8259 338.543 33.3481 338.066 32.3926 337.113C31.1504 335.872 29.526 334.251 25.9905 332.725C20.3529 330.34 18.2507 325.475 17.8685 322.899C17.6774 321.659 17.8685 320.896 18.1551 320.705C18.824 320.705 20.9262 322.232 22.9328 323.567C26.8505 326.333 32.297 330.054 36.2147 330.054C36.788 330.054 37.2658 329.958 37.7436 329.863C43.4768 328.146 61.6319 318.607 64.6896 316.985L69.7539 326.715C62.3963 330.34 55.0387 332.152 49.1144 333.583C44.1456 334.823 39.8457 335.872 36.9791 337.59C35.9281 338.257 35.1636 338.543 34.5903 338.543Z" fill="white"/>
<path d="M64.4029 317.748L69.0851 326.524C62.0141 329.958 55.1343 331.675 49.0189 333.201C44.0501 334.442 39.7502 335.491 36.6925 337.303C35.7369 337.876 34.9725 338.162 34.4948 338.162C33.9214 338.162 33.5392 337.78 32.5837 336.826C31.437 335.682 29.6215 333.869 25.9905 332.343C21.4039 330.435 19.0151 326.619 18.3462 323.758C18.0596 322.518 18.1551 321.754 18.2507 321.373C19.0151 321.659 20.9262 322.995 22.5506 324.139C26.7549 327.096 32.0104 330.721 36.1192 330.721C36.6925 330.721 37.2658 330.626 37.7436 330.53C43.2857 328.813 60.3897 319.847 64.4029 317.748ZM64.7852 316.413C64.7852 316.413 43.5723 327.669 37.4569 329.481C36.9791 329.577 36.5969 329.672 36.1192 329.672C30.0037 329.672 20.2573 320.228 18.0596 320.228C17.964 320.228 17.8685 320.228 17.7729 320.324C16.2441 321.468 17.7729 329.767 25.7038 333.106C31.8193 335.682 32.297 338.925 34.4948 338.925C35.1636 338.925 36.0236 338.639 37.1702 337.971C43.6679 334.155 56.8542 333.678 70.3272 326.906L64.7852 316.413Z" fill="#333333"/>
<path d="M175.914 277.875C167.696 277.875 154.223 273.296 144.477 269.862C140.177 268.431 136.546 267.095 134.157 266.523C131.481 265.855 129.379 265.569 127.946 265.569C126.704 265.569 125.844 265.76 125.462 266.237C125.366 266.428 125.27 266.523 125.175 266.618C124.793 267 123.837 267.859 123.073 267.859C122.69 267.859 122.499 267.763 122.404 267.763L122.882 266.046L121.544 267.477C121.544 267.477 121.066 267.954 120.397 268.049H120.302C119.919 268.049 119.633 267.763 119.633 267.763L119.346 267.382L118.964 267.668C118.677 267.859 117.913 268.335 117.339 268.335C117.244 268.335 117.244 268.335 117.244 268.335C117.148 268.335 117.053 268.24 117.053 268.24C116.957 268.145 117.053 267.954 117.053 267.954L117.339 267L116.479 267.286C116.384 267.286 116.002 267.191 115.62 266.332C115.142 265.188 116.766 262.898 120.875 260.895C121.926 260.418 123.933 260.132 126.799 260.132C133.775 260.132 144.285 261.658 151.261 262.898C160.434 264.615 175.627 267.477 175.818 267.572L176.2 267.668L176.296 267.286C176.296 267.191 180.596 253.168 182.507 244.869C183.08 244.679 184.896 244.202 187.284 244.202C188.336 244.202 189.482 244.297 190.629 244.488C194.833 245.251 196.649 247.731 197.126 248.399C196.362 250.879 188.909 275.585 179.162 277.588C178.111 277.779 177.06 277.875 175.914 277.875Z" fill="white"/>
<path d="M187.189 244.678C188.24 244.678 189.387 244.774 190.438 244.965C194.164 245.632 195.884 247.731 196.458 248.494C195.98 250.02 194.164 255.935 191.393 261.944C187.285 271.006 182.985 276.253 178.876 277.111C178.016 277.302 176.965 277.398 175.818 277.398C167.696 277.398 154.319 272.819 144.572 269.385C140.272 267.858 136.546 266.618 134.157 266.046C131.481 265.378 129.284 265.092 127.755 265.092C126.417 265.092 125.462 265.378 124.888 265.951C124.697 266.141 124.602 266.237 124.602 266.428C124.124 266.905 123.359 267.477 122.882 267.477C122.882 267.477 122.882 267.477 122.786 267.477L123.646 264.424L120.97 267.191C120.875 267.286 120.493 267.572 120.111 267.668H120.015C119.824 267.668 119.728 267.572 119.728 267.572L119.442 266.618L118.582 267.191C118.295 267.382 117.817 267.668 117.435 267.763L118.104 266.046L116.193 266.714C116.097 266.618 116.002 266.523 115.811 266.046C115.524 265.283 116.862 263.184 120.875 261.181C121.544 260.895 123.073 260.513 126.608 260.513C133.488 260.513 144.094 262.04 150.974 263.28C160.147 264.997 175.34 267.858 175.531 267.954L176.391 268.145L176.678 267.286C176.678 267.191 180.882 253.454 182.794 245.155C183.462 245.06 185.087 244.678 187.189 244.678ZM187.189 243.724C184.036 243.724 181.934 244.488 181.934 244.488C180.022 252.691 175.723 267.095 175.723 267.095C175.723 267.095 160.434 264.138 151.165 262.421C144.477 261.181 133.679 259.655 126.608 259.655C123.837 259.655 121.639 259.846 120.493 260.513C116.288 262.612 114.377 265.092 115.046 266.618C115.524 267.668 116.097 267.858 116.384 267.858C116.479 267.858 116.575 267.858 116.575 267.858C116.575 267.858 116.288 268.717 117.148 268.908C117.244 268.908 117.339 268.908 117.339 268.908C118.199 268.908 119.251 268.145 119.251 268.145C119.251 268.145 119.633 268.622 120.302 268.622C120.397 268.622 120.397 268.622 120.493 268.622C121.257 268.526 121.926 267.858 121.926 267.858C121.926 267.858 121.83 268.335 122.977 268.431H123.073C124.219 268.431 125.653 266.905 125.653 266.905C125.653 266.905 125.653 266.046 127.946 266.046C129.188 266.046 131.099 266.237 134.061 267C141.801 268.908 164.065 278.352 175.914 278.352C177.06 278.352 178.207 278.256 179.162 278.065C189.769 275.871 197.509 248.303 197.509 248.303C197.509 248.303 195.693 244.869 190.629 244.011C189.291 243.82 188.144 243.724 187.189 243.724Z" fill="#333333"/>
<path d="M180.691 299.91C180.118 298.956 142.757 262.421 123.455 262.803C104.153 263.184 94.0245 305.061 94.0245 305.061L110.364 310.594L126.704 287.509L163.11 327.86L180.691 299.91Z" fill="#91E2C7" stroke="#333333" stroke-miterlimit="10" stroke-linecap="round" stroke-linejoin="round"/>
<path d="M181.647 291.229C175.914 297.239 171.327 300.959 167.792 303.249C147.821 299.433 117.435 294.377 102.72 295.999C84.278 302.199 62.5874 317.176 62.5874 317.176L69.7539 328.337C80.5515 325.284 103.771 312.883 103.771 312.883C150.21 330.817 156.899 333.488 169.416 336.54C177.251 339.593 185.756 340.642 192.54 335.586C205.44 326.047 207.542 294.663 207.542 294.663C207.542 294.663 198.273 293.233 181.647 291.229Z" fill="#B2EEDF" stroke="#333333" stroke-miterlimit="10" stroke-linecap="round" stroke-linejoin="round"/>
<path d="M180.787 242.484C179.927 242.484 179.354 242.294 178.876 241.721C179.831 240.004 181.074 234.281 180.882 232.755C180.309 229.13 173.238 212.722 171.9 209.765L184.8 204.423C186.042 207.38 192.922 223.597 194.355 226.268C194.929 227.317 197.318 230.084 199.038 231.514C198.846 234.949 196.267 238.86 190.629 240.004C188.718 240.386 186.998 240.958 185.373 241.435C183.558 241.912 182.029 242.484 180.787 242.484Z" fill="white"/>
<path d="M184.513 204.996C186.138 208.811 192.444 223.788 193.973 226.459C194.642 227.603 196.935 230.274 198.56 231.705C198.273 234.949 195.789 238.478 190.629 239.527C188.718 239.909 186.902 240.481 185.373 240.958C183.558 241.531 181.934 242.007 180.787 242.007C180.214 242.007 179.736 241.912 179.449 241.626C180.5 239.432 181.551 234.185 181.36 232.659C180.787 229.13 174.289 213.867 172.569 209.956L184.513 204.996ZM184.991 203.756L171.136 209.479C171.136 209.479 179.64 228.939 180.214 232.85C180.5 234.376 178.971 240.958 178.111 241.721C178.78 242.58 179.64 242.961 180.691 242.961C183.08 242.961 186.52 241.244 190.724 240.481C196.362 239.337 199.42 235.33 199.515 231.324C197.891 230.084 195.407 227.222 194.738 226.077C193.113 223.12 184.991 203.756 184.991 203.756Z" fill="#333333"/>
<path d="M177.825 240.29C172.092 253.931 169.129 257.461 169.798 261.753C170.276 264.711 171.614 266.618 173.143 267.954C175.914 270.434 175.054 273.391 176.009 276.921L174.863 289.512C174.863 289.512 182.316 295.236 193.113 297.239C203.529 299.147 209.644 297.048 209.644 297.048C209.644 297.048 212.893 257.365 209.071 245.919C204.484 232.278 196.649 227.508 196.649 227.508C190.247 229.32 181.36 237.715 177.825 240.29Z" fill="#FFDFA6" stroke="#333333" stroke-miterlimit="10"/>
<path opacity="0.7" d="M186.329 246.109C186.425 245.919 186.425 245.823 186.425 245.823C186.425 245.919 186.329 246.014 186.329 246.109Z" fill="#CBC7FF"/>
<path d="M165.498 212.245C165.689 212.627 166.072 212.722 166.358 212.532C166.741 212.341 166.836 211.959 166.645 211.673C166.454 211.291 166.072 211.196 165.785 211.387C165.498 211.482 165.307 211.864 165.498 212.245Z" fill="black"/>
<path d="M169.798 214.821C170.372 216.061 171.9 216.633 173.143 216.061C174.385 215.489 174.958 213.962 174.385 212.722C173.811 211.482 172.283 210.91 171.04 211.482C169.798 212.055 169.225 213.581 169.798 214.821Z" fill="#ED6D53"/>
<path d="M174.003 224.646C170.276 224.646 167.601 220.831 165.498 217.11L165.307 216.824L163.778 217.301C163.683 217.301 163.587 217.206 163.587 217.11V212.818L163.492 212.722C161.007 208.907 160.243 205.473 161.103 202.611C161.867 200.226 163.969 198.318 167.123 197.174C168.938 196.506 170.467 196.124 171.9 196.124C176.583 196.124 178.589 199.94 181.456 206.14C184.705 213.104 182.698 220.068 178.876 222.834C177.156 223.979 175.531 224.646 174.003 224.646Z" fill="white"/>
<path d="M171.996 196.506C176.391 196.506 178.302 200.226 181.169 206.236C184.322 213.009 182.411 219.686 178.78 222.357C177.06 223.597 175.531 224.169 174.098 224.169C170.658 224.169 168.078 220.449 166.072 216.824L165.689 216.157L164.925 216.347L164.161 216.538V212.818V212.532L163.969 212.341C161.581 208.716 160.816 205.282 161.676 202.611C162.441 200.322 164.352 198.605 167.409 197.46C169.129 196.792 170.658 196.506 171.996 196.506ZM171.996 195.552C170.563 195.552 168.938 195.838 167.027 196.601C158.905 199.654 158.81 206.427 163.11 212.913V217.11C163.11 217.492 163.396 217.778 163.778 217.778C163.874 217.778 163.874 217.778 163.969 217.778L165.116 217.397C167.505 221.689 170.276 225.219 174.003 225.219C175.531 225.219 177.251 224.646 179.258 223.215C183.08 220.449 185.373 213.295 182.029 205.95C179.258 200.035 177.156 195.552 171.996 195.552Z" fill="#333333"/>
<path d="M159.861 190.687C157.185 189.829 154.51 190.21 153.363 191.736C151.643 193.93 153.745 198.032 155.37 199.845C155.752 200.226 158.141 202.897 160.912 202.516C162.536 202.325 163.109 201.371 165.498 200.799C169.607 199.845 170.945 202.993 173.716 205.282C175.627 206.808 177.251 204.996 177.251 204.996L181.933 209.479C183.367 209.861 180.596 215.87 187.858 218.637C187.476 219.4 186.902 220.354 186.329 221.594C184.513 225.505 189.291 230.084 192.253 229.511C195.215 228.939 197.891 230.37 198.082 233.327C198.273 236.284 201.044 242.771 208.688 240.577C216.428 238.383 213.753 234.281 215.186 229.988C216.142 227.127 221.301 224.456 218.722 219.018C216.524 214.344 210.313 215.87 211.268 213.009C212.224 210.147 212.128 204.9 206.968 202.325C201.904 199.749 197.222 203.088 197.126 199.558C197.031 196.411 194.164 191.069 191.202 190.496C188.718 189.924 187.38 193.072 185.278 192.309C183.176 191.546 184.036 188.302 181.742 186.871C179.258 185.25 176.965 188.207 172.665 187.253C168.556 186.299 167.792 182.96 165.307 183.247C163.778 183.342 161.772 184.868 159.861 190.687Z" fill="#333333"/>
<path d="M180.118 209.002C181.838 207.476 182.316 205.186 181.169 203.946C180.022 202.611 178.302 203.851 176.583 205.377" fill="white"/>
<path d="M180.118 209.002C181.838 207.476 182.316 205.186 181.169 203.946C180.022 202.611 178.302 203.851 176.583 205.377" stroke="#333333" stroke-miterlimit="10" stroke-linecap="round" stroke-linejoin="round"/>
<path d="M134.061 293.71L131.864 294.95L111.415 259.655C111.033 259.083 111.224 258.224 111.893 257.938C112.466 257.556 113.326 257.747 113.613 258.415L134.061 293.71Z" fill="#333333"/>
<path d="M134.157 300.196C132.055 299.91 130.526 298.956 129.475 297.334C128.041 295.045 128.041 291.992 128.71 289.894C128.71 289.894 128.71 289.894 128.806 289.894C128.806 289.894 129.475 289.894 130.239 292.756C130.335 292.946 130.335 293.233 130.717 293.233C130.908 293.233 131.195 293.233 131.481 293.233C135.781 293.233 144.668 291.802 152.503 290.562C155.847 289.989 159.001 289.512 161.581 289.131C170.849 287.795 180.596 281.976 180.691 281.881L180.787 281.786L180.882 281.595C181.074 280.927 186.616 266.332 186.616 257.842C187.38 257.365 190.151 255.839 194.355 255.458C194.642 255.458 194.929 255.458 195.215 255.458C198.846 255.458 200.949 257.175 201.522 257.652C200.949 260.513 195.693 286.937 186.807 291.229C176.774 296.094 160.625 297.811 152.599 298.098C149.063 298.193 143.426 298.861 139.221 299.433C136.928 299.91 135.017 300.101 134.157 300.196Z" fill="white"/>
<path d="M195.311 256.125C198.464 256.125 200.375 257.461 201.044 258.033C200.662 259.846 199.42 266.141 197.318 272.723C194.069 282.835 190.342 289.226 186.616 291.039C176.678 295.904 160.53 297.621 152.599 297.811C148.968 297.907 143.33 298.575 139.221 299.147C136.928 299.433 135.017 299.624 134.157 299.719C132.246 299.433 130.812 298.575 129.857 297.144C128.615 295.236 128.519 292.756 128.901 290.848C129.093 291.229 129.379 291.802 129.666 292.946C129.857 293.519 130.144 293.805 130.621 293.805C130.812 293.805 131.099 293.805 131.386 293.805C135.686 293.805 144.668 292.374 152.503 291.134C155.847 290.562 158.905 290.085 161.581 289.703C170.945 288.368 180.405 282.644 180.787 282.453L181.074 282.263L181.169 281.976C181.36 281.309 186.902 266.905 186.902 258.319C187.858 257.747 190.438 256.412 194.26 256.125C194.738 256.125 195.024 256.125 195.311 256.125ZM195.311 255.172C195.024 255.172 194.738 255.172 194.355 255.172C189.196 255.553 186.138 257.747 186.138 257.747C186.329 266.237 180.405 281.595 180.405 281.595C180.405 281.595 170.849 287.414 161.485 288.749C152.599 289.989 137.406 292.756 131.386 292.756C131.099 292.756 130.908 292.756 130.621 292.756C130.621 292.756 129.857 289.322 128.71 289.322C128.519 289.322 128.424 289.417 128.233 289.512C126.895 293.423 128.041 299.815 134.061 300.578C136.259 300.482 146.961 298.861 152.599 298.67C161.39 298.384 177.251 296.571 186.998 291.802C196.744 287.032 202 257.556 202 257.556C202 257.556 199.802 255.172 195.311 255.172Z" fill="#333333"/>
<path d="M135.686 293.423C135.399 293.042 134.826 292.374 133.966 291.897C133.488 291.611 132.915 290.943 132.341 290.085C134.157 290.466 136.546 291.516 137.501 292.47L135.686 293.423Z" fill="white"/>
<path d="M133.584 290.943C134.73 291.325 135.877 291.897 136.641 292.374L135.781 292.851C135.399 292.469 134.921 291.897 134.252 291.516C134.061 291.325 133.87 291.134 133.584 290.943ZM132.055 289.512C131.768 289.512 131.672 289.799 131.768 289.989C132.246 290.657 133.01 291.802 133.775 292.279C134.921 292.946 135.59 294.091 135.59 294.091L138.266 292.565C137.501 291.229 134.157 289.894 132.055 289.512Z" fill="#333333"/>
<path d="M32.1059 334.251C28.9527 331.675 27.2327 328.718 27.5194 326.142C22.8372 322.995 18.7285 319.656 17.8685 320.324C16.3396 321.468 17.8685 329.767 25.7994 333.106C33.7303 336.445 32.2015 341.024 37.3613 337.971C38.3169 337.399 39.368 336.922 40.5146 336.349C38.2213 333.869 35.0681 336.731 32.1059 334.251Z" fill="#FFDFA6" stroke="#333333" stroke-miterlimit="10"/>
<path d="M33.7303 338.353C33.3481 338.162 32.9659 337.685 32.3926 337.112C32.0104 336.731 31.6281 336.349 31.1504 335.872C31.7237 336.349 32.2015 336.826 32.5837 337.208C32.9659 337.685 33.3481 338.066 33.7303 338.353ZM21.1173 329.481C18.9196 327.192 17.964 324.616 17.7729 322.899C17.8685 323.567 18.0596 324.425 18.4418 325.189C18.9196 326.333 19.684 327.955 21.1173 329.481Z" fill="white"/>
<path d="M18.0596 320.324C17.964 320.324 17.8685 320.324 17.7729 320.419C16.2441 321.564 17.7729 329.863 25.7038 333.202C31.8193 335.777 32.297 339.02 34.4947 339.02C35.1636 339.02 36.0236 338.734 37.1702 338.067C37.1702 338.067 37.2658 338.066 37.2658 337.971C36.5014 338.353 35.8325 338.448 35.3547 338.448C33.0614 338.448 32.6792 335.3 26.4683 332.725C19.1107 329.672 17.2952 322.422 18.2507 320.324C18.2507 320.324 18.1551 320.324 18.0596 320.324Z" fill="#333333"/>
<path d="M38.8902 337.208C39.368 336.922 39.9413 336.731 40.5146 336.445C39.8457 336.636 39.368 336.922 38.8902 337.208Z" fill="white"/>
<path d="M40.4191 336.445C39.8457 336.731 39.368 336.922 38.8902 337.208C39.368 336.922 39.9413 336.731 40.4191 336.445Z" fill="#333333"/>
<path d="M625.588 147.093C623.39 153.484 618.708 158.159 618.708 158.159L620.905 147.284L625.588 147.093Z" fill="white" stroke="#333333" stroke-miterlimit="10" stroke-linecap="round" stroke-linejoin="round"/>
<path d="M527.454 70.2079C521.339 70.1125 518.759 73.642 518.759 73.642C518.759 73.642 507.293 61.7181 513.026 53.896C518.759 46.0739 525.925 50.8435 530.13 55.0407C534.334 59.2379 535.003 58.8563 541.501 59.4287C547.998 60.001 551.725 65.343 550.769 71.9249C549.814 78.5069 554.018 86.1382 543.794 93.4834C531.85 101.973 527.454 70.2079 527.454 70.2079Z" fill="#333333"/>
<path d="M528.696 126.775C526.69 126.107 524.874 124.867 522.772 122.959L522.103 122.292C519.237 119.621 517.803 118.285 515.606 114.946C516.752 114.374 517.708 113.897 518.663 113.516C524.11 110.845 525.065 110.368 525.83 107.22C526.69 103.595 527.454 86.7106 527.645 83.6581L540.45 83.3719C540.832 86.2337 543.221 103.309 543.794 106.361C544.176 108.46 546.374 109.891 549.909 111.322C547.138 115.614 543.698 119.621 540.736 123.055C539.685 124.295 538.252 125.821 536.436 126.68C535.385 126.68 534.334 126.775 533.283 126.775C531.563 126.775 530.13 126.775 528.696 126.775Z" fill="white"/>
<path d="M539.972 83.7535C540.545 87.6645 542.743 103.309 543.316 106.361C543.698 108.555 545.801 109.986 549.145 111.417C546.469 115.519 543.221 119.334 540.354 122.578C539.303 123.722 537.965 125.153 536.245 126.012C535.194 126.012 534.143 126.107 533.187 126.107C531.659 126.203 530.321 126.203 528.888 126.203C526.977 125.535 525.257 124.39 523.154 122.482L522.486 121.815C519.81 119.334 518.377 117.999 516.37 114.946C517.326 114.469 518.186 114.088 518.854 113.706C524.301 111.035 525.448 110.463 526.212 107.124C527.072 103.69 527.836 87.8553 528.028 83.8489L539.972 83.7535ZM540.736 82.7996L527.072 83.0857C527.072 83.0857 526.212 103.213 525.257 107.029C524.397 110.558 523.537 110.368 514.841 114.756C517.421 118.762 518.95 120.098 522.39 123.341C524.301 125.153 526.212 126.489 528.601 127.347C531.085 127.347 533.761 127.156 536.436 127.156C538.252 126.298 539.685 124.772 541.023 123.341C544.463 119.43 547.807 115.423 550.578 111.035C547.043 109.604 544.654 108.269 544.272 106.17C543.603 102.832 540.736 82.7996 540.736 82.7996Z" fill="#333333"/>
<path d="M494.297 173.612C494.297 173.612 497.737 128.874 503.757 122.673C509.777 116.473 516.179 113.897 517.612 113.039C519.046 112.18 523.537 109.891 523.537 109.891C523.537 109.891 530.416 114.565 537.678 113.134C544.941 111.703 544.845 106.743 544.845 106.743C544.845 106.743 548.094 107.411 551.056 107.792C554.018 108.269 566.058 109.318 571.313 116.091C576.569 122.864 591.953 143.373 591.953 143.373C591.953 143.373 572.364 164.264 565.771 167.03C559.369 169.987 494.297 173.612 494.297 173.612Z" fill="#B2EEDF" stroke="#333333" stroke-miterlimit="10" stroke-linecap="round" stroke-linejoin="round"/>
<path d="M528.123 101.019C520.383 101.019 518.759 94.8189 518.568 84.8028C518.568 84.1351 518.568 83.5627 518.568 82.895C518.377 74.4052 518.186 68.2048 529.079 67.9186C529.27 67.9186 529.461 67.9186 529.556 67.9186C540.641 67.9186 542.552 78.2208 542.647 84.4213C542.838 93.2926 536.627 100.542 528.601 101.019C528.41 101.019 528.219 101.019 528.123 101.019Z" fill="white"/>
<path d="M523.632 80.9871C523.537 82.418 523.25 83.9442 522.868 85.3751C522.677 86.1382 522.199 87.0922 522.39 87.9507C522.963 89.8585 525.161 88.3322 526.212 88.0461C526.785 87.8553 526.594 86.9968 525.925 87.0922C525.352 87.2829 524.874 87.6645 524.397 87.7599C522.677 88.1415 523.632 86.1382 523.823 85.3751C524.205 83.9442 524.397 82.5134 524.492 80.9871C524.683 80.4148 523.728 80.4148 523.632 80.9871Z" fill="#333333"/>
<path d="M525.543 74.6913C527.645 74.3097 529.652 74.5005 531.659 75.1682C531.659 74.882 531.754 74.5005 531.754 74.2143C529.939 74.0235 528.028 73.642 526.212 74.1189C525.639 74.2143 525.83 75.1682 526.499 75.0728C528.219 74.6913 530.034 74.9774 531.754 75.2636C532.327 75.359 532.327 74.5005 531.85 74.3097C529.652 73.5466 527.454 73.4512 525.161 73.8327C524.683 73.8327 524.97 74.7866 525.543 74.6913Z" fill="#333333"/>
<path d="M522.008 74.5958C520.957 74.6912 520.001 74.9774 519.141 75.4544C518.854 75.6451 518.855 76.2175 519.237 76.3129C520.192 76.5037 520.957 76.0267 521.912 75.7405C522.486 75.5497 522.294 74.6912 521.626 74.7866C520.957 74.9774 520.192 75.4544 519.523 75.359C519.523 75.6451 519.619 75.9313 519.619 76.2175C520.383 75.7405 521.148 75.4544 522.008 75.4544C522.581 75.5497 522.581 74.5958 522.008 74.5958Z" fill="#333333"/>
<path d="M521.339 81.6549C521.243 81.1779 521.339 80.8917 521.721 80.6056C521.434 80.6056 521.243 80.5102 520.957 80.5102C521.434 81.2733 521.339 82.1318 520.861 82.895C521.148 82.895 521.434 82.895 521.721 82.895C521.53 82.6088 521.434 82.3226 521.721 82.0364C522.199 81.6549 521.721 80.7963 521.243 81.1779C520.574 81.6549 520.383 82.6088 520.861 83.2765C521.052 83.5627 521.434 83.5627 521.721 83.2765C522.39 82.3226 522.39 80.9871 521.817 79.9378C521.625 79.6517 521.339 79.6517 521.052 79.8424C520.479 80.3194 520.288 81.0825 520.479 81.8457C520.574 82.5134 521.434 82.2272 521.339 81.6549Z" fill="#333333"/>
<path d="M528.601 80.1285C528.505 79.6515 528.601 79.3654 528.983 79.0792C528.696 79.0792 528.505 78.9838 528.219 78.9838C528.696 79.7469 528.601 80.6055 528.123 81.3686C528.41 81.3686 528.696 81.3686 528.983 81.3686C528.792 81.0824 528.696 80.7962 528.983 80.5101C529.461 80.1285 528.983 79.27 528.505 79.6515C527.836 80.1285 527.645 81.0824 528.123 81.7502C528.314 82.0363 528.696 82.0363 528.983 81.7502C529.652 80.7962 529.652 79.4608 529.079 78.4115C528.888 78.1253 528.601 78.1253 528.314 78.3161C527.741 78.793 527.55 79.5562 527.741 80.3193C527.836 80.987 528.792 80.7009 528.601 80.1285Z" fill="#333333"/>
<path d="M530.512 88.8092C530.13 89.8585 529.748 91.0032 528.888 91.8617C528.505 92.2433 528.123 92.5295 527.645 92.6249C527.454 92.7202 526.403 92.911 526.212 92.6249C526.212 92.8156 526.117 93.0064 526.117 93.1972C526.117 93.1972 526.117 93.1972 526.212 93.1018C526.69 92.7202 526.021 91.9571 525.543 92.4341C525.543 92.4341 525.543 92.4341 525.448 92.5295C525.257 92.7202 525.257 92.911 525.352 93.1018C526.021 94.1511 527.932 93.6742 528.792 93.1018C530.225 92.2433 530.799 90.5262 531.372 89C531.659 88.4276 530.703 88.2369 530.512 88.8092Z" fill="#333333"/>
<path d="M529.461 68.3954C540.163 68.3954 541.978 78.4115 542.074 84.4212C542.265 93.0064 536.245 100.065 528.505 100.542C528.41 100.542 528.219 100.542 528.123 100.542C520.766 100.542 519.237 94.8188 519.046 84.8027C519.046 84.135 519.046 83.5626 519.046 82.8949C518.854 74.3097 518.663 68.6816 529.079 68.3954C529.174 68.3954 529.365 68.3954 529.461 68.3954ZM529.461 67.4415C529.27 67.4415 529.079 67.4415 528.983 67.4415C516.752 67.8231 517.899 75.4544 518.09 84.8027C518.281 94.0557 519.523 101.496 528.123 101.496C528.314 101.496 528.41 101.496 528.601 101.496C536.532 101.019 543.221 93.7695 543.125 84.4212C542.838 75.1682 539.207 67.4415 529.461 67.4415Z" fill="#333333"/>
<path d="M543.029 87.5691C544.749 87.5691 546.087 86.2337 546.087 84.5166C546.087 82.7996 544.749 81.4641 543.029 81.4641C541.309 81.4641 539.972 82.7996 539.972 84.5166C539.972 86.2337 541.309 87.5691 543.029 87.5691Z" fill="white"/>
<path d="M542.838 79.1747L543.029 84.4212L541.214 84.5166C541.31 83.1812 540.927 80.0333 540.736 79.0793L542.838 79.1747Z" fill="#333333"/>
<path d="M541.405 65.82L523.728 62.5767L517.708 68.9679L518.95 73.0697C519.428 72.402 519.428 71.2573 520.766 70.3033C522.772 71.1619 525.161 71.0665 526.212 70.8757C527.168 70.6849 529.079 69.4448 530.225 68.6817C532.519 69.1587 534.621 70.208 535.099 71.6388C537.201 77.1715 539.781 74.4052 540.736 79.0793L542.838 79.1747L541.405 65.82Z" fill="#333333"/>
<path d="M513.026 138.699L508.917 168.652L517.612 170.464C514.841 165.695 512.548 146.139 513.026 138.699Z" fill="white" stroke="#333333" stroke-miterlimit="10" stroke-linecap="round" stroke-linejoin="round"/>
<path d="M564.051 137.65C564.051 137.65 566.249 151.672 571.982 162.07L577.811 157.682C577.906 157.682 567.682 145.567 564.051 137.65Z" fill="white" stroke="#333333" stroke-miterlimit="10" stroke-linecap="round" stroke-linejoin="round"/>
<path d="M591.188 171.323C590.233 170.178 589.086 159.113 588.608 148.81L592.431 148.143C593.004 149.669 594.915 155.583 595.01 161.784C595.01 169.319 592.431 170.941 591.188 171.323Z" fill="white"/>
<path d="M592.048 148.619C592.717 150.527 594.342 156.06 594.437 161.688C594.533 166.553 593.386 169.796 591.379 170.655C590.519 168.461 589.564 158.445 588.991 149.096L592.048 148.619ZM592.717 147.57L588.131 148.333C588.131 148.333 589.277 171.8 591.188 171.8C591.188 171.8 591.188 171.8 591.284 171.8C593.195 171.323 595.584 168.938 595.488 161.688C595.297 154.438 592.717 147.57 592.717 147.57Z" fill="#333333"/>
<path d="M452.349 121.338C457.7 114.183 466.873 111.894 473.371 111.131C474.422 109.318 475.951 105.98 475.951 101.687C475.951 99.5884 475.951 97.1082 474.327 94.9142C471.651 91.0986 466.491 90.9078 465.44 90.9078C461.905 90.8124 461.427 92.1479 457.605 92.6249C451.776 93.1972 450.629 90.2401 446.521 90.6216C440.119 91.2894 440.31 98.7299 432.379 102.259C425.117 105.503 420.912 101.115 416.899 104.644C412.313 108.651 417.377 115.137 413.459 122.864C408.586 132.498 396.833 130.304 394.635 137.936C392.437 145.472 402.948 151.29 400.082 159.208C398.553 163.501 394.922 163.214 391.577 167.602C385.175 175.997 386.322 193.072 395.017 199.272C405.337 206.617 422.537 196.029 430.372 188.779C442.89 177.237 446.043 160.925 447.189 154.629C450.629 137.554 446.043 129.732 452.349 121.338Z" fill="#333333"/>
<path d="M425.69 160.639C425.117 157.109 424.543 154.248 422.346 152.244C420.148 150.241 418.046 148.429 417.281 148.333C411.261 153.484 401.993 165.122 398.935 174.947C397.502 179.717 396.833 184.105 396.737 188.016C401.228 188.111 403.617 184.296 407.917 184.487C408.013 180.385 422.346 162.928 425.69 160.639Z" fill="white" stroke="#333333" stroke-miterlimit="10" stroke-linecap="round" stroke-linejoin="round"/>
<path d="M421.008 220.831C420.912 220.735 420.817 220.735 420.817 220.735C420.721 220.64 420.626 220.64 420.53 220.544C420.243 220.449 419.957 220.64 419.861 220.831C419.766 221.212 419.861 221.498 420.052 221.785C420.435 222.071 420.721 222.071 421.008 221.88C421.103 221.785 421.103 221.308 421.008 220.831Z" fill="#E8A48B"/>
<path d="M416.421 223.692C415.944 223.883 415.944 224.456 416.23 224.837C416.612 225.123 416.995 225.314 417.281 225.123C417.568 224.932 417.568 224.551 417.472 224.074C417.186 223.788 416.804 223.597 416.421 223.692Z" fill="#E8A48B"/>
<path d="M419.67 224.074C419.957 223.883 419.957 223.502 419.861 222.929C419.479 222.643 419.001 222.452 418.619 222.738C418.332 223.025 418.332 223.406 418.619 223.788C419.001 224.169 419.384 224.36 419.67 224.074Z" fill="#E8A48B"/>
<path d="M413.746 224.169C413.841 224.074 413.841 224.074 413.937 223.979C413.65 223.597 413.459 223.215 412.886 223.025C412.599 222.929 412.313 222.929 412.121 223.12L412.026 223.215C412.79 224.074 413.364 224.456 413.746 224.169Z" fill="#E8A48B"/>
<path d="M421.103 215.775C421.103 215.393 420.817 214.821 420.243 214.058C420.052 214.153 419.957 214.344 420.052 214.63C420.243 215.203 420.53 215.68 420.912 216.061C420.912 216.156 421.008 216.156 421.008 216.156C421.008 216.061 421.103 215.966 421.103 215.775Z" fill="#E8A48B"/>
<path d="M455.12 159.303C455.025 159.303 454.929 159.303 454.834 159.303C452.827 159.017 450.821 158.922 448.909 158.826C444.036 158.54 439.545 158.349 435.054 155.202C434.385 153.771 433.717 152.435 432.952 151.1C432.379 149.955 431.805 148.81 431.232 147.666C430.181 145.472 429.13 143.182 428.461 140.702C429.417 140.225 430.277 139.844 431.137 139.557C432.474 139.176 433.908 138.794 435.245 138.413C441.361 136.791 446.521 135.456 447.476 132.594C448.432 129.732 450.534 119.525 451.012 117.236L460.567 119.239C460.471 121.528 459.898 132.117 460.185 135.742C460.376 138.317 462.191 139.08 465.44 140.416C467.351 141.274 469.74 142.228 472.798 143.945C471.747 145.662 470.982 147.284 470.122 148.906C468.785 151.577 467.447 154.152 465.44 156.823C465.345 156.823 465.249 156.823 465.154 156.823C463.911 156.823 462.096 157.491 460.089 158.159C458.178 158.636 456.267 159.303 455.12 159.303Z" fill="white"/>
<path d="M451.298 117.808L459.994 119.621C459.803 122.578 459.42 132.308 459.611 135.742C459.803 138.603 461.809 139.462 465.154 140.797C466.969 141.561 469.262 142.514 472.033 144.041C471.173 145.567 470.409 147.093 469.645 148.62C468.307 151.195 467.065 153.675 465.154 156.251C463.911 156.251 462 156.919 459.994 157.586C458.274 158.159 456.267 158.826 455.216 158.826C455.12 158.826 455.025 158.826 455.025 158.826C453.018 158.54 451.012 158.445 449.101 158.349C444.418 158.063 439.927 157.872 435.532 154.915C434.863 153.58 434.194 152.244 433.525 150.909C432.952 149.764 432.379 148.62 431.805 147.475C430.754 145.472 429.799 143.278 429.226 140.988C429.99 140.607 430.754 140.32 431.423 140.13C432.761 139.748 434.099 139.367 435.436 139.08C441.647 137.459 446.998 136.028 448.049 132.975C448.718 130.018 450.725 120.765 451.298 117.808ZM450.534 116.663C450.534 116.663 447.954 129.255 446.903 132.498C445.852 135.646 438.112 137.077 430.85 139.08C429.894 139.367 428.843 139.844 427.792 140.416C428.366 142.991 429.512 145.472 430.659 147.856C431.901 150.432 433.334 153.008 434.576 155.583C441.074 160.066 447.763 158.826 454.738 159.78C454.834 159.78 455.025 159.78 455.12 159.78C457.509 159.78 462.86 157.205 465.154 157.205C465.345 157.205 465.44 157.205 465.631 157.205C469.167 152.817 470.505 148.524 473.371 143.659C464.962 138.794 460.854 139.271 460.663 135.551C460.376 131.64 461.045 118.762 461.045 118.762L450.534 116.663Z" fill="#333333"/>
<path opacity="0.58" d="M452.349 116.854C452.827 120.098 455.598 129.064 463.242 130.781C463.911 126.966 464.771 122.864 465.44 119.525L452.349 116.854Z" fill="#CBC7FF"/>
<path d="M460.376 132.021C459.134 132.021 457.796 131.735 456.363 131.258C452.158 129.732 448.145 121.624 451.107 113.611C453.592 106.838 456.267 102.641 462 102.641C463.338 102.641 464.867 102.927 466.587 103.404C469.645 104.263 471.651 105.694 472.702 107.792C474.518 111.417 473.084 116.473 471.46 121.052C468.689 128.397 465.058 132.021 460.376 132.021Z" fill="white"/>
<path d="M461.905 103.118C463.242 103.118 464.676 103.309 466.3 103.786C469.262 104.644 471.173 105.98 472.129 107.887C473.944 111.321 472.511 116.282 470.887 120.765C468.211 128.015 464.771 131.449 460.376 131.449C459.134 131.449 457.891 131.163 456.554 130.686C454.547 129.923 452.636 127.538 451.489 124.485C450.247 120.956 450.247 117.14 451.489 113.706C453.878 107.22 456.458 103.118 461.905 103.118ZM461.905 102.164C455.694 102.164 453.018 106.934 450.629 113.42C447.763 121.338 451.585 129.923 456.171 131.64C457.7 132.212 459.038 132.498 460.376 132.498C465.918 132.498 469.453 127.633 471.842 121.147C474.709 113.229 475.951 105.598 466.587 102.927C464.867 102.45 463.338 102.164 461.905 102.164Z" fill="#333333"/>
<path d="M450.916 117.617C449.005 116.95 447.572 114.183 448.241 112.275C448.909 110.368 451.012 110.463 452.827 111.131" fill="white"/>
<path d="M451.489 115.71C451.298 116.091 450.916 116.282 450.534 116.186C450.152 115.996 449.961 115.614 450.056 115.233C450.247 114.851 450.629 114.66 451.012 114.756C451.394 114.851 451.585 115.328 451.489 115.71Z" fill="#E3CCFF"/>
<path d="M445.852 108.555C450.343 111.322 452.063 112.275 454.547 111.322C457.032 110.463 457.796 104.263 461.236 103.881C464.676 103.404 464.867 106.266 468.593 106.457C472.511 106.647 473.467 108.651 473.467 108.651C473.467 108.651 475.951 104.167 470.218 100.924C464.485 97.6806 455.694 97.3944 451.489 100.447C447.285 103.69 445.852 108.555 445.852 108.555Z" fill="#333333"/>
<path d="M481.111 239.241H408.299C408.299 239.241 418.524 196.697 429.13 175.52C439.45 178.095 454.834 178.763 465.154 175.901C465.154 175.901 480.442 215.775 481.111 239.241Z" fill="#FFDFA6" stroke="#333333" stroke-miterlimit="10"/>
<path d="M483.691 164.454C483.691 164.454 481.302 152.435 478.244 148.238C475.282 144.041 469.931 142.037 469.931 142.037C469.931 142.324 469.931 142.61 469.931 142.896C469.453 149.478 464.007 154.629 457.318 155.011C452.349 155.297 446.807 155.392 443.463 154.438C437.156 152.626 431.71 141.847 431.423 139.08C431.423 138.794 431.137 138.603 430.85 138.699C429.034 139.271 425.594 141.084 423.206 142.801C420.817 144.613 417.281 147.093 416.039 148.715C415.848 149.001 415.944 149.383 416.326 149.383C417.186 149.478 419.479 150.527 421.581 152.721C425.212 156.537 425.69 161.02 425.69 161.02C427.983 166.171 429.13 175.52 429.13 175.52C439.45 178.095 454.834 178.763 465.154 175.901C465.154 175.901 471.46 170.559 471.938 166.744C472.033 165.885 472.033 164.931 471.842 164.073L483.691 164.454Z" fill="#E3CCFF" stroke="#333333" stroke-miterlimit="10" stroke-linecap="round" stroke-linejoin="round"/>
<path d="M406.006 349.036C404.573 348.941 403.331 348.369 402.375 347.319C401.42 346.27 401.037 344.839 401.133 343.504L417.281 165.79C417.568 163.119 419.766 161.116 422.441 161.116C422.537 161.116 422.632 161.116 422.632 161.116L563.191 167.412L546.183 353.711C546.087 354.664 545.323 355.332 544.463 355.332L406.006 349.036Z" fill="white"/>
<path d="M422.441 161.497C422.537 161.497 422.537 161.497 422.632 161.497L562.714 167.793L545.801 353.615C545.705 354.283 545.227 354.76 544.558 354.76H544.463L406.006 348.559C404.668 348.464 403.522 347.892 402.662 346.938C401.802 345.984 401.419 344.744 401.515 343.408L417.664 165.695C418.046 163.31 420.052 161.497 422.441 161.497ZM422.441 160.543C419.575 160.543 417.09 162.737 416.804 165.695L400.655 343.408C400.368 346.652 402.853 349.418 406.006 349.513L544.463 355.714H544.558C545.705 355.714 546.661 354.855 546.756 353.711L563.765 166.839L422.728 160.448C422.632 160.543 422.537 160.543 422.441 160.543Z" fill="#333333"/>
<path d="M546.756 353.997C546.661 353.997 546.565 353.997 546.469 353.901C546.374 353.806 546.374 353.711 546.374 353.615L563.382 167.221C563.382 167.125 563.382 167.03 563.478 167.03L618.994 114.756C619.568 114.183 620.237 113.897 621.001 113.897C621.861 113.897 622.721 114.279 623.294 114.946C623.868 115.614 624.059 116.377 623.963 117.236L602.464 295.808C602.177 298.098 601.126 300.196 599.501 301.818L546.947 353.806C546.852 353.997 546.852 353.997 546.756 353.997Z" fill="#EDEDED"/>
<path d="M620.905 114.374C621.67 114.374 622.339 114.66 622.816 115.233C623.103 115.614 623.485 116.282 623.39 117.14L601.986 295.713C601.699 297.907 600.744 299.91 599.119 301.436L546.852 353.234L563.765 167.221L619.185 114.946C619.759 114.565 620.332 114.374 620.905 114.374ZM620.905 113.42C620.045 113.42 619.281 113.706 618.517 114.374L563 166.648C562.809 166.744 562.713 166.935 562.713 167.221L545.705 353.615C545.609 354.188 546.087 354.569 546.565 354.569C546.756 354.569 546.947 354.474 547.138 354.283L599.693 302.295C601.413 300.578 602.464 298.384 602.75 295.999L624.25 117.427C624.728 115.042 622.816 113.42 620.905 113.42Z" fill="#333333"/>
<path d="M531.181 240.672L434.385 235.998C430.754 235.807 427.983 232.659 428.174 229.034L431.423 186.681C431.71 183.151 434.672 180.48 438.207 180.671L535.003 185.345C538.634 185.536 541.501 188.684 541.214 192.309L537.87 234.662C537.679 238.192 534.716 240.767 531.181 240.672Z" fill="#FFDFA6" stroke="#333333" stroke-miterlimit="10"/>
<path d="M532.71 263.566L429.703 258.701C428.843 258.701 428.079 258.319 427.506 257.652C426.932 256.984 426.646 256.221 426.741 255.362C426.837 253.836 428.174 252.596 429.799 252.596H429.99L532.996 257.461C533.856 257.461 534.621 257.842 535.194 258.51C535.767 259.178 536.054 259.941 535.959 260.8C535.863 262.326 534.525 263.566 532.901 263.566H532.71Z" fill="white"/>
<path d="M429.799 253.073H429.894L532.901 257.938C533.57 257.938 534.239 258.319 534.716 258.796C535.194 259.369 535.385 260.036 535.385 260.704C535.29 262.04 534.143 263.089 532.805 263.089H532.71L429.703 258.224C429.034 258.224 428.365 257.842 427.888 257.365C427.41 256.888 427.219 256.125 427.219 255.458C427.41 254.027 428.557 253.073 429.799 253.073ZM429.799 252.119C427.983 252.119 426.454 253.55 426.263 255.362C426.072 257.365 427.601 259.082 429.608 259.178L532.614 264.043C532.71 264.043 532.71 264.043 532.805 264.043C534.621 264.043 536.15 262.612 536.341 260.799C536.532 258.796 535.003 257.079 532.996 256.984L429.99 252.119C429.99 252.119 429.894 252.119 429.799 252.119Z" fill="#333333"/>
<path d="M507.675 246.109C507.388 246.109 507.197 246.014 507.006 245.823C506.815 245.632 506.719 245.346 506.815 245.155C506.815 244.678 507.293 244.297 507.77 244.297L530.416 245.442C530.703 245.442 530.894 245.537 531.085 245.728C531.276 245.919 531.372 246.205 531.276 246.395C531.276 246.872 530.799 247.254 530.321 247.254L507.675 246.109Z" fill="white"/>
<path d="M507.77 243.724V244.678L530.321 245.823C530.512 245.823 530.608 245.918 530.703 246.014C530.799 246.109 530.799 246.205 530.799 246.395C530.799 246.682 530.608 246.872 530.321 246.872L507.77 245.728C507.579 245.728 507.484 245.632 507.388 245.537C507.293 245.442 507.293 245.346 507.293 245.155C507.293 244.869 507.484 244.678 507.77 244.678V243.724ZM507.77 243.724C507.006 243.724 506.433 244.297 506.337 245.06C506.241 245.823 506.91 246.586 507.675 246.586L530.225 247.731H530.321C531.085 247.731 531.659 247.159 531.754 246.395C531.85 245.632 531.181 244.869 530.416 244.869L507.77 243.724Z" fill="#333333"/>
<path d="M432.665 242.198C432.379 242.198 432.188 242.103 431.997 241.912C431.805 241.721 431.71 241.435 431.805 241.244C431.805 240.767 432.283 240.386 432.761 240.386L455.12 241.435C455.407 241.435 455.598 241.531 455.789 241.721C455.98 241.912 456.076 242.198 455.98 242.389C455.98 242.866 455.503 243.248 455.025 243.248L432.665 242.198Z" fill="white"/>
<path d="M432.665 239.813V240.767L454.929 241.817C455.12 241.817 455.216 241.912 455.312 242.007C455.407 242.103 455.407 242.198 455.407 242.389C455.407 242.675 455.216 242.866 454.929 242.866L432.665 241.817C432.474 241.817 432.379 241.721 432.283 241.626C432.188 241.531 432.188 241.435 432.188 241.244C432.188 240.958 432.379 240.767 432.665 240.767V239.813ZM432.665 239.813C431.901 239.813 431.328 240.386 431.232 241.149C431.137 241.912 431.805 242.675 432.57 242.675L454.834 243.725C454.834 243.725 454.834 243.725 454.929 243.725C455.694 243.725 456.267 243.152 456.363 242.389C456.458 241.531 455.789 240.863 455.025 240.863L432.665 239.813C432.761 239.813 432.761 239.813 432.665 239.813Z" fill="#333333"/>
<path d="M530.799 279.782L427.888 274.917C427.028 274.917 426.263 274.536 425.69 273.868C425.117 273.2 424.83 272.437 424.926 271.579C425.021 270.052 426.359 268.812 427.983 268.812H428.174L531.085 273.677C531.945 273.677 532.71 274.059 533.283 274.727C533.856 275.394 534.143 276.158 534.048 277.016C533.952 278.542 532.614 279.782 530.99 279.782H530.799Z" fill="white"/>
<path d="M427.983 269.194H428.079L530.99 274.059C531.659 274.059 532.328 274.441 532.805 274.917C533.283 275.49 533.474 276.158 533.474 276.825C533.379 278.161 532.232 279.21 530.894 279.21H530.799L427.888 274.345C427.219 274.345 426.55 273.964 426.072 273.487C425.594 272.914 425.403 272.247 425.403 271.579C425.594 270.243 426.741 269.194 427.983 269.194ZM427.983 268.24C426.168 268.24 424.639 269.671 424.448 271.483C424.257 273.487 425.786 275.204 427.792 275.299L530.703 280.164C530.799 280.164 530.799 280.164 530.894 280.164C532.71 280.164 534.239 278.733 534.43 276.921C534.621 274.917 533.092 273.2 531.085 273.105L428.174 268.24C428.174 268.24 428.079 268.24 427.983 268.24Z" fill="#333333"/>
<path d="M522.485 336.826L426.072 332.534C422.25 332.343 419.383 329.1 419.67 325.284L421.103 308.591C421.39 305.061 424.448 302.295 428.079 302.486L524.588 306.778C528.41 306.969 531.276 310.212 530.99 314.028L529.556 330.721C529.174 334.346 526.117 337.017 522.485 336.826Z" fill="#E3CCFF" stroke="#333333" stroke-miterlimit="10"/>
<path d="M529.079 295.617L426.168 291.039C425.308 291.039 424.543 290.657 423.97 289.989C423.397 289.322 423.11 288.558 423.206 287.7V287.318C423.301 285.792 424.639 284.552 426.263 284.552H426.359L529.27 289.131C530.13 289.131 530.894 289.512 531.468 290.18C532.041 290.848 532.328 291.611 532.232 292.469V292.851C532.136 294.473 530.799 295.617 529.079 295.617Z" fill="white"/>
<path d="M426.454 284.17V285.124H426.55L529.461 289.703C530.13 289.703 530.799 290.085 531.276 290.562C531.754 291.134 531.945 291.802 531.945 292.469V292.851C531.85 294.186 530.703 295.236 529.365 295.236H529.27L426.359 290.657C425.69 290.657 425.021 290.275 424.543 289.798C424.066 289.226 423.875 288.558 423.875 287.891V287.509C423.97 286.174 425.117 285.124 426.454 285.124V284.17ZM426.454 284.17C424.639 284.17 423.11 285.601 422.919 287.414V287.795C422.728 289.799 424.257 291.516 426.263 291.611L529.174 296.19C529.27 296.19 529.27 296.19 529.365 296.19C531.181 296.19 532.71 294.759 532.901 292.946V292.565C533.092 290.562 531.563 288.845 529.556 288.749L426.646 284.17C426.55 284.17 426.454 284.17 426.454 284.17Z" fill="#333333"/>
<path d="M594.819 204.042C594.342 204.042 593.864 203.851 593.577 203.469C593.386 203.183 593.099 202.802 593.195 202.229L593.291 201.562C593.291 201.18 593.482 200.798 593.768 200.512L603.801 190.973C604.088 190.687 604.47 190.496 604.948 190.496C605.426 190.496 605.904 190.687 606.19 191.069C606.381 191.355 606.668 191.736 606.572 192.309L606.477 192.976C606.477 193.358 606.286 193.74 605.999 193.93L595.966 203.565C595.584 203.946 595.202 204.042 594.819 204.042Z" fill="#EDEDED"/>
<path d="M604.852 190.973C605.235 190.973 605.521 191.164 605.712 191.355C605.904 191.546 605.999 191.832 605.999 192.213L605.904 192.881C605.904 193.167 605.712 193.358 605.521 193.549L595.488 203.183C595.202 203.469 594.915 203.469 594.724 203.469C594.342 203.469 594.055 203.279 593.864 203.088C593.673 202.897 593.577 202.611 593.577 202.229L593.673 201.562C593.673 201.275 593.864 201.085 594.055 200.894L604.088 191.355C604.279 191.069 604.566 190.973 604.852 190.973ZM604.852 190.019C604.375 190.019 603.801 190.21 603.419 190.592L593.386 200.131C593.004 200.512 592.813 200.894 592.717 201.466L592.622 202.134C592.431 203.469 593.577 204.519 594.724 204.519C595.202 204.519 595.775 204.328 596.157 203.946L606.19 194.312C606.572 193.93 606.764 193.549 606.859 193.072L606.955 192.404C607.146 190.973 605.999 190.019 604.852 190.019Z" fill="#333333"/>
<path d="M592.431 225.219C591.953 225.219 591.475 225.028 591.188 224.646C590.997 224.36 590.711 223.979 590.806 223.406L590.902 222.834C590.902 222.452 591.093 222.071 591.38 221.785L601.221 212.245C601.508 211.959 601.89 211.768 602.368 211.768C602.846 211.768 603.324 211.959 603.61 212.341C603.801 212.627 604.088 213.009 603.992 213.581L603.897 214.153C603.897 214.535 603.706 214.916 603.419 215.107L593.577 224.646C593.291 225.028 592.908 225.219 592.431 225.219Z" fill="#EDEDED"/>
<path d="M602.368 212.341C602.75 212.341 603.037 212.532 603.228 212.722C603.419 212.913 603.515 213.199 603.515 213.581L603.419 214.153C603.419 214.439 603.228 214.63 603.037 214.821L593.195 224.36C593.004 224.551 592.717 224.646 592.431 224.646C592.048 224.646 591.762 224.456 591.571 224.265C591.379 224.074 591.284 223.788 591.284 223.406L591.379 222.834C591.379 222.548 591.571 222.357 591.762 222.166L601.604 212.627C601.795 212.436 602.081 212.341 602.368 212.341ZM602.368 211.387C601.89 211.387 601.317 211.578 600.935 211.959L591.093 221.498C590.711 221.88 590.52 222.262 590.424 222.834L590.328 223.406C590.137 224.742 591.284 225.791 592.431 225.791C592.908 225.791 593.482 225.6 593.864 225.219L603.706 215.68C604.088 215.298 604.279 214.916 604.375 214.439L604.47 213.867C604.661 212.436 603.515 211.387 602.368 211.387Z" fill="#333333"/>
<path d="M590.137 246.014C589.66 246.014 589.182 245.823 588.895 245.442C588.704 245.155 588.417 244.774 588.513 244.201V243.82C588.513 243.438 588.704 243.057 588.991 242.866L598.737 233.422C599.024 233.136 599.406 232.945 599.884 232.945C600.361 232.945 600.839 233.136 601.126 233.518C601.317 233.804 601.604 234.185 601.508 234.758V235.139C601.508 235.521 601.317 235.902 601.03 236.093L591.284 245.537C590.997 245.823 590.615 246.014 590.137 246.014Z" fill="#EDEDED"/>
<path d="M599.979 233.422C600.362 233.422 600.648 233.613 600.839 233.804C601.03 233.995 601.126 234.281 601.126 234.662V235.044C601.126 235.33 600.935 235.521 600.744 235.712L590.997 245.155C590.711 245.442 590.424 245.537 590.233 245.537C589.851 245.537 589.564 245.346 589.373 245.155C589.182 244.965 589.086 244.678 589.086 244.297V243.915C589.086 243.629 589.277 243.438 589.468 243.248L599.215 233.804C599.406 233.518 599.693 233.422 599.979 233.422ZM599.979 232.468C599.502 232.468 598.928 232.659 598.546 233.041L588.799 242.484C588.417 242.866 588.226 243.248 588.131 243.82V244.202C587.94 245.537 589.086 246.586 590.233 246.586C590.711 246.586 591.284 246.395 591.666 246.014L601.413 236.57C601.795 236.189 601.986 235.807 602.081 235.33V234.949C602.273 233.422 601.126 232.468 599.979 232.468Z" fill="#333333"/>
<path d="M563.765 288.654C563.287 288.654 562.809 288.463 562.522 288.081C562.331 287.891 562.045 287.414 562.14 286.841V286.555C562.14 286.174 562.331 285.792 562.618 285.506L596.444 252.691C596.73 252.405 597.113 252.214 597.59 252.214C598.068 252.214 598.546 252.405 598.833 252.787C599.024 253.073 599.31 253.454 599.215 254.027V254.313C599.215 254.695 599.024 255.076 598.737 255.267L564.911 288.177C564.529 288.558 564.051 288.654 563.765 288.654Z" fill="#EDEDED"/>
<path d="M597.59 252.691C597.973 252.691 598.259 252.882 598.45 253.073C598.641 253.264 598.737 253.55 598.737 253.931V254.218C598.737 254.504 598.546 254.695 598.355 254.885L564.529 287.795C564.242 288.082 563.956 288.177 563.765 288.177C563.382 288.177 563.096 287.986 562.905 287.795C562.713 287.605 562.618 287.318 562.618 286.937V286.651C562.618 286.364 562.809 286.078 563 285.888L596.826 253.073C597.017 252.787 597.304 252.691 597.59 252.691ZM597.59 251.737C597.113 251.737 596.539 251.928 596.157 252.31L562.331 285.124C561.949 285.506 561.758 285.887 561.662 286.46V286.746C561.567 288.082 562.618 289.035 563.765 289.035C564.242 289.035 564.816 288.845 565.198 288.463L599.024 255.553C599.406 255.172 599.597 254.79 599.693 254.313V254.027C599.884 252.691 598.737 251.737 597.59 251.737Z" fill="#333333"/>
<path d="M561.854 308.209C561.376 308.209 560.898 308.018 560.611 307.637C560.42 307.446 560.134 306.969 560.229 306.397V306.206C560.229 305.824 560.42 305.443 560.707 305.156L594.246 272.437C594.628 272.056 595.106 271.96 595.393 271.96C595.87 271.96 596.348 272.151 596.635 272.533C596.826 272.819 597.113 273.2 597.017 273.773V273.868C597.017 274.25 596.826 274.631 596.539 274.822L563 307.541C562.522 308.114 562.14 308.209 561.854 308.209Z" fill="#EDEDED"/>
<path d="M595.297 272.533C595.679 272.533 595.966 272.723 596.157 272.914C596.348 273.105 596.444 273.391 596.444 273.773V273.868C596.444 274.154 596.253 274.345 596.062 274.536L562.522 307.255C562.236 307.541 561.949 307.637 561.758 307.637C561.376 307.637 561.089 307.446 560.898 307.255C560.707 307.064 560.611 306.778 560.611 306.397V306.206C560.611 305.92 560.802 305.633 560.993 305.443L594.533 272.723C594.819 272.533 595.106 272.533 595.297 272.533ZM595.297 271.579C594.819 271.579 594.246 271.769 593.864 272.151L560.325 304.87C559.942 305.252 559.751 305.633 559.656 306.206V306.397C559.56 307.732 560.611 308.686 561.758 308.686C562.236 308.686 562.809 308.495 563.191 308.114L596.73 275.394C597.113 275.013 597.304 274.631 597.399 274.154V274.059C597.59 272.533 596.539 271.579 595.297 271.579Z" fill="#333333"/>
<path d="M559.847 327.383C559.369 327.383 558.891 327.192 558.605 326.81C558.414 326.619 558.127 326.142 558.223 325.57C558.223 325.093 558.414 324.807 558.7 324.521L591.953 291.992C592.335 291.611 592.813 291.516 593.099 291.516C593.577 291.516 594.055 291.706 594.342 292.088C594.533 292.374 594.819 292.756 594.724 293.328C594.724 293.709 594.533 294.091 594.246 294.282L560.994 326.81C560.611 327.287 560.229 327.383 559.847 327.383Z" fill="#EDEDED"/>
<path d="M593.099 291.992C593.482 291.992 593.768 292.183 593.959 292.374C594.151 292.565 594.246 292.851 594.246 293.233C594.246 293.519 594.055 293.71 593.864 293.9L560.611 326.429C560.325 326.715 560.038 326.81 559.847 326.81C559.465 326.81 559.178 326.619 558.987 326.429C558.796 326.238 558.7 325.952 558.7 325.57V325.475C558.7 325.189 558.891 324.998 559.082 324.807L592.335 292.279C592.526 291.992 592.908 291.992 593.099 291.992ZM593.099 291.039C592.622 291.039 592.048 291.229 591.666 291.611L558.414 324.139C558.031 324.521 557.84 324.902 557.745 325.475V325.57C557.649 326.906 558.7 327.86 559.847 327.86C560.325 327.86 560.898 327.669 561.28 327.287L594.533 294.759C594.915 294.377 595.106 293.996 595.106 293.519C595.393 291.992 594.246 291.039 593.099 291.039Z" fill="#333333"/>
<path d="M608.675 172.753L572.938 206.904C571.695 208.048 569.689 207.094 569.88 205.377L572.651 177.428C572.651 176.951 572.938 176.569 573.224 176.283L609.439 142.038C610.681 140.893 612.688 141.847 612.497 143.564L609.248 171.704C609.152 172.086 608.961 172.467 608.675 172.753Z" fill="#DAC0FF" stroke="#333333" stroke-miterlimit="10"/>
<path d="M583.353 254.599L566.44 271.006C565.198 272.151 563.191 271.197 563.382 269.48L567.873 224.742C567.873 224.265 568.064 223.883 568.447 223.597L585.742 206.999C586.984 205.854 588.991 206.808 588.799 208.525L583.926 253.359C583.926 253.931 583.735 254.313 583.353 254.599Z" fill="#94DDC8" stroke="#333333" stroke-miterlimit="10" stroke-linecap="round" stroke-linejoin="round"/>
<path d="M626.639 142.419C626.543 146.426 625.014 149.86 622.148 149.669C619.472 149.478 618.612 146.235 617.848 144.327C617.083 142.324 614.599 141.847 614.981 140.797C615.459 139.653 617.943 140.511 619.663 142.801C619.663 142.801 619.186 141.37 617.657 140.034C616.128 138.699 615.65 138.222 616.128 137.554C616.606 136.982 619.185 138.222 620.237 139.653C621.288 141.084 621.957 141.751 621.957 141.751C621.957 141.751 620.619 138.794 619.09 138.031C617.561 137.173 616.128 136.6 616.606 135.837C617.083 134.979 619.663 135.837 621.574 137.459C623.485 139.08 623.581 139.653 623.581 139.653C623.581 139.653 621.957 137.077 620.523 136.123C618.994 135.169 618.134 134.979 618.421 134.215C618.708 133.452 620.523 133.739 622.625 135.169C624.728 136.6 626.734 139.176 626.639 142.419Z" fill="white" stroke="#333333" stroke-miterlimit="10" stroke-linecap="round" stroke-linejoin="round"/>
<path d="M396.737 188.016C398.266 202.993 407.248 210.528 407.248 212.913C408.395 215.393 412.504 225.123 413.746 224.169C414.415 223.692 413.077 220.258 412.599 219.114C413.746 221.021 416.421 225.696 417.281 225.123C418.046 224.646 415.657 220.068 414.606 218.35C415.848 220.163 419.001 224.646 419.67 224.074C420.243 223.597 417.09 218.637 416.23 217.206C417.09 218.16 420.435 222.357 420.912 221.88C421.963 220.831 417.281 214.439 417.281 214.439C417.281 214.439 418.619 215.489 419.097 215.775C419.861 216.347 421.008 216.824 421.103 215.68C421.199 214.535 416.612 211.673 411.453 206.904C408.968 203.279 407.822 190.401 408.013 183.342C403.713 183.151 401.133 188.111 396.737 188.016Z" fill="white" stroke="#333333" stroke-miterlimit="10" stroke-linecap="round" stroke-linejoin="round"/>
<path d="M397.215 186.585C397.215 186.585 397.12 188.875 397.406 189.828C397.597 190.401 407.439 185.727 407.439 185.727V184.2L408.013 182.102L401.228 182.483L397.215 186.585Z" fill="white"/>
<path d="M623.772 150.241L625.301 146.903L624.154 144.708L620.428 147.666C620.428 147.666 620.81 150.146 620.523 151.767C620.141 153.389 623.772 150.241 623.772 150.241Z" fill="white"/>
<path d="M309.688 269.957H307.395C304.528 269.957 302.14 267.572 302.14 264.711V262.421C302.14 261.563 301.375 260.8 300.515 260.8H295.929C295.069 260.8 294.304 261.563 294.304 262.421V287.509C294.304 290.371 291.915 292.756 289.049 292.756C286.182 292.756 283.793 290.371 283.793 287.509C283.793 284.647 286.182 282.263 289.049 282.263C289.909 282.263 290.673 281.499 290.673 280.641V276.158C290.673 275.299 289.909 274.536 289.049 274.536C281.882 274.536 275.958 280.355 275.958 287.604C275.958 294.854 281.787 300.673 289.049 300.673C296.215 300.673 302.14 294.854 302.14 287.604V276.73C303.764 277.493 305.58 277.779 307.395 277.779H309.688C310.548 277.779 311.313 277.016 311.313 276.158V271.579C311.313 270.72 310.548 269.957 309.688 269.957Z" fill="white"/>
<path d="M618.708 355.237H545.609" stroke="#333333" stroke-miterlimit="10" stroke-linecap="round" stroke-linejoin="round"/>
<path d="M401.324 339.402H0.477768" stroke="#333333" stroke-miterlimit="10" stroke-linecap="round" stroke-linejoin="round"/>
<path d="M461.522 114.374C461.427 115.137 461.045 115.614 460.567 115.614C460.089 115.519 459.803 114.946 459.898 114.183C459.994 113.42 460.376 112.943 460.854 112.943C461.331 113.039 461.618 113.706 461.522 114.374Z" fill="#333333"/>
<path d="M470.696 115.614C470.6 116.377 470.218 116.854 469.74 116.854C469.262 116.759 468.976 116.186 469.071 115.423C469.167 114.66 469.549 114.183 470.027 114.183C470.505 114.279 470.791 114.851 470.696 115.614Z" fill="#333333"/>
<path d="M459.611 110.558C460.28 110.463 461.714 110.272 463.147 110.463C463.529 110.463 463.816 110.845 463.625 111.226C463.529 111.512 463.242 111.703 462.956 111.608C462 111.417 459.42 111.321 458.083 111.608C458.083 111.417 458.274 111.131 458.465 110.94C458.751 110.749 459.134 110.654 459.611 110.558Z" fill="#333333"/>
<path d="M471.747 112.18C471.078 111.894 469.74 111.417 468.307 111.226C467.925 111.226 467.638 111.512 467.638 111.894C467.638 112.18 467.925 112.466 468.211 112.466C469.167 112.562 471.747 112.943 472.893 113.611C472.989 113.42 472.893 113.134 472.702 112.943C472.511 112.562 472.129 112.275 471.747 112.18Z" fill="#333333"/>
<path d="M166.932 210.815C167.314 211.482 167.218 212.15 166.836 212.341C166.454 212.532 165.881 212.245 165.498 211.578C165.116 210.91 165.212 210.242 165.594 210.051C165.881 209.861 166.549 210.242 166.932 210.815Z" fill="#333333"/>
<path d="M165.498 207.571C164.925 207.667 163.778 208.048 162.823 208.621C162.536 208.811 162.441 209.098 162.727 209.384C162.918 209.574 163.205 209.67 163.396 209.479C164.065 209.002 165.976 208.144 167.027 207.953C166.932 207.762 166.741 207.667 166.549 207.571C166.167 207.571 165.881 207.571 165.498 207.571Z" fill="#333333"/>
<path d="M460.471 123.818C460.758 124.772 461.331 125.63 462.765 126.107C464.198 126.584 465.249 126.298 466.014 125.726" stroke="#333333" stroke-miterlimit="10" stroke-linecap="round" stroke-linejoin="round"/>
<path d="M466.014 115.233C466.014 115.233 467.829 120.097 467.351 120.67C466.874 121.242 465.345 120.67 465.345 120.67" stroke="#333333" stroke-miterlimit="10" stroke-linecap="round" stroke-linejoin="round"/>
<path d="M168.652 221.308C168.652 221.308 170.658 219.972 170.658 218.541" stroke="#333333" stroke-miterlimit="10" stroke-linecap="round" stroke-linejoin="round"/>
</g>
<defs>
<clipPath id="clip0">
<rect width="664" height="356" fill="white"/>
</clipPath>
</defs>
</svg>
