<svg width="420" height="325" viewBox="0 0 420 325" fill="none" xmlns="http://www.w3.org/2000/svg">
<path d="M21 67C21 61.4772 25.4772 57 31 57H399C404.523 57 409 61.4772 409 67V315C409 320.523 404.523 325 399 325H31C25.4771 325 21 320.523 21 315V67Z" fill="#F0F0F0"/>
<path d="M264.41 205.295L263.69 199.735C262.91 194.435 260.89 180.555 260.89 179.215C260.89 177.565 253.23 172.805 253.23 172.805L244.01 185.925L237.68 198.275C237.68 198.275 241.75 201.965 245.36 204.675C247.718 206.368 250.395 207.566 253.23 208.195L271.68 271.475L284.09 246.395L264.41 205.295Z" fill="white" stroke="#333333" stroke-linecap="round" stroke-linejoin="round"/>
<path d="M247.612 153.427L234.349 154.08C231.613 154.215 229.504 156.542 229.639 159.278L231.404 195.115C231.539 197.851 233.866 199.96 236.602 199.825L249.866 199.171C252.602 199.037 254.71 196.709 254.576 193.973L252.81 158.137C252.676 155.401 250.348 153.292 247.612 153.427Z" fill="white" stroke="#333333" stroke-linecap="round" stroke-linejoin="round"/>
<path d="M249.064 153.316L235.8 153.969C233.064 154.104 230.955 156.431 231.09 159.167L232.855 195.003C232.99 197.739 235.317 199.848 238.053 199.713L251.317 199.06C254.053 198.925 256.162 196.598 256.027 193.862L254.262 158.025C254.127 155.289 251.8 153.181 249.064 153.316Z" fill="#333333" stroke="#333333" stroke-linecap="round" stroke-linejoin="round"/>
<path d="M253.57 159.596C253.508 158.476 253.071 157.409 252.329 156.567C251.587 155.726 250.584 155.158 249.48 154.956L247.89 157.116L238.79 157.686L235.95 155.786L248.44 154.926H248.37L236.63 155.506C235.32 155.581 234.091 156.168 233.21 157.141C232.329 158.114 231.866 159.394 231.92 160.706L233.54 193.526C233.615 194.836 234.203 196.065 235.176 196.946C236.148 197.827 237.429 198.29 238.74 198.236L250.47 197.656C251.781 197.581 253.009 196.993 253.891 196.021C254.772 195.048 255.235 193.767 255.18 192.456L253.57 159.596Z" fill="#E3CCFF" stroke="#333333" stroke-linecap="round" stroke-linejoin="round"/>
<path d="M259.982 206.416C258.222 206.193 256.586 205.391 255.331 204.137C254.077 202.882 253.275 201.246 253.052 199.486C252.142 193.156 255.162 185.926 255.162 185.926C253.139 184.751 251.022 183.747 248.832 182.926C245.512 181.716 247.922 175.386 249.132 177.196C250.342 179.006 258.772 180.196 261.182 181.716C263.592 183.236 264.182 191.966 264.182 191.966L264.392 205.306" fill="white"/>
<path d="M259.982 206.416C258.222 206.193 256.586 205.391 255.331 204.137C254.077 202.882 253.275 201.246 253.052 199.486C252.142 193.156 255.162 185.926 255.162 185.926C253.139 184.751 251.022 183.747 248.832 182.926C245.512 181.716 247.922 175.386 249.132 177.196C250.342 179.006 258.772 180.196 261.182 181.716C263.592 183.236 264.182 191.966 264.182 191.966L264.392 205.306" stroke="#333333" stroke-linecap="round" stroke-linejoin="round"/>
<path d="M347.58 314.116L377.82 234.876C379.027 231.717 378.962 228.214 377.64 225.101C376.318 221.989 373.841 219.511 370.73 218.186C367.558 216.839 363.984 216.797 360.782 218.07C357.58 219.344 355.01 221.829 353.63 224.986L314.76 314.116H347.58Z" fill="#333333" stroke="#333333" stroke-linecap="round" stroke-linejoin="round"/>
<path d="M271.49 278.115C270.31 279.005 246.38 307.595 240.93 314.115H310.82C315.03 308.265 331.93 284.305 339.19 267.445C347.53 248.115 348.19 225.115 346.53 218.115C344.87 211.115 343.19 206.115 343.19 206.115C343.19 206.115 310.82 211.785 293.82 220.785C293.82 220.785 273.15 236.785 269.15 247.115C265.15 257.445 272.82 277.115 271.49 278.115Z" fill="#E3CCFF" stroke="#333333" stroke-linecap="round" stroke-linejoin="round"/>
<path d="M328.741 266.505C329.511 264.505 330.231 262.505 330.891 260.505C333.981 251.065 337.891 239.685 335.821 229.685C333.821 220.015 321.491 221.015 314.491 226.345C307.491 231.675 302.491 244.345 299.491 255.345C296.491 266.345 283.761 291.465 283.761 291.465C283.761 291.465 238.091 281.795 232.761 279.795C227.431 277.795 220.091 274.465 215.091 269.795C210.091 265.125 196.761 258.125 192.091 252.795C187.421 247.465 186.761 249.125 187.091 251.125C187.421 253.125 189.761 255.465 191.421 257.465C192.997 259.22 194.666 260.889 196.421 262.465C196.421 262.465 188.761 260.795 185.091 259.465C181.421 258.135 179.761 256.125 178.761 257.795C177.761 259.465 178.761 261.465 182.091 263.125C185.421 264.785 198.421 268.465 198.421 268.465H185.091C182.421 268.465 178.761 270.125 180.421 271.795C182.081 273.465 190.421 272.465 192.761 272.465H199.761C199.761 272.465 190.421 275.795 187.761 276.125C185.101 276.455 185.421 279.125 187.421 279.465C189.421 279.805 203.761 276.795 203.761 276.795C203.761 276.795 209.761 281.465 212.421 282.125C214.841 282.577 217.298 282.801 219.761 282.795C219.761 282.795 243.761 298.795 261.761 305.125C274.131 309.485 297.211 321.535 307.031 307.635C314.001 297.755 324.421 277.705 328.741 266.505Z" fill="white" stroke="#333333" stroke-linecap="round" stroke-linejoin="round"/>
<path d="M320.17 123.335C320.17 123.335 313.03 132.615 312.31 137.615C311.59 142.615 307.68 147.685 305.18 149.115C302.68 150.545 300.17 148.315 299.11 151.895C298.05 155.475 303.82 156.115 303.82 156.115C303.82 156.115 303.75 177.955 305.18 181.515C306.61 185.075 319.45 185.805 319.45 185.805L317.31 201.115L338.37 194.695L344.08 173.995C344.08 173.995 352.29 170.425 355.14 158.995C357.99 147.565 353 135.795 340.51 128.305C328.02 120.815 320.17 123.335 320.17 123.335Z" fill="white" stroke="#333333" stroke-linecap="round" stroke-linejoin="round"/>
<path d="M308.391 164.025C308.391 164.025 315.171 165.095 318.741 160.455" stroke="#333333" stroke-linecap="round" stroke-linejoin="round"/>
<path d="M317.721 145.905C317.191 147.225 316.141 148.055 315.371 147.745C314.601 147.435 314.371 146.115 314.941 144.795C315.511 143.475 316.531 142.635 317.291 142.945C318.051 143.255 318.251 144.575 317.721 145.905Z" fill="#333333"/>
<path d="M316.881 136.116C316.881 136.116 320.821 133.666 323.411 138.566" stroke="#333333" stroke-linecap="round" stroke-linejoin="round"/>
<path d="M342.15 192.115C342.15 192.115 315.49 202.115 307.49 204.785C299.49 207.455 291.49 223.785 291.49 223.785C291.49 223.785 331.15 210.445 338.49 208.445L344.15 207.785C344.15 207.785 345.82 194.115 342.15 192.115Z" fill="white" stroke="#333333" stroke-linecap="round" stroke-linejoin="round"/>
<path d="M364 103.5C364 103.5 357.221 107.726 360.521 100.666C362.084 97.3206 362.308 86.8848 357 85C353.792 83.8608 346.66 90.4101 342.001 90.5418C338.099 90.652 336.021 81.0011 322.999 81C308 82.9989 320.295 98.7307 317.999 101.999C316.154 104.627 300.5 92.1919 300.5 105.499C300.5 121.499 314.8 117.589 315.751 120.476C318.081 127.546 331.751 126.126 331.301 130.836C330.851 135.546 328.001 140.266 333.191 144.506C338.381 148.746 334.131 147.805 335.541 150.165C336.951 152.525 341.671 151.105 343.081 152.045C344.491 152.985 348.261 156.285 344.021 162.885C339.781 169.485 335.071 168.535 336.021 176.075C336.971 183.615 338.851 190.685 348.751 193.515C353.112 194.762 357.195 195.551 360.521 195.358C364.745 195.114 367.746 193.287 368.541 188.805C369.961 180.795 374.35 180.8 380 177.5C382.332 176.138 374.951 168.845 379 167C382.547 165.384 388.5 172.5 392 166.5C395 159 388.075 158.012 388.5 154.5C388.843 151.664 395.606 153.5 395.5 146.5C395.394 139.5 389.136 141.539 388.5 138.5C387.915 135.703 397.5 136.5 394.5 128C392 120 383.188 126.204 380.821 123.5C379.641 122.152 388.327 115 384.718 112C379.539 107.695 377.362 114.034 375.501 112.926C373.286 111.607 380.459 104.831 374.5 100.666C368.541 96.5 367.566 103.841 364 103.5Z" fill="#333333" stroke="#333333" stroke-linecap="round" stroke-linejoin="round"/>
<path d="M241.122 88.6C265.312 88.6 284.922 68.9901 284.922 44.8C284.922 20.6099 265.312 1 241.122 1C216.932 1 197.322 20.6099 197.322 44.8C197.322 68.9901 216.932 88.6 241.122 88.6Z" fill="white" stroke="#333333" stroke-miterlimit="10"/>
<path d="M261.053 66.8593H218.313C217.643 66.859 216.995 66.6173 216.488 66.1784C215.981 65.7395 215.649 65.1328 215.553 64.4693L206.893 10.0293L196.053 10.0307C195.316 10.0307 194.609 10.3236 194.088 10.8449C193.566 11.3663 193.273 12.0734 193.273 12.8107C193.273 13.548 193.566 14.2551 194.088 14.7764C194.609 15.2978 195.316 15.5907 196.053 15.5907" stroke="#333333" stroke-linecap="round" stroke-linejoin="round"/>
<path d="M267.074 59.4096H214.736L209.244 22.8496H271.764L267.074 59.4096Z" fill="#B2EEDF" stroke="#333333" stroke-linecap="round" stroke-linejoin="round"/>
<path d="M227.193 55.4299C226.844 55.4299 226.498 55.3611 226.175 55.2274C225.853 55.0938 225.559 54.8978 225.312 54.6508C225.065 54.4038 224.869 54.1106 224.736 53.7879C224.602 53.4651 224.533 53.1192 224.533 52.7699V34.3399C224.533 33.6335 224.813 32.9559 225.312 32.4555C225.81 31.955 226.487 31.6726 227.193 31.6699C227.9 31.6726 228.576 31.955 229.075 32.4555C229.573 32.9559 229.853 33.6335 229.853 34.3399V52.7699C229.853 53.1192 229.784 53.4651 229.651 53.7879C229.517 54.1106 229.321 54.4038 229.074 54.6508C228.827 54.8978 228.534 55.0938 228.211 55.2274C227.888 55.3611 227.543 55.4299 227.193 55.4299Z" fill="white" stroke="#333333" stroke-linecap="round" stroke-linejoin="round"/>
<path d="M236.613 55.4299C235.908 55.4299 235.231 55.1497 234.732 54.6508C234.233 54.152 233.953 53.4754 233.953 52.7699V34.3399C233.953 33.6335 234.233 32.9559 234.732 32.4555C235.23 31.955 235.907 31.6726 236.613 31.6699C237.319 31.6726 237.996 31.955 238.495 32.4555C238.993 32.9559 239.273 33.6335 239.273 34.3399V52.7699C239.273 53.4754 238.993 54.152 238.494 54.6508C237.995 55.1497 237.319 55.4299 236.613 55.4299Z" fill="white" stroke="#333333" stroke-linecap="round" stroke-linejoin="round"/>
<path d="M246.033 55.4299C245.684 55.4299 245.338 55.3611 245.015 55.2274C244.692 55.0938 244.399 54.8978 244.152 54.6508C243.905 54.4038 243.709 54.1106 243.576 53.7879C243.442 53.4651 243.373 53.1192 243.373 52.7699V34.3399C243.373 33.6335 243.653 32.9559 244.152 32.4555C244.65 31.955 245.327 31.6726 246.033 31.6699C246.739 31.6726 247.416 31.955 247.915 32.4555C248.413 32.9559 248.693 33.6335 248.693 34.3399V52.7699C248.693 53.1192 248.624 53.4651 248.491 53.7879C248.357 54.1106 248.161 54.4038 247.914 54.6508C247.667 54.8978 247.374 55.0938 247.051 55.2274C246.728 55.3611 246.382 55.4299 246.033 55.4299Z" fill="white" stroke="#333333" stroke-linecap="round" stroke-linejoin="round"/>
<path d="M255.453 55.4299C254.747 55.4299 254.071 55.1497 253.572 54.6508C253.073 54.152 252.793 53.4754 252.793 52.7699V34.3399C252.793 33.6335 253.073 32.9559 253.571 32.4555C254.07 31.955 254.747 31.6726 255.453 31.6699C256.159 31.6726 256.836 31.955 257.334 32.4555C257.833 32.9559 258.113 33.6335 258.113 34.3399V52.7699C258.113 53.4754 257.833 54.152 257.334 54.6508C256.835 55.1497 256.158 55.4299 255.453 55.4299Z" fill="white" stroke="#333333" stroke-linecap="round" stroke-linejoin="round"/>
<path d="M230.736 77.9863C233.222 77.9863 235.236 75.9716 235.236 73.4863C235.236 71.001 233.222 68.9863 230.736 68.9863C228.251 68.9863 226.236 71.001 226.236 73.4863C226.236 75.9716 228.251 77.9863 230.736 77.9863Z" fill="#333333" stroke="#333333" stroke-linecap="round" stroke-linejoin="round"/>
<path d="M252.736 77.9863C255.222 77.9863 257.236 75.9716 257.236 73.4863C257.236 71.001 255.222 68.9863 252.736 68.9863C250.251 68.9863 248.236 71.001 248.236 73.4863C248.236 75.9716 250.251 77.9863 252.736 77.9863Z" fill="#333333" stroke="#333333" stroke-linecap="round" stroke-linejoin="round"/>
<path d="M264.744 28.8105H270.524" stroke="#333333" stroke-linecap="round" stroke-linejoin="round"/>
<path d="M257.504 28.8105H261.604" stroke="#333333" stroke-linecap="round" stroke-linejoin="round"/>
<path d="M210.723 28.8105H254.363" stroke="#333333" stroke-linecap="round" stroke-linejoin="round"/>
<path d="M241.123 88.5996V140.09" stroke="#333333" stroke-miterlimit="10"/>
<path d="M241.124 142.881C242.665 142.881 243.914 141.632 243.914 140.091C243.914 138.55 242.665 137.301 241.124 137.301C239.583 137.301 238.334 138.55 238.334 140.091C238.334 141.632 239.583 142.881 241.124 142.881Z" fill="#333333" stroke="#333333" stroke-linecap="round" stroke-linejoin="round"/>
<path d="M272.453 38.8301C279.357 38.8301 284.953 33.2336 284.953 26.3301C284.953 19.4265 279.357 13.8301 272.453 13.8301C265.55 13.8301 259.953 19.4265 259.953 26.3301C259.953 33.2336 265.55 38.8301 272.453 38.8301Z" fill="#333333"/>
<path d="M271.469 31.9863H271.396C271.236 31.9761 271.081 31.926 270.945 31.8403C270.808 31.7545 270.693 31.6358 270.611 31.4943L267.406 25.9798C267.33 25.8643 267.278 25.7344 267.253 25.5977C267.228 25.4611 267.231 25.3207 267.26 25.185C267.29 25.0493 267.346 24.9213 267.425 24.8086C267.504 24.6959 267.605 24.6009 267.721 24.5294C267.837 24.458 267.966 24.4115 268.1 24.3929C268.234 24.3743 268.371 24.3839 268.501 24.4211C268.632 24.4583 268.753 24.5224 268.859 24.6095C268.964 24.6965 269.051 24.8047 269.115 24.9274L271.589 29.171L278.46 20.3696C278.626 20.1575 278.867 20.0218 279.13 19.9924C279.393 19.9629 279.657 20.042 279.863 20.2124C280.07 20.3828 280.202 20.6304 280.23 20.9008C280.259 21.1712 280.182 21.4422 280.016 21.6542L272.248 31.6037C272.153 31.7221 272.034 31.8178 271.9 31.8839C271.765 31.95 271.619 31.985 271.469 31.9863Z" fill="white"/>
<path d="M143.82 165.576C143.82 165.576 151.48 163.386 152.73 162.756C153.98 162.126 160.07 155.566 160.07 154.636C160.07 153.706 157.88 154.166 156.17 155.096C154.46 156.026 149.17 161.816 149.17 161.816L143.82 165.576Z" fill="white" stroke="#333333" stroke-linecap="round" stroke-linejoin="round"/>
<path d="M138.97 167.446C138.97 167.446 149.13 162.916 150.23 162.136C151.33 161.356 155.85 156.666 156.17 155.136C156.49 153.606 153.04 154.046 152.1 154.516C151.16 154.986 145.54 160.606 144.91 161.236C144.28 161.866 137.91 167.176 137.91 167.176C137.91 167.176 135.82 168.226 138.97 167.446Z" fill="white" stroke="#333333" stroke-linecap="round" stroke-linejoin="round"/>
<path d="M102.251 169.845C102.251 169.845 112.251 159.445 114.141 158.325C116.031 157.205 138.291 157.215 138.291 157.215C138.291 157.215 149.061 154.215 150.921 153.865C152.781 153.515 152.411 157.215 149.811 158.705C147.211 160.195 139.401 167.245 136.431 169.105C133.461 170.965 114.511 173.565 114.511 173.565L105.221 184.705L95.5605 178.765L102.251 169.845Z" fill="white" stroke="#333333" stroke-linecap="round" stroke-linejoin="round"/>
<path d="M138.29 157.216C138.29 157.216 143.04 156.666 142.57 158.066C142.1 159.466 140.38 162.446 137.1 162.606L123.66 163.226" fill="white"/>
<path d="M138.29 157.216C138.29 157.216 143.04 156.666 142.57 158.066C142.1 159.466 140.38 162.446 137.1 162.606L123.66 163.226" stroke="#333333" stroke-linecap="round" stroke-linejoin="round"/>
<path d="M95.5603 178.764C95.5603 178.764 87.1503 178.114 85.4903 179.114C83.8303 180.114 62.8203 203.784 62.8203 203.784L70.4003 240.184C70.0603 241.654 104.57 205.614 109.49 194.784C111.61 190.104 106.49 184.444 106.49 184.444L95.5603 178.764Z" fill="#FFDFA6" stroke="#333333" stroke-linecap="round" stroke-linejoin="round"/>
<path d="M98.0699 169.225L114.77 180.845L107.69 189.305L91.6699 178.415L98.0699 169.225Z" fill="#FFDFA6" stroke="#333333" stroke-linecap="round" stroke-linejoin="round"/>
<path d="M179.711 110.454L91.8184 114.799L93.9661 158.246L181.859 153.901L179.711 110.454Z" fill="white" stroke="#333333" stroke-linecap="round" stroke-linejoin="round"/>
<path d="M111.59 116.32L94.4609 117.164L94.8919 125.913L112.021 125.07L111.59 116.32Z" fill="#FFDFA6" stroke="#333333" stroke-linecap="round" stroke-linejoin="round"/>
<path d="M179.716 110.449L161.738 111.338L163.886 154.785L181.864 153.896L179.716 110.449Z" fill="#DBDBDB" stroke="#333333" stroke-linecap="round" stroke-linejoin="round"/>
<path d="M179.689 110.475C179.689 110.475 186.689 115.325 189.469 120.305" stroke="#333333" stroke-linecap="round" stroke-linejoin="round"/>
<path d="M186.981 116.984L186.711 127.764L195.001 137.714L206.611 127.494L198.321 117.264L186.981 116.984Z" fill="#FFDFA6" stroke="#333333" stroke-linecap="round" stroke-linejoin="round"/>
<path d="M136.82 92.1152V101.615" stroke="#333333" stroke-linecap="round" stroke-linejoin="round"/>
<path d="M136.82 175.615V185.115" stroke="#333333" stroke-linecap="round" stroke-linejoin="round"/>
<path d="M80.3203 106.615L86.8203 111.615" stroke="#333333" stroke-linecap="round" stroke-linejoin="round"/>
<path d="M87.3203 140.115L76.8203 140.615" stroke="#333333" stroke-linecap="round" stroke-linejoin="round"/>
<path d="M93.8203 165.115L87.3203 171.615" stroke="#333333" stroke-linecap="round" stroke-linejoin="round"/>
<path d="M185.32 158.115L193.32 165.615" stroke="#333333" stroke-linecap="round" stroke-linejoin="round"/>
<path d="M183.32 106.115L189.82 98.6152" stroke="#333333" stroke-linecap="round" stroke-linejoin="round"/>
<path d="M209.05 306.086H109.51V314.116H209.05V306.086Z" fill="white" stroke="#333333" stroke-miterlimit="10" stroke-linecap="round"/>
<path d="M118.031 303.385H111.141V305.965H118.031V303.385Z" fill="white" stroke="#333333" stroke-miterlimit="10" stroke-linecap="round"/>
<path d="M126.919 303.385H120.029V305.965H126.919V303.385Z" fill="white" stroke="#333333" stroke-miterlimit="10" stroke-linecap="round"/>
<path d="M135.82 303.385H128.93V305.965H135.82V303.385Z" fill="white" stroke="#333333" stroke-miterlimit="10" stroke-linecap="round"/>
<path d="M144.71 303.385H137.82V305.965H144.71V303.385Z" fill="white" stroke="#333333" stroke-miterlimit="10" stroke-linecap="round"/>
<path d="M153.611 303.385H146.721V305.965H153.611V303.385Z" fill="white" stroke="#333333" stroke-miterlimit="10" stroke-linecap="round"/>
<path d="M162.499 303.385H155.609V305.965H162.499V303.385Z" fill="white" stroke="#333333" stroke-miterlimit="10" stroke-linecap="round"/>
<path d="M171.4 303.385H164.51V305.965H171.4V303.385Z" fill="white" stroke="#333333" stroke-miterlimit="10" stroke-linecap="round"/>
<path d="M180.29 303.385H173.4V305.965H180.29V303.385Z" fill="white" stroke="#333333" stroke-miterlimit="10" stroke-linecap="round"/>
<path d="M189.191 303.385H182.301V305.965H189.191V303.385Z" fill="white" stroke="#333333" stroke-miterlimit="10" stroke-linecap="round"/>
<path d="M198.079 303.385H191.189V305.965H198.079V303.385Z" fill="white" stroke="#333333" stroke-miterlimit="10" stroke-linecap="round"/>
<path d="M206.98 303.385H200.09V305.965H206.98V303.385Z" fill="white" stroke="#333333" stroke-miterlimit="10" stroke-linecap="round"/>
<path d="M87.8206 314.116H44.3906C43.0723 314.112 41.7709 313.818 40.5787 313.255C39.3864 312.692 38.3324 311.875 37.491 310.86C36.6496 309.845 36.0415 308.657 35.7097 307.381C35.3779 306.105 35.3304 304.772 35.5706 303.476L54.9706 201.006L59.7006 201.906L40.3006 304.366C40.1855 304.967 40.2049 305.587 40.3574 306.18C40.5099 306.773 40.7918 307.324 41.1827 307.796C41.5736 308.267 42.064 308.646 42.6186 308.905C43.1732 309.164 43.7783 309.298 44.3906 309.296H87.8206V314.116Z" fill="#333333"/>
<path d="M56.7999 195.574L49.8398 197.714L55.1898 226.074L63.7598 224.474L56.7999 195.574Z" fill="#333333"/>
<path d="M72.8205 284.555L40.4805 121.205L42.9605 122.745C45.6952 124.442 48.0529 126.681 49.8881 129.324C51.7234 131.968 52.997 134.96 53.6305 138.115L78.5705 264.115C79.2827 267.734 79.1334 271.47 78.1345 275.021C77.1356 278.572 75.3152 281.838 72.8205 284.555Z" fill="white" stroke="#333333" stroke-miterlimit="10" stroke-linecap="round"/>
<path d="M1 314.115H419" stroke="#333333" stroke-miterlimit="10" stroke-linecap="round"/>
</svg>
