<svg width="379" height="324" viewBox="0 0 379 324" fill="none" xmlns="http://www.w3.org/2000/svg">
<path d="M74.4 168.999H15.5C7 168.999 0 162.099 0 153.499V89.1992C0 80.5992 7 73.6992 15.5 73.6992H74.4C83 73.6992 89.9 80.6992 89.9 89.1992V153.499C89.9 162.099 83 168.999 74.4 168.999Z" fill="white"/>
<path d="M112.7 259.1V271.3C112.7 280.2 119.9 287.5 128.9 287.5H241.3C250.2 287.5 257.5 280.3 257.5 271.3V259.1H112.7Z" fill="#333333"/>
<path d="M257 51.5H113.2V258.6H257V51.5Z" fill="white"/>
<path d="M256.5 52V258.1H113.7V52H256.5ZM257.5 51H112.7V259.1H257.5V51Z" fill="#333333"/>
<path d="M241.3 22.5996H128.9C120 22.5996 112.7 29.7996 112.7 38.7996V50.9996H257.5V38.7996C257.5 29.8996 250.3 22.5996 241.3 22.5996Z" fill="#333333"/>
<path d="M199.9 38.4004H170.4C169.5 38.4004 168.9 37.7004 168.9 36.9004C168.9 36.0004 169.6 35.4004 170.4 35.4004H199.9C200.8 35.4004 201.4 36.1004 201.4 36.9004C201.4 37.7004 200.7 38.4004 199.9 38.4004Z" fill="white"/>
<path d="M194.5 273.3C194.5 278.5 190.3 282.7 185.1 282.7C179.9 282.7 175.7 278.5 175.7 273.3C175.7 268.1 179.9 263.9 185.1 263.9C190.3 263.9 194.5 268.1 194.5 273.3Z" fill="white"/>
<path d="M272.7 72.1992H199.3C197.6 72.1992 196.3 73.4992 196.3 75.1992V103.499C196.3 105.199 197.6 106.499 199.3 106.499H272.7C274.4 106.499 275.7 105.199 275.7 103.499V75.1992C275.7 73.4992 274.4 72.1992 272.7 72.1992Z" fill="#FFDFA6" stroke="#333333" stroke-miterlimit="10"/>
<path d="M221.5 89.3988C221.5 94.6988 217.2 98.9988 211.9 98.9988C206.6 98.9988 202.3 94.6988 202.3 89.3988C202.3 84.0988 206.6 79.7988 211.9 79.7988C217.2 79.7988 221.5 83.9988 221.5 89.3988Z" fill="white"/>
<path d="M32.1998 101.2C32.1998 106.3 28.0998 110.4 22.9998 110.4C17.8998 110.4 13.7998 106.3 13.7998 101.2C13.7998 96.1 17.8998 92 22.9998 92C28.0998 92 32.1998 96.2 32.1998 101.2Z" fill="#E3CCFF" stroke="#333333" stroke-miterlimit="10"/>
<path d="M40.3998 98.2996C39.4998 98.2996 38.7998 97.5996 38.7998 96.6996C38.7998 95.7996 39.4998 95.0996 40.3998 95.0996H74.2998C75.1998 95.0996 75.8998 95.7996 75.8998 96.6996C75.8998 97.5996 75.1998 98.2996 74.2998 98.2996H40.3998Z" fill="white"/>
<path d="M74.1998 95.5C74.7998 95.5 75.2998 96 75.2998 96.6C75.2998 97.2 74.7998 97.7 74.1998 97.7H40.3998C39.7998 97.7 39.2998 97.2 39.2998 96.6C39.2998 96 39.7998 95.5 40.3998 95.5H74.1998ZM74.1998 94.5H40.3998C39.1998 94.5 38.2998 95.5 38.2998 96.6C38.2998 97.8 39.2998 98.7 40.3998 98.7H74.2998C75.4998 98.7 76.3998 97.7 76.3998 96.6C76.2998 95.5 75.3998 94.5 74.1998 94.5Z" fill="#333333"/>
<path d="M40.3998 107.499C39.4998 107.499 38.7998 106.799 38.7998 105.899C38.7998 104.999 39.4998 104.299 40.3998 104.299H59.5998C60.4998 104.299 61.1998 104.999 61.1998 105.899C61.1998 106.799 60.4998 107.499 59.5998 107.499H40.3998Z" fill="white"/>
<path d="M59.4998 104.699C60.0998 104.699 60.5998 105.199 60.5998 105.799C60.5998 106.399 60.0998 106.899 59.4998 106.899H40.3998C39.7998 106.899 39.2998 106.399 39.2998 105.799C39.2998 105.199 39.7998 104.699 40.3998 104.699H59.4998ZM59.4998 103.699H40.3998C39.1998 103.699 38.2998 104.699 38.2998 105.799C38.2998 106.999 39.2998 107.899 40.3998 107.899H59.5998C60.7998 107.899 61.6998 106.899 61.6998 105.799C61.5998 104.599 60.6998 103.699 59.4998 103.699Z" fill="#333333"/>
<path d="M168.7 63.4004H106.1C104.7 63.4004 103.6 64.5004 103.6 65.9004V114.8C103.6 116.2 104.7 117.3 106.1 117.3H168.7C170.1 117.3 171.2 116.2 171.2 114.8V65.9004C171.2 64.5004 170.1 63.4004 168.7 63.4004Z" fill="#B2EEDF" stroke="#333333" stroke-miterlimit="10" stroke-linecap="round" stroke-linejoin="round"/>
<path d="M141.1 88.3016C143.7 88.3016 145.7 86.2016 145.7 83.7016C145.7 81.2016 143.6 79.1016 141.1 79.1016C138.5 79.1016 136.5 81.2016 136.5 83.7016C136.5 86.2016 138.6 88.3016 141.1 88.3016Z" fill="#FFDFA6"/>
<path d="M114.5 74.7008V106.601C114.5 107.401 115.1 108.001 115.9 108.001H159.1C159.9 108.001 160.5 107.401 160.5 106.601V74.7008C160.5 73.9008 159.9 73.3008 159.1 73.3008H115.9C115.2 73.3008 114.5 73.9008 114.5 74.7008ZM159.1 101.601L149.3 91.4008C148.4 90.5008 147 90.5008 146.1 91.3008L142.7 94.6008C142 95.2008 141.8 96.2008 142.2 97.1008L143.8 101.101L131 86.6008C130.1 85.5008 128.4 85.6008 127.5 86.7008L115.7 101.401V75.4008C115.7 75.0008 116 74.7008 116.4 74.7008H158.4C158.8 74.7008 159.1 75.0008 159.1 75.4008V101.601Z" fill="white"/>
<path d="M228.9 138.301H144.5C143 138.301 141.8 139.501 141.8 141.001V203.401C141.8 204.901 143 206.101 144.5 206.101H228.9C230.4 206.101 231.6 204.901 231.6 203.401V141.001C231.6 139.501 230.4 138.301 228.9 138.301Z" fill="#E3CCFF" stroke="#333333" stroke-miterlimit="10"/>
<path d="M159.4 200H152.4C151.5 200 150.8 199.3 150.8 198.4V177.5C150.8 176.6 151.5 175.9 152.4 175.9H159.4C160.3 175.9 161 176.6 161 177.5V198.4C160.9 199.3 160.2 200 159.4 200Z" fill="white"/>
<path d="M175.1 166.699H168.1C167.2 166.699 166.5 167.399 166.5 168.299V198.499C166.5 199.399 167.2 200.099 168.1 200.099H175.1C176 200.099 176.7 199.399 176.7 198.499V168.299C176.7 167.399 176 166.699 175.1 166.699Z" fill="white"/>
<path d="M190.9 152.801H183.9C183 152.801 182.3 153.501 182.3 154.401V198.501C182.3 199.401 183 200.101 183.9 200.101H190.9C191.8 200.101 192.5 199.401 192.5 198.501V154.401C192.5 153.501 191.8 152.801 190.9 152.801Z" fill="white"/>
<path d="M206.7 168.9H199.7C198.8 168.9 198.1 169.6 198.1 170.5V198.5C198.1 199.4 198.8 200.1 199.7 200.1H206.7C207.6 200.1 208.3 199.4 208.3 198.5V170.5C208.2 169.6 207.5 168.9 206.7 168.9Z" fill="white"/>
<path d="M222.4 156.199H215.4C214.5 156.199 213.8 156.899 213.8 157.799V198.499C213.8 199.399 214.5 200.099 215.4 200.099H222.4C223.3 200.099 224 199.399 224 198.499V157.799C224 156.899 223.3 156.199 222.4 156.199Z" fill="white"/>
<path d="M91.2 200.301H31.5C28.4 200.301 26 202.801 26 205.801V239.401C26 242.501 28.5 244.901 31.5 244.901H75.2L84.2 253.901V244.901H91.2C94.3 244.901 96.7 242.401 96.7 239.401V205.801C96.7 202.801 94.2 200.301 91.2 200.301Z" fill="white" stroke="#333333" stroke-miterlimit="10" stroke-linecap="round" stroke-linejoin="round"/>
<path d="M86.6 213.199C86.6 213.999 85.9 214.699 85.1 214.699H37.6C36.8 214.699 36.1 213.999 36.1 213.199C36.1 212.399 36.8 211.699 37.6 211.699H85.2C86 211.699 86.6 212.399 86.6 213.199ZM85.1 220.799H37.6C36.8 220.799 36.1 221.499 36.1 222.299C36.1 223.099 36.8 223.799 37.6 223.799H85.2C86 223.799 86.7 223.099 86.7 222.299C86.6 221.499 86 220.799 85.1 220.799ZM66.5 229.899H37.5C36.7 229.899 36 230.599 36 231.399C36 232.199 36.7 232.899 37.5 232.899H66.5C67.3 232.899 68 232.199 68 231.399C68 230.599 67.4 229.899 66.5 229.899Z" fill="#FFDFA6"/>
<path d="M32.3998 123.6C22.8998 123.6 15.2998 131.3 15.2998 140.7C15.2998 145.4 17.1998 149.7 20.2998 152.8L32.3998 140.7V123.6Z" fill="#B2EEDF" stroke="#333333" stroke-miterlimit="10" stroke-linecap="round" stroke-linejoin="round"/>
<path d="M34.2998 122.9V140H51.3998C51.4998 130.6 43.7998 122.9 34.2998 122.9Z" fill="#FFDFA6" stroke="#333333" stroke-miterlimit="10"/>
<path d="M21.5996 154.1C24.6996 157.2 28.9996 159.1 33.6996 159.1C43.1996 159.1 50.7996 151.4 50.7996 142H33.6996L21.5996 154.1Z" fill="#333333"/>
<path d="M146.2 247.999H125.7C124.9 247.999 124.3 247.399 124.3 246.599V226.099C124.3 225.299 124.9 224.699 125.7 224.699H146.2C147 224.699 147.6 225.299 147.6 226.099V246.599C147.6 247.399 147 247.999 146.2 247.999Z" fill="#FFDFA6"/>
<path d="M135.9 240.5C138.22 240.5 140.1 238.619 140.1 236.3C140.1 233.98 138.22 232.1 135.9 232.1C133.581 232.1 131.7 233.98 131.7 236.3C131.7 238.619 133.581 240.5 135.9 240.5Z" fill="#FFDFA6" stroke="#333333" stroke-miterlimit="10"/>
<path d="M179.1 247.999H158.6C157.8 247.999 157.2 247.399 157.2 246.599V226.099C157.2 225.299 157.8 224.699 158.6 224.699H179.1C179.9 224.699 180.5 225.299 180.5 226.099V246.599C180.5 247.399 179.9 247.999 179.1 247.999Z" fill="#FFDFA6"/>
<path d="M168.8 232.299L164.2 240.399H173.5L168.8 232.299Z" fill="#FFDFA6" stroke="#333333" stroke-miterlimit="10"/>
<path d="M212 247.999H191.5C190.7 247.999 190.1 247.399 190.1 246.599V226.099C190.1 225.299 190.7 224.699 191.5 224.699H212C212.8 224.699 213.4 225.299 213.4 226.099V246.599C213.4 247.399 212.8 247.999 212 247.999Z" fill="#B2EEDF" stroke="#333333" stroke-miterlimit="10" stroke-linecap="round" stroke-linejoin="round"/>
<path d="M205.299 232.799H198.199V239.899H205.299V232.799Z" fill="#B2EEDF" stroke="#333333" stroke-miterlimit="10" stroke-linecap="round" stroke-linejoin="round"/>
<path d="M244.9 247.999H224.4C223.6 247.999 223 247.399 223 246.599V226.099C223 225.299 223.6 224.699 224.4 224.699H244.9C245.7 224.699 246.3 225.299 246.3 226.099V246.599C246.3 247.399 245.7 247.999 244.9 247.999Z" fill="#FFDFA6"/>
<path d="M234.6 232.199L230.3 235.399L231.9 240.499H237.3L239 235.399L234.6 232.199Z" fill="#FFDFA6" stroke="#333333" stroke-miterlimit="10"/>
<path d="M231.5 82.4004H264" stroke="#333333" stroke-miterlimit="10" stroke-linecap="round" stroke-linejoin="round"/>
<path d="M231.5 89.4004H264" stroke="#333333" stroke-miterlimit="10" stroke-linecap="round" stroke-linejoin="round"/>
<path d="M231.5 96.4004H249.5" stroke="#333333" stroke-miterlimit="10" stroke-linecap="round" stroke-linejoin="round"/>
<path d="M235.5 322.699H131" stroke="#333333" stroke-miterlimit="10" stroke-linecap="round" stroke-linejoin="round"/>
<path d="M356.2 6.40046C356.2 6.40046 357.6 4.30046 360 5.60046C362.4 6.90046 360.6 9.40046 360.6 9.40046C360.6 9.40046 362.8 8.20046 364.8 9.90046C366.8 11.6005 364.2 13.6005 364.2 13.6005C364.2 13.6005 365.9 12.6005 367.5 14.4005C369.1 16.2005 367 18.5005 367 18.5005C367 18.5005 369.5 17.6005 370.3 20.1005C371.1 22.6005 368.3 23.3005 368.3 23.3005C368.3 23.3005 371.4 24.1005 371 26.7005C370.6 29.3005 368.6 28.8005 368.6 28.8005C368.6 28.8005 371.4 30.2005 370.5 32.2005C369.6 34.2005 367.6 33.6005 367.6 33.6005C367.6 33.6005 369.7 34.8005 368.8 37.1005C367.9 39.4005 365.9 38.2005 365.9 38.2005C365.9 38.2005 368.6 40.4005 366.5 42.4005C364.6 44.2005 363.8 41.3005 363.8 41.3005C363.8 41.3005 365.7 44.8005 363.8 45.8005C361.9 46.8005 361 44.5005 361 44.5005C361 44.5005 361.4 47.8005 359.6 48.3005C357.7 48.7005 356.4 47.2005 356.4 47.2005C356.4 47.2005 357.5 50.7005 355.3 50.7005C353.1 50.7005 352.5 49.9005 352.5 49.9005C352.5 49.9005 352.4 53.1005 350.6 53.1005C348.8 53.1005 348.3 51.3005 348.3 51.3005C348.3 51.3005 348.6 53.0005 346.2 53.1005C343.8 53.2005 333.7 48.1005 333.7 48.1005C333.7 48.1005 329.8 48.9005 327.6 48.4005C325.4 47.9005 325.5 46.5005 325.5 46.5005C325.5 46.5005 325.1 46.8005 322.3 45.8005C319.5 44.8005 322.3 42.3005 322.3 42.3005C322.3 42.3005 320.6 43.3005 318.5 41.3005C316.4 39.3005 318.9 37.5005 318.9 37.5005C318.9 37.5005 317.2 38.7005 315.2 36.4005C313.2 34.1005 317.3 32.9005 317.3 32.9005C317.3 32.9005 314 33.0005 313.2 29.8005C312.4 26.6005 316.3 27.5005 316.3 27.5005C316.3 27.5005 312.7 25.8005 313.2 22.9005C313.7 20.0005 316.6 21.0005 316.6 21.0005C316.6 21.0005 313.2 17.2005 315.9 14.5005C318.6 11.8005 319.6 14.3005 319.6 14.3005C319.6 14.3005 317.5 10.3005 319.6 8.50046C321.7 6.70046 323.9 9.20046 323.9 9.20046C323.9 9.20046 323.1 3.90046 325.6 3.70046C328.1 3.50046 328.8 5.70046 328.8 5.70046C328.8 5.70046 328.9 0.900462 331.8 1.20046C334.7 1.50046 334.7 3.80046 334.7 3.80046C334.7 3.80046 335.1 0.100462 337.6 0.400462C340.1 0.700462 339.8 2.90046 339.8 2.90046C339.8 2.90046 342.3 -0.999538 344.3 0.300462C346.3 1.70046 346 3.20046 346 3.20046C346 3.20046 348 0.800462 350.5 1.40046C353 2.10046 351.7 4.60046 351.7 4.60046C351.7 4.60046 352.8 2.30046 355.5 2.90046C358 3.60046 356.2 6.40046 356.2 6.40046Z" fill="#333333"/>
<path d="M357.7 63.8999C357.7 63.8999 350.2 62.3999 347.5 57.2999C344.8 52.1999 345.2 49.6999 345.2 49.6999C345.2 49.6999 347.5 47.3999 350.4 38.4999C353.3 29.5999 349.4 21.2999 343.8 19.0999C336 15.4999 330.2 19.2999 328.2 21.8999C326.3 24.5999 323.2 40.6999 325.3 46.4999C327.4 52.2999 333.9 51.0999 333.9 51.0999C333.9 51.0999 336.4 59.7999 323.9 61.3999C323.9 61.3999 318.1 72.2999 325.3 79.7999C332.5 87.2999 348.6 86.8999 351.9 84.1999C355.2 81.3999 358.5 75.2999 357.7 63.8999Z" fill="#919191" stroke="#333333" stroke-miterlimit="10" stroke-linecap="round" stroke-linejoin="round"/>
<path d="M322.699 227.4C323.599 260.6 327.399 299.7 329.199 302.7L333.399 302C333.399 302 339.699 248.9 334.799 225.2C334.799 225.2 339.799 205.1 340.499 192.2C336.799 199.3 353.399 147.5 346.199 140.1C334.899 128.5 337.399 143.4 337.399 143.4L326.099 140.9C322.699 161 314.399 194.4 322.699 227.4Z" fill="#919191" stroke="#333333" stroke-miterlimit="10"/>
<path d="M343.899 231.601C344.799 264.801 348.599 303.901 350.399 306.901L354.599 306.201C354.599 306.201 360.899 253.101 355.999 229.401C355.999 229.401 360.999 209.301 361.699 196.401C361.699 196.401 368.699 162.001 354.599 147.601C343.299 136.001 354.599 147.601 354.599 147.601L333.399 158.001C329.999 178.101 335.599 198.601 343.899 231.601Z" fill="#919191" stroke="#333333" stroke-miterlimit="10"/>
<path d="M318.8 62.5C318.8 62.5 312.3 62.5 308 79.1C303.7 95.7 292.9 92.8 292.9 92.8C292.9 92.8 288.6 117.1 296.9 116.1C305.2 115.1 319.6 92.2 319.6 92.2L318.8 62.5Z" fill="#919191" stroke="#333333" stroke-miterlimit="10" stroke-linecap="round" stroke-linejoin="round"/>
<path d="M357.699 63.9004C357.699 63.9004 364.699 64.2004 369.599 69.3004C366.999 69.0004 366.999 81.7004 365.699 106.6C365.499 110 360.299 117.7 359.199 124.5C358.099 131.3 357.599 129.2 357.799 136.1C357.899 139 358.099 141.5 358.899 143.7C358.899 143.7 321.699 146.5 323.499 140.1C324.899 135 321.499 125.1 317.799 106.6C317.599 105.5 311.199 92.4004 311.499 91.4004C318.599 70.1004 318.799 62.5004 318.799 62.5004L323.799 61.4004C323.799 63.6004 323.699 64.8004 323.799 67.0004C323.999 82.0004 348.399 81.9004 355.499 68.7004L357.699 63.9004Z" fill="#B2EEDF" stroke="#333333" stroke-miterlimit="10" stroke-linecap="round" stroke-linejoin="round"/>
<path d="M329.6 89.2C329.6 89.2 325.3 87 323.8 84.9C322.4 82.7 317.3 82 313 82L317.3 91.4C317.3 91.4 320.2 92.8 323.1 92.1L328.1 95L329.6 89.2Z" fill="#919191" stroke="#333333" stroke-miterlimit="10" stroke-linecap="round" stroke-linejoin="round"/>
<path d="M370.1 114C368.7 121.2 328.1 94.8997 328.1 94.8997L329.5 89.0997L361.2 100.6C359.5 84.4997 357.9 75.8997 360.2 70.2997C362.6 64.4997 370 66.2997 370.9 72.6997C371 72.8997 375.1 88.2997 370.1 114Z" fill="#919191" stroke="#333333" stroke-miterlimit="10" stroke-linecap="round" stroke-linejoin="round"/>
<path d="M284.7 71.5001L300.7 103.4C301.2 104.4 302.3 104.9 303.3 104.6L320.3 100.6C321.8 100.3 322.5 98.6001 321.8 97.3001L305.2 64.8001C304.7 63.8001 303.6 63.3001 302.5 63.6001L286.1 68.1001C284.8 68.6001 284.1 70.2001 284.7 71.5001Z" fill="#F0F0F0" stroke="#333333" stroke-miterlimit="10"/>
<path d="M288.5 87.0008C288.5 87.0008 286.3 82.7008 292.8 81.2008C299.3 79.8008 298.6 81.2008 292.1 84.8008C292.1 84.8008 298.6 81.9008 299.3 82.6008C300 83.3008 298.6 85.5008 292.8 87.6008C292.8 87.6008 299.3 84.7008 300 85.4008C300.7 86.1008 295.7 89.7008 293.5 89.7008C293.5 89.7008 298.5 88.3008 299.3 89.0008C300.1 89.7008 295 92.0008 295 92.0008L296.4 94.9008C296.4 94.9008 291.4 95.6008 291.4 94.2008C291.4 94.2008 289.2 92.0008 289.2 91.3008C289.2 91.3008 287.1 90.6008 288.5 87.0008Z" fill="#919191" stroke="#333333" stroke-miterlimit="10" stroke-linecap="round" stroke-linejoin="round"/>
<path d="M298.9 75.7999C298.4 75.4999 297.9 75.4999 297.4 75.6999C296.3 76.1999 296 77.8999 296.7 78.8999C297.5 79.8999 299 79.9999 300.1 79.3999C300.5 79.0999 300.9 78.6999 301 78.0999C301 77.5999 300.6 76.9999 300.1 77.0999C299.9 77.0999 299.7 77.1999 299.5 77.1999C299.1 77.1999 298.9 76.4999 299.2 76.1999C299.3 76.2999 299.4 76.2999 299.5 76.3999" fill="#333333"/>
<path d="M299.2 74.7997C299.4 74.2997 299.9 73.9996 300.3 73.5996C300.7 73.1996 300.9 72.4996 300.5 72.1996C300.1 71.9996 299.7 72.1996 299.4 72.4996C299.1 72.7996 298.8 73.0996 298.7 73.5996C298.6 73.9996 298.9 74.4996 299.3 74.5996" fill="#333333"/>
<path d="M378.5 315.701H328.5" stroke="#333333" stroke-miterlimit="10" stroke-linecap="round" stroke-linejoin="round"/>
<path d="M332.5 311.701H295.5" stroke="#333333" stroke-miterlimit="10" stroke-linecap="round" stroke-linejoin="round"/>
<path d="M358.8 143.6C358.8 143.6 379.5 166.7 372 237C372 237 352.2 248.7 313.2 237C313.2 237 306.8 179.1 323.3 140L358.8 143.6Z" fill="#B2EEDF" stroke="#333333" stroke-miterlimit="10" stroke-linecap="round" stroke-linejoin="round"/>
<path d="M334.799 310.5C334.899 309 334.999 305.4 333.599 300.5C333.599 300.5 329.699 304.1 328.599 301C328.599 301 315.799 308.9 314.199 312.9C312.799 316.2 324.199 313 328.799 309.8C329.299 309.4 329.999 309.3 330.599 309.4C331.199 309.5 331.799 309.9 332.099 310.7C332.299 311.1 332.599 311.4 333.099 311.4H333.899C334.299 311.4 334.799 311 334.799 310.5Z" fill="#333333" stroke="#333333" stroke-miterlimit="10"/>
<path d="M356.1 314.1C356.2 312.6 356.3 309 354.9 304.1C354.9 304.1 350.6 308.2 349.7 304.4C349.7 304.4 337.1 312.5 335.4 316.5C334 319.8 345.4 316.6 350 313.4C350.5 313 351.2 312.9 351.8 313C352.4 313.1 353 313.5 353.3 314.3C353.5 314.7 353.8 315 354.3 315H355.1C355.7 315 356.1 314.6 356.1 314.1Z" fill="#333333" stroke="#333333" stroke-miterlimit="10"/>
<path d="M357.6 133.9C357.6 133.9 339.8 139.7 323.4 133.9C323.4 133.9 322.4 141.4 320.6 147.3C320.6 147.3 336 154.4 360.3 145.2L357.6 133.9Z" fill="#333333" stroke="#333333" stroke-miterlimit="10"/>
<path d="M328.199 148.1C328.199 148.1 321.199 174.6 320.699 205.2" stroke="#333333" stroke-miterlimit="10" stroke-linecap="round" stroke-linejoin="round"/>
<path d="M338.899 148.1L340.499 182.1" stroke="#333333" stroke-miterlimit="10" stroke-linecap="round" stroke-linejoin="round"/>
<path d="M346.399 146.5C346.399 146.5 358.399 161.6 359.699 201.7" stroke="#333333" stroke-miterlimit="10" stroke-linecap="round" stroke-linejoin="round"/>
<path d="M354.899 145.301C354.899 145.301 360.999 156.401 362.199 162.101" stroke="#333333" stroke-miterlimit="10" stroke-linecap="round" stroke-linejoin="round"/>
<path d="M328.2 136.501C328.2 136.501 327.8 130.201 326.1 124.701" stroke="#333333" stroke-miterlimit="10" stroke-linecap="round" stroke-linejoin="round"/>
<path d="M337.699 137.5V131.5" stroke="#333333" stroke-miterlimit="10" stroke-linecap="round" stroke-linejoin="round"/>
<path d="M350.4 137.5C350.7 137.1 349.4 132.6 350.8 128.1" stroke="#333333" stroke-miterlimit="10" stroke-linecap="round" stroke-linejoin="round"/>
<path d="M329 88.1006L325.4 96.6006C325.3 96.9006 325.4 97.2006 325.7 97.2006L330.2 98.4006C330.4 98.5006 330.7 98.3006 330.8 98.1006L333.6 89.4006C333.7 89.1006 333.5 88.9006 333.3 88.8006L329.7 87.9006C329.3 87.8006 329.1 87.9006 329 88.1006Z" fill="#FFDFA6" stroke="#333333" stroke-miterlimit="10"/>
<path d="M327.199 30.1998C326.999 30.6998 327.299 31.1998 327.899 31.3998C328.399 31.5998 328.999 31.2998 329.099 30.7998C329.299 30.2998 328.999 29.7998 328.399 29.5998C327.899 29.3998 327.399 29.6998 327.199 30.1998Z" fill="#333333"/>
<path d="M337.199 33.0005C336.999 33.5005 337.299 34.0005 337.899 34.2005C338.399 34.4005 338.999 34.1005 339.099 33.6005C339.299 33.1005 338.999 32.6005 338.399 32.4005C337.899 32.2005 337.399 32.5005 337.199 33.0005Z" fill="#333333"/>
<path d="M331.8 30.5C331.9 30.8 332.3 33.3 330 34.3C327.9 34.7 327.8 37 328.6 37.6C329.4 38.2 330.8 38.3 330.8 38.2" stroke="#333333" stroke-miterlimit="10" stroke-linecap="round" stroke-linejoin="round"/>
<path d="M337.3 27.4004C337.3 27.7004 338.4 27.8004 339.6 28.3004C340.8 28.7004 341.7 29.3004 341.9 29.1004C342 29.0004 341.9 28.7004 341.6 28.3004C341.3 27.9004 340.7 27.5004 340 27.2004C339.3 26.9004 338.6 26.9004 338.1 26.9004C337.6 27.1004 337.3 27.3004 337.3 27.4004Z" fill="#333333"/>
<path d="M327.6 25.8008C327.7 26.1008 328.5 26.0008 329.4 26.2008C330.3 26.4008 330.9 26.8008 331.2 26.6008C331.3 26.5008 331.3 26.2008 331 25.9008C330.7 25.6008 330.3 25.3008 329.7 25.1008C329.1 25.0008 328.5 25.0008 328.2 25.2008C327.7 25.4008 327.6 25.7008 327.6 25.8008Z" fill="#333333"/>
<path d="M328 41.4004C328 41.4004 331 46.0004 335.1 42.6004" stroke="#333333" stroke-miterlimit="10" stroke-linecap="round" stroke-linejoin="round"/>
<path d="M330.5 18.7008C330.5 18.7008 331.6 21.2008 333.6 20.4008C335.6 19.6008 335.2 18.4008 335.2 18.4008C335.2 18.4008 335.5 20.7008 337.7 20.6008C339.9 20.4008 339.7 19.0008 339.7 19.0008C339.7 19.0008 339.6 21.6008 341.9 21.3008C344.2 21.1008 344.2 21.1008 344.2 21.1008C344.2 21.1008 344 22.1008 344.9 22.7008C345.8 23.3008 347.1 22.7008 347.1 22.7008C347.1 22.7008 346.3 25.0008 347.1 25.6008C347.9 26.3008 349.3 26.6008 349.3 26.6008C349.3 26.6008 347.8 28.1008 348.4 29.2008C349 30.3008 350.5 30.5008 350.5 30.5008C350.5 30.5008 349.2 31.3008 349.3 32.4008C349.4 33.5008 350.2 34.3008 350.2 34.3008C350.2 34.3008 349 35.6008 349.5 36.6008C349.5 36.6008 348.3 37.5008 348.9 38.2008C348.9 38.2008 347.6 39.1008 348.1 40.5008C348.6 41.8008 346.3 43.2008 346.8 44.8008C347.3 46.5008 347.5 47.0008 347.5 47.0008L351.7 41.8008L354.8 28.4008L349.3 19.2008L345.1 16.0008L336.5 13.8008L331.2 15.6008L330.5 18.7008Z" fill="#333333"/>
<path d="M348.2 33.5001C348.2 33.5001 350 31.2001 352.2 33.2001C354.4 35.1001 351 41.4001 348 39.7001" fill="#919191"/>
<path d="M348.2 33.5001C348.2 33.5001 350 31.2001 352.2 33.2001C354.4 35.1001 351 41.4001 348 39.7001" stroke="#333333" stroke-miterlimit="10" stroke-linecap="round" stroke-linejoin="round"/>
</svg>
